<?xml version="1.0" encoding="utf-8"?>
<!-- Generator: Adobe Illustrator 23.0.2, SVG Export Plug-In . SVG Version: 6.00 Build 0)  -->
<svg version="1.1" id="Layer_1" xmlns="http://www.w3.org/2000/svg" xmlns:xlink="http://www.w3.org/1999/xlink" x="0px" y="0px"
	 viewBox="0 0 120 120" style="enable-background:new 0 0 120 120;" xml:space="preserve">
<style type="text/css">
	.st0{fill:#76777A;}
	.st1{fill:#D7282F;}
</style>
<title>Asset 8</title>
<g>
	<g id="Layer_1-2">
		<path class="st0" d="M14.1,56.2c0.2,0,0.2,0.2,0.2,0.3c-0.2,0.9-0.3,1.4-0.4,2.4c0,0.1,0,0.2-0.1,0.2c-0.1,0-0.1,0.1-0.2,0.1
			c-1.1,0.1-1.6,0.2-2.7,0.3c-0.1,1.3-0.2,2.5-0.2,3.8c1.1,0.3,1.6,0.4,2.7,0.7c0.1,0,0.2,0.1,0.2,0.1c0.1,0.1,0.1,0.1,0.1,0.2
			c0,1,0,1.5,0.1,2.4c0,0.2-0.1,0.3-0.2,0.3h-0.1c-3.5-0.6-6.9-1.4-10.2-2.5c-0.4-0.1-0.7-0.3-1-0.6c-0.2-0.3-0.4-0.6-0.5-0.9
			c-0.1-0.4-0.2-0.7-0.2-1.1c0-0.4,0-0.8,0-1.2c0-0.4,0.1-0.8,0.1-1.2c0.1-0.4,0.2-0.7,0.3-1.1c0.2-0.3,0.4-0.6,0.7-0.8
			c0.3-0.2,0.6-0.4,1-0.5C7,56.7,10.5,56.3,14.1,56.2L14.1,56.2z M4,60.8c-0.1,0-0.1,0-0.2,0.1c0,0-0.1,0.1-0.1,0.2
			c0,0.1,0.1,0.3,0.2,0.3c1.8,0.6,2.6,0.9,4.4,1.4c0-1.2,0.1-1.8,0.2-2.9C6.7,60.1,5.8,60.3,4,60.8z"/>
		<path class="st0" d="M16.3,49.9c-0.1,0.3-0.1,0.5-0.2,0.7c-0.1,0.2-0.1,0.4-0.2,0.7c-0.1,0.4-0.3,0.8-0.5,1.1
			c-0.2,0.3-0.4,0.5-0.7,0.7c-0.3,0.2-0.6,0.3-1,0.3c-0.5,0-1-0.1-1.4-0.2l-4.5-1.3c-0.3,0.6-0.4,0.9-0.6,1.5c0,0.1-0.1,0.2-0.2,0.3
			c-0.1,0.1-0.2,0.1-0.3,0.1l-1-0.2c-0.1,0-0.2-0.1-0.2-0.2c0-0.1,0-0.2,0-0.3c0.2-0.7,0.2-1,0.4-1.7l-1.3-0.3
			c-0.1,0-0.2-0.1-0.2-0.2c0-0.1,0-0.2,0-0.3C4.7,49.5,4.8,49,5,47.9v-0.1c0-0.1,0.1-0.2,0.2-0.3c0.1,0,0.2,0,0.2,0L7,48.2
			c0.2-0.7,0.3-1,0.6-1.6c0-0.1,0.1-0.2,0.2-0.2c0.1,0,0.2,0,0.3,0l1.2,0.5c0.1,0,0.1,0.1,0.2,0.2c0,0.1,0,0.2,0,0.3
			c-0.2,0.6-0.4,0.9-0.6,1.6l4.5,1.6c0.2,0.1,0.4,0.1,0.6,0.1c0.1,0,0.2-0.1,0.3-0.4c0.1-0.3,0.2-0.5,0.3-0.8s0.2-0.3,0.4-0.3
			l1.2,0.5C16.3,49.6,16.3,49.8,16.3,49.9z"/>
		<path class="st0" d="M18.1,45.7c0,0.1,0,0.2,0,0.3c-0.4,0.7-0.6,1.1-0.9,1.9c0,0.1-0.1,0.2-0.2,0.2c-0.1,0-0.2,0-0.3,0
			c-4.3-2-6.5-2.9-10.8-4.8c-0.1,0-0.1-0.1-0.2-0.2c0-0.1,0-0.2,0.1-0.3c0.5-1,0.7-1.5,1.2-2.5c0-0.1,0.1-0.2,0.2-0.2
			c0.1,0,0.2,0,0.3,0c4.2,2.2,6.3,3.3,10.4,5.6C18,45.6,18.1,45.6,18.1,45.7z"/>
		<path class="st0" d="M23.8,37.8c0,0.1,0,0.2-0.1,0.3c-0.5,0.6-0.8,0.9-1.3,1.5c-0.1,0.1-0.1,0.1-0.2,0.1c-0.1,0-0.2,0-0.3-0.1
			l-0.2-0.2c-0.1,0.9-0.4,1.7-0.9,2.3c-0.2,0.3-0.5,0.6-0.7,0.8c-0.3,0.2-0.6,0.4-0.9,0.5c-0.4,0.1-0.7,0.2-1.1,0.1
			c-0.5-0.1-0.9-0.2-1.3-0.5l-0.1-0.1c-0.8-0.4-1.2-1.2-1.2-2c0.2-1.3,0.7-2.4,1.6-3.4l0.7-0.8l-0.5-0.4c-0.3-0.3-0.6-0.4-1-0.3
			c-0.3,0.2-0.6,0.4-0.9,0.8l-0.6,0.8c-0.2,0.3-0.4,0.5-0.5,0.8L13.9,39c-0.1,0.2-0.2,0.4-0.3,0.5l-0.1,0.1c0,0.1-0.1,0.1-0.2,0.2
			c-0.1,0-0.2,0-0.3,0l-1.1-0.7c-0.2-0.1-0.2-0.3-0.1-0.5c0.2-0.5,0.4-1,0.7-1.5c0.3-0.6,0.7-1.2,1.1-1.8c0.4-0.6,0.9-1.1,1.4-1.5
			c0.4-0.4,0.9-0.6,1.5-0.8c0.5-0.1,1-0.1,1.4,0c0.5,0.1,1,0.4,1.4,0.8c1.7,1.6,2.6,2.4,4.3,3.9C23.7,37.8,23.7,37.8,23.8,37.8z
			 M19,37.4c-0.3,0.3-0.4,0.5-0.7,0.8c-0.3,0.3-0.5,0.8-0.6,1.2c0.1,0.3,0.2,0.6,0.5,0.8l0.1,0.1c0.3,0.2,0.5,0.3,0.7,0.2
			c0.3-0.2,0.5-0.4,0.6-0.6c0.2-0.2,0.3-0.4,0.4-0.7c0.1-0.2,0.2-0.5,0.2-0.7L19,37.4z"/>
		<path class="st0" d="M29.4,29.8c0.2,0.3,0.3,0.6,0.4,1c0.1,0.4,0,0.8-0.1,1.1c-0.1,0.4-0.4,0.8-0.6,1.2c-0.3,0.5-0.7,0.9-1.2,1.2
			l-0.6,0.5l-0.7,0.5l-0.7,0.5c-0.2,0.2-0.4,0.3-0.6,0.4c-0.1,0.1-0.4,0.1-0.5,0l-0.9-0.9c-0.1-0.1-0.1-0.1-0.1-0.2
			c0-0.1,0-0.2,0.1-0.3H24l0.7-0.5l0.7-0.5l0.7-0.5l0.5-0.4c0.3-0.2,0.5-0.4,0.6-0.7c0-0.2,0-0.4-0.1-0.5c-0.1-0.1-0.2-0.2-0.3-0.2
			c-0.2,0-0.4,0-0.7,0.1c-1.1,0.3-1.6,0.4-2.7,0.7c-0.5,0.2-1.1,0.2-1.6,0.1c-0.5-0.1-1-0.3-1.3-0.7c-0.6-0.5-0.8-1.3-0.5-2.1
			c0.4-1.1,1.1-2,2.1-2.7c0.6-0.5,1.2-0.9,1.8-1.3c0.5-0.3,1-0.5,1.6-0.8c0.3-0.1,0.5-0.1,0.6,0.1l0.8,1.1c0.1,0.2,0.1,0.3-0.1,0.5
			h0l-0.6,0.3l-0.9,0.4c-0.3,0.2-0.6,0.4-0.8,0.6c-0.3,0.2-0.5,0.3-0.7,0.5c-0.2,0.2-0.4,0.4-0.6,0.6c-0.1,0.1-0.1,0.3,0,0.4
			c0.1,0.1,0.2,0.1,0.3,0.1c0.2,0,0.4,0,0.5-0.1c1.1-0.3,1.6-0.4,2.7-0.6c0.4-0.1,0.8-0.1,1.2-0.1c0.3,0,0.6,0.1,0.9,0.2
			c0.2,0.1,0.4,0.2,0.6,0.4C29.1,29.4,29.3,29.6,29.4,29.8z"/>
		<path class="st1" d="M108.2,99.4c-0.2,0-0.4-0.1-0.6-0.2c-0.6-0.4-0.7-1.1-0.4-1.7c18-27.8,10.1-65-17.7-83s-65-10.1-83,17.7
			c-1.2,1.9-2.3,3.8-3.3,5.8c-0.3,0.6-1,0.8-1.6,0.5c-0.6-0.3-0.8-1-0.5-1.6c0,0,0,0,0,0C16.7,6.2,54.3-6,85,9.7
			s42.9,53.2,27.3,83.9c-0.9,1.8-1.9,3.6-3,5.3C109,99.2,108.6,99.4,108.2,99.4z"/>
		<path class="st1" d="M56.4,100c-19.2,0-34.7-15.6-34.7-34.8c0-11.4,5.6-22.2,15.1-28.6c0.6-0.4,1.3-0.2,1.7,0.3s0.2,1.3-0.3,1.7
			c-14.7,10.1-18.5,30.2-8.4,44.9s30.2,18.5,44.9,8.4c4.4-3,8-7.1,10.5-11.9c0.3-0.6,1-0.8,1.6-0.5s0.8,1,0.5,1.6
			C81.3,92.8,69.4,100.1,56.4,100z"/>
		<path class="st0" d="M56.5,107.7c-20,0-37.3-14.1-41.4-33.7c-0.2-0.6,0.2-1.3,0.8-1.5c0.6-0.2,1.3,0.2,1.5,0.8c0,0.1,0,0.1,0,0.2
			c4.4,21.5,25.5,35.4,47,31s35.4-25.5,31-47c-2.4-11.5-9.7-21.4-20-27c-0.6-0.3-0.9-1-0.6-1.6c0.3-0.6,1-0.9,1.6-0.6
			c0.1,0,0.1,0.1,0.2,0.1c20.5,11.2,28,36.8,16.9,57.3C86.2,99.2,71.9,107.7,56.5,107.7z"/>
		<path class="st1" d="M56.5,114.3c-9.5,0-18.8-2.7-26.7-7.9c-0.5-0.4-0.5-1.2-0.1-1.7c0.4-0.4,0.9-0.5,1.4-0.3
			c21.5,14,50.3,7.9,64.3-13.6s7.9-50.3-13.6-64.3C74.3,21.6,65.5,19,56.5,19c-2.3,0-4.7,0.2-7,0.5c-0.7,0.1-1.3-0.4-1.4-1
			c-0.1-0.7,0.4-1.3,1-1.4C75.8,13,100.8,31.3,104.9,58c4.1,26.7-14.2,51.6-40.8,55.7C61.5,114.1,59,114.3,56.5,114.3L56.5,114.3z"
			/>
		<path class="st0" d="M77,117.1c-0.7,0-1.2-0.5-1.2-1.2c0-0.5,0.3-1,0.8-1.1c27.2-11.1,40.3-42.3,29.1-69.5S63.4,5,36.1,16.2
			c-2.2,0.9-4.4,2-6.5,3.2c-0.6,0.3-1.3,0.1-1.6-0.4s-0.1-1.3,0.4-1.6C55.1,1.9,89.2,11,104.6,37.6s6.3,60.7-20.3,76.1
			c-2.2,1.3-4.5,2.4-6.8,3.3C77.3,117.1,77.1,117.1,77,117.1z"/>
		<path class="st1" d="M70,47.6H42.9c-1.9,0-3.5,1.6-3.5,3.5V63c0,0.2,0.1,0.3,0.3,0.3c0,0,0,0,0,0l1.2-0.5c0.2-0.1,0.3-0.1,0.3-0.3
			v-2.7h34v11.9c0,0.9-0.7,1.7-1.7,1.7H48c-3.7,0-6.7-2.9-6.8-6.6c0-0.2-0.1-0.3-0.3-0.3L39.7,67c-0.2,0.1-0.3,0.2-0.3,0.4
			c0.2,4.6,4,7.8,8.7,7.8h25.5c1.9,0,3.5-1.6,3.5-3.5V54.7C77.1,50.7,73.9,47.6,70,47.6 M41.2,54.9v-3.8c0-0.9,0.8-1.7,1.7-1.7
			c0,0,0,0,0.1,0H70c2.9,0,5.3,2.4,5.3,5.3v0.2H41.2z"/>
		<path class="st1" d="M72.2,66.2h-8c-0.4,0-0.7-0.3-0.7-0.6c0,0,0,0,0,0c0-0.4,0.3-0.7,0.7-0.7h8c0.4,0,0.7,0.3,0.7,0.7
			C72.9,65.9,72.6,66.2,72.2,66.2C72.2,66.2,72.2,66.2,72.2,66.2"/>
		<path class="st1" d="M72.2,69.7H61.5c-0.4,0-0.7-0.3-0.7-0.7c0-0.4,0.3-0.7,0.7-0.7h10.7c0.4,0,0.7,0.3,0.7,0.7
			C72.9,69.4,72.6,69.7,72.2,69.7"/>
	</g>
</g>
</svg>
