<?xml version="1.0" encoding="utf-8"?>
<!-- Generator: Adobe Illustrator 23.0.2, SVG Export Plug-In . SVG Version: 6.00 Build 0)  -->
<svg version="1.1" id="Layer_1" xmlns="http://www.w3.org/2000/svg" xmlns:xlink="http://www.w3.org/1999/xlink" x="0px" y="0px"
	 viewBox="0 0 120 120" style="enable-background:new 0 0 120 120;" xml:space="preserve">
<style type="text/css">
	.st0{fill:#76777A;}
	.st1{fill:#D7282F;}
	.st2{fill-rule:evenodd;clip-rule:evenodd;fill:#D7282F;}
</style>
<title>Asset 7</title>
<g>
	<g id="Layer_1-2">
		<path class="st0" d="M19.9,49.3c0.2,0,0.2,0.1,0.2,0.3c-0.2,0.9-0.2,1.3-0.4,2.2c0,0.1,0,0.2-0.1,0.2c-0.1,0-0.1,0.1-0.2,0.1
			c-1,0.1-1.5,0.2-2.5,0.3c-0.1,1.2-0.2,2.3-0.2,3.5c1,0.3,1.5,0.4,2.5,0.6c0.1,0,0.1,0.1,0.2,0.1c0,0.1,0.1,0.1,0.1,0.2
			c0,0.9,0,1.3,0.1,2.2c0,0.2-0.1,0.3-0.2,0.3h-0.1c-3.2-0.5-6.3-1.3-9.4-2.2c-0.3-0.1-0.6-0.3-0.9-0.5c-0.2-0.3-0.4-0.6-0.5-0.9
			c-0.1-0.3-0.2-0.7-0.2-1c0-0.4,0-0.7,0-1.1c0-0.4,0.1-0.7,0.1-1.1c0.1-0.3,0.2-0.7,0.3-1C8.8,51.3,9,51,9.2,50.8
			c0.3-0.2,0.6-0.4,0.9-0.4C13.3,49.7,16.6,49.4,19.9,49.3L19.9,49.3z M10.6,53.5c-0.1,0-0.1,0-0.2,0.1c0,0-0.1,0.1-0.1,0.2
			c0,0.1,0.1,0.3,0.2,0.3c1.6,0.6,2.4,0.8,4.1,1.3c0-1.1,0.1-1.6,0.2-2.7C13.1,52.9,12.2,53.1,10.6,53.5z"/>
		<path class="st0" d="M21.9,43.4c-0.1,0.2-0.1,0.4-0.1,0.6c-0.1,0.2-0.1,0.4-0.2,0.6c-0.1,0.4-0.3,0.7-0.5,1
			c-0.1,0.3-0.4,0.5-0.6,0.7c-0.3,0.2-0.6,0.3-0.9,0.3c-0.4,0-0.8,0-1.2-0.1l-4.2-1.2c-0.2,0.6-0.4,0.8-0.6,1.4
			c0,0.1-0.1,0.2-0.2,0.2c-0.1,0.1-0.1,0.1-0.2,0.1l-1-0.2c-0.1,0-0.2-0.1-0.2-0.2c0-0.1,0-0.2,0-0.3c0.1-0.6,0.2-0.9,0.4-1.5
			l-1.2-0.3c-0.1,0-0.1-0.1-0.2-0.2c0-0.1,0-0.2,0-0.3c0.1-1,0.2-1.5,0.4-2.4v-0.1c0-0.1,0.1-0.2,0.1-0.2c0.1,0,0.1,0,0.2,0l1.5,0.5
			c0.2-0.6,0.3-0.9,0.6-1.5c0-0.1,0.1-0.2,0.2-0.2c0.1,0,0.2,0,0.2,0l1.1,0.5c0.1,0,0.1,0.1,0.2,0.2c0,0.1,0,0.2,0,0.3
			c-0.2,0.6-0.3,0.9-0.5,1.4c1.7,0.6,2.5,0.8,4.1,1.4c0.2,0.1,0.4,0.1,0.6,0.1c0.1,0,0.2-0.2,0.3-0.4c0.1-0.2,0.2-0.5,0.3-0.8
			s0.2-0.3,0.4-0.2l1.1,0.4C21.9,43.1,22,43.2,21.9,43.4z"/>
		<path class="st0" d="M23.6,39.5c0,0.1,0,0.2,0,0.2c-0.4,0.7-0.5,1-0.9,1.7c0,0.1-0.1,0.1-0.2,0.2c-0.1,0-0.2,0-0.2,0
			c-4-1.8-6-2.7-10-4.4c-0.1,0-0.1-0.1-0.1-0.2c0-0.1,0-0.2,0-0.3c0.4-0.9,0.7-1.4,1.1-2.3c0-0.1,0.1-0.2,0.2-0.2c0.1,0,0.2,0,0.2,0
			c3.9,2,5.8,3.1,9.6,5.2C23.5,39.4,23.6,39.5,23.6,39.5z"/>
		<path class="st0" d="M28.8,32.3c0,0.1,0,0.2-0.1,0.2c-0.5,0.5-0.7,0.8-1.2,1.3c-0.1,0.1-0.1,0.1-0.2,0.1c-0.1,0-0.2,0-0.2-0.1
			l-0.2-0.1c-0.1,0.8-0.3,1.5-0.8,2.2c-0.2,0.3-0.4,0.5-0.7,0.8c-0.2,0.2-0.5,0.4-0.8,0.5c-0.3,0.1-0.7,0.1-1,0.1
			c-0.4-0.1-0.8-0.2-1.2-0.4l-0.1-0.1c-0.7-0.3-1.1-1.1-1.1-1.8c0.2-1.2,0.7-2.2,1.4-3.1l0.6-0.8l-0.4-0.3c-0.2-0.2-0.6-0.3-0.9-0.2
			c-0.3,0.2-0.6,0.4-0.8,0.7L20.6,32c-0.2,0.2-0.3,0.5-0.5,0.7c-0.2,0.2-0.3,0.5-0.4,0.7l-0.3,0.5l-0.1,0.1c0,0.1-0.1,0.1-0.2,0.2
			c-0.1,0-0.2,0-0.2,0l-1-0.6c-0.1-0.1-0.2-0.2-0.1-0.5c0.2-0.5,0.4-0.9,0.6-1.3c0.3-0.6,0.6-1.1,1-1.6c0.4-0.5,0.8-1,1.3-1.4
			c0.4-0.3,0.9-0.6,1.3-0.8c0.4-0.1,0.9-0.1,1.3,0c0.5,0.1,0.9,0.4,1.2,0.7c1.6,1.4,2.4,2.2,4,3.6C28.7,32.2,28.8,32.3,28.8,32.3z
			 M24.4,31.9c-0.3,0.3-0.4,0.5-0.6,0.8c-0.3,0.3-0.5,0.7-0.5,1.1c0,0.3,0.2,0.6,0.5,0.7l0.1,0.1c0.3,0.2,0.5,0.2,0.7,0.1
			c0.2-0.1,0.4-0.3,0.6-0.6c0.1-0.2,0.3-0.4,0.4-0.6c0.1-0.2,0.2-0.4,0.2-0.7L24.4,31.9z"/>
		<path class="st0" d="M34.1,24.9c0.2,0.3,0.3,0.6,0.4,0.9c0,0.3,0,0.7-0.1,1c-0.1,0.4-0.3,0.8-0.6,1.1c-0.3,0.4-0.7,0.8-1.1,1.1
			l-0.6,0.4l-0.6,0.5l-0.6,0.4c-0.2,0.1-0.4,0.3-0.6,0.4c-0.1,0.1-0.3,0.1-0.5,0l-0.8-0.9c-0.1-0.1-0.1-0.1-0.1-0.2
			c0-0.1,0.1-0.2,0.1-0.2h0c0.2-0.1,0.4-0.3,0.6-0.5l0.7-0.5l0.6-0.5l0.4-0.3c0.2-0.2,0.4-0.4,0.6-0.6c0-0.2,0-0.3-0.1-0.5
			c-0.1-0.1-0.2-0.2-0.3-0.2c-0.2,0-0.4,0-0.6,0.1c-1,0.2-1.5,0.4-2.5,0.6c-0.5,0.2-1,0.2-1.5,0.1c-0.5-0.1-0.9-0.3-1.2-0.6
			c-0.5-0.5-0.7-1.2-0.5-1.9c0.4-1,1.1-1.8,1.9-2.5c0.5-0.4,1.1-0.8,1.7-1.2c0.5-0.3,0.9-0.5,1.4-0.7c0.2-0.1,0.4-0.1,0.5,0.1l0.7,1
			c0.1,0.2,0.1,0.3-0.1,0.4h0l-0.5,0.3l-0.8,0.4c-0.3,0.2-0.5,0.3-0.8,0.5c-0.3,0.2-0.5,0.4-0.7,0.5c-0.2,0.2-0.4,0.3-0.6,0.6
			c-0.1,0.1-0.1,0.3,0,0.4c0.1,0.1,0.2,0.1,0.3,0.1c0.2,0,0.3-0.1,0.5-0.1c1-0.3,1.5-0.4,2.5-0.6c0.4-0.1,0.7-0.1,1.1-0.1
			c0.3,0,0.5,0.1,0.8,0.2c0.2,0.1,0.4,0.2,0.6,0.3C33.8,24.5,33.9,24.7,34.1,24.9z"/>
		<path class="st1" d="M106.8,89.1c-0.2,0-0.4-0.1-0.6-0.2c-0.5-0.3-0.7-1-0.4-1.5c16.7-25.7,9.3-60-16.3-76.6s-60-9.3-76.6,16.3
			c-1.1,1.7-2.1,3.5-3.1,5.4c-0.3,0.5-1,0.8-1.5,0.5c-0.5-0.3-0.8-0.9-0.5-1.5c0,0,0,0,0,0C22.3,3.1,57-8.2,85.3,6.3
			s39.6,49.1,25.2,77.5c-0.8,1.7-1.8,3.3-2.8,4.9C107.5,88.9,107.2,89.1,106.8,89.1z"/>
		<path class="st1" d="M58.9,89.7c-17.7,0-32.1-14.4-32.1-32.1c0-10.6,5.2-20.5,13.9-26.4c0.5-0.3,1.2-0.2,1.6,0.3
			c0.3,0.5,0.2,1.2-0.3,1.6C28.5,42.4,25,60.9,34.3,74.5s27.9,17.1,41.5,7.7c4.1-2.8,7.4-6.6,9.7-11c0.3-0.5,1-0.8,1.5-0.5
			c0.5,0.3,0.8,1,0.5,1.5C82,83,71,89.7,58.9,89.7z"/>
		<path class="st0" d="M59,96.8c-18.5,0-34.4-13-38.2-31.1c-0.2-0.6,0.2-1.2,0.7-1.4c0.6-0.2,1.2,0.2,1.4,0.7c0,0.1,0,0.1,0,0.2
			c4.1,19.9,23.5,32.7,43.4,28.6s32.7-23.5,28.6-43.4c-2.2-10.6-8.9-19.8-18.5-24.9C76,25.2,75.8,24.6,76,24s0.9-0.8,1.5-0.6
			c0.1,0,0.1,0.1,0.2,0.1c18.9,10.3,25.9,34,15.6,52.9C86.4,88.9,73.3,96.8,59,96.8z"/>
		<path class="st1" d="M59,102.9c-8.8,0-17.3-2.5-24.7-7.3c-0.5-0.4-0.5-1.1-0.1-1.6c0.3-0.4,0.9-0.5,1.3-0.3
			C55.4,106.6,82,101,94.9,81.2s7.3-46.4-12.5-59.3c-7-4.5-15.1-6.9-23.4-7c-2.2,0-4.3,0.2-6.5,0.5c-0.6,0.1-1.2-0.3-1.3-0.9
			c-0.1-0.6,0.3-1.2,0.9-1.3c24.6-3.8,47.7,13.1,51.5,37.7c3.8,24.6-13.1,47.7-37.7,51.5C63.7,102.7,61.4,102.9,59,102.9L59,102.9z"
			/>
		<path class="st0" d="M77.9,105.5c-0.6,0-1.1-0.5-1.1-1.1c0-0.5,0.3-0.9,0.7-1.1c25.1-10.3,37.2-39,26.9-64.2S65.4,2,40.2,12.3
			c-2.1,0.8-4,1.8-6,2.9c-0.5,0.3-1.2,0.1-1.5-0.4c-0.3-0.5-0.1-1.2,0.4-1.5c24.6-14.2,56-5.8,70.3,18.8s5.8,56-18.8,70.3
			c-2,1.2-4.1,2.2-6.3,3.1C78.2,105.5,78.1,105.5,77.9,105.5z"/>
		<path class="st1" d="M6.9,114.3c0.1,0.1,0.3,0.2,0.4,0.3c6.9,2.6,14.2,3.9,21.5,3.8c6,0,11.9-0.9,17.6-2.6
			c5.8-1.6,11.3-4.1,16.3-7.3c0.5-0.3,0.6-0.9,0.2-1.4c-0.3-0.5-0.9-0.6-1.4-0.3c0,0,0,0,0,0l0,0c-4.9,3.1-10.2,5.5-15.8,7
			c-5.5,1.6-11.3,2.5-17.1,2.5c-6.4,0-12.7-1-18.7-3c2.4-1.5,4.6-3.1,6.7-5c2.2-1.9,4-4.1,5.3-6.7c1.4-2.6,1.8-5.6,1-8.4
			c-0.2-0.5-0.7-0.8-1.3-0.7c-0.5,0.2-0.8,0.7-0.7,1.3c2.9,9.9-13.8,18.7-13.9,18.8c-0.4,0.2-0.6,0.6-0.5,1
			C6.7,113.9,6.7,114.1,6.9,114.3z"/>
		<path class="st1" d="M84.2,68.3c0,0-0.2-0.1-7.8-0.1c-7.6,0-7.7,0-7.7,0.1l-0.1,0.1v0.1c0,0.1,0,0.2-0.1,0.4c-2,0.4-4,0.5-6.1,0.4
			c-2,0.1-4.1-0.1-6.1-0.4l-0.1-0.4l0,0c0-0.2,0-0.2-2.5-0.2h-5.3c-7.6,0-7.8,0.1-7.8,0.1c-0.3,0.1-0.1,1.1,0.2,1.8
			c0.5,1.5,21.4,1.5,21.7,1.5s21,0,21.5-1.5C84.2,69.4,84.5,68.4,84.2,68.3z"/>
		<path class="st1" d="M44.6,62.7l0.1-0.1V44.3c0-1.2,1-2.1,2.1-2.1h31c1.2,0,2.1,1,2.1,2.1v18.3c0,1.2-1,2.1-2.1,2.2H46.7l-0.1,0.1
			c-0.3,0.5-0.3,1.1-0.1,1.6l0.1,0.1h31.2c2.2,0,4-1.8,4-4l0,0V44.3c0-2.2-1.8-4-4-4h-31c-2.2,0-4,1.8-4,4v18.3l0.1,0.1
			C43.5,63,44.1,63,44.6,62.7z"/>
		<path class="st1" d="M55.4,59.3c-3.5,0-6.4-2.9-6.4-6.4s2.9-6.4,6.4-6.4s6.4,2.9,6.4,6.4v0C61.8,56.4,58.9,59.3,55.4,59.3z
			 M55.4,47.4c-3,0-5.5,2.5-5.5,5.5s2.5,5.5,5.5,5.5s5.5-2.5,5.5-5.5l0,0C60.8,49.8,58.4,47.4,55.4,47.4L55.4,47.4z"/>
		<path class="st2" d="M58.9,52c-0.4-1.6-1.9-2.8-3.5-2.8c-0.2,0-0.5,0-0.7,0.1c-2,0.4-3.2,2.3-2.8,4.2c0.1,0.4,0.2,0.7,0.4,1
			c0,0.1,0,0.1,0,0.2c-0.2,0.6-0.3,1.1-0.5,1.7c0,0.1,0,0.1,0.1,0.1c0.6-0.2,1.2-0.3,1.8-0.5c0,0,0.1,0,0.1,0
			c0.7,0.4,1.6,0.5,2.4,0.3c2-0.4,3.2-2.3,2.9-4.3C58.9,52.1,58.9,52.1,58.9,52z M55.9,55.8c-0.1,0-0.3,0-0.4,0
			c-0.6,0-1.1-0.1-1.6-0.4c-0.1,0-0.1,0-0.2,0l-1,0.2c-0.1,0-0.1,0-0.1-0.1c0.1-0.3,0.2-0.6,0.3-0.9c0-0.1,0-0.1,0-0.2
			c-0.7-1-0.7-2.3,0-3.4c1-1.3,2.8-1.7,4.2-0.7c0.6,0.4,1,1.1,1.2,1.8c0.4,1.6-0.7,3.2-2.3,3.5C56,55.8,55.9,55.8,55.9,55.8
			L55.9,55.8z"/>
		<path class="st2" d="M56.3,54.5c-0.1,0-0.3,0-0.4-0.1c-0.8-0.2-1.5-0.7-2-1.4c-0.2-0.2-0.4-0.5-0.4-0.8c-0.1-0.3,0.1-0.7,0.3-0.9
			c0.1-0.1,0.3-0.1,0.5-0.1l0.1,0.1c0.1,0.3,0.2,0.5,0.3,0.7c0,0.1,0,0.1,0,0.2c-0.1,0.1-0.1,0.2-0.2,0.3c-0.1,0.1-0.1,0.1,0,0.2
			c0.3,0.5,0.7,0.8,1.2,1c0.1,0,0.1,0,0.2,0c0.1-0.1,0.2-0.2,0.3-0.3c0.1,0,0.1,0,0.2,0l0.5,0.2l0.1,0.1c0.2,0.1,0.2,0.1,0.2,0.3
			c0,0.4-0.3,0.6-0.6,0.7C56.5,54.6,56.4,54.6,56.3,54.5z"/>
		<path class="st1" d="M65.6,60.7v-2.9c-1.5-1.2-2.4-3-2.4-4.9c-0.3-3.8,2.6-7.2,6.4-7.4c3.8-0.3,7.2,2.6,7.4,6.4
			c0.3,3.8-2.6,7.2-6.4,7.4c-0.2,0-0.3,0-0.5,0c-0.6,0-1.2-0.1-1.8-0.2L65.6,60.7z M70.2,47.4c-3.2-0.1-5.9,2.4-6,5.5
			c0,1.7,0.8,3.3,2.2,4.3l0.2,0.1v1.8l1.7-0.9h0.2c0.6,0.2,1.1,0.2,1.7,0.2c3.1,0,5.6-2.5,5.6-5.6C75.7,49.8,73.2,47.3,70.2,47.4
			L70.2,47.4z"/>
		<polygon class="st1" points="70.8,55 69.1,53.3 65.9,55 69.5,51.2 71.2,53 74.3,51.2 		"/>
	</g>
</g>
</svg>
