<?xml version="1.0" encoding="utf-8"?>
<!-- Generator: Adobe Illustrator 23.0.2, SVG Export Plug-In . SVG Version: 6.00 Build 0)  -->
<svg version="1.1" id="Layer_1" xmlns="http://www.w3.org/2000/svg" xmlns:xlink="http://www.w3.org/1999/xlink" x="0px" y="0px"
	 viewBox="0 0 120 120" style="enable-background:new 0 0 120 120;" xml:space="preserve">
<style type="text/css">
	.st0{fill:#FF6B6B;}
</style>
<title>Asset 11</title>
<g>
	<g id="Layer_1-2">
		<path class="st0" d="M101.7,10.5H69.2c-0.3,0-0.7,0.1-0.9,0.3l-7.4,5.2c-0.5,0.4-1.3,0.4-1.8,0l-7.4-5.2c-0.2-0.2-0.6-0.3-0.9-0.3
			H18.3c-0.4,0-0.8,0.2-1,0.4C-4.8,34.5-3.6,71.6,20,93.7s60.7,20.9,82.8-2.7c21.1-22.5,21.1-57.5,0-80
			C102.5,10.7,102.1,10.5,101.7,10.5z M89.1,25.6c14,16.1,12.4,40.5-3.7,54.5s-40.5,12.4-54.5-3.7c-12.7-14.6-12.7-36.3,0-50.8
			c0.5-0.5,0.4-1.4-0.1-1.9l-12-12l39.4,28.2c1,0.8,2.5,0.8,3.5,0l39.4-28.2l-11.9,12C88.6,24.2,88.6,25,89.1,25.6z"/>
	</g>
</g>
</svg>
