<?xml version="1.0" encoding="utf-8"?>
<!-- Generator: Adobe Illustrator 23.0.2, SVG Export Plug-In . SVG Version: 6.00 Build 0)  -->
<svg version="1.1" id="Layer_1" xmlns="http://www.w3.org/2000/svg" xmlns:xlink="http://www.w3.org/1999/xlink" x="0px" y="0px"
	 viewBox="0 0 120 120" style="enable-background:new 0 0 120 120;" xml:space="preserve">
<style type="text/css">
	.st0{fill:#76777A;}
	.st1{fill:#D7282F;}
</style>
<title>Asset 9</title>
<g>
	<g id="Layer_1-2">
		<path class="st0" d="M14.2,55.9c0.2,0,0.2,0.2,0.2,0.3c-0.2,0.9-0.3,1.4-0.4,2.4c0,0.1-0.1,0.2-0.1,0.2c-0.1,0.1-0.1,0.1-0.2,0.1
			c-1.1,0.1-1.6,0.2-2.7,0.3c-0.2,1.3-0.2,2.5-0.2,3.8c1.1,0.3,1.6,0.4,2.7,0.7c0.2,0,0.3,0.2,0.3,0.4c0,1,0,1.5,0.1,2.4
			c0,0.2-0.1,0.3-0.2,0.3l0,0l0,0c-3.5-0.6-6.9-1.4-10.3-2.4c-0.4-0.1-0.7-0.3-1-0.5c-0.2-0.3-0.4-0.6-0.5-0.9
			c-0.1-0.4-0.2-0.7-0.2-1.1c0-0.4,0-0.8,0-1.2c0-0.4,0.1-0.8,0.1-1.2c0.1-0.4,0.2-0.8,0.3-1.1c0.2-0.3,0.4-0.6,0.7-0.8
			c0.3-0.2,0.6-0.4,1-0.5C7.1,56.4,10.6,56,14.2,55.9C14.2,55.9,14.2,55.9,14.2,55.9z M4.1,60.5c-0.1,0-0.1,0-0.2,0.1
			c0,0-0.1,0.1-0.1,0.2c0,0.2,0.1,0.3,0.2,0.3c1.8,0.6,2.7,0.9,4.4,1.4c0-1.2,0.1-1.8,0.2-2.9C6.9,59.9,5.9,60.1,4.1,60.5z"/>
		<path class="st0" d="M16.4,49.6c-0.1,0.3-0.1,0.5-0.2,0.7c-0.1,0.2-0.1,0.4-0.2,0.6c-0.1,0.4-0.3,0.8-0.5,1.1
			c-0.2,0.3-0.4,0.5-0.7,0.7c-0.3,0.2-0.6,0.3-1,0.3c-0.5,0-0.9-0.1-1.4-0.2l-4.6-1.2c-0.3,0.6-0.4,0.9-0.6,1.5
			c0,0.1-0.1,0.2-0.2,0.3c-0.1,0.1-0.2,0.1-0.3,0.1l-1-0.2c-0.1,0-0.2-0.1-0.2-0.2c0-0.1,0-0.2,0-0.3c0.2-0.7,0.3-1,0.4-1.7
			l-1.4-0.3c-0.1,0-0.1-0.1-0.2-0.2c0-0.1,0-0.2,0-0.3c0.2-1.1,0.3-1.6,0.5-2.7v-0.1c0-0.1,0.1-0.2,0.2-0.3c0.1,0,0.2,0,0.2,0
			l1.6,0.5c0.2-0.7,0.4-1,0.6-1.6c0-0.1,0.1-0.2,0.2-0.2c0.1,0,0.2,0,0.3,0l1.2,0.5c0.1,0,0.1,0.1,0.2,0.2c0,0.1,0,0.2,0,0.3
			c-0.2,0.6-0.4,0.9-0.6,1.6l4.5,1.6c0.2,0.1,0.4,0.1,0.6,0.1c0.1,0,0.2-0.2,0.3-0.4s0.2-0.5,0.3-0.8s0.2-0.3,0.4-0.3l1.2,0.5
			C16.4,49.2,16.5,49.4,16.4,49.6z"/>
		<path class="st0" d="M18.2,45.4c0,0.1,0,0.2,0,0.3c-0.4,0.7-0.6,1.1-0.9,1.9c0,0.1-0.1,0.2-0.2,0.2c-0.1,0-0.2,0-0.3,0
			c-4.3-1.9-6.5-2.9-10.8-4.8c-0.1,0-0.1-0.1-0.1-0.2c0-0.1,0-0.2,0-0.3c0.5-1,0.7-1.5,1.2-2.5c0-0.1,0.1-0.2,0.2-0.2
			c0.1,0,0.2,0,0.3,0c4.2,2.2,6.3,3.3,10.4,5.6C18.1,45.2,18.2,45.3,18.2,45.4z"/>
		<path class="st0" d="M23.9,37.6c0,0.1,0,0.2-0.1,0.2c-0.5,0.6-0.8,0.9-1.3,1.5c-0.1,0.1-0.1,0.1-0.2,0.1c-0.1,0-0.2,0-0.2-0.1
			l-0.2-0.2c0,0.4-0.1,0.8-0.2,1.2c-0.3,0.8-0.8,1.4-1.4,2c-0.3,0.2-0.6,0.4-0.9,0.5C19,43,18.6,43,18.2,43
			c-0.4-0.1-0.9-0.2-1.2-0.5l-0.1-0.1c-0.8-0.4-1.2-1.2-1.2-2c0.2-1.3,0.7-2.4,1.6-3.4c0.3-0.3,0.4-0.5,0.7-0.8l-0.5-0.4
			c-0.3-0.3-0.6-0.4-1-0.2c-0.3,0.2-0.6,0.4-0.9,0.8c-0.2,0.3-0.4,0.5-0.6,0.8s-0.4,0.5-0.5,0.8s-0.3,0.5-0.4,0.7l-0.3,0.5l-0.1,0.1
			c0,0.1-0.1,0.1-0.2,0.2c-0.1,0-0.2,0-0.3,0l-1.1-0.7c-0.2-0.1-0.2-0.3-0.1-0.5c0.2-0.5,0.4-1,0.7-1.5c0.3-0.6,0.7-1.2,1.1-1.8
			c0.4-0.6,0.9-1.1,1.4-1.5c0.4-0.4,0.9-0.6,1.5-0.8c0.5-0.1,1-0.2,1.4,0c0.5,0.1,1,0.4,1.4,0.8c1.7,1.6,2.6,2.4,4.3,3.9
			C23.8,37.4,23.9,37.5,23.9,37.6z M19.1,37.1c-0.3,0.3-0.4,0.5-0.7,0.8c-0.3,0.3-0.5,0.8-0.5,1.2c0,0.3,0.2,0.6,0.5,0.8l0.1,0.1
			c0.2,0.2,0.5,0.2,0.7,0.2c0.3-0.2,0.5-0.4,0.6-0.6c0.2-0.2,0.3-0.4,0.4-0.7c0.1-0.2,0.2-0.5,0.2-0.7L19.1,37.1z"/>
		<path class="st0" d="M29.6,29.5c0.4,0.6,0.5,1.4,0.3,2.2c-0.1,0.4-0.4,0.8-0.6,1.2c-0.4,0.4-0.8,0.8-1.2,1.2l-0.6,0.5
			c-0.2,0.2-0.4,0.3-0.7,0.5l-0.7,0.5c-0.2,0.2-0.4,0.3-0.6,0.4c-0.1,0.1-0.4,0.1-0.5,0l-0.9-1c-0.1-0.1-0.1-0.1-0.1-0.2
			c0-0.1,0.1-0.2,0.1-0.3l0,0c0.2-0.1,0.4-0.3,0.7-0.5l0.7-0.5l0.7-0.5l0.5-0.4c0.2-0.2,0.5-0.4,0.6-0.7c0-0.2,0-0.4-0.1-0.5
			c-0.1-0.1-0.2-0.2-0.3-0.2c-0.2,0-0.4,0-0.6,0.1c-1.1,0.2-1.6,0.4-2.7,0.7c-0.5,0.2-1.1,0.2-1.6,0.1c-0.5-0.1-1-0.3-1.3-0.7
			c-0.6-0.5-0.8-1.3-0.6-2.1c0.4-1.1,1.1-2,2.1-2.7c0.6-0.5,1.2-0.9,1.8-1.3c0.5-0.3,1-0.5,1.6-0.8c0.3-0.1,0.5-0.1,0.6,0.1l0.8,1.1
			c0.1,0.2,0.1,0.3-0.1,0.5h-0.1l-0.6,0.3L25.1,27c-0.3,0.2-0.6,0.4-0.8,0.6l-0.7,0.5c-0.2,0.2-0.4,0.4-0.6,0.6
			c-0.1,0.1-0.1,0.3,0.1,0.5c0.1,0.1,0.2,0.1,0.3,0.1c0.2,0,0.4,0,0.5-0.1c1.1-0.3,1.6-0.4,2.7-0.6c0.4-0.1,0.8-0.1,1.2-0.1
			c0.3,0,0.6,0.1,0.9,0.2c0.2,0.1,0.4,0.2,0.6,0.4C29.3,29.1,29.5,29.3,29.6,29.5z"/>
		<path class="st1" d="M108.5,99.2c-0.2,0-0.4-0.1-0.6-0.2c-0.6-0.4-0.7-1.1-0.4-1.7c17.7-28,9.3-65.1-18.7-82.9S23.6,5.2,5.9,33.2
			c-0.9,1.5-1.8,3-2.6,4.6c-0.3,0.6-1,0.9-1.6,0.7s-0.9-1-0.7-1.6c0-0.1,0.1-0.1,0.1-0.2C17.1,6.1,54.8-5.8,85.4,10.1
			s42.5,53.7,26.5,84.3c-0.8,1.5-1.6,2.9-2.4,4.3C109.3,99,108.9,99.2,108.5,99.2z"/>
		<path class="st1" d="M56.6,99.8c-19.2,0-34.8-15.6-34.8-34.8c0-11.5,5.6-22.2,15.1-28.7c0.6-0.4,1.3-0.2,1.7,0.3
			c0.4,0.6,0.2,1.3-0.3,1.7l0,0c-14.7,10.1-18.5,30.3-8.3,45s30.3,18.5,45,8.3c4.4-3,8-7.1,10.4-11.8c0.3-0.6,1.1-0.8,1.7-0.4
			c0.5,0.3,0.7,1,0.5,1.5C81.6,92.6,69.6,99.9,56.6,99.8z"/>
		<path class="st0" d="M56.7,107.5c-20.1,0-37.3-14.1-41.4-33.8c-0.1-0.7,0.3-1.3,0.9-1.4c0.7-0.1,1.3,0.3,1.4,1c0,0,0,0,0,0
			c4.4,21.6,25.5,35.5,47.1,31c21.6-4.4,35.5-25.5,31-47.1c-2.4-11.5-9.7-21.4-20.1-27c-0.6-0.4-0.7-1.1-0.4-1.7
			c0.3-0.5,1-0.7,1.6-0.5c20.5,11.2,28,36.9,16.9,57.4C86.3,99,72.1,107.4,56.7,107.5z"/>
		<path class="st1" d="M56.7,114.1c-9.5,0-18.8-2.8-26.7-7.9c-0.6-0.4-0.7-1.1-0.4-1.7c0.4-0.6,1.1-0.7,1.7-0.3
			c21.5,14,50.3,8,64.4-13.5s8-50.3-13.5-64.4c-7.6-4.9-16.4-7.6-25.4-7.6c-2.3,0-4.7,0.2-7,0.5c-0.6,0.2-1.3-0.1-1.6-0.7
			s0.1-1.3,0.7-1.6c0.2-0.1,0.3-0.1,0.5-0.1C76,12.8,101,31.1,105.1,57.8c4.1,26.7-14.2,51.7-40.9,55.8
			C61.7,114,59.2,114.2,56.7,114.1L56.7,114.1z"/>
		<path class="st0" d="M77.2,117c-0.7,0-1.2-0.5-1.2-1.2c0-0.5,0.3-1,0.8-1.1c27.3-11.1,40.4-42.2,29.3-69.5S63.8,4.7,36.5,15.8
			c-2.3,0.9-4.5,2-6.7,3.3c-0.6,0.3-1.3,0.1-1.6-0.4C27.9,18,28,17.3,28.6,17l0,0c26.7-15.4,60.8-6.3,76.2,20.4s6.3,60.8-20.4,76.2
			c-2.2,1.3-4.5,2.4-6.8,3.4C77.5,116.9,77.3,117,77.2,117z"/>
		<path class="st1" d="M50.8,46.1c2-1,4.2-1.5,6.4-1.3c0.5,0,1-0.4,1-0.9c0-0.5-0.4-1-0.9-1l0,0c-2.6-0.2-5.2,0.3-7.5,1.5
			c-2.5,1.4-4.5,3.6-5.7,6.2c-2.2,4.6-2.8,10.6-1.7,17c0.5,3.4,1.9,6.7,3.9,9.5c0.2,0.2,0.5,0.4,0.8,0.4c0.5,0,0.9-0.4,0.9-0.8
			c0-0.2,0-0.5-0.2-0.7c-1.9-2.6-3.1-5.6-3.5-8.7c-1.1-5.9-0.5-11.5,1.5-15.8C47,49.3,48.7,47.4,50.8,46.1z"/>
		<path class="st1" d="M73.9,75.3c-0.4-1-1.5-1.3-2.5-1.5c-0.5-0.1-0.9-0.2-1.3-0.4c-1.2-0.6-1.3-1.6-1.2-3.6c0-0.3,0-0.6,0.1-0.9
			c0.1-1.5,0.3-3.1,0.4-4.8c0.5-4.6,1.1-9.3-0.8-13.5c-0.3-0.6-0.6-1.1-0.9-1.7c-1.4-2.2-3.4-3.9-5.8-4.9L61.7,44
			c-0.2-0.1-0.5-0.1-0.7,0c-0.2,0.1-0.4,0.3-0.5,0.5c-0.1,0.2-0.1,0.5,0,0.7c0.1,0.2,0.3,0.4,0.5,0.5l0.2,0.1c2,0.8,3.7,2.3,4.9,4.1
			c0.3,0.5,0.6,1,0.8,1.5c1.8,3.8,1.2,8.3,0.7,12.5c-0.2,1.6-0.4,3.3-0.5,4.9c0,0.3,0,0.5-0.1,0.8c-0.1,1.8-0.3,4.3,2.3,5.5
			c0.5,0.2,1.1,0.4,1.7,0.5c0.4,0.1,0.8,0.2,1.1,0.3c-0.1,0.3-0.3,0.6-0.5,0.9c-1.8,2.5-5.6,4-8.5,4.6c-4.3,1-8.9,0-12.4-2.7
			c-0.4-0.3-1-0.2-1.3,0.3c-0.3,0.4-0.2,0.9,0.1,1.2c1.9,1.5,4.1,2.6,6.5,3.1c1.2,0.3,2.4,0.4,3.6,0.4c1.3,0,2.6-0.1,3.8-0.4
			c3.2-0.7,7.5-2.4,9.6-5.4C73.8,77.3,74.1,76.3,73.9,75.3z"/>
		<path class="st1" d="M52.8,60.7c-1,0-1.9,0.8-1.9,1.9v1c0,1,0.8,1.9,1.9,1.9c1,0,1.9-0.8,1.9-1.9v-1
			C54.7,61.6,53.8,60.7,52.8,60.7L52.8,60.7z M53.5,63.6c0,0.4-0.3,0.7-0.7,0.7c-0.4,0-0.7-0.3-0.7-0.7v-1c0-0.4,0.3-0.7,0.7-0.7
			c0.4,0,0.7,0.3,0.7,0.7V63.6z"/>
		<path class="st1" d="M54.7,60.3c0.3,0,0.6-0.3,0.6-0.6V59c0-0.6,0.4-1.2,0.8-1.2s0.8,0.5,0.8,1.2v0.7c0,0.3,0.3,0.6,0.6,0.6l0,0
			c0.3,0,0.6-0.3,0.6-0.6V59c0-1.1-0.9-2-2-2c-1.1,0-2,0.9-2,2v0.7C54.1,60,54.3,60.3,54.7,60.3L54.7,60.3z"/>
		<path class="st1" d="M47.7,60.3c0.3,0,0.6-0.3,0.6-0.6V59c0-0.6,0.4-1.2,0.8-1.2S50,58.4,50,59v0.7c0,0.3,0.3,0.6,0.7,0.5
			c0.3,0,0.5-0.2,0.5-0.5V59c0-1.1-0.9-2-2-2s-2,0.9-2,2v0.7C47.2,60,47.4,60.3,47.7,60.3z"/>
	</g>
</g>
</svg>
