<?xml version="1.0" encoding="utf-8"?>
<!-- Generator: Adobe Illustrator 23.0.2, SVG Export Plug-In . SVG Version: 6.00 Build 0)  -->
<svg version="1.1" id="Layer_1" xmlns="http://www.w3.org/2000/svg" xmlns:xlink="http://www.w3.org/1999/xlink" x="0px" y="0px"
	 viewBox="0 0 120 120" style="enable-background:new 0 0 120 120;" xml:space="preserve">
<style type="text/css">
	.st0{fill:#76777A;}
	.st1{fill:#D7282F;}
</style>
<title>Asset 13</title>
<g>
	<g id="Layer_1-2">
		<path class="st0" d="M14.8,56.6c0.2,0,0.2,0.1,0.2,0.3c-0.2,0.9-0.3,1.4-0.4,2.3c0,0.1,0,0.2-0.1,0.2c-0.1,0.1-0.1,0.1-0.2,0.1
			c-1,0.1-1.6,0.2-2.7,0.3c-0.2,1.2-0.2,2.5-0.2,3.7c1,0.3,1.6,0.4,2.6,0.6c0.1,0,0.2,0.1,0.2,0.1c0.1,0.1,0.1,0.1,0.1,0.2
			c0,1,0,1.4,0.1,2.4c0,0.2-0.1,0.3-0.2,0.3H14c-3.4-0.5-6.8-1.3-10-2.4c-0.4-0.1-0.7-0.3-0.9-0.6c-0.2-0.2-0.4-0.5-0.5-0.9
			c-0.1-0.4-0.2-0.7-0.2-1.1c0-0.4,0-0.8,0-1.2c0-0.4,0.1-0.8,0.1-1.1c0.1-0.4,0.2-0.7,0.3-1c0.2-0.3,0.4-0.6,0.6-0.8
			c0.3-0.2,0.7-0.4,1-0.4C7.9,57.1,11.3,56.7,14.8,56.6L14.8,56.6L14.8,56.6z M4.8,61.1c-0.1,0-0.1,0-0.2,0.1c0,0.1-0.1,0.1-0.1,0.2
			c0,0.1,0.1,0.3,0.2,0.3c1.7,0.6,2.6,0.9,4.4,1.4c0-1.2,0.1-1.7,0.2-2.9C7.5,60.5,6.6,60.7,4.8,61.1z"/>
		<path class="st0" d="M16.9,50.4c0,0.2-0.1,0.5-0.2,0.7s-0.1,0.4-0.2,0.6c-0.1,0.4-0.3,0.8-0.5,1.1c-0.2,0.3-0.4,0.5-0.6,0.7
			c-0.3,0.2-0.6,0.3-1,0.3c-0.5,0-0.9,0-1.4-0.2c-1.8-0.5-2.7-0.7-4.5-1.2C8.4,53,8.2,53.3,8,53.9c0,0.1-0.1,0.2-0.2,0.3
			c-0.1,0.1-0.2,0.1-0.2,0.1l-1-0.2c-0.1,0-0.2-0.1-0.2-0.2c0-0.1,0-0.2,0-0.3c0.1-0.7,0.2-1,0.4-1.6l-1.3-0.3
			c-0.1,0-0.1-0.1-0.2-0.2c0-0.1,0-0.2,0-0.3c0.2-1,0.2-1.6,0.5-2.6v-0.1c0-0.1,0.1-0.2,0.2-0.2c0.1,0,0.2,0,0.2,0l1.6,0.5
			c0.2-0.6,0.4-1,0.6-1.6c0-0.1,0.1-0.2,0.2-0.2c0.1,0,0.2,0,0.3,0l1.2,0.5c0.1,0,0.1,0.1,0.2,0.2c0,0.1,0,0.2,0,0.3
			c-0.2,0.6-0.4,0.9-0.6,1.5c1.8,0.6,2.6,0.9,4.4,1.5c0.2,0.1,0.4,0.1,0.6,0.1c0.1,0,0.2-0.2,0.3-0.4c0.1-0.2,0.2-0.5,0.3-0.8
			s0.2-0.3,0.4-0.2l1.1,0.5C16.9,50.1,17,50.3,16.9,50.4z"/>
		<path class="st0" d="M18.7,46.3c0,0.1,0,0.2,0,0.2c-0.4,0.7-0.6,1-0.9,1.8c0,0.1-0.1,0.1-0.2,0.2c-0.1,0-0.2,0-0.3,0
			c-4.2-1.9-6.3-2.9-10.6-4.7c-0.1-0.1-0.1-0.1-0.1-0.2c0-0.1,0-0.2,0-0.3c0.5-1,0.7-1.5,1.2-2.4c0.1-0.1,0.1-0.2,0.2-0.2
			c0.1,0,0.2,0,0.3,0c4.2,2.2,6.2,3.3,10.2,5.5C18.6,46.1,18.7,46.2,18.7,46.3z"/>
		<path class="st0" d="M24.3,38.6c0,0.1,0,0.2-0.1,0.2c-0.5,0.6-0.8,0.9-1.3,1.4c-0.1,0.1-0.1,0.1-0.2,0.1c-0.1,0-0.2,0-0.2-0.1
			l-0.2-0.2c0,0.4-0.1,0.8-0.2,1.2c-0.2,0.4-0.4,0.8-0.6,1.2c-0.2,0.3-0.5,0.6-0.7,0.8c-0.3,0.2-0.6,0.4-0.9,0.5
			c-0.3,0.1-0.7,0.2-1,0.1c-0.4-0.1-0.9-0.2-1.3-0.5l-0.1-0.1c-0.8-0.4-1.2-1.2-1.2-2c0.2-1.2,0.7-2.4,1.5-3.3l0.6-0.8l-0.5-0.4
			c-0.2-0.3-0.6-0.4-0.9-0.2c-0.3,0.2-0.6,0.4-0.8,0.7l-0.6,0.8L15,39c-0.2,0.2-0.3,0.5-0.4,0.7l-0.3,0.5l-0.1,0.1
			c0,0.1-0.1,0.1-0.2,0.2c-0.1,0-0.2,0-0.2,0l-1.1-0.7c-0.2-0.1-0.2-0.3-0.1-0.5c0.2-0.5,0.4-1,0.6-1.4c0.3-0.6,0.7-1.2,1.1-1.7
			c0.4-0.6,0.9-1.1,1.4-1.5c0.4-0.4,0.9-0.6,1.4-0.8c0.5-0.1,0.9-0.1,1.4,0c0.5,0.1,1,0.4,1.3,0.8l4.2,3.9
			C24.2,38.4,24.2,38.5,24.3,38.6z M19.6,38.2c-0.3,0.3-0.4,0.5-0.7,0.8c-0.3,0.3-0.5,0.8-0.5,1.2c0,0.3,0.2,0.6,0.5,0.8l0.1,0.1
			c0.3,0.2,0.5,0.2,0.7,0.2c0.2-0.2,0.5-0.4,0.6-0.6c0.2-0.2,0.3-0.4,0.4-0.7c0.1-0.2,0.2-0.5,0.2-0.7L19.6,38.2z"/>
		<path class="st0" d="M29.9,30.7c0.2,0.3,0.3,0.7,0.4,1c0,0.4,0,0.7-0.1,1.1c-0.1,0.4-0.4,0.8-0.6,1.1c-0.3,0.4-0.7,0.8-1.2,1.2
			l-0.6,0.5l-0.7,0.5l-0.7,0.5c-0.2,0.1-0.4,0.3-0.6,0.4c-0.1,0.1-0.4,0.1-0.5,0L24.4,36c-0.1-0.1-0.1-0.2-0.1-0.3
			c0-0.1,0.1-0.2,0.1-0.2l0.1-0.1l0.7-0.5c0.2-0.2,0.5-0.4,0.7-0.5l0.6-0.5l0.5-0.4c0.3-0.2,0.5-0.4,0.6-0.7c0-0.2,0-0.4-0.1-0.5
			c-0.1-0.1-0.2-0.2-0.3-0.2c-0.2,0-0.4,0-0.6,0.1c-1,0.2-1.6,0.4-2.7,0.7c-0.5,0.2-1.1,0.2-1.6,0.1c-0.5-0.1-1-0.3-1.3-0.7
			c-0.6-0.5-0.8-1.3-0.5-2.1c0.4-1.1,1.1-2,2.1-2.6c1-0.8,2.1-1.5,3.3-2c0.2-0.1,0.4-0.1,0.5,0.1l0.7,1c0.1,0.2,0.1,0.3-0.1,0.5
			l-0.1,0.1c-0.1,0.1-0.3,0.2-0.6,0.3l-0.8,0.5c-0.3,0.2-0.6,0.4-0.8,0.6c-0.3,0.2-0.5,0.4-0.7,0.5c-0.2,0.2-0.4,0.4-0.6,0.6
			c-0.1,0.2,0,0.4,0.1,0.5c0.1,0,0.1,0.1,0.2,0c0.2,0,0.4,0,0.5-0.1c1-0.3,1.6-0.4,2.7-0.6c0.4-0.1,0.8-0.1,1.2-0.1
			c0.3,0,0.6,0.1,0.8,0.2c0.2,0.1,0.4,0.2,0.6,0.4C29.6,30.3,29.8,30.5,29.9,30.7z"/>
		<path class="st1" d="M107.2,99c-0.7,0-1.2-0.5-1.2-1.2c0-0.2,0.1-0.4,0.2-0.6c17.5-27.4,9.5-63.8-18-81.4s-63.8-9.5-81.4,18
			c-1,1.6-2,3.3-2.8,5c-0.2,0.6-0.8,1-1.5,0.8s-1-0.8-0.8-1.5c0-0.2,0.1-0.3,0.2-0.4C16.9,7.4,53.7-5.1,84.1,9.9
			s42.8,51.7,27.9,82.1c-1.1,2.2-2.3,4.4-3.7,6.5C108,98.8,107.6,99,107.2,99z"/>
		<path class="st1" d="M56.3,99.7c-18.8,0-34.1-15.3-34.1-34.1c0-11.2,5.5-21.8,14.8-28.1c0.5-0.4,1.3-0.2,1.7,0.3
			c0.4,0.5,0.2,1.3-0.3,1.6C23.9,49.3,20.2,69,30.1,83.5s29.7,18.1,44.1,8.2c4.3-3,7.9-7,10.3-11.7c0.3-0.6,1-0.8,1.6-0.5
			c0,0,0,0,0,0c0.6,0.3,0.8,1,0.5,1.6C80.8,92.5,69.1,99.7,56.3,99.7z"/>
		<path class="st0" d="M56.4,107.2c-19.7,0-36.6-13.9-40.6-33.1c-0.2-0.6,0.2-1.3,0.8-1.4c0.6-0.2,1.3,0.2,1.4,0.8c0,0,0,0.1,0,0.1
			c4.4,21.2,25,34.8,46.2,30.4c21.2-4.4,34.8-25,30.4-46.2c-2.3-11.3-9.5-21-19.7-26.5c-0.6-0.3-0.8-1-0.5-1.6c0,0,0,0,0,0
			c0.3-0.6,1-0.8,1.6-0.5c20.1,10.9,27.6,36.1,16.7,56.3C85.6,98.8,71.6,107.1,56.4,107.2L56.4,107.2z"/>
		<path class="st1" d="M56.4,113.7c-9.3,0-18.4-2.7-26.2-7.8c-0.5-0.4-0.7-1.1-0.3-1.6c0.4-0.5,1.1-0.7,1.6-0.3l0,0
			c21.1,13.8,49.4,7.8,63.1-13.3s7.8-49.4-13.3-63.1c-7.4-4.8-16.1-7.4-24.9-7.4c-2.3,0-4.6,0.2-6.9,0.5c-0.6,0.1-1.2-0.3-1.3-1
			c0,0,0,0,0,0c-0.1-0.7,0.4-1.3,1-1.3c0,0,0,0,0,0c26.2-4,50.7,14,54.7,40.2c4,26.2-14,50.7-40.2,54.7
			C61.3,113.5,58.9,113.7,56.4,113.7L56.4,113.7z"/>
		<path class="st0" d="M76.5,116.5c-0.5,0-0.9-0.3-1-0.7c-0.2-0.6,0-1.3,0.6-1.5c0,0,0,0,0,0c26.7-11,39.5-41.6,28.5-68.3
			S63.1,6.4,36.3,17.4c-2.1,0.9-4.2,1.9-6.2,3.1c-0.6,0.3-1.3,0.1-1.6-0.4c0,0,0,0,0,0c-0.3-0.6-0.1-1.3,0.4-1.6c0,0,0,0,0,0
			C55,3.2,88.5,12.1,103.7,38.2s6.3,59.6-19.9,74.8c-2.2,1.3-4.5,2.4-6.8,3.4C76.8,116.4,76.7,116.5,76.5,116.5z"/>
		<path class="st1" d="M58.6,48.1L58.6,48.1c-8.7,0-15.7,7-15.7,15.7s7,15.7,15.7,15.7c8.7,0,15.7-7,15.7-15.7
			C74.3,55.1,67.3,48.1,58.6,48.1C58.6,48.1,58.6,48.1,58.6,48.1L58.6,48.1z M63.3,77.4c1.9-2.1,3.3-4.7,3.9-7.5
			c0.7-0.2,1.4-0.4,2.2-0.7c1.2-0.5,2.3-1.1,3.3-2C71.4,72,67.9,75.8,63.3,77.4z M44.6,67.2c1,0.8,2.1,1.5,3.3,2
			c0.7,0.3,1.4,0.5,2.2,0.7c0.6,2.8,1.9,5.4,3.9,7.5C49.3,75.8,45.8,72,44.6,67.2z M53.9,50.2c-1.9,2.1-3.3,4.7-3.9,7.5
			c-0.7,0.2-1.4,0.5-2.2,0.7c-1.2,0.5-2.3,1.1-3.3,2C45.8,55.6,49.3,51.8,53.9,50.2z M72.6,60.3c-1-0.8-2.1-1.5-3.3-2
			c-0.7-0.3-1.4-0.5-2.2-0.7c-0.6-2.8-1.9-5.4-3.9-7.5C67.9,51.8,71.4,55.6,72.6,60.3z M66.5,63.8c0,1.7-0.2,3.4-0.5,5.1
			c-2.2,0.5-4.5,0.8-6.8,0.8V57.8c2.3,0,4.5,0.3,6.8,0.8C66.4,60.4,66.5,62.1,66.5,63.8z M50.7,63.8c0-1.7,0.2-3.4,0.5-5.1
			c2.2-0.5,4.5-0.8,6.8-0.8v11.8c-2.3,0-4.5-0.3-6.8-0.8C50.8,67.2,50.6,65.5,50.7,63.8z M59.2,49.5c2.8,0.4,5.2,3.5,6.4,7.8
			c-2.1-0.5-4.3-0.7-6.4-0.7V49.5z M57.9,56.5c-2.2,0-4.3,0.3-6.4,0.7c1.2-4.3,3.6-7.4,6.4-7.8V56.5z M57.9,71v7.1
			c-2.8-0.4-5.2-3.5-6.4-7.8C53.6,70.7,55.8,71,57.9,71L57.9,71z M59.2,71c2.2,0,4.3-0.3,6.4-0.7c-1.2,4.3-3.6,7.4-6.4,7.8L59.2,71z
			 M49.8,59.1c-0.5,3.1-0.5,6.3,0,9.4c-3.4-1-5.6-2.8-5.6-4.7S46.4,60.2,49.8,59.1z M67.4,68.4c0.5-3.1,0.5-6.3,0-9.4
			c3.4,1,5.5,2.8,5.5,4.7S70.8,67.4,67.4,68.4L67.4,68.4z"/>
	</g>
</g>
</svg>
