<?xml version="1.0" encoding="utf-8"?>
<!-- Generator: Adobe Illustrator 23.0.2, SVG Export Plug-In . SVG Version: 6.00 Build 0)  -->
<svg version="1.1" id="Layer_1" xmlns="http://www.w3.org/2000/svg" xmlns:xlink="http://www.w3.org/1999/xlink" x="0px" y="0px"
	 viewBox="0 0 120 120" style="enable-background:new 0 0 120 120;" xml:space="preserve">
<style type="text/css">
	.st0{fill:#76777A;}
	.st1{fill:#D7282F;}
</style>
<title>Asset 14</title>
<g>
	<g id="Layer_1-2">
		<path class="st0" d="M14.6,56.6c0.2,0,0.2,0.1,0.2,0.3c-0.2,0.9-0.3,1.4-0.4,2.3c0,0.1,0,0.2-0.1,0.2c-0.1,0.1-0.1,0.1-0.2,0.1
			c-1,0.1-1.6,0.2-2.7,0.3c-0.1,1.2-0.2,2.5-0.2,3.8c1,0.3,1.6,0.4,2.6,0.6c0.1,0,0.2,0.1,0.2,0.1c0.1,0.1,0.1,0.1,0.1,0.2
			c0,1,0,1.4,0.1,2.4c0,0.2-0.1,0.3-0.2,0.3h-0.1c-3.4-0.5-6.8-1.3-10.1-2.4c-0.4-0.1-0.7-0.3-0.9-0.6c-0.2-0.2-0.4-0.5-0.5-0.9
			c-0.1-0.4-0.2-0.7-0.2-1.1c-0.1-0.8,0-1.6,0.1-2.3c0.1-0.4,0.2-0.7,0.3-1c0.2-0.3,0.4-0.6,0.6-0.8c0.3-0.2,0.7-0.4,1-0.4
			C7.7,57.1,11.1,56.7,14.6,56.6L14.6,56.6L14.6,56.6z M4.7,61.1c-0.1,0-0.1,0-0.2,0.1c0,0.1-0.1,0.1-0.1,0.2c0,0.1,0.1,0.3,0.2,0.3
			C6.4,62.2,7.2,62.5,9,63c0-1.2,0.1-1.7,0.2-2.9C7.4,60.5,6.5,60.7,4.7,61.1z"/>
		<path class="st0" d="M16.8,50.4c-0.1,0.3-0.1,0.5-0.2,0.7c-0.1,0.2-0.1,0.4-0.2,0.6c-0.1,0.4-0.3,0.8-0.5,1.1
			c-0.3,0.6-0.9,1-1.6,1c-0.5,0-0.9-0.1-1.4-0.2l-4.5-1.2c-0.3,0.6-0.4,0.9-0.6,1.5c-0.1,0.1-0.1,0.2-0.2,0.3
			c-0.1,0.1-0.2,0.1-0.2,0.1l-1-0.2c-0.1,0-0.2-0.1-0.2-0.2c0-0.1,0-0.2,0-0.3c0.2-0.7,0.2-1,0.4-1.6l-1.3-0.3
			c-0.1,0-0.1-0.1-0.2-0.2c0-0.1,0-0.2,0-0.3c0.2-1,0.3-1.6,0.5-2.6v-0.1c0-0.1,0.1-0.2,0.2-0.2c0.1,0,0.2,0,0.2,0l1.6,0.5
			c0.2-0.6,0.4-1,0.6-1.6c0-0.1,0.1-0.2,0.2-0.2c0.1,0,0.2,0,0.3,0l1.2,0.5c0.1,0,0.1,0.1,0.2,0.2c0,0.1,0,0.2,0,0.3
			c-0.2,0.6-0.4,0.9-0.6,1.5c1.8,0.6,2.6,0.9,4.4,1.5c0.2,0.1,0.4,0.1,0.6,0.1c0.1,0,0.2-0.2,0.3-0.4c0.1-0.3,0.2-0.5,0.3-0.8
			c0.1-0.3,0.2-0.3,0.4-0.2l1.1,0.5C16.8,50,16.8,50.1,16.8,50.4z"/>
		<path class="st0" d="M18.6,46.2c0,0.1,0,0.2,0,0.3c-0.4,0.7-0.6,1-0.9,1.8c0,0.1-0.1,0.1-0.2,0.2c-0.1,0-0.2,0-0.3,0
			c-4.2-1.9-6.4-2.9-10.6-4.7c-0.1,0-0.1-0.1-0.1-0.2c0-0.1,0-0.2,0-0.3c0.5-1,0.7-1.5,1.2-2.4c0.1-0.1,0.1-0.2,0.3-0.2
			c0.1,0,0.2,0,0.3,0c4.2,2.2,6.2,3.3,10.3,5.5C18.5,46.1,18.6,46.1,18.6,46.2z"/>
		<path class="st0" d="M24.1,38.5c0,0.1,0,0.2-0.1,0.2c-0.5,0.6-0.8,0.9-1.3,1.4c-0.1,0.1-0.1,0.1-0.2,0.1c-0.1,0-0.2,0-0.2-0.1
			l-0.2-0.2c0,0.4-0.1,0.8-0.2,1.2c-0.2,0.4-0.4,0.8-0.6,1.2c-0.2,0.3-0.5,0.6-0.7,0.8c-0.3,0.2-0.6,0.4-0.9,0.5
			c-0.3,0.1-0.7,0.2-1,0.1c-0.4-0.1-0.9-0.2-1.3-0.5l-0.1-0.1c-0.8-0.4-1.2-1.2-1.2-2c0.2-1.2,0.7-2.4,1.5-3.3
			c0.3-0.3,0.4-0.5,0.6-0.8l-0.5-0.4c-0.2-0.3-0.6-0.4-0.9-0.2c-0.3,0.2-0.6,0.4-0.8,0.8c-0.2,0.3-0.4,0.5-0.6,0.8l-0.5,0.8
			c-0.2,0.3-0.3,0.5-0.4,0.7l-0.3,0.5l-0.1,0.1c0,0.1-0.1,0.1-0.2,0.2c-0.1,0.1-0.2,0.1-0.2,0l-1.1-0.7c-0.2-0.1-0.2-0.3-0.1-0.5
			c0.2-0.5,0.4-1,0.6-1.4c0.3-0.6,0.7-1.2,1.1-1.7c0.4-0.6,0.9-1.1,1.4-1.5c0.4-0.4,0.9-0.6,1.4-0.8c0.5-0.1,0.9-0.1,1.4,0
			c0.5,0.1,1,0.4,1.3,0.8l4.2,3.9C24,38.4,24.1,38.4,24.1,38.5z M19.4,38.1c-0.3,0.3-0.4,0.5-0.7,0.8c-0.3,0.3-0.5,0.8-0.5,1.2
			c0,0.3,0.2,0.6,0.5,0.8l0.1,0.1c0.3,0.2,0.5,0.3,0.7,0.2c0.2-0.2,0.5-0.4,0.6-0.6c0.2-0.2,0.3-0.4,0.4-0.7
			c0.1-0.2,0.2-0.5,0.2-0.7L19.4,38.1z"/>
		<path class="st0" d="M29.8,30.6c0.2,0.3,0.3,0.7,0.4,1c0,0.4,0,0.7-0.1,1.1c-0.1,0.4-0.4,0.8-0.6,1.1c-0.3,0.4-0.7,0.8-1.2,1.2
			l-0.6,0.5c-0.2,0.2-0.4,0.3-0.7,0.5l-0.7,0.5c-0.2,0.1-0.4,0.3-0.6,0.4c-0.1,0.1-0.4,0.1-0.5,0l-0.9-0.9c-0.1-0.1-0.1-0.2-0.1-0.3
			c0-0.1,0.1-0.2,0.1-0.2l0.1-0.1l0.7-0.5l0.7-0.5l0.6-0.5l0.5-0.4c0.3-0.2,0.5-0.4,0.6-0.7c0.1-0.3-0.1-0.6-0.3-0.7
			c0,0-0.1,0-0.1,0c-0.2,0-0.4,0-0.6,0.1c-1,0.2-1.6,0.4-2.7,0.7c-0.5,0.2-1.1,0.2-1.6,0.1c-0.5-0.1-1-0.3-1.3-0.7
			c-0.6-0.5-0.8-1.3-0.6-2.1c0.4-1.1,1.1-2,2.1-2.6c1-0.8,2.1-1.5,3.3-2c0.3-0.1,0.4-0.1,0.5,0.1l0.7,1c0.1,0.2,0.1,0.3-0.1,0.5
			l-0.1,0.1l-0.6,0.3l-0.8,0.5c-0.3,0.2-0.6,0.4-0.8,0.6c-0.3,0.2-0.5,0.4-0.7,0.5c-0.2,0.2-0.4,0.4-0.6,0.6
			c-0.1,0.1-0.1,0.3,0.1,0.4c0.1,0.1,0.2,0.1,0.3,0.1c0.2,0,0.4,0,0.5-0.1c1-0.3,1.6-0.4,2.7-0.6c0.4-0.1,0.8-0.1,1.2-0.1
			c0.3,0,0.6,0.1,0.8,0.2c0.2,0.1,0.4,0.2,0.6,0.4C29.5,30.2,29.7,30.4,29.8,30.6z"/>
		<path class="st1" d="M107.4,99.2c-0.7,0-1.2-0.5-1.2-1.2c0-0.2,0.1-0.5,0.2-0.6c17.6-27.5,9.5-64.1-18-81.6s-64.1-9.5-81.6,18
			c-1,1.6-2,3.3-2.9,5c-0.2,0.6-0.8,1-1.5,0.8s-1-0.8-0.8-1.5c0-0.2,0.1-0.3,0.2-0.4c15-30.5,51.9-43,82.4-28s43,51.9,28,82.4
			c-1.1,2.2-2.3,4.4-3.7,6.5C108.2,99,107.8,99.2,107.4,99.2z"/>
		<path class="st1" d="M56.3,99.8c-18.9,0-34.2-15.3-34.2-34.3c0-11.3,5.6-21.8,14.9-28.2c0.5-0.4,1.3-0.2,1.7,0.3
			c0.4,0.5,0.2,1.3-0.3,1.6c-14.5,10-18.2,29.8-8.3,44.3s29.8,18.2,44.3,8.3c4.4-3,7.9-7,10.3-11.7c0.3-0.6,1-0.8,1.6-0.5
			c0,0,0,0,0,0c0.6,0.3,0.8,1,0.5,1.6C80.9,92.6,69.1,99.8,56.3,99.8z"/>
		<path class="st0" d="M56.4,107.3c-19.7,0-36.8-13.9-40.8-33.2c-0.2-0.6,0.2-1.3,0.9-1.5c0.6-0.2,1.3,0.2,1.5,0.9c0,0,0,0.1,0,0.1
			c4.4,21.2,25.1,34.9,46.4,30.5S99.2,79,94.8,57.8c-2.3-11.3-9.6-21.1-19.7-26.6c-0.6-0.3-0.8-1-0.5-1.6c0,0,0,0,0,0
			c0.3-0.6,1-0.8,1.6-0.5c20.2,11,27.7,36.2,16.7,56.4C85.7,98.9,71.6,107.3,56.4,107.3L56.4,107.3z"/>
		<path class="st1" d="M56.4,113.8c-9.3,0-18.5-2.7-26.3-7.8c-0.5-0.4-0.7-1.1-0.3-1.6c0.4-0.5,1.1-0.7,1.6-0.3l0,0
			c21.2,13.8,49.5,7.9,63.3-13.3s7.9-49.5-13.3-63.3c-7.4-4.9-16.1-7.4-25-7.4c-2.3,0-4.6,0.2-6.9,0.5c-0.6,0.1-1.2-0.3-1.4-1
			c0,0,0,0,0,0c-0.1-0.7,0.4-1.3,1-1.4c0,0,0,0,0,0c26.3-4,50.9,14,54.9,40.3c4,26.3-14,50.9-40.3,54.9
			C61.3,113.7,58.9,113.8,56.4,113.8L56.4,113.8z"/>
		<path class="st0" d="M76.6,116.6c-0.5,0-0.9-0.3-1-0.7c-0.2-0.6,0-1.3,0.6-1.5c0,0,0,0,0,0c26.8-11,39.6-41.7,28.6-68.5
			S63.1,6.2,36.2,17.2c-2.1,0.9-4.2,1.9-6.3,3.1c-0.6,0.3-1.3,0.1-1.6-0.4c0,0,0,0,0,0c-0.3-0.6-0.1-1.3,0.4-1.6c0,0,0,0,0,0
			C55,3,88.6,11.9,103.8,38.2s6.3,59.8-19.9,75c-2.2,1.3-4.5,2.4-6.9,3.4C76.9,116.6,76.7,116.6,76.6,116.6z"/>
		<path class="st1" d="M68.7,78.7H50.9c-1.9,0-3.5-1.6-3.5-3.5l0,0v-4.4c0-0.2,0.1-0.4,0.3-0.4L49,70c0.2-0.1,0.4,0,0.5,0.2
			c0,0,0,0.1,0,0.1v5c0,0.8,0.6,1.4,1.4,1.4h17.8c0.8,0,1.4-0.6,1.4-1.4V55.1c0-2.8-2.3-5.1-5.1-5.1H50.9c-0.8,0-1.4,0.6-1.4,1.4
			l0,0v13.6c0,0.2-0.1,0.4-0.3,0.5L47.9,66c-0.2,0.1-0.4,0-0.5-0.2c0,0,0-0.1,0-0.1V51.5c0-1.9,1.6-3.5,3.5-3.5H65
			c3.9,0,7.1,3.2,7.1,7.1v20.1C72.1,77.2,70.6,78.7,68.7,78.7L68.7,78.7"/>
		<rect x="52.5" y="53.2" class="st1" width="14.5" height="3.3"/>
		<rect x="52.5" y="59.2" class="st1" width="3.3" height="3.3"/>
		<rect x="58.1" y="59.2" class="st1" width="3.3" height="3.3"/>
		<rect x="63.7" y="59.2" class="st1" width="3.3" height="3.3"/>
		<rect x="52.5" y="65" class="st1" width="3.3" height="3.3"/>
		<rect x="58.1" y="65" class="st1" width="3.3" height="3.3"/>
		<rect x="52.5" y="71" class="st1" width="3.3" height="3.3"/>
		<rect x="58.1" y="71" class="st1" width="3.3" height="3.3"/>
		<rect x="63.7" y="65" class="st1" width="3.3" height="9.3"/>
	</g>
</g>
</svg>
