<?xml version="1.0" encoding="utf-8"?>
<!-- Generator: Adobe Illustrator 23.0.2, SVG Export Plug-In . SVG Version: 6.00 Build 0)  -->
<svg version="1.1" id="Layer_1" xmlns="http://www.w3.org/2000/svg" xmlns:xlink="http://www.w3.org/1999/xlink" x="0px" y="0px"
	 viewBox="0 0 120 120" style="enable-background:new 0 0 120 120;" xml:space="preserve">
<style type="text/css">
	.st0{fill:#76777A;}
	.st1{fill:#D7282F;}
	.st2{fill:#D9272E;}
</style>
<title>Asset 10</title>
<g>
	<g id="Layer_1-2">
		<path class="st0" d="M14.4,56c0.2,0,0.2,0.1,0.2,0.3c-0.2,1-0.3,1.4-0.4,2.4c0,0.1,0,0.2-0.1,0.2C14.1,59,14,59,13.9,59
			c-1.1,0.1-1.6,0.2-2.7,0.3c-0.2,1.3-0.2,2.5-0.2,3.8c1.1,0.3,1.6,0.4,2.6,0.7c0.1,0,0.2,0.1,0.2,0.1c0.1,0.1,0.1,0.1,0.1,0.2
			c0,1,0,1.5,0.1,2.4c0,0.2-0.1,0.3-0.2,0.3h-0.1c-3.4-0.6-6.8-1.4-10.2-2.4c-0.4-0.1-0.7-0.3-1-0.6C2.3,63.7,2.1,63.4,2,63
			c-0.1-0.4-0.2-0.8-0.2-1.1c0-0.4,0-0.8,0-1.2c0-0.4,0.1-0.8,0.1-1.2c0.1-0.3,0.2-0.7,0.3-1c0.2-0.3,0.4-0.6,0.6-0.8
			c0.3-0.2,0.6-0.4,1-0.4C7.4,56.5,10.9,56.1,14.4,56L14.4,56z M4.4,60.6c-0.1,0-0.1,0-0.2,0.1c0,0-0.1,0.1-0.1,0.2
			c0,0.1,0.1,0.3,0.2,0.3c1.8,0.6,2.6,0.9,4.4,1.4c0-1.2,0.1-1.7,0.2-2.9C7.1,59.9,6.2,60.2,4.4,60.6z"/>
		<path class="st0" d="M16.6,49.8c-0.1,0.3-0.1,0.5-0.2,0.7c0,0.2-0.1,0.4-0.2,0.6c-0.1,0.4-0.3,0.8-0.5,1.1
			c-0.2,0.3-0.4,0.5-0.7,0.7c-0.3,0.2-0.6,0.3-1,0.3c-0.5,0-1,0-1.4-0.2l-4.5-1.2c-0.3,0.6-0.4,0.9-0.6,1.5c0,0.1-0.1,0.2-0.2,0.3
			c-0.1,0.1-0.2,0.1-0.2,0.1l-1-0.2c-0.1,0-0.2-0.1-0.2-0.2c0-0.1,0-0.2,0-0.3c0.2-0.7,0.2-1,0.4-1.6L5,51c-0.1,0-0.1-0.1-0.2-0.2
			c0-0.1,0-0.2,0-0.3c0.2-1.1,0.3-1.6,0.5-2.6v-0.1c0-0.1,0.1-0.2,0.2-0.2c0.1,0,0.2,0,0.2,0l1.6,0.5c0.2-0.7,0.4-1,0.6-1.6
			c0-0.1,0.1-0.2,0.2-0.2c0.1,0,0.2,0,0.3,0l1.2,0.5c0.1,0,0.1,0.1,0.2,0.2c0,0.1,0,0.2,0,0.3c-0.2,0.6-0.4,0.9-0.6,1.6l4.5,1.5
			c0.2,0.1,0.4,0.1,0.6,0.1c0.1,0,0.2-0.2,0.3-0.4c0.1-0.3,0.2-0.5,0.3-0.8c0.1-0.3,0.2-0.3,0.4-0.2l1.2,0.5
			C16.6,49.5,16.6,49.6,16.6,49.8z"/>
		<path class="st0" d="M18.4,45.6c0,0.1,0,0.2,0,0.3c-0.4,0.7-0.6,1.1-1,1.9c0,0.1-0.1,0.1-0.2,0.2c-0.1,0-0.2,0-0.3,0
			c-4.3-2-6.4-2.9-10.7-4.8c-0.1,0-0.1-0.1-0.2-0.2c0-0.1,0-0.2,0-0.3c0.5-1,0.7-1.5,1.2-2.5c0-0.1,0.1-0.2,0.2-0.2
			c0.1,0,0.2,0,0.3,0c4.2,2.2,6.3,3.3,10.4,5.6C18.3,45.4,18.4,45.5,18.4,45.6z"/>
		<path class="st0" d="M24.1,37.8c0,0.1,0,0.2-0.1,0.2c-0.5,0.6-0.8,0.9-1.3,1.4c-0.1,0.1-0.1,0.1-0.2,0.1c-0.1,0-0.2,0-0.2-0.1
			L22,39.4c0,0.4-0.1,0.8-0.2,1.2c-0.1,0.4-0.4,0.8-0.6,1.2c-0.2,0.3-0.5,0.6-0.7,0.8c-0.3,0.2-0.6,0.4-0.9,0.5
			c-0.3,0.1-0.7,0.2-1.1,0.1c-0.5-0.1-0.9-0.2-1.3-0.5l-0.1-0.1c-0.8-0.4-1.2-1.2-1.2-2c0.2-1.2,0.7-2.4,1.5-3.4l0.7-0.8l-0.5-0.4
			c-0.3-0.3-0.6-0.3-1-0.2c-0.3,0.2-0.6,0.4-0.8,0.8l-0.6,0.8l-0.5,0.8c-0.2,0.3-0.3,0.5-0.4,0.7L14,39.4v0.1c0,0.1-0.1,0.1-0.2,0.2
			c-0.1,0-0.2,0-0.3,0L12.4,39c-0.2-0.1-0.2-0.3-0.1-0.5c0.2-0.5,0.4-1,0.7-1.5c0.3-0.6,0.7-1.2,1.1-1.8c0.4-0.6,0.9-1.1,1.4-1.5
			c0.4-0.4,0.9-0.6,1.5-0.8c0.5-0.1,0.9-0.2,1.4,0c0.5,0.1,1,0.4,1.3,0.8c1.7,1.6,2.6,2.4,4.3,3.9C24.1,37.6,24.1,37.7,24.1,37.8z
			 M19.3,37.4c-0.3,0.3-0.4,0.5-0.7,0.8c-0.3,0.3-0.5,0.8-0.5,1.2c0,0.3,0.2,0.6,0.5,0.8l0.1,0.1c0.3,0.2,0.5,0.2,0.7,0.1
			c0.3-0.1,0.5-0.3,0.6-0.6c0.2-0.2,0.3-0.4,0.4-0.7c0.1-0.2,0.2-0.5,0.2-0.7L19.3,37.4z"/>
		<path class="st0" d="M29.7,29.8c0.2,0.3,0.3,0.6,0.4,1c0.1,0.4,0,0.8-0.1,1.1c-0.1,0.4-0.4,0.8-0.6,1.2c-0.3,0.4-0.7,0.8-1.2,1.2
			c-0.2,0.2-0.4,0.3-0.6,0.5s-0.4,0.3-0.7,0.5l-0.7,0.5l-0.6,0.4c-0.1,0.1-0.4,0.1-0.5,0l-0.9-1c-0.1-0.1-0.1-0.1-0.1-0.2
			c0-0.1,0-0.2,0.1-0.2l0.1,0l0.7-0.5l0.7-0.5l0.7-0.5l0.5-0.4c0.3-0.2,0.5-0.4,0.6-0.7c0-0.2,0-0.4-0.1-0.5
			c-0.1-0.1-0.2-0.2-0.3-0.2c-0.2,0-0.4,0-0.7,0.1c-1.1,0.2-1.6,0.4-2.7,0.7c-0.5,0.2-1.1,0.2-1.6,0.2c-0.5-0.1-1-0.3-1.3-0.6
			c-0.6-0.5-0.8-1.3-0.5-2.1c0.4-1.1,1.1-2,2.1-2.7c0.6-0.5,1.1-0.9,1.8-1.2c0.5-0.3,1-0.6,1.6-0.8c0.3-0.1,0.4-0.1,0.6,0.1l0.7,1.1
			c0.1,0.2,0.1,0.3-0.1,0.5h-0.1L26,26.8l-0.8,0.5l-0.8,0.6c-0.3,0.2-0.5,0.4-0.7,0.5c-0.2,0.2-0.4,0.4-0.6,0.6
			c-0.1,0.2,0,0.4,0.1,0.5c0.1,0,0.1,0.1,0.2,0c0.2,0,0.4,0,0.5-0.1c1.1-0.3,1.6-0.4,2.7-0.6c0.4-0.1,0.8-0.1,1.2-0.1
			c0.3,0,0.6,0.1,0.9,0.2c0.2,0.1,0.4,0.2,0.6,0.4C29.4,29.4,29.6,29.6,29.7,29.8z"/>
		<path class="st1" d="M108.1,99c-0.7,0-1.2-0.6-1.2-1.2c0-0.2,0.1-0.4,0.2-0.6c17.3-28,8.7-64.8-19.4-82.1S23,6.4,5.6,34.4
			c-0.7,1.2-1.4,2.4-2.1,3.6c-0.3,0.6-1.1,0.8-1.6,0.4c-0.5-0.3-0.7-1-0.5-1.5C17.2,6.5,54.6-5.5,85.1,10.3s42.4,53.2,26.6,83.6
			c-0.8,1.6-1.7,3.1-2.6,4.6C108.9,98.8,108.5,99,108.1,99z"/>
		<path class="st1" d="M56.5,99.6C37.4,99.6,22,84.1,22,65.1c0-11.4,5.6-22,15-28.5c0.5-0.5,1.2-0.4,1.7,0.1
			c0.5,0.5,0.4,1.2-0.1,1.7c-0.1,0.1-0.2,0.1-0.3,0.2c-14.7,10-18.5,30.1-8.5,44.7c10,14.7,30.1,18.5,44.7,8.5
			c4.5-3,8.1-7.2,10.5-12c0.3-0.6,1-0.9,1.6-0.7c0.6,0.3,0.9,1,0.7,1.6c0,0.1-0.1,0.1-0.1,0.2C81.4,92.4,69.5,99.7,56.5,99.6z"/>
		<path class="st0" d="M56.6,107.2c-19.9,0-37.1-14-41.1-33.5c-0.1-0.6,0.3-1.3,0.9-1.4c0.6-0.1,1.3,0.3,1.4,0.9
			c4.4,21.4,25.3,35.2,46.8,30.8s35.2-25.3,30.8-46.8c-2.4-11.5-9.7-21.3-20-26.9c-0.6-0.3-0.8-1-0.5-1.6c0.3-0.6,1-0.8,1.6-0.5
			c0,0,0,0,0,0c20.4,11,28.1,36.4,17.1,56.8C86.4,98.8,72.1,107.3,56.6,107.2L56.6,107.2z"/>
		<path class="st1" d="M56.6,113.8c-9.4,0-18.7-2.7-26.6-7.9c-0.6-0.3-0.8-1.1-0.4-1.6c0.3-0.6,1.1-0.8,1.6-0.4c0,0,0.1,0,0.1,0.1
			c21.4,13.9,50,7.9,63.9-13.5c13.9-21.4,7.9-50-13.5-63.9c-9.5-6.2-21-8.7-32.2-7c-0.7,0.1-1.3-0.3-1.4-1c-0.1-0.7,0.3-1.3,1-1.4
			c0,0,0.1,0,0.1,0c26.5-4.2,51.4,13.9,55.6,40.4c4.2,26.5-13.9,51.4-40.4,55.6C61.9,113.6,59.3,113.8,56.6,113.8L56.6,113.8z"/>
		<path class="st0" d="M77,116.7c-0.5,0-0.9-0.3-1.1-0.7c-0.2-0.6,0-1.3,0.7-1.6c27.1-11,40.1-42,29.1-69.1
			c-11-27.1-42-40.1-69.1-29.1c-2.3,0.9-4.5,2-6.6,3.2c-0.6,0.3-1.3,0.1-1.6-0.5c-0.3-0.6-0.1-1.3,0.4-1.6
			C55.2,2,89.1,11.1,104.4,37.6s6.3,60.4-20.2,75.7c-2.2,1.3-4.4,2.4-6.8,3.3C77.3,116.6,77.1,116.7,77,116.7z"/>
		<path class="st2" d="M47.8,61.4h-5.3c-1.3,0-2.3,1-2.3,2.3V75c0,1.3,1,2.3,2.3,2.3h5.3c1.3,0,2.3-1,2.3-2.3V63.8
			C50.2,62.5,49.1,61.5,47.8,61.4z M49.2,63.8V75c0,0.8-0.6,1.4-1.4,1.4h-5.3c-0.8,0-1.4-0.6-1.4-1.4V63.8c0-0.8,0.6-1.4,1.4-1.4
			h5.3C48.6,62.4,49.2,63,49.2,63.8C49.2,63.7,49.2,63.8,49.2,63.8z"/>
		<path class="st2" d="M49.4,74.8l2.6,1.3c0.9,0.4,1.9,0.7,2.8,0.7h9.9c0.3,0,0.7-0.1,1-0.2c0.2-0.1,0.3-0.2,0.5-0.3
			c0.4-0.4,0.6-0.9,0.6-1.4c0-0.3-0.1-0.7-0.3-1h0.3c1.1,0,2-0.9,2-2c0-0.3-0.1-0.7-0.3-1h0.3c0.5,0,1-0.2,1.4-0.6
			c0.4-0.4,0.6-0.9,0.6-1.4c0-1.1-0.9-2-2-2h-0.3c0.2-0.3,0.3-0.6,0.3-1c0-1.1-0.9-2-2-2H54.4c-0.3,0-0.5,0.2-0.5,0.5
			c0,0.3,0.2,0.5,0.5,0.5h12.4c0.3,0,0.5,0.1,0.7,0.3c0.2,0.2,0.3,0.4,0.3,0.7c0,0.5-0.4,1-1,1h-5.4c-0.3,0-0.5,0.2-0.5,0.5
			c0,0.3,0.2,0.5,0.5,0.5h5.4l0,0h2c0.5,0,1,0.4,1,1c0,0.5-0.4,1-1,1h-2l0,0h-5.4c-0.3,0-0.5,0.2-0.5,0.5s0.2,0.5,0.5,0.5h5.4
			c0.5,0,1,0.4,1,1c0,0.3-0.1,0.5-0.3,0.7c-0.2,0.2-0.4,0.3-0.7,0.3h-2l0,0h-3.4c-0.3,0.1-0.4,0.3-0.4,0.6c0,0.2,0.2,0.4,0.4,0.4
			h3.5c0.3,0,0.5,0.1,0.7,0.3c0.2,0.2,0.3,0.4,0.3,0.7c0,0.5-0.4,1-1,1H55c-0.8,0-1.7-0.2-2.4-0.6l-2.4-1.2"/>
		<path class="st2" d="M45.6,71.6H45c-0.1,0-0.1-0.1-0.1-0.1v-9.3c0-0.1,0.1-0.1,0.1-0.1h0.5c0.1,0,0.1,0.1,0.1,0.1v9.3
			C45.7,71.6,45.7,71.6,45.6,71.6z"/>
		<path class="st2" d="M49.5,64.2L49.5,64.2c-0.1-0.1-0.2-0.4,0-0.5c0,0,0,0,0,0l3.2-2.9c0.1-0.1,0.4-0.2,0.5,0c0,0,0,0,0,0l0,0
			c0.1,0.1,0.1,0.4,0,0.5l-3.2,2.9C50,64.4,49.7,64.4,49.5,64.2C49.6,64.3,49.5,64.3,49.5,64.2z"/>
		<path class="st2" d="M73,43.6c-0.2-0.2-0.5-0.3-0.8-0.3l-14.6-0.3l0,0c-0.6,0-1.1,0.5-1.1,1.1c0,0,0,0,0,0v1.5L51,46.8
			c-0.6,0.2-0.9,0.7-0.8,1.3c0,0,0,0,0,0l4.1,16.1h1l-4.1-16.3c0-0.1,0-0.1,0.1-0.2c0,0,0,0,0,0l5.3-1.3l-0.1,3.5
			c-0.2,0.1-0.3,0.2-0.3,0.4c0,1.1-0.8,2.1-2,2.2c-0.1,0-0.2,0.1-0.3,0.2c-0.1,0.1-0.1,0.2-0.1,0.4l1.6,11.4c0,0.2,0.2,0.4,0.5,0.4
			H56c0.2,0,0.3-0.1,0.4-0.3H57L57.5,44c0-0.1,0.1-0.1,0.1-0.1l14.6,0.3c0,0,0.1,0,0.1,0c0,0,0,0.1,0,0.1l-0.6,32.6c0,0,0,0.1,0,0.1
			c0,0-0.1,0-0.1,0L57,76.7c0,0-0.1,0-0.1,0c0,0,0-0.1,0-0.1v-0.2h-1v0.2c0,0.6,0.4,1.1,1,1.1L71.6,78c0.6,0,1.1-0.5,1.1-1.1
			l0.7-32.6C73.3,44,73.2,43.8,73,43.6z M54.8,53.4c0.6-0.2,1.1-0.5,1.6-1l-0.2,10.3L54.8,53.4z"/>
		<path class="st2" d="M70.3,53.4v-3.2c0-0.3-0.2-0.5-0.4-0.5c-1.5-0.1-2-2.4-2-2.4c0-0.2-0.2-0.4-0.5-0.4H62
			c-0.2,0-0.4,0.2-0.5,0.4c-0.2,1.1-1.1,2-2.3,2c-0.1,0-0.3,0-0.3,0.1c-0.1,0.1-0.1,0.2-0.1,0.3v14.3c0,0.3,0.2,0.5,0.5,0.5
			c0.3,0,0.5-0.2,0.5-0.5V50.2c1.3-0.1,2.3-1.1,2.7-2.3H67c0.3,0.8,1,2.4,2.4,2.7v2.7c0,0.3,0.2,0.5,0.5,0.5
			C70.1,53.8,70.3,53.6,70.3,53.4z"/>
		<path class="st2" d="M69,59.1v8.2c0,0.3,0.2,0.5,0.5,0.5c0.3,0,0.5-0.2,0.5-0.5v-8.2c0-0.3-0.2-0.5-0.5-0.5
			C69.2,58.6,69,58.8,69,59.1z"/>
		<path class="st2" d="M64.4,57.2c-1.7,0-3,1.4-3,3c0,1.7,1.4,3,3,3c1.7,0,3-1.4,3-3C67.5,58.6,66.1,57.2,64.4,57.2
			C64.4,57.2,64.4,57.2,64.4,57.2z M66.5,60.3c0,1.2-0.9,2.1-2.1,2.1c-1.2,0-2.1-0.9-2.1-2.1c0-1.2,0.9-2.1,2.1-2.1
			C65.6,58.1,66.5,59.1,66.5,60.3z"/>
	</g>
</g>
</svg>
