<?xml version="1.0" encoding="utf-8"?>
<!-- Generator: Adobe Illustrator 23.0.2, SVG Export Plug-In . SVG Version: 6.00 Build 0)  -->
<svg version="1.1" id="Layer_1" xmlns="http://www.w3.org/2000/svg" xmlns:xlink="http://www.w3.org/1999/xlink" x="0px" y="0px"
	 viewBox="0 0 120 120" style="enable-background:new 0 0 120 120;" xml:space="preserve">
<style type="text/css">
	.st0{fill:#76777A;}
	.st1{fill:#D7282F;}
</style>
<title>Asset 15</title>
<g>
	<g>
		<g id="Layer_1-2">
			<path class="st0" d="M13.9,56c0.2,0,0.2,0.1,0.2,0.3c-0.2,1-0.3,1.4-0.4,2.4c0,0.1,0,0.2-0.1,0.2c-0.1,0.1-0.1,0.1-0.2,0.1
				c-1.1,0.1-1.6,0.2-2.8,0.3c-0.1,1.3-0.2,2.6-0.2,3.8c1.1,0.3,1.6,0.4,2.7,0.7c0.1,0,0.2,0.1,0.2,0.1c0.1,0.1,0.1,0.1,0.1,0.2
				c0,1,0,1.5,0.1,2.4c0,0.2-0.1,0.3-0.2,0.3h-0.1c-3.5-0.6-6.9-1.4-10.3-2.4c-0.4-0.1-0.7-0.3-1-0.6c-0.2-0.3-0.4-0.6-0.5-0.9
				c-0.1-0.4-0.2-0.7-0.2-1.1c0-0.4,0-0.8,0-1.2c0-0.4,0.1-0.8,0.1-1.2c0.1-0.4,0.2-0.7,0.3-1.1c0.2-0.3,0.4-0.6,0.6-0.8
				c0.3-0.2,0.6-0.4,1-0.5C6.7,56.5,10.2,56.1,13.9,56L13.9,56z M3.7,60.6l-0.2,0.1c-0.1,0.1-0.1,0.1-0.1,0.2c0,0.1,0.1,0.3,0.2,0.3
				c1.8,0.6,2.7,0.9,4.5,1.4c0-1.2,0.1-1.8,0.2-3C6.5,60,5.5,60.2,3.7,60.6z"/>
			<path class="st0" d="M16.1,49.6c-0.1,0.3-0.1,0.5-0.2,0.7c0,0.2-0.1,0.4-0.2,0.6c-0.1,0.4-0.3,0.8-0.5,1.1
				c-0.2,0.3-0.4,0.6-0.7,0.7c-0.3,0.2-0.6,0.3-1,0.3c-0.5,0-1,0-1.4-0.2l-4.6-1.3c-0.3,0.6-0.4,0.9-0.6,1.6c0,0.1-0.1,0.2-0.2,0.3
				c-0.1,0.1-0.2,0.1-0.2,0.1l-1.1-0.2c-0.1,0-0.2-0.1-0.2-0.2c0-0.1,0-0.2,0-0.3c0.2-0.7,0.2-1,0.4-1.7l-1.3-0.3
				c-0.1,0-0.2-0.1-0.2-0.2c0-0.1,0-0.2,0-0.3c0.2-1.1,0.3-1.6,0.5-2.7v-0.1c0-0.1,0.1-0.2,0.2-0.3c0.1,0,0.2,0,0.2,0l1.6,0.6
				c0.2-0.7,0.4-1,0.6-1.6c0-0.1,0.1-0.2,0.2-0.2c0.1,0,0.2,0,0.3,0L9,46.5c0.1,0,0.2,0.1,0.2,0.2c0,0.1,0,0.2,0,0.3
				c-0.2,0.6-0.4,1-0.6,1.6l4.5,1.6c0.2,0.1,0.4,0.1,0.6,0.1c0.1,0,0.2-0.2,0.3-0.4c0.1-0.3,0.2-0.5,0.3-0.8s0.2-0.3,0.4-0.2
				l1.2,0.5C16.1,49.3,16.1,49.4,16.1,49.6z"/>
			<path class="st0" d="M17.9,45.4c0,0.1,0,0.2,0,0.3c-0.4,0.7-0.6,1.1-1,1.9c0,0.1-0.1,0.1-0.2,0.2c-0.1,0-0.2,0-0.3,0
				c-4.3-2-6.5-3-10.9-4.9c-0.1-0.1-0.1-0.1-0.1-0.2c0-0.1,0-0.2,0-0.3c0.5-1,0.7-1.5,1.2-2.5c0-0.1,0.1-0.2,0.2-0.2
				c0.1,0,0.2,0,0.3,0c4.2,2.2,6.3,3.3,10.5,5.6C17.8,45.2,17.9,45.3,17.9,45.4z"/>
			<path class="st0" d="M23.6,37.5c0,0.1,0,0.2-0.1,0.2c-0.5,0.6-0.8,0.9-1.3,1.5c-0.1,0.1-0.1,0.1-0.2,0.1c-0.1,0-0.2,0-0.2-0.1
				c-0.1-0.1-0.1-0.1-0.2-0.2c0,0.4-0.1,0.8-0.2,1.2c-0.1,0.4-0.4,0.8-0.6,1.2c-0.2,0.3-0.5,0.6-0.7,0.8c-0.3,0.2-0.6,0.4-0.9,0.5
				C18.7,43,18.3,43,17.9,43c-0.5-0.1-0.9-0.2-1.3-0.5l-0.1-0.1c-0.8-0.4-1.2-1.2-1.2-2c0.2-1.3,0.7-2.4,1.6-3.4
				c0.3-0.3,0.4-0.5,0.7-0.8l-0.5-0.4c-0.3-0.3-0.6-0.4-1-0.2c-0.3,0.2-0.6,0.4-0.9,0.8l-0.6,0.8l-0.5,0.8c-0.2,0.3-0.3,0.5-0.4,0.7
				c-0.1,0.2-0.2,0.4-0.3,0.5l0,0.1c0,0.1-0.1,0.1-0.2,0.2c-0.1,0-0.2,0-0.3,0l-1.1-0.7c-0.2-0.1-0.2-0.3-0.1-0.5
				c0.2-0.5,0.4-1,0.7-1.5c0.3-0.6,0.7-1.2,1.1-1.8c0.4-0.6,0.9-1.1,1.5-1.5c0.4-0.4,0.9-0.6,1.5-0.8c0.5-0.1,1-0.1,1.4,0
				c0.5,0.1,1,0.4,1.4,0.8c1.7,1.6,2.6,2.4,4.3,3.9C23.6,37.4,23.6,37.4,23.6,37.5z M18.8,37.1l-0.7,0.9c-0.3,0.3-0.5,0.8-0.6,1.2
				c0,0.3,0.2,0.6,0.5,0.8l0.1,0.1c0.3,0.2,0.5,0.2,0.7,0.1c0.3-0.2,0.5-0.4,0.6-0.6c0.2-0.2,0.3-0.5,0.4-0.7
				c0.1-0.2,0.2-0.5,0.2-0.7L18.8,37.1z"/>
			<path class="st0" d="M29.4,29.4c0.2,0.3,0.3,0.7,0.4,1c0.1,0.4,0,0.8-0.1,1.1c-0.1,0.4-0.4,0.8-0.6,1.2c-0.3,0.5-0.8,0.9-1.2,1.2
				c-0.2,0.2-0.4,0.3-0.6,0.5c-0.2,0.2-0.5,0.3-0.7,0.5l-0.7,0.5c-0.2,0.2-0.4,0.3-0.6,0.4c-0.1,0.1-0.4,0.1-0.5,0l-0.9-1
				c-0.1-0.1-0.1-0.1-0.1-0.2c0-0.1,0-0.2,0.1-0.2l0.1-0.1l0.7-0.5l0.7-0.6l0.7-0.5l0.5-0.4c0.3-0.2,0.5-0.4,0.6-0.7
				c0-0.2,0-0.4-0.1-0.5c-0.1-0.1-0.2-0.2-0.3-0.2c-0.2,0-0.4,0-0.7,0.1c-1.1,0.2-1.6,0.4-2.7,0.7c-0.5,0.2-1.1,0.2-1.6,0.2
				c-0.5-0.1-1-0.3-1.3-0.7c-0.6-0.5-0.8-1.3-0.6-2.1c0.4-1.1,1.2-2,2.1-2.7c0.6-0.5,1.2-0.9,1.8-1.3c0.5-0.3,1-0.6,1.6-0.8
				c0.3-0.1,0.5-0.1,0.6,0.1l0.8,1.1c0.1,0.2,0.1,0.3-0.1,0.5h0c-0.1,0.1-0.3,0.2-0.6,0.3l-0.8,0.5l-0.8,0.6
				c-0.3,0.2-0.5,0.4-0.7,0.5c-0.2,0.2-0.4,0.4-0.6,0.6c-0.1,0.2,0,0.4,0.1,0.5c0.1,0,0.2,0.1,0.2,0c0.2,0,0.4,0,0.5-0.1
				c1.1-0.3,1.6-0.4,2.7-0.6c0.4-0.1,0.8-0.1,1.2-0.1c0.3,0,0.6,0.1,0.9,0.2c0.2,0.1,0.4,0.2,0.6,0.4C29.1,29,29.2,29.2,29.4,29.4z"
				/>
			<path class="st1" d="M108.8,99.5c-0.2,0-0.5-0.1-0.6-0.2c-0.6-0.4-0.7-1.1-0.4-1.7c0,0,0,0,0,0c17.7-28.3,9.2-65.6-19.1-83.3
				S23.1,5.1,5.3,33.4c-0.9,1.4-1.7,2.8-2.4,4.3c-0.3,0.6-1,0.9-1.6,0.6s-0.9-1-0.6-1.6c0,0,0-0.1,0.1-0.1
				c16-30.8,53.9-42.9,84.7-27s42.9,53.9,27,84.7c-0.8,1.6-1.7,3.1-2.6,4.6C109.6,99.3,109.2,99.5,108.8,99.5z"/>
			<path class="st1" d="M56.5,100.2c-19.3,0-35-15.7-35-35c0-11.5,5.7-22.3,15.2-28.9c0.6-0.3,1.3-0.1,1.6,0.5
				c0.2,0.5,0.1,1.1-0.3,1.4c-14.8,10.2-18.6,30.5-8.3,45.3c10.2,14.8,30.5,18.6,45.3,8.3c4.4-3,8-7.1,10.5-11.9
				c0.3-0.6,1-0.8,1.6-0.5c0.6,0.3,0.8,1,0.5,1.6l0,0C81.7,92.8,69.6,100.2,56.5,100.2z"/>
			<path class="st0" d="M56.6,107.9c-20.2,0-37.6-14.2-41.7-34c-0.1-0.7,0.3-1.3,0.9-1.4s1.3,0.3,1.4,0.9
				c4.5,21.7,25.7,35.7,47.4,31.2s35.7-25.7,31.2-47.4C93.5,45.6,86.2,35.7,75.7,30c-0.6-0.3-0.9-1-0.6-1.6c0.3-0.6,1-0.9,1.6-0.6
				c0,0,0.1,0,0.1,0.1c20.7,11.2,28.3,37,17.1,57.7C86.6,99.3,72.2,107.9,56.6,107.9z"/>
			<path class="st1" d="M56.6,114.5c-9.6,0-18.9-2.8-26.9-8c-0.6-0.4-0.7-1.1-0.4-1.7c0.4-0.6,1.1-0.7,1.7-0.4
				c21.7,14.1,50.6,8,64.8-13.7s8-50.6-13.7-64.8c-9.6-6.3-21.2-8.8-32.6-7.1c-0.7,0.1-1.3-0.4-1.4-1c-0.1-0.7,0.4-1.3,1-1.4
				c2.5-0.4,5-0.6,7.4-0.6c27.2,0,49.2,22,49.2,49.2C105.9,92.5,83.8,114.5,56.6,114.5C56.6,114.5,56.6,114.5,56.6,114.5z"/>
			<path class="st0" d="M77.2,117.4c-0.7,0-1.2-0.5-1.2-1.2c0-0.5,0.3-0.9,0.8-1.1c27.5-11.2,40.7-42.5,29.5-70s-42.5-40.7-70-29.5
				c-2.3,0.9-4.5,2-6.6,3.3c-0.6,0.3-1.3,0.1-1.7-0.5c-0.3-0.6-0.1-1.3,0.4-1.6C55.2,1.3,89.6,10.5,105,37.4s6.2,61.2-20.6,76.7
				c-2.2,1.2-4.4,2.3-6.7,3.3C77.6,117.4,77.4,117.4,77.2,117.4z"/>
			<g>
				<path class="st1" d="M43.5,70.6c-0.3,0-0.6-0.2-0.8-0.5c-0.9-2.1-1.4-4.4-1.4-6.7c0-0.4,0.5-0.8,0.9-0.7c0.4,0,0.7,0.3,0.7,0.7
					c0,2.1,0.4,4.1,1.2,6.1c0.2,0.4,0,0.9-0.4,1.1C43.8,70.5,43.7,70.6,43.5,70.6z"/>
				<path class="st1" d="M73.2,72.5c-0.1,0-0.2,0-0.3-0.1c-0.4-0.2-0.6-0.7-0.4-1.1c0,0,0,0,0,0c0.7-1.5,1.1-3,1.4-4.7
					c0.1-0.4,0.5-0.8,0.9-0.7c0.4,0.1,0.8,0.5,0.7,0.9c-0.2,1.8-0.7,3.5-1.5,5.1C73.8,72.3,73.5,72.5,73.2,72.5z"/>
				<path class="st1" d="M75,64.2c-0.4,0-0.8-0.4-0.8-0.8c0-6.3-3.7-12-9.5-14.4c-0.4-0.2-0.5-0.6-0.4-1c0.2-0.4,0.6-0.6,1-0.4
					c0,0,0,0,0,0c6.4,2.7,10.5,8.9,10.5,15.8C75.8,63.8,75.5,64.2,75,64.2z"/>
				<path class="st1" d="M43.2,58.8c-0.1,0-0.2,0-0.3,0c-0.4-0.1-0.6-0.6-0.5-1c2.4-6.9,8.9-11.6,16.2-11.6c0.4,0,0.8,0.4,0.8,0.8
					c0,0.4-0.4,0.8-0.8,0.8c-6.6,0-12.5,4.2-14.7,10.5C43.8,58.6,43.5,58.8,43.2,58.8z"/>
				<path class="st1" d="M45.6,65.8c-0.4,0-0.8-0.3-0.8-0.7c-0.7-5.5,2-11,6.8-13.7c0.4-0.2,0.9-0.1,1.1,0.3
					c0.2,0.4,0.1,0.9-0.3,1.1c0,0,0,0,0,0c-3.8,2.2-6.1,6.3-6.1,10.6c0,0.5,0,1,0.1,1.5C46.5,65.3,46.2,65.7,45.6,65.8
					C45.7,65.8,45.7,65.8,45.6,65.8L45.6,65.8z"/>
				<path class="st1" d="M66.7,53.8c-0.2,0-0.4-0.1-0.5-0.2c-2.2-1.7-4.8-2.6-7.6-2.6c-0.6,0-1.2,0-1.8,0.1
					c-0.4,0.1-0.9-0.2-0.9-0.7c-0.1-0.4,0.2-0.9,0.7-0.9c3.8-0.5,7.6,0.5,10.6,2.8c0.4,0.3,0.4,0.8,0.1,1.1
					C67.2,53.7,67,53.8,66.7,53.8z"/>
				<path class="st1" d="M67.2,78.1c-0.2,0-0.4-0.1-0.5-0.2c-0.3-0.3-0.4-0.8-0.1-1.1c0,0,0,0,0,0c4.2-5.1,6.2-14.1,2.3-20.1
					c-0.2-0.4-0.1-0.9,0.2-1.1c0.4-0.2,0.9-0.1,1.1,0.2c2.1,3.4,2.8,7.4,2.2,11.4c-0.6,3.9-2.1,7.6-4.6,10.6
					C67.7,78,67.5,78.1,67.2,78.1z"/>
				<path class="st1" d="M59.5,69.1c-0.4,0-0.8-0.3-0.8-0.8c0-1.5-0.3-3.1-0.7-4.5c-0.1-0.4,0.2-0.9,0.6-1c0.4-0.1,0.9,0.1,1,0.6
					c0.4,1.6,0.7,3.2,0.7,4.9C60.3,68.7,60,69.1,59.5,69.1C59.5,69.1,59.5,69.1,59.5,69.1L59.5,69.1z"/>
				<path class="st1" d="M57.6,80.6c-0.4,0-0.8-0.4-0.8-0.8c0-0.1,0-0.2,0.1-0.3c1.1-2.7,1.8-5.5,2-8.4c0-0.4,0.4-0.8,0.9-0.8
					c0.4,0,0.8,0.4,0.8,0.8c0,0,0,0,0,0c-0.2,3-0.9,6-2.1,8.9C58.3,80.4,57.9,80.6,57.6,80.6z"/>
				<path class="st1" d="M45.8,74.4c-0.1,0-0.1,0-0.2,0c-0.4-0.1-0.7-0.6-0.6-1c0.5-1.6,0.6-3.3,0.4-4.9c-0.1-0.4,0.3-0.8,0.7-0.9
					c0,0,0,0,0,0c0.4-0.1,0.8,0.3,0.9,0.7c0,0,0,0,0,0c0.2,1.9,0.1,3.8-0.4,5.6C46.5,74.2,46.2,74.4,45.8,74.4z"/>
				<path class="st1" d="M68.6,64.2c-0.4,0-0.8-0.4-0.8-0.8c0-3-1.5-5.8-4-7.5c-0.4-0.3-0.5-0.8-0.2-1.1c0.2-0.4,0.7-0.5,1.1-0.2
					c0,0,0,0,0,0c2.9,2,4.7,5.3,4.7,8.9C69.3,63.9,69,64.2,68.6,64.2z"/>
				<path class="st1" d="M48.7,64.2c-0.4,0-0.8-0.4-0.8-0.8c0-5.9,4.8-10.7,10.7-10.7c0.4,0,0.7,0,1.1,0.1c0.4,0,0.8,0.4,0.7,0.9
					c0,0.4-0.4,0.8-0.9,0.7c-0.3,0-0.7,0-1,0c-5,0-9.1,4.1-9.1,9.1C49.4,63.8,49.1,64.2,48.7,64.2z"/>
				<path class="st1" d="M48.5,77c-0.1,0-0.2,0-0.3,0c-0.4-0.2-0.6-0.6-0.5-1c0,0,0,0,0,0c0.7-1.8,1-3.6,1-5.5
					c0-1.2-0.1-2.5-0.4-3.7c-0.1-0.4,0.1-0.9,0.5-1c0.4-0.1,0.9,0.1,1,0.5c0,0,0,0.1,0,0.1c0.8,3.4,0.6,6.9-0.6,10.1
					C49.1,76.8,48.8,77,48.5,77z"/>
				<path class="st1" d="M60.8,80.6c-0.3,0-0.5-0.1-0.7-0.4c-0.2-0.4-0.2-0.9,0.2-1.1c4.1-2.8,6.8-7.2,7.4-12.1
					c0.1-0.4,0.5-0.8,0.9-0.7c0.4,0.1,0.8,0.5,0.7,0.9c-0.7,5.4-3.6,10.2-8.1,13.3C61.1,80.6,61,80.6,60.8,80.6z"/>
				<path class="st1" d="M52.8,61.1c-0.1,0-0.3,0-0.4-0.1c-0.4-0.2-0.5-0.7-0.3-1.1c1.9-3.6,6.4-5,10-3.2c0.6,0.3,1.1,0.7,1.6,1.1
					c0.3,0.3,0.4,0.8,0.1,1.2c-0.3,0.3-0.8,0.4-1.2,0.1l0,0c-2.4-2.1-6-2-8.2,0.4c-0.3,0.4-0.6,0.8-0.8,1.2
					C53.4,61,53.1,61.1,52.8,61.1z"/>
				<path class="st1" d="M53.1,72c-0.4,0-0.8-0.3-0.8-0.8c0,0,0,0,0,0c0-2.3-0.4-4.6-1-6.9c-0.1-0.4,0.1-0.9,0.6-1s0.9,0.1,1,0.6
					c0.7,2.4,1,4.8,1,7.3C53.9,71.7,53.5,72,53.1,72z"/>
				<path class="st1" d="M51.5,78.9c-0.1,0-0.2,0-0.3-0.1c-0.4-0.2-0.6-0.7-0.4-1.1c0,0,0,0,0,0c0.5-1.2,0.9-2.4,1.1-3.7
					c0.1-0.4,0.5-0.7,0.9-0.7c0,0,0,0,0,0c0.4,0.1,0.8,0.5,0.7,0.9c0,0,0,0,0,0c-0.2,1.4-0.7,2.8-1.2,4.1
					C52.1,78.8,51.9,78.9,51.5,78.9z"/>
				<path class="st1" d="M65.9,68.4L65.9,68.4c-0.4,0-0.8-0.4-0.8-0.9c0.1-1.9-0.1-3.8-0.8-5.6c-0.1-0.4,0.1-0.9,0.5-1
					s0.9,0.1,1,0.5c0.7,2,1,4.1,0.8,6.2C66.7,68.1,66.3,68.4,65.9,68.4z"/>
				<path class="st1" d="M54.4,80c-0.1,0-0.2,0-0.3-0.1c-0.4-0.2-0.6-0.7-0.4-1.1c0.4-0.9,0.7-1.7,1-2.6c0.1-0.4,0.6-0.7,1-0.6
					c0.4,0.1,0.7,0.6,0.6,1c-0.3,1-0.6,1.9-1,2.9C55,79.8,54.7,80,54.4,80z"/>
				<path class="st1" d="M55.9,74.7h-0.1c-0.4-0.1-0.7-0.5-0.7-0.9c0.2-1.3,0.3-2.6,0.2-3.9c0-0.6-0.1-1.2-0.2-1.8
					c-0.1-0.4,0.2-0.9,0.7-0.9c0.4-0.1,0.9,0.2,0.9,0.7l0,0c0.1,0.7,0.2,1.3,0.2,2c0.1,1.4,0,2.8-0.2,4.2
					C56.7,74.4,56.4,74.7,55.9,74.7z"/>
				<path class="st1" d="M63.1,69.4c-0.4,0-0.8-0.4-0.8-0.8c0-2.7-0.8-7.9-3.6-7.9c-1.5,0-2.6,1.2-2.6,2.6c0,0,0,0.1,0,0.1
					c0,0.4-0.3,0.8-0.8,0.9c-0.4,0-0.8-0.3-0.8-0.8c0,0,0,0,0,0c0-0.1,0-0.2,0-0.2c0-2.3,1.9-4.2,4.3-4.3c3.9,0,5.2,5.1,5.2,9.5
					C63.9,69,63.5,69.4,63.1,69.4C63.1,69.4,63.1,69.4,63.1,69.4z"/>
				<path class="st1" d="M61.5,76.7c-0.1,0-0.2,0-0.3-0.1c-0.4-0.2-0.6-0.7-0.4-1.1c0.6-1.4,1-2.8,1.3-4.3c0.1-0.4,0.5-0.8,0.9-0.7
					c0.4,0.1,0.8,0.5,0.7,0.9c0,0,0,0,0,0.1c-0.3,1.6-0.7,3.2-1.4,4.7C62.2,76.6,61.9,76.7,61.5,76.7z"/>
			</g>
		</g>
	</g>
</g>
</svg>
