<svg xmlns="http://www.w3.org/2000/svg" viewBox="0 0 414.22 400.13"><title>Atlasc</title><g id="Layer_2" data-name="Layer 2"><g id="Layer_1-2" data-name="Layer 1"><path d="M129,156.62a4.08,4.08,0,0,0-4.08,4.07v66.59c0,32.24,20.74,53.26,53,53.26h27.43a4.1,4.1,0,0,0,4.08-4.09V243.67a4.1,4.1,0,0,0-4.08-4.07H187.85c-2.24,0-12.72-.36-12.72-12.72V160.69a4.08,4.08,0,0,0-4.08-4.07Z" style="fill:#fff"/><path d="M185.27,174.51a4.1,4.1,0,0,0-4.09,4.1v37.56a4.1,4.1,0,0,0,4.09,4.07h20c2.25,0,10.13.35,10.13,12.73v43.48a4.11,4.11,0,0,0,4.08,4.09h42a4.1,4.1,0,0,0,4.09-4.09V227.79c0-32.26-20.74-53.28-53-53.28Z" style="fill:#fff"/><path d="M46.48,186.13c.59.12.82.51.69,1.18-.66,3.3-.94,5-1.39,8.31a1.1,1.1,0,0,1-.39.74,1.49,1.49,0,0,1-.79.33c-3.84.41-5.75.65-9.59,1.19a118.74,118.74,0,0,0-.83,13.36c3.74,1,5.61,1.45,9.36,2.32a1.48,1.48,0,0,1,.75.43,1.1,1.1,0,0,1,.29.79c0,3.41.1,5.12.35,8.56,0,.69-.22,1.06-.83,1.11a.17.17,0,0,1-.12,0,.41.41,0,0,0-.17,0A308.62,308.62,0,0,1,7.92,216a7.59,7.59,0,0,1-3.34-2,8.75,8.75,0,0,1-1.9-3.13A15,15,0,0,1,1.9,207a32.24,32.24,0,0,1,0-4.17,31.06,31.06,0,0,1,.53-4.1A15,15,0,0,1,3.65,195a8.85,8.85,0,0,1,2.26-2.9,8,8,0,0,1,3.56-1.61,264.87,264.87,0,0,1,36.71-4.33h.3ZM10.91,202.25a2.16,2.16,0,0,0-.68.27c-.14.09-.22.32-.24.67a1,1,0,0,0,.8,1.11c6.2,2.13,9.33,3.12,15.59,4.93.12-4.11.25-6.16.64-10.24C20.57,200.1,17.34,200.75,10.91,202.25Z" style="fill:#fff"/><path d="M54.13,164c-.21.9-.38,1.69-.55,2.35s-.4,1.4-.7,2.22a23.37,23.37,0,0,1-1.76,4,7.59,7.59,0,0,1-2.32,2.58,6.86,6.86,0,0,1-3.4,1.05,15.16,15.16,0,0,1-5-.64c-6.41-1.73-9.61-2.59-16-4.29-.89,2.13-1.32,3.21-2.14,5.38a2.81,2.81,0,0,1-.66.93.91.91,0,0,1-.86.29l-3.69-.79a1.06,1.06,0,0,1-.7-.65,1.71,1.71,0,0,1-.12-1.13c.55-2.33.85-3.49,1.48-5.79l-4.54-1.19a.84.84,0,0,1-.6-.63,3,3,0,0,1-.1-1.14c.56-3.73.89-5.59,1.65-9.3l.08-.22a1.75,1.75,0,0,1,.57-.87.85.85,0,0,1,.81-.13l5.74,2c.81-2.3,1.24-3.44,2.14-5.72a1.59,1.59,0,0,1,.71-.84,1,1,0,0,1,.92-.12L29.44,153a1,1,0,0,1,.59.7,1.52,1.52,0,0,1-.05,1.05c-.86,2.18-1.27,3.28-2.05,5.49,6.3,2.16,9.45,3.25,15.73,5.45a4.81,4.81,0,0,0,2.19.43c.37-.09.72-.59,1.06-1.49.43-1.15.65-1.73,1.1-2.87.32-.82.79-1.1,1.39-.86l4.1,1.66C54.1,162.79,54.29,163.29,54.13,164Z" style="fill:#fff"/><path d="M60.54,149.32a1.06,1.06,0,0,1-.06.89c-1.38,2.58-2,3.89-3.27,6.54a1.24,1.24,0,0,1-.71.63,1.13,1.13,0,0,1-.92,0q-18.91-8.56-37.94-16.9a1,1,0,0,1-.52-.79,2,2,0,0,1,.17-1.19c1.63-3.51,2.5-5.25,4.32-8.68a1.7,1.7,0,0,1,.81-.78,1,1,0,0,1,.92,0Q41.72,138.72,60,148.63A1.23,1.23,0,0,1,60.54,149.32Z" style="fill:#fff"/><path d="M80.34,121.8a1.22,1.22,0,0,1-.33.86c-1.84,2-2.73,3-4.46,5.13a1.26,1.26,0,0,1-.81.44,1.05,1.05,0,0,1-.85-.23l-.71-.57a18.08,18.08,0,0,1-.85,4.11,15.63,15.63,0,0,1-2.23,4.16,16.08,16.08,0,0,1-2.58,2.86,9.46,9.46,0,0,1-3.17,1.87,8.62,8.62,0,0,1-3.83.41A11.07,11.07,0,0,1,56,139.2l-.44-.27c-2.88-1.72-4.33-4.08-4.21-7.13s1.85-7.11,5.46-11.83c.91-1.19,1.37-1.77,2.31-2.94l-1.61-1.28c-1.29-1-2.43-1.31-3.41-.87a8.39,8.39,0,0,0-3,2.68c-.69.92-1.37,1.86-2,2.82s-1.29,1.9-1.87,2.81-1.07,1.73-1.49,2.48-.77,1.37-1,1.87l-.19.3a1.82,1.82,0,0,1-.69.67.91.91,0,0,1-.88-.12L39,126c-.55-.34-.66-1-.32-1.85A51,51,0,0,1,41.09,119,47.82,47.82,0,0,1,45,112.81a30.59,30.59,0,0,1,5.06-5.37,15.34,15.34,0,0,1,5.14-2.87,9.56,9.56,0,0,1,5-.16A10.84,10.84,0,0,1,65,107.14c6,5.52,9,8.29,15,13.85A1,1,0,0,1,80.34,121.8Zm-16.77-1.51c-1,1.19-1.43,1.78-2.35,3-1.41,1.84-2,3.3-1.94,4.34a3.85,3.85,0,0,0,1.89,2.77l.42.3q1.5,1,2.49.54a7.05,7.05,0,0,0,2.2-2.12,10.9,10.9,0,0,0,1.38-2.42,23.13,23.13,0,0,0,.83-2.47Z" style="fill:#fff"/><path d="M100.33,93.51a8.58,8.58,0,0,1,1,7.56,14,14,0,0,1-2.21,4.09,24.75,24.75,0,0,1-4.2,4.18c-.67.55-1.4,1.11-2.17,1.68s-1.57,1.16-2.4,1.73-1.64,1.13-2.44,1.66-1.54,1-2.24,1.39a1.3,1.3,0,0,1-1.76-.12l-3.24-3.31a1,1,0,0,1-.31-.78,1.21,1.21,0,0,1,.43-.86l.19-.17c.71-.52,1.48-1.1,2.33-1.75l2.52-1.91,2.32-1.76,1.67-1.31a6.15,6.15,0,0,0,2.09-2.36,2,2,0,0,0-.45-1.79,1.66,1.66,0,0,0-1.14-.6,7.19,7.19,0,0,0-2.3.25c-3.82.85-5.73,1.35-9.55,2.48a13.24,13.24,0,0,1-5.76.54A8.06,8.06,0,0,1,68.05,100a7,7,0,0,1-1.94-7.28c.8-2.81,3.19-6,7.32-9.38a46.59,46.59,0,0,1,6.29-4.41,55.15,55.15,0,0,1,5.49-2.75c.92-.4,1.57-.31,2,.26,1.06,1.52,1.58,2.29,2.63,3.81.41.6.27,1.13-.42,1.61l-.19.12c-.49.25-1.16.62-2,1.12s-1.77,1.08-2.74,1.7-2,1.28-3,2-1.85,1.33-2.57,1.91a8.6,8.6,0,0,0-2.11,2.17A1.26,1.26,0,0,0,77,92.4a1.32,1.32,0,0,0,1.13.44A11.61,11.61,0,0,0,80,92.5c3.8-1,5.71-1.46,9.51-2.23a17.77,17.77,0,0,1,4.12-.36,10.21,10.21,0,0,1,3,.57,6.5,6.5,0,0,1,2.15,1.28A9.53,9.53,0,0,1,100.33,93.51Z" style="fill:#fff"/><path d="M377,337.82a4.23,4.23,0,0,1-3.57-6.49,210,210,0,0,0,32.37-112.26c0-116.13-94.47-210.6-210.6-210.6A210,210,0,0,0,8,122.39,4.23,4.23,0,0,1,.48,118.5,218.47,218.47,0,0,1,195.15,0C316,0,414.22,98.28,414.22,219.07a218.48,218.48,0,0,1-33.68,116.78A4.25,4.25,0,0,1,377,337.82Z" style="fill:#fff"/><path d="M194.85,340a122,122,0,0,1-69-222.59,4.24,4.24,0,1,1,4.8,7A113.54,113.54,0,1,0,295.85,269.92a4.24,4.24,0,0,1,7.53,3.88A121.62,121.62,0,0,1,194.85,340Z" style="fill:#fff"/><path d="M195.27,366.88C125.12,366.88,64,317.08,50,248.46a4.23,4.23,0,1,1,8.29-1.69c13.24,64.69,70.86,111.64,137,111.64,77.1,0,139.83-62.73,139.83-139.83a139.84,139.84,0,0,0-73.19-123,4.24,4.24,0,1,1,4-7.44,148.31,148.31,0,0,1,77.6,130.4C343.56,300.35,277,366.88,195.27,366.88Z" style="fill:#fff"/><path d="M195.27,390.17a170.89,170.89,0,0,1-93.79-27.88,4.23,4.23,0,1,1,4.63-7.09,162.43,162.43,0,0,0,89.16,26.5c89.94,0,163.12-73.17,163.12-163.12S285.21,55.46,195.27,55.46a165.09,165.09,0,0,0-24.68,1.85,4.23,4.23,0,1,1-1.27-8.37,174.1,174.1,0,0,1,26-1.95c94.61,0,171.59,77,171.59,171.59S289.88,390.17,195.27,390.17Z" style="fill:#fff"/><path d="M267.13,400.13a4.24,4.24,0,0,1-1.6-8.16A186.47,186.47,0,0,0,382,218.63c0-103.18-83.94-187.12-187.12-187.12a187.07,187.07,0,0,0-93.82,25.18,4.23,4.23,0,1,1-4.25-7.32A195.54,195.54,0,0,1,194.91,23C302.76,23,390.5,110.78,390.5,218.63A194.93,194.93,0,0,1,268.73,399.81,4.08,4.08,0,0,1,267.13,400.13Z" style="fill:#fff"/></g></g></svg>