<svg xmlns="http://www.w3.org/2000/svg" viewBox="0 0 659.16 322.03"><title>atlas</title><g id="Layer_2" data-name="Layer 2"><g id="Layer_1-2" data-name="Layer 1"><path d="M469.37,142.24c0,1-.55,1.55-1.65,1.55H454.19a1.7,1.7,0,0,1-1.26-.48,2.6,2.6,0,0,1-.67-1.26l-3.48-15.85H429l-3.48,15.85a2.7,2.7,0,0,1-.68,1.26,1.7,1.7,0,0,1-1.26.48H410c-1.1,0-1.64-.52-1.64-1.55a.43.43,0,0,1,0-.19.56.56,0,0,0,0-.29l14.41-59.94a14.9,14.9,0,0,1,2.51-5.6A11.36,11.36,0,0,1,429.2,73a15.43,15.43,0,0,1,4.69-1.5,32.65,32.65,0,0,1,5-.39,31.76,31.76,0,0,1,5,.39,15.39,15.39,0,0,1,4.64,1.5,11.26,11.26,0,0,1,3.82,3.24,14.91,14.91,0,0,1,2.52,5.6l14.4,59.94a.56.56,0,0,0,.05.29A.45.45,0,0,1,469.37,142.24Zm-29.2-56a4.51,4.51,0,0,0-.39-1.11c-.13-.23-.41-.34-.87-.34-.7,0-1.16.48-1.35,1.45L431.66,113h14.41Z"/><path d="M507,143.89c-1.48.26-2.77.45-3.87.58a34.69,34.69,0,0,1-3.77.19,32.28,32.28,0,0,1-7-.68,10.25,10.25,0,0,1-8.11-7.49,27.31,27.31,0,0,1-1.06-8.36v-28l-7.73-1.25a3.41,3.41,0,0,1-1.41-.73,1.63,1.63,0,0,1-.62-1.3V90.43a1.94,1.94,0,0,1,.62-1.41,2,2,0,0,1,1.41-.62h7.73V80.47a1.56,1.56,0,0,1,.58-1.26,3.32,3.32,0,0,1,1.34-.67l11.72-2h.29a1.79,1.79,0,0,1,1.25.43,1.55,1.55,0,0,1,.48,1.21V88.4h7.93a1.85,1.85,0,0,1,1.35.58,1.88,1.88,0,0,1,.58,1.37v7.89a1.88,1.88,0,0,1-.58,1.37,1.85,1.85,0,0,1-1.35.58h-7.93v28.13a8.87,8.87,0,0,0,.48,3.72c.33.55,1.23.83,2.71.83h4.74c1.35,0,2,.54,2,1.63V142C508.81,143.06,508.2,143.7,507,143.89Z"/><path d="M532.83,143.16a1.64,1.64,0,0,1-1.3.63h-11.8a2.16,2.16,0,0,1-2-2V71.58a1.8,1.8,0,0,1,.63-1.36,2,2,0,0,1,1.4-.58h11.8a1.72,1.72,0,0,1,1.3.58,2,2,0,0,1,.53,1.36v70.18A2.13,2.13,0,0,1,532.83,143.16Z"/><path d="M587.11,143.21a1.85,1.85,0,0,1-1.35.58H574.93a1.82,1.82,0,0,1-1.35-.58,1.85,1.85,0,0,1-.58-1.35v-1.55a24.63,24.63,0,0,1-6,3.19,21.71,21.71,0,0,1-7.49,1.16,23.09,23.09,0,0,1-6.14-.82,14,14,0,0,1-5.27-2.76,13.69,13.69,0,0,1-3.72-5.12A19.82,19.82,0,0,1,543,128v-.87q0-8.5,5.65-12.42t18.13-3.92H572v-3.48q0-4.16-1.93-5.41a9.67,9.67,0,0,0-5.32-1.26c-1.55,0-3.11,0-4.69,0s-3.09.08-4.54.15-2.76.14-3.92.24l-2.9.24h-.48A1.94,1.94,0,0,1,547,101a1.62,1.62,0,0,1-.48-1.35V91.78a2.11,2.11,0,0,1,1.84-2.13q2.7-.68,7.29-1.35a64.8,64.8,0,0,1,9.43-.68,37,37,0,0,1,9.43,1.11,18.67,18.67,0,0,1,7.1,3.49,15.66,15.66,0,0,1,4.5,6.09,22.94,22.94,0,0,1,1.59,9v34.52A1.85,1.85,0,0,1,587.11,143.21Zm-14.79-23.1h-5.51q-5,0-6.77,1.74t-1.74,5.31V128c0,2.07.5,3.39,1.5,4a9.42,9.42,0,0,0,4.59.87,13.84,13.84,0,0,0,4.21-.63,25.79,25.79,0,0,0,3.72-1.5Z"/><path d="M638.06,128.42a16.28,16.28,0,0,1-1.26,6.38A13.61,13.61,0,0,1,633,140a18.64,18.64,0,0,1-6.43,3.43,29.73,29.73,0,0,1-9.18,1.26c-1.35,0-2.79,0-4.3-.14s-3.06-.25-4.64-.44-3.11-.42-4.59-.68-2.84-.54-4.06-.87a2.14,2.14,0,0,1-1.84-2.22v-7.83a1.89,1.89,0,0,1,.48-1.31,1.78,1.78,0,0,1,1.36-.53h.39c1.29.2,2.73.37,4.32.53s3.15.31,4.71.44,3,.23,4.32.29,2.37.1,3.15.1c2.33,0,3.87-.31,4.61-.92a3.49,3.49,0,0,0,1.12-2.85,3,3,0,0,0-.78-2,10.94,10.94,0,0,0-2.81-2.07l-12.62-7.26a17.53,17.53,0,0,1-6.36-5.94,15.37,15.37,0,0,1-2.28-8.36q0-7.35,4.85-11.17t14.87-3.82a61.94,61.94,0,0,1,9.62.63q3.92.63,7.59,1.6a2.15,2.15,0,0,1,1.84,2.22V99.9c0,1.23-.55,1.84-1.65,1.84h-.29c-.71-.13-1.7-.26-3-.39s-2.69-.26-4.21-.39-3.06-.24-4.64-.33-3-.15-4.2-.15a9.62,9.62,0,0,0-4,.58,2.26,2.26,0,0,0-1.16,2.22,2.34,2.34,0,0,0,.78,1.79,13.13,13.13,0,0,0,2.23,1.6l12,6.86a26.9,26.9,0,0,1,4.9,3.53,17,17,0,0,1,3,3.67,12.13,12.13,0,0,1,1.51,3.82A19.54,19.54,0,0,1,638.06,128.42Z"/><path d="M396.81,224.7c-2.57.25-3-1.26-1.2-4.54a60.36,60.36,0,0,1,9-11.68A95.41,95.41,0,0,1,418,196.56q7.06-5.16,11.95-5.32a16.37,16.37,0,0,1,2.9,1.07,11.1,11.1,0,0,1,2.31,1.59,6.19,6.19,0,0,1,1.72,2.5,7,7,0,0,1,.3,3.57,12.8,12.8,0,0,1-2,4.8q-3.54,5.76-7.43,13.73T421,233.32q-2.79,6.85-2.79,8.51c0,1.15.33,1.87,1,2.15s1.91-.08,3.76-1.1a64.8,64.8,0,0,0,7.87-5.56A123.55,123.55,0,0,0,447.25,221a202.3,202.3,0,0,0,13.53-17.53c.43-.68.84-1.3,1.21-1.86s.73-1.07,1.05-1.56l.91-1.34c.29-.41.54-.78.75-1.1l.62-.91.51-.75.38-.57.29-.43c.09-.12.16-.23.22-.32l.13-.21a.85.85,0,0,1,.11-.14.13.13,0,0,0,.05-.11,13.49,13.49,0,0,1,1.13-1.39,6.25,6.25,0,0,1,2.15-1.56,3.61,3.61,0,0,1,2.85,0q2.52,1.13,3.6,5.18t-2.05,9.16a111.45,111.45,0,0,0-6.2,11.6q-3.78,7.89-6.95,15.44c-2.12,5-3.17,8.11-3.17,9.21s.33,1.87,1,2.15,1.92-.08,3.76-1.1a67.68,67.68,0,0,0,7.92-5.56A122.3,122.3,0,0,0,487.4,221a207.79,207.79,0,0,0,13.51-17.53q3.27-4.89,4.94-7.6t2.74-4.87a2.19,2.19,0,0,1,2-1.15,7.25,7.25,0,0,1,2.17.35l.27.11a298.51,298.51,0,0,1-16,25.43,121.76,121.76,0,0,1-16.36,18.5,181.09,181.09,0,0,1-15,12.14,68.41,68.41,0,0,1-9.42,5.8,15,15,0,0,1-4.27,1.56c-.57,0-1.37-.5-2.39-1.51a10.56,10.56,0,0,1-2.45-4.1,10.92,10.92,0,0,1-.21-5.94,159.93,159.93,0,0,1,9.94-26.32,122.33,122.33,0,0,1-16.28,18.37,181.09,181.09,0,0,1-15,12.14,69,69,0,0,1-9.42,5.8,15.1,15.1,0,0,1-4.27,1.56c-.58,0-1.37-.5-2.39-1.51a10.56,10.56,0,0,1-2.45-4.1,10.92,10.92,0,0,1-.21-5.94,147.12,147.12,0,0,1,8.11-22.29,223.14,223.14,0,0,1,10.69-21.43,48.25,48.25,0,0,0-9.83,5,43.56,43.56,0,0,0-8.54,7.89,48.36,48.36,0,0,0-7.63,12.92Z"/><path d="M510.47,229.43a3.29,3.29,0,0,0,0,2.68c1.86.75,3.38.59,4.56-.51a7.81,7.81,0,0,0,2.34-4.16,5.51,5.51,0,0,0-.35-4.08l-5.21.21c0-2.07.4-3.53,1.21-4.37a3.12,3.12,0,0,1,2.79-1,4.61,4.61,0,0,1,2.77,1.45l24.65.54.11,1-23.79.43a15.3,15.3,0,0,1,.08,7,14.85,14.85,0,0,1-3.25,6.66,8.32,8.32,0,0,1-5,3,9.28,9.28,0,0,1-5.72-.37,7,7,0,0,1-3.49-4,13.07,13.07,0,0,1-.73-5.58,9.45,9.45,0,0,1,1.37-4.54,2.19,2.19,0,0,1,2.26-.94,8.8,8.8,0,0,1,3.11,1.07,12.46,12.46,0,0,1,2.64,1.88c.67.67.93,1.18.75,1.53A8.21,8.21,0,0,0,510.47,229.43Z"/><path d="M549,215.76a12.77,12.77,0,0,1,3.25,2.07,10.66,10.66,0,0,1,1.69,1.77c.14.36-.17,1.05-.94,2.07s-1.64,2.08-2.61,3.19c-.61.68-1.13,1.3-1.58,1.85a10.57,10.57,0,0,0-.94,1.32,1.15,1.15,0,0,0-.14.78,1.7,1.7,0,0,0,.3.62,1.77,1.77,0,0,0,.48.43c.18.1.4.21.65.32,2.9.11,6,.07,9.29-.11a4.87,4.87,0,0,1,3.38.89,4.35,4.35,0,0,1,1.4,2.28,14.42,14.42,0,0,1,.38,2.52,10.22,10.22,0,0,0,.13,1.13c0,.29.17.43.35.43a8.63,8.63,0,0,0,2.55-1.07q1.9-1,3.84-2.31a13.1,13.1,0,0,0,2.69-2.2,6,6,0,0,1,.59-.62,1.26,1.26,0,0,1,.51-.3,2.37,2.37,0,0,1,.43,0,.66.66,0,0,1,.32.08l.29.19c-2.07,1.82-3.84,3.31-5.29,4.46s-2.88,2.17-4.29,3.08a6.9,6.9,0,0,1-3.36,1.37,3.64,3.64,0,0,1-2.71-1.2,10.35,10.35,0,0,1-1.88-2.74,14.17,14.17,0,0,1-1-2.61c-.28-.71-1-1.1-2.28-1.15a22.61,22.61,0,0,0-3.68.13,10.25,10.25,0,0,1-1.93.11c-1-.07-2.29-.76-4-2.07a14.15,14.15,0,0,1-4-5,4.82,4.82,0,0,1-.16-3.28,13.19,13.19,0,0,1,1.42-3.35,29.52,29.52,0,0,1,2.6-3.63A7.85,7.85,0,0,1,549,215.76Z"/><path d="M603.65,209.45c-1,1.25-2.34,2.84-3.92,4.78q-4.08,4.83-8.7,10.63a114.4,114.4,0,0,0-7.49,10.39c-1.92,3.07-2.48,5-1.69,5.78.28.14.92-.18,1.9-1s2.16-1.79,3.52-3,2.94-2.57,4.51-3.86a32.16,32.16,0,0,1,4.35-3.06q4.47-2.48,8.92-4.49a23.35,23.35,0,0,1,7.84-2.23l.22,1.51a17.35,17.35,0,0,0-6.13,1.82q-3.54,1.66-7.35,3.76c-.79.47-1.6.91-2.42,1.34a65.29,65.29,0,0,0-9.72,7.68q-2.85,2.53-5.08,4.33a7.94,7.94,0,0,1-3.3,1.91,8.64,8.64,0,0,1-3.63-2.26,5.16,5.16,0,0,1-1.47-3.65q.38-4.62,4.4-12.14t9.32-15.42q5.28-7.89,9.37-13.64,1.67-2.42,2.85-4.08c1.29-.64,2.45-.11,3.49,1.61a17.48,17.48,0,0,1,2.17,6c.42,2.27.33,3.91-.24,4.91A12.36,12.36,0,0,1,603.65,209.45Z"/><path d="M624.87,231.74q3-2.15,6.44-4.41.65-2.09,2.37-6.23A107.58,107.58,0,0,1,640.34,208q3.48-5.78,8.11-12.43,1-1.39,1.77-2.64c.25-.32.48-.64.7-1,.89-.25,2,.19,3.38,1.34a16.48,16.48,0,0,1,3.55,4.3,8,8,0,0,1,1.29,4.78c-.36.28-1.78,1.82-4.25,4.59s-5.2,6.15-8.19,10.12a85.55,85.55,0,0,0-7.49,11.71,12.14,12.14,0,0,0-.94,2.58,3.72,3.72,0,0,0-.08,2.1c.43.68,1.41.69,2.95,0a37.26,37.26,0,0,0,5.35-2.9q3-1.94,5.69-3.9c1.77-1.3,3.11-2.3,4-3,.25-.17.45-.32.59-.43l.86,1c-.36.25-.89.65-1.61,1.18q-2.52,1.94-6.69,4.81a62.12,62.12,0,0,1-8.24,4.86c-2.72,1.33-4.85,1.77-6.39,1.34a8.36,8.36,0,0,1-2.63-1.53,3.8,3.8,0,0,1-1.4-2.39,8.46,8.46,0,0,1,0-2.36,54.8,54.8,0,0,0-4.83,3.6c-1.22,1-2.24,1.74-3.07,2.31q-5.52,3.33-8.8,1.9a6.45,6.45,0,0,1-3.9-5.31,11.06,11.06,0,0,1,1.94-7.87q2.55-4,8.72-5.64a11.61,11.61,0,0,1,6.82.78q3.33,1.43,3.6,3.78a21.68,21.68,0,0,0-5.21,1c-.93.4-1.72.76-2.39,1.08s-1.31.68-2,1.07a11.41,11.41,0,0,0-1.61,1.18,11.28,11.28,0,0,0-3.41,4.49c-.48,1.41-.27,2.32.65,2.71s2.55-.16,4.91-1.66C622.77,233.19,623.69,232.56,624.87,231.74Z"/><path d="M103.86,126.05a3.28,3.28,0,0,0-3.28,3.28v53.59c0,26,16.68,42.87,42.62,42.87h22.08a3.29,3.29,0,0,0,3.28-3.29V196.11a3.29,3.29,0,0,0-3.28-3.28h-14.1c-1.8,0-10.23-.28-10.23-10.23V129.33a3.29,3.29,0,0,0-3.29-3.28Z"/><path d="M149.11,140.45a3.3,3.3,0,0,0-3.29,3.3V174a3.3,3.3,0,0,0,3.29,3.28h16.1c1.81,0,8.15.28,8.15,10.24v35a3.29,3.29,0,0,0,3.28,3.28h33.81a3.28,3.28,0,0,0,3.28-3.28V183.33c0-26-16.68-42.88-42.63-42.88Z"/><path d="M37.71,151.76c.48.1.67.42.56,1-.53,2.65-.75,4-1.12,6.68a.88.88,0,0,1-.31.6,1.19,1.19,0,0,1-.64.26c-3.08.33-4.63.52-7.71,1A96.19,96.19,0,0,0,27.82,172c3,.8,4.51,1.17,7.53,1.87a1.26,1.26,0,0,1,.6.34.94.94,0,0,1,.24.64c0,2.75.08,4.13.28,6.89,0,.56-.18.86-.67.9a.15.15,0,0,1-.09,0,.29.29,0,0,0-.14,0c-9.77-1.86-19.31-4.11-28.89-6.8A6.15,6.15,0,0,1,4,174.19a6.89,6.89,0,0,1-1.53-2.52,11.91,11.91,0,0,1-.63-3.13,23.55,23.55,0,0,1,0-3.36,23.86,23.86,0,0,1,.42-3.29,12.1,12.1,0,0,1,1-3,7.23,7.23,0,0,1,1.82-2.33,6.39,6.39,0,0,1,2.87-1.3,290,290,0,0,1,29.55-3.49.23.23,0,0,0,.14,0Zm-28.62,13a2.44,2.44,0,0,0-.55.21c-.11.08-.17.26-.19.55a.81.81,0,0,0,.64.89c5,1.71,7.51,2.51,12.55,4,.1-3.31.2-5,.51-8.24C16.86,163,14.27,163.53,9.09,164.74Z" style="fill:#76777a"/><path d="M43.87,134c-.16.72-.3,1.36-.44,1.89a17.66,17.66,0,0,1-.56,1.79,19.93,19.93,0,0,1-1.42,3.18,6,6,0,0,1-1.87,2.07,5.44,5.44,0,0,1-2.73.85,12.4,12.4,0,0,1-4-.52c-5.16-1.39-7.74-2.08-12.9-3.45-.72,1.72-1.07,2.58-1.73,4.33a2.22,2.22,0,0,1-.53.75.72.72,0,0,1-.69.23l-3-.64a.8.8,0,0,1-.56-.52,1.36,1.36,0,0,1-.1-.91c.44-1.87.68-2.81,1.19-4.66l-3.66-1a.69.69,0,0,1-.48-.5,2.49,2.49,0,0,1-.08-.92c.45-3,.72-4.5,1.33-7.49a1.15,1.15,0,0,0,.06-.17,1.46,1.46,0,0,1,.46-.7.69.69,0,0,1,.65-.11l4.62,1.58c.66-1.86,1-2.78,1.73-4.61a1.27,1.27,0,0,1,.57-.68.83.83,0,0,1,.74-.09c1.4.55,2.1.82,3.49,1.38a.81.81,0,0,1,.48.56,1.25,1.25,0,0,1,0,.85c-.69,1.75-1,2.63-1.65,4.41,5.07,1.74,7.6,2.62,12.66,4.39a3.82,3.82,0,0,0,1.76.34c.3-.07.58-.47.85-1.2.35-.92.52-1.39.89-2.31q.39-1,1.11-.69l3.31,1.33C43.85,133,44,133.38,43.87,134Z" style="fill:#76777a"/><path d="M49,122.14a.8.8,0,0,1-.05.71c-1.11,2.08-1.63,3.13-2.63,5.27a1,1,0,0,1-.57.51,1,1,0,0,1-.74,0Q29.83,121.73,14.51,115a.75.75,0,0,1-.42-.64,1.65,1.65,0,0,1,.13-1c1.32-2.83,2-4.23,3.48-7a1.36,1.36,0,0,1,.66-.64.82.82,0,0,1,.73,0q14.79,7.8,29.48,15.77A1,1,0,0,1,49,122.14Z" style="fill:#76777a"/><path d="M65,100a1,1,0,0,1-.26.69c-1.49,1.62-2.21,2.45-3.6,4.13a1,1,0,0,1-.65.35.87.87,0,0,1-.69-.17l-.57-.47a14.52,14.52,0,0,1-.68,3.31,12.82,12.82,0,0,1-1.79,3.35,13.47,13.47,0,0,1-2.08,2.3A7.62,7.62,0,0,1,52.1,115a7,7,0,0,1-3.09.32A8.88,8.88,0,0,1,45.4,114l-.36-.21A6.15,6.15,0,0,1,41.65,108c.1-2.46,1.49-5.72,4.4-9.52.73-1,1.1-1.43,1.86-2.37l-1.3-1a2.65,2.65,0,0,0-2.74-.7,6.71,6.71,0,0,0-2.42,2.16c-.55.74-1.1,1.5-1.64,2.27s-1,1.53-1.49,2.26-.87,1.39-1.21,2l-.84,1.51a2,2,0,0,1-.16.24,1.41,1.41,0,0,1-.55.54.71.71,0,0,1-.7-.1l-3.19-1.94c-.44-.28-.53-.78-.25-1.49a40.72,40.72,0,0,1,2-4.14,38.79,38.79,0,0,1,3.17-5,24.59,24.59,0,0,1,4.07-4.31,12.1,12.1,0,0,1,4.14-2.31,7.65,7.65,0,0,1,4-.14,8.86,8.86,0,0,1,3.84,2.2c4.84,4.44,7.26,6.67,12.08,11.15A.86.86,0,0,1,65,100Zm-13.5-1.21c-.77,1-1.15,1.43-1.89,2.4-1.13,1.48-1.64,2.66-1.56,3.5a3.1,3.1,0,0,0,1.52,2.23l.34.24a2,2,0,0,0,2,.43,5.63,5.63,0,0,0,1.77-1.71,8.43,8.43,0,0,0,1.11-1.94,17.26,17.26,0,0,0,.67-2Z" style="fill:#76777a"/><path d="M81.06,77.22a7.1,7.1,0,0,1,1.11,2.91,7,7,0,0,1-.29,3.18A11.61,11.61,0,0,1,80.1,86.6,20.27,20.27,0,0,1,76.72,90c-.54.43-1.12.88-1.75,1.35s-1.26.93-1.93,1.39-1.32.91-2,1.33-1.25.8-1.8,1.13a1.06,1.06,0,0,1-1.42-.11c-1-1.06-1.57-1.6-2.61-2.66a.79.79,0,0,1-.25-.63,1,1,0,0,1,.35-.69l.15-.14c.57-.41,1.19-.88,1.87-1.4l2-1.54,1.87-1.42c.56-.43,1-.78,1.34-1a4.87,4.87,0,0,0,1.68-1.9,1.54,1.54,0,0,0-.35-1.44,1.32,1.32,0,0,0-.92-.48,5.72,5.72,0,0,0-1.85.19c-3.08.69-4.62,1.09-7.69,2a10.62,10.62,0,0,1-4.63.44,6.59,6.59,0,0,1-3.77-1.9,5.61,5.61,0,0,1-1.56-5.87c.64-2.26,2.56-4.84,5.88-7.54a38.15,38.15,0,0,1,5.07-3.55,44.54,44.54,0,0,1,4.42-2.22c.74-.31,1.26-.24,1.58.21l2.11,3.08c.33.48.22.9-.34,1.28l-.15.11q-.59.28-1.62.9c-.68.41-1.42.86-2.21,1.36s-1.57,1-2.37,1.59-1.48,1.07-2.07,1.54a6.82,6.82,0,0,0-1.69,1.75,1,1,0,0,0,.15,1.25,1,1,0,0,0,.91.35,10.28,10.28,0,0,0,1.52-.27c3.06-.82,4.6-1.18,7.66-1.79a14.26,14.26,0,0,1,3.31-.3,8.61,8.61,0,0,1,2.44.46,5.33,5.33,0,0,1,1.73,1A8.06,8.06,0,0,1,81.06,77.22Z" style="fill:#76777a"/><path d="M303.38,271.89a3.34,3.34,0,0,1-1.81-.53,3.41,3.41,0,0,1-1.07-4.7,169,169,0,0,0,26.06-90.34c0-93.47-76-169.5-169.5-169.5A169.06,169.06,0,0,0,6.43,98.5a3.41,3.41,0,0,1-6-3.13A175.83,175.83,0,0,1,157.06,0c97.22,0,176.32,79.09,176.32,176.32a175.86,175.86,0,0,1-27.11,94A3.41,3.41,0,0,1,303.38,271.89Z"/><path d="M156.82,273.66A98.2,98.2,0,0,1,101.26,94.51a3.41,3.41,0,1,1,3.86,5.62,91.38,91.38,0,1,0,133,117.11,3.41,3.41,0,0,1,6.06,3.12A97.89,97.89,0,0,1,156.82,273.66Z"/><path d="M157.15,295.27c-56.45,0-105.63-40.08-116.93-95.3a3.41,3.41,0,0,1,6.68-1.37A112.55,112.55,0,1,0,210.8,77a3.41,3.41,0,0,1,3.25-6,119.37,119.37,0,0,1-56.9,224.3Z" style="fill:#76777a"/><path d="M157.15,314a137.55,137.55,0,0,1-75.48-22.44,3.41,3.41,0,1,1,3.73-5.7,130.77,130.77,0,0,0,71.75,21.32c72.4,0,131.29-58.89,131.29-131.28S229.55,44.63,157.15,44.63a132.78,132.78,0,0,0-19.85,1.5,3.41,3.41,0,0,1-1-6.74,139.91,139.91,0,0,1,20.88-1.57c76.15,0,138.11,62,138.11,138.1S233.3,314,157.15,314Z"/><path d="M215,322a3.41,3.41,0,0,1-1.29-6.56A150.09,150.09,0,0,0,307.47,176c0-83-67.56-150.6-150.6-150.6A150.54,150.54,0,0,0,81.36,45.63a3.41,3.41,0,1,1-3.42-5.9,157.36,157.36,0,0,1,78.93-21.19c86.8,0,157.42,70.62,157.42,157.42a156.88,156.88,0,0,1-98,145.82A3.39,3.39,0,0,1,215,322Z" style="fill:#76777a"/></g></g></svg>