<svg xmlns="http://www.w3.org/2000/svg" viewBox="0 0 428.98 272.85"><title>AtlasDreams</title><g id="Layer_2" data-name="Layer 2"><g id="Layer_1-2" data-name="Layer 1"><path d="M151.56,76.1a2.06,2.06,0,0,1-1.51.6H139.77a1.33,1.33,0,0,1-1.11-.5,2.39,2.39,0,0,1-.5-1.21L137,55.84H113.76L105.7,75a3.15,3.15,0,0,1-.91,1.21,2,2,0,0,1-1.31.5H92.4c-1,0-1.52-.43-1.52-1.31a3.16,3.16,0,0,1,.21-.91L118.7,11.29a18.61,18.61,0,0,1,3.43-5.54,15,15,0,0,1,4-3.08,13.37,13.37,0,0,1,4.18-1.36,30.23,30.23,0,0,1,4.24-.3,20.74,20.74,0,0,1,4,.4A10.31,10.31,0,0,1,142.29,3a10.24,10.24,0,0,1,2.92,3.13,11.93,11.93,0,0,1,1.51,5.19l5.44,63.19v.21A2,2,0,0,1,151.56,76.1ZM134.22,14.41a3.37,3.37,0,0,0-.3-1.26c-.13-.23-.47-.35-1-.35a1.64,1.64,0,0,0-1.16.35,4.68,4.68,0,0,0-.75,1.26L118.5,44.35h17.74Z" style="fill:#fff"/><path d="M201.35,21.87l-1,5.95a2.64,2.64,0,0,1-.9,1.41,2.33,2.33,0,0,1-1.52.6h-9.07l-5.54,31.65A21,21,0,0,0,182.8,65c0,.94.26,1.53.76,1.76a6.88,6.88,0,0,0,2.67.36h5.34a3.55,3.55,0,0,1,1.26.2c.37.13.56.47.56,1v.3L192.28,75a2.32,2.32,0,0,1-2.22,1.81c-1.27.2-2.47.37-3.58.51a28.9,28.9,0,0,1-3.37.2c-4.41,0-7.77-.84-10.11-2.52s-3.5-4.54-3.5-8.57a18.92,18.92,0,0,1,.15-2.32c.1-.8.22-1.68.35-2.62l5.5-31.65-9.22-1.41a1.59,1.59,0,0,1-1.62-1.71v-.3l.81-4.54a2.76,2.76,0,0,1,.86-1.41,2.09,2.09,0,0,1,1.46-.6h9.41l1.5-8.27a2.37,2.37,0,0,1,.85-1.31,4,4,0,0,1,1.45-.7L190.67,8h.4c.94,0,1.41.41,1.41,1.21v.3l-1.91,10.39h9.07a1.51,1.51,0,0,1,1.71,1.71Z" style="fill:#fff"/><path d="M228.16,2l-12.8,72.57a3.11,3.11,0,0,1-.86,1.46,2,2,0,0,1-1.46.65h-9.37a1.44,1.44,0,0,1-1.21-.5,1.88,1.88,0,0,1-.4-1.21v-.4L214.86,2A2.88,2.88,0,0,1,215.71.6a2.13,2.13,0,0,1,1.46-.6h9.38a1.43,1.43,0,0,1,1.61,1.61Z" style="fill:#fff"/><path d="M282.29,23.69a2.48,2.48,0,0,1-.11.8l-8.77,50.2a2.72,2.72,0,0,1-.9,1.41,2.3,2.3,0,0,1-1.51.6h-8.07c-1.07,0-1.61-.57-1.61-1.71v-.3l.4-2.93a27.82,27.82,0,0,1-8.06,4.49,24.06,24.06,0,0,1-7.56,1.26,18,18,0,0,1-6.45-1.16,14.52,14.52,0,0,1-5.29-3.48,16,16,0,0,1-3.53-5.69,22.6,22.6,0,0,1-1.26-7.91c0-.94,0-1.94.1-3a22.43,22.43,0,0,1,.41-3.07c.13-1,.3-2,.5-3s.3-1.81.5-2.82.37-2,.51-2.92q2.11-11.89,9.27-18.6t19.35-6.7a74.52,74.52,0,0,1,10,.71A78.72,78.72,0,0,1,280,21.77a7.1,7.1,0,0,1,1.71.66A1.33,1.33,0,0,1,282.29,23.69Zm-18.6,6.55c-1.78-.14-3.58-.2-5.39-.2a12.93,12.93,0,0,0-5.55,1.1,11.15,11.15,0,0,0-3.88,3,15.72,15.72,0,0,0-2.52,4.53,31.58,31.58,0,0,0-1.46,5.75l-1.81,10.38c-.14.74-.24,1.46-.31,2.17s-.1,1.36-.1,2q0,4.34,2,6a7.49,7.49,0,0,0,4.94,1.66,18.06,18.06,0,0,0,6.05-1.11,38.11,38.11,0,0,0,6.55-3.12l5.54-31.65A32.1,32.1,0,0,0,263.69,30.24Z" style="fill:#fff"/><path d="M330.87,23.58l-1,5.75q-.3,1.92-1.92,1.92h-.4c-.67-.14-1.61-.27-2.82-.41s-2.54-.25-4-.35l-4.59-.3c-1.61-.1-3.12-.15-4.54-.15a23.64,23.64,0,0,0-2.57.15,10.1,10.1,0,0,0-2.52.6,4.64,4.64,0,0,0-1.91,1.36,3.87,3.87,0,0,0-.76,2.52c0,1.35,1,2.72,3,4.13l11.79,8.07q4.53,3.12,6,6.25a15.1,15.1,0,0,1,1.46,6.45,16.9,16.9,0,0,1-1.82,8.11,16.65,16.65,0,0,1-4.83,5.6,20.13,20.13,0,0,1-7.06,3.22,35.31,35.31,0,0,1-8.57,1c-.8,0-1.93,0-3.37-.05s-3-.14-4.64-.3-3.36-.39-5.14-.66a47.25,47.25,0,0,1-5-1,1.85,1.85,0,0,1-1.51-1.81v-.51l1.11-6a2,2,0,0,1,.75-1.21,2.26,2.26,0,0,1,1.36-.41h.31c1.21.14,2.58.27,4.13.41s3.07.25,4.59.35,2.93.19,4.28.25,2.38.1,3.12.1a15.72,15.72,0,0,0,6.2-1.06q2.47-1.05,2.47-4.58a4.3,4.3,0,0,0-.75-2.37,10.36,10.36,0,0,0-2.57-2.47l-12.3-8.47a15.56,15.56,0,0,1-4.74-5.19,13.45,13.45,0,0,1-1.81-6.8,15.38,15.38,0,0,1,2-8.21,15,15,0,0,1,5-5,20.14,20.14,0,0,1,6.86-2.57,40.35,40.35,0,0,1,7.4-.71,83.72,83.72,0,0,1,9.08.5,61.64,61.64,0,0,1,8.76,1.62,1.75,1.75,0,0,1,1.42,1.81v.5Z" style="fill:#fff"/><path d="M.87,103.37c-.36.08-.6,0-.73-.07a.55.55,0,0,1-.12-.54A4.69,4.69,0,0,1,.25,102a3.38,3.38,0,0,1,.54-.85,76.14,76.14,0,0,1,12.7-5,86.74,86.74,0,0,1,15.16-2.73q14.16-.93,33.71,5.19A129.21,129.21,0,0,1,96.6,114.72q9.09,6.7,10.62,14.09a21.94,21.94,0,0,1-1.88,14.43,45,45,0,0,1-9.12,12.58,76.88,76.88,0,0,1-14,10.2q-8,4.65-20.74,10.35l-1-1.62h.08l.27-.12.27-.11.38-.19.54-.27.69-.35c.26-.13.55-.27.89-.42s.7-.33,1.11-.54.87-.42,1.39-.65,1.05-.5,1.61-.81c2.47-1.23,5-2.7,7.74-4.39s6-3.87,9.89-6.54l1.07-2.54q-7.38,6.08-22.81,12.81a213.13,213.13,0,0,1-33.06,11.2c-5.64,1.28-10,1.34-13.19.15a12.05,12.05,0,0,1-6.7-5.31,17.54,17.54,0,0,1-2.27-6.92,14.31,14.31,0,0,1,.08-4.7,5.69,5.69,0,0,1,.42-1.11,1.09,1.09,0,0,1,.35-.43.28.28,0,0,1,.3,0,.91.91,0,0,1,.27.31c.08.13.17.3.27.5a7.76,7.76,0,0,0,2.39,2.08,13.86,13.86,0,0,0,4.08,1.27,32.5,32.5,0,0,0,7.08.31,71.32,71.32,0,0,0,10.77-1.5,129.46,129.46,0,0,0,25.44-9.28A207.11,207.11,0,0,0,85,143.39q11-7.2,11.7-10.5a11.15,11.15,0,0,0-.73-6,21.61,21.61,0,0,0-5.39-7.62A51.71,51.71,0,0,0,78.67,111a117.81,117.81,0,0,0-20.08-8,110,110,0,0,0-15-3.47c.51,2,1,4.24,1.46,6.7a7.1,7.1,0,0,1-.34,4.16,44.93,44.93,0,0,1-3.28,6.15q-1.85,3.17-4.84,8.62Q25.27,146,22.72,157.74c-.2.88-.39,1.62-.57,2.23a9.68,9.68,0,0,1-.58,1.54,6.32,6.32,0,0,1-.58,1,1.48,1.48,0,0,1-.54.46,1.32,1.32,0,0,1-.46.11,1,1,0,0,1-.73-.3,57.12,57.12,0,0,1,.08-10.7A90,90,0,0,1,22,138.5a116.55,116.55,0,0,1,9.43-22.08q6.27-11.55,9.89-17.16a94.13,94.13,0,0,0-20.55-.47,91.22,91.22,0,0,0-18.24,4A11.76,11.76,0,0,1,.87,103.37Z" style="fill:#fff"/><path d="M133.54,136.85a18.44,18.44,0,0,1,4.66,3,15.6,15.6,0,0,1,2.42,2.54c.21.52-.24,1.5-1.34,3s-2.35,3-3.74,4.58c-.87,1-1.63,1.86-2.27,2.66a13.76,13.76,0,0,0-1.34,1.88,1.69,1.69,0,0,0-.2,1.12,2.13,2.13,0,0,0,.43.88,2.37,2.37,0,0,0,.69.62,7.86,7.86,0,0,0,.92.46q6.24.24,13.32-.15c2.2-.05,3.82.37,4.84,1.27a6.2,6.2,0,0,1,2,3.27,19.79,19.79,0,0,1,.53,3.62,14.31,14.31,0,0,0,.2,1.61c.07.41.24.62.5.62a12.87,12.87,0,0,0,3.65-1.54c1.82-1,3.66-2.08,5.5-3.31a18.11,18.11,0,0,0,3.85-3.16,10.48,10.48,0,0,1,.85-.88,1.63,1.63,0,0,1,.73-.42,2.4,2.4,0,0,1,.62-.08,1,1,0,0,1,.46.11l.42.27q-4.47,3.93-7.58,6.39t-6.16,4.43c-2,1.3-3.63,2-4.81,2a5.2,5.2,0,0,1-3.88-1.73,15,15,0,0,1-2.7-3.93,21.15,21.15,0,0,1-1.42-3.73c-.41-1-1.5-1.58-3.27-1.66a33.05,33.05,0,0,0-5.27.2,14.68,14.68,0,0,1-2.77.15q-2.08-.15-5.7-3a20.25,20.25,0,0,1-5.77-7.2,7,7,0,0,1-.23-4.69,19.23,19.23,0,0,1,2-4.81,45.44,45.44,0,0,1,3.73-5.2A11.24,11.24,0,0,1,133.54,136.85Z" style="fill:#fff"/><path d="M197,165.52a123.34,123.34,0,0,0,21-8.85q11.16-5.85,19.32-10.86l.61,1.77c-1.64,1-3.23,1.9-4.77,2.78q-8.77,5.31-16.82,9.54a175.41,175.41,0,0,1-18.66,8.31q-9.39,3.39-14.66.27a12.1,12.1,0,0,1-6.08-9.31A17.62,17.62,0,0,1,180.06,147q3.88-6,12.81-8.35a15.32,15.32,0,0,1,6.89.38,14.72,14.72,0,0,1,5.66,2.62h.07a7.11,7.11,0,0,1,1.39,1.69l.08.08.15.31a5.78,5.78,0,0,1,.77,1.77,6.85,6.85,0,0,1,.54,2.31,8,8,0,0,1-1.54,4.61,12.61,12.61,0,0,1-3.62,3.77,14.25,14.25,0,0,1-2.31,1.24c-.92.41-1.83.79-2.73,1.15s-2,.77-3.19,1.23l-.69-.69,2.77-1.08a21.05,21.05,0,0,0,2.23-1c.82-.43,1.85-1,3.08-1.73l.07-.61a30.78,30.78,0,0,1-6.15,2.92c-4.11,1.74-7.24,3-9.39,3.69a4.47,4.47,0,0,0,2.85,4.54A15.56,15.56,0,0,0,197,165.52Zm1.69-18.05a27,27,0,0,0-7.5,5,12.24,12.24,0,0,0-4,6.89q3.07-1.16,8.47-3.46a20.28,20.28,0,0,0,7.19-5,10.94,10.94,0,0,0,2.58-5Q202.8,145.65,198.72,147.47Z" style="fill:#fff"/><path d="M250.36,158.44q4.47-3.16,9.39-6.43t6.77-3.58a2.9,2.9,0,0,1,3.08,1.5,15.67,15.67,0,0,1,1.31,4,12.22,12.22,0,0,0,2.15,5.31,6.35,6.35,0,0,0,4.74,2q3.27.2,9-2.66t14.32-10.08l.92,1.08Q287.84,161.36,279,164.36t-11.89-.46a13.11,13.11,0,0,1-1.85-2.92c-.56-1.18-1.07-2.31-1.54-3.39a16.11,16.11,0,0,0-.88-2.12c-.28-.54-.5-.8-.65-.8a11.33,11.33,0,0,0-4.62,2.26q-2.85,2-5.77,4.35-2.62,2.16-4.31,3.31-7.94,4.84-12.78,2.58t-5.81-8.12a16.83,16.83,0,0,1,2.62-11.73q3.57-5.9,12.43-8.28a15.58,15.58,0,0,1,10,1.81q5,2.66,5.43,6.12a22.9,22.9,0,0,0-8.66,3.31,44.31,44.31,0,0,0-7,5.23c-.51.51-.93,1-1.27,1.35a11.16,11.16,0,0,0-.81,1,3.64,3.64,0,0,0-.42.84,2.18,2.18,0,0,0-.11.62,1.12,1.12,0,0,0,.07.42c.05.13.11.25.16.35l-.62.23a.91.91,0,0,1-.34-.39,2.22,2.22,0,0,1-.2-.57,2.4,2.4,0,0,1,0-.85,3.71,3.71,0,0,1,.39-1.11,8.9,8.9,0,0,1,1.27-1.74,20.72,20.72,0,0,1,1.65-1.61c.57-.49,1.26-1.07,2.08-1.73l-.92-.23c-3,2.3-5,4.59-6,6.84s-.78,3.75.5,4.47,3.7-.05,7.24-2.31C247.36,160.51,248.67,159.62,250.36,158.44Z" style="fill:#fff"/><path d="M310.85,148.58l-.15.08q-.63.54-3.28,3a61.4,61.4,0,0,0-5.65,6.16,37.12,37.12,0,0,0-4.93,7.85,21,21,0,0,1,2-1.77,28,28,0,0,0,3.08-2.85,2.53,2.53,0,0,0,.31-.38q5.38-5.7,11.16-11.16t9.16-6.23a9,9,0,0,1,3.84.42,11,11,0,0,1,4,2.08,4.52,4.52,0,0,1,1.73,3.65q.46,3.69.69,5.85a15.1,15.1,0,0,0,.62,3.62q.3.61,1.38-.54.69-.69,1.62-1.77a48.48,48.48,0,0,1,7.35-7A22.16,22.16,0,0,1,355.56,145a5.91,5.91,0,0,1,4.66,2,17.82,17.82,0,0,1,3.19,4.85q1.23,2.73,1.85,4.57a4.67,4.67,0,0,0,.54,1.31l.15.16a6.46,6.46,0,0,0,3.42,2.46q2,.54,6.35-2.12a109.26,109.26,0,0,0,13.09-10.19l1.07,1.69q-10.62,9.47-17.31,12.85t-10.51,2.7a8.3,8.3,0,0,1-5.69-3.54,26.83,26.83,0,0,1-3-5.85,32.9,32.9,0,0,0-1.5-3.27,2.55,2.55,0,0,0-1.81-1.5q-4.85.69-9.35,5.38a81.7,81.7,0,0,0-7.35,8.62c-1.39,2-2.23,3-2.54,3a14.89,14.89,0,0,1-2.7-.5,35.86,35.86,0,0,1-4-1.19c-1.26-.46-2-.95-2.12-1.46,0-.46,0-1.41-.07-2.85,0-1.74,0-3.71-.12-5.89a34.08,34.08,0,0,0-.61-5.69c-.34-1.62-.89-2.43-1.66-2.43q-1.85.39-4.5,3t-6,6.35q-2.39,2.69-5.16,5.61-3.76,4.08-6.58,6.62c-1.87,1.69-3.24,2.39-4.12,2.08-.46-.21-1.38-.72-2.77-1.54a32.94,32.94,0,0,1-3.88-2.69c-1.21-1-1.76-1.8-1.66-2.47.92-2.25,2.07-4.89,3.43-7.92s2.74-6,4.15-8.89,2.61-5.3,3.58-7.2a31.56,31.56,0,0,0,1.46-3c.57-.61,1.57-.51,3,.31a27.2,27.2,0,0,1,4.58,3.39,37.48,37.48,0,0,1,4.08,4.15C310.37,147.23,310.9,148.12,310.85,148.58Z" style="fill:#fff"/><path d="M406.43,138.43c-.87-1.34-2.3-1.77-4.27-1.31a17.07,17.07,0,0,0-5.93,2.77A15.87,15.87,0,0,0,392,144c-.72,1.13-.85,2-.38,2.54a7.8,7.8,0,0,0,2.69,1.77q3.3,1.31,8.54,6.15,10-3.92,25.94-5.92l.23,1.77a122.73,122.73,0,0,0-13.82,2.88,105.84,105.84,0,0,0-10.89,3.74q2.46,6.69-1.07,10.92a19.32,19.32,0,0,1-9.55,6.05,27.1,27.1,0,0,1-10.89,1.23c-3.25-.39-5-1.53-5.11-3.43a9,9,0,0,1,3.34-6,37,37,0,0,1,7-4.93,55.78,55.78,0,0,1,6.39-3.11,32.1,32.1,0,0,1-8.74-6.66q-3.35-3.73-.11-9.66a21,21,0,0,1,6.81-6,20.57,20.57,0,0,1,9.73-3.15q5-.27,7.85,4.42a3.59,3.59,0,0,1-.11,2.66,12.42,12.42,0,0,1-1.58,3l-2.31-1.77C406.51,139.56,406.68,138.89,406.43,138.43Zm-16.16,24.43a43.3,43.3,0,0,0-6.66,4.43q-3,2.46-3.27,4.77.23,1.31,3.27.57a26.12,26.12,0,0,0,6.7-2.8,17.94,17.94,0,0,0,5.61-4.7,3.6,3.6,0,0,0-.11-5A56.73,56.73,0,0,0,390.27,162.86Z" style="fill:#fff"/><path d="M99.44,257.62a10.59,10.59,0,0,1-.36,2.72,5.87,5.87,0,0,1-1.39,2.47,7.27,7.27,0,0,1-2.85,1.79,13.83,13.83,0,0,1-4.72.68c-1.31,0-2.48-.06-3.5-.16l-2.73-.27a1.43,1.43,0,0,1-.5-.18.5.5,0,0,1-.22-.45v-.51a.43.43,0,0,1,.22-.42,1.44,1.44,0,0,1,.54-.1h.17c1,.08,2,.18,3,.28a26.16,26.16,0,0,0,3.07.16,12.14,12.14,0,0,0,3.74-.48,5.8,5.8,0,0,0,2.27-1.28A4.21,4.21,0,0,0,97.27,260a8,8,0,0,0,.32-2.33,4.9,4.9,0,0,0-.34-1.93,4.71,4.71,0,0,0-1.08-1.54,11.77,11.77,0,0,0-1.9-1.51l-2.84-1.8-2.53-1.56c-.91-.57-1.75-1.12-2.52-1.67a12.8,12.8,0,0,1-2-1.72,6.91,6.91,0,0,1-1.31-2,6.06,6.06,0,0,1-.46-2.39,6,6,0,0,1,.8-3.23,5.79,5.79,0,0,1,2.13-2,9.3,9.3,0,0,1,3-1,20.6,20.6,0,0,1,3.45-.28c1.06,0,2.11,0,3.14.13l2.82.26c.46.05.69.24.69.58v.51c0,.37-.26.56-.77.56-.21,0-.54,0-1-.06l-1.53-.14-1.74-.14c-.61,0-1.16-.06-1.67-.06q-4,0-5.79,1.16a4.1,4.1,0,0,0-1.76,3.69,4.21,4.21,0,0,0,.34,1.71,5,5,0,0,0,1,1.48,12.38,12.38,0,0,0,1.71,1.42c.68.49,1.46,1,2.35,1.53l2.57,1.56c1.12.67,2.12,1.31,3,1.93a14.19,14.19,0,0,1,2.21,1.88,7.55,7.55,0,0,1,1.38,2A5.92,5.92,0,0,1,99.44,257.62Z" style="fill:#fff"/><path d="M118.28,262.77c-1.37,1.67-3.44,2.51-6.19,2.51s-4.81-.84-6.18-2.51-2.07-4-2.07-7.07v-2.8q0-4.56,2.07-7.07t6.18-2.5c2.75,0,4.82.83,6.19,2.5s2.07,4,2.07,7.07v2.8Q120.35,260.27,118.28,262.77Zm.3-9.87a10.18,10.18,0,0,0-1.48-5.85q-1.48-2.16-5-2.16c-2.35,0-4,.72-5,2.16a10.18,10.18,0,0,0-1.48,5.85v2.8a10.18,10.18,0,0,0,1.48,5.85c1,1.44,2.65,2.16,5,2.16s4-.72,5-2.16a10.18,10.18,0,0,0,1.48-5.85Z" style="fill:#fff"/><path d="M140.39,264.82a.76.76,0,0,1-.54.22h-.28a.69.69,0,0,1-.52-.22.8.8,0,0,1-.2-.54V251a8.61,8.61,0,0,0-.42-2.89,5,5,0,0,0-1.16-1.88,4.26,4.26,0,0,0-1.72-1,7.22,7.22,0,0,0-2.11-.3,11.56,11.56,0,0,0-3.16.46,20.4,20.4,0,0,0-3.17,1.18v17.75a.75.75,0,0,1-.76.76h-.24a.77.77,0,0,1-.54-.22.73.73,0,0,1-.22-.54V244.33a.87.87,0,0,1,.2-.56.66.66,0,0,1,.52-.24h.32a.63.63,0,0,1,.52.24.82.82,0,0,1,.2.56V245a17.47,17.47,0,0,1,3.23-1.2,12.28,12.28,0,0,1,3.22-.44,8.76,8.76,0,0,1,2.73.42,6,6,0,0,1,2.24,1.32,6.22,6.22,0,0,1,1.52,2.36,9.83,9.83,0,0,1,.56,3.55v13.3A.73.73,0,0,1,140.39,264.82ZM138.57,239a3,3,0,0,1-2.28.9,3.7,3.7,0,0,1-2.69-1L131.68,237a8.66,8.66,0,0,0-.9-.8,1.59,1.59,0,0,0-1-.32,1.67,1.67,0,0,0-1.18.42,2.31,2.31,0,0,0-.46,1.7v1a1.43,1.43,0,0,1-.06.48c0,.11-.16.16-.35.16H127c-.29,0-.44-.21-.44-.64v-1a3.85,3.85,0,0,1,.86-2.74,3.07,3.07,0,0,1,2.31-.91,3.64,3.64,0,0,1,2.64,1.05l1.92,1.88a5.52,5.52,0,0,0,1,.8,1.83,1.83,0,0,0,1,.32,1.62,1.62,0,0,0,1.16-.42,2.41,2.41,0,0,0,.44-1.7v-1a1.5,1.5,0,0,1,.06-.49c0-.1.15-.16.34-.16H139c.29,0,.44.22.44.65v1A3.89,3.89,0,0,1,138.57,239Z" style="fill:#fff"/><path d="M161.46,254.48a.72.72,0,0,1-.54.22H147.38v.84a12.65,12.65,0,0,0,.56,4.11,5.92,5.92,0,0,0,1.57,2.48,5.46,5.46,0,0,0,2.32,1.25,11.49,11.49,0,0,0,2.8.33,25.28,25.28,0,0,0,2.89-.17,29.65,29.65,0,0,0,3-.51.22.22,0,0,0,.12,0l.12,0a.74.74,0,0,1,.42.12.49.49,0,0,1,.18.44v.28a.73.73,0,0,1-.16.51,1.12,1.12,0,0,1-.6.26,30.13,30.13,0,0,1-3,.5,26.78,26.78,0,0,1-3,.18,13.06,13.06,0,0,1-3.48-.46,7.21,7.21,0,0,1-2.89-1.57,7.32,7.32,0,0,1-1.94-3,13.6,13.6,0,0,1-.7-4.73V252.9a13.17,13.17,0,0,1,.52-3.82,8.93,8.93,0,0,1,1.54-3,7.08,7.08,0,0,1,2.55-2,8,8,0,0,1,3.48-.72,8.58,8.58,0,0,1,3.59.68,6.49,6.49,0,0,1,2.48,1.94,8.39,8.39,0,0,1,1.44,3,15.32,15.32,0,0,1,.46,3.89v1.08A.7.7,0,0,1,161.46,254.48Zm-1.54-1.66a10.44,10.44,0,0,0-1.4-5.86q-1.41-2.07-4.81-2.07a6.37,6.37,0,0,0-2.86.58,5.36,5.36,0,0,0-2,1.63,7,7,0,0,0-1.14,2.51,13.59,13.59,0,0,0-.36,3.25v.2h12.54Z" style="fill:#fff"/><path d="M190.78,264.82a.64.64,0,0,1-.5.22h-.4a.64.64,0,0,1-.5-.22.84.84,0,0,1-.18-.54V249.94c0-1.9-.41-3.21-1.24-3.95a5,5,0,0,0-3.45-1.1,10.75,10.75,0,0,0-2.74.38,14.46,14.46,0,0,0-2.66,1,8.76,8.76,0,0,1,.44,1.56,11.72,11.72,0,0,1,.16,2v14.5a1,1,0,0,1-.14.54.53.53,0,0,1-.46.22h-.61a.47.47,0,0,1-.44-.22,1.13,1.13,0,0,1-.12-.54v-14.5a8.26,8.26,0,0,0-.28-2.35,3.64,3.64,0,0,0-.8-1.5,2.92,2.92,0,0,0-1.2-.8,4.42,4.42,0,0,0-1.48-.24,9,9,0,0,0-2.82.5,23.93,23.93,0,0,0-2.91,1.18v17.71a1,1,0,0,1-.14.54.52.52,0,0,1-.46.22h-.56a.52.52,0,0,1-.46-.22,1,1,0,0,1-.14-.54V244.33a.82.82,0,0,1,.2-.56.64.64,0,0,1,.52-.24h.32a.64.64,0,0,1,.52.24.87.87,0,0,1,.2.56v.72a25.45,25.45,0,0,1,2.87-1.16,9.62,9.62,0,0,1,3.22-.56,5.91,5.91,0,0,1,2.06.36,4,4,0,0,1,1.74,1.28,19.31,19.31,0,0,1,3.19-1.18,12.1,12.1,0,0,1,3.26-.46,7.85,7.85,0,0,1,2.41.36,5.13,5.13,0,0,1,2,1.16,5.46,5.46,0,0,1,1.32,2,8.49,8.49,0,0,1,.48,3.05v14.34A.84.84,0,0,1,190.78,264.82Z" style="fill:#fff"/><path d="M210.41,262.77q-2.07,2.5-6.19,2.51T198,262.77Q196,260.28,196,255.7v-2.8q0-4.56,2.06-7.07t6.19-2.5q4.13,0,6.19,2.5t2.06,7.07v2.8Q212.47,260.27,210.41,262.77Zm.3-9.87a10.25,10.25,0,0,0-1.48-5.85q-1.48-2.16-5-2.16t-5,2.16a10.18,10.18,0,0,0-1.48,5.85v2.8a10.18,10.18,0,0,0,1.48,5.85q1.48,2.16,5,2.16t5-2.16a10.25,10.25,0,0,0,1.48-5.85Z" style="fill:#fff"/><path d="M230.3,259.71a5.68,5.68,0,0,1-.57,2.68,4.59,4.59,0,0,1-1.5,1.73,6.29,6.29,0,0,1-2.2.9,13.41,13.41,0,0,1-2.66.26c-.46,0-1,0-1.47,0l-1.56-.12-1.5-.18c-.48-.07-.91-.14-1.28-.22-.59-.14-.88-.35-.88-.64v-.45c0-.37.21-.56.64-.56h.24c1,.16,2,.31,3,.44a22.08,22.08,0,0,0,2.85.2,11.42,11.42,0,0,0,2-.16,4.12,4.12,0,0,0,1.62-.62,3,3,0,0,0,1.08-1.24,4.43,4.43,0,0,0,.38-2,3.21,3.21,0,0,0-.18-1.1,2.8,2.8,0,0,0-.66-1,7.18,7.18,0,0,0-1.3-1q-.82-.54-2.1-1.23l-2.57-1.4c-.74-.4-1.42-.79-2-1.18a8.09,8.09,0,0,1-1.52-1.24,4.74,4.74,0,0,1-1-1.46,4.56,4.56,0,0,1-.34-1.81,4.76,4.76,0,0,1,.52-2.34,4.34,4.34,0,0,1,1.36-1.52,5.37,5.37,0,0,1,1.94-.82,10.83,10.83,0,0,1,2.31-.24q2.16,0,3.42.12l2.3.24c.56.08.84.31.84.68v.32a.55.55,0,0,1-.2.5.89.89,0,0,1-.52.14h-.12l-2.34-.26a27.78,27.78,0,0,0-3.22-.18,12.4,12.4,0,0,0-1.79.12,4,4,0,0,0-1.44.48,2.49,2.49,0,0,0-1,1,3.77,3.77,0,0,0-.34,1.74,2.87,2.87,0,0,0,1,2.23,17.25,17.25,0,0,0,2.86,1.94l2.69,1.48c.83.46,1.56.89,2.2,1.3a8.75,8.75,0,0,1,1.6,1.3,4.81,4.81,0,0,1,1,1.45A4.39,4.39,0,0,1,230.3,259.71Z" style="fill:#fff"/><path d="M245.62,270.6a3.14,3.14,0,0,1-.79,1.35,2.92,2.92,0,0,1-1.3.7,7.33,7.33,0,0,1-1.78.2l-.88,0c-.24,0-.51-.05-.8-.1a1.21,1.21,0,0,1-.56-.2.49.49,0,0,1-.12-.36v-.36q0-.48.84-.48h1.52a2.56,2.56,0,0,0,1.84-.53,3.46,3.46,0,0,0,.52-2.32V244.29a.93.93,0,0,1,.16-.54.55.55,0,0,1,.48-.22h.45a.61.61,0,0,1,.5.22.82.82,0,0,1,.18.54v24.19A7.38,7.38,0,0,1,245.62,270.6Zm0-31.26a.73.73,0,0,1-.54.22h-.25a.73.73,0,0,1-.54-.22.76.76,0,0,1-.22-.54v-3a.75.75,0,0,1,.76-.76h.25a.75.75,0,0,1,.76.76v3A.76.76,0,0,1,245.66,239.34Z" style="fill:#fff"/><path d="M267,264.8a.66.66,0,0,1-.53.24h-.32a.66.66,0,0,1-.52-.24.87.87,0,0,1-.2-.56v-.65a17.87,17.87,0,0,1-3.22,1.21,12.73,12.73,0,0,1-3.23.44,8.65,8.65,0,0,1-2.72-.42,5.78,5.78,0,0,1-2.24-1.35,6.52,6.52,0,0,1-1.53-2.36,9.8,9.8,0,0,1-.56-3.52v-13.3a.76.76,0,0,1,.22-.54.74.74,0,0,1,.55-.22h.28a.67.67,0,0,1,.52.22.78.78,0,0,1,.2.54v13.3a8.38,8.38,0,0,0,.42,2.84,5,5,0,0,0,1.14,1.88,4.21,4.21,0,0,0,1.68,1,6.39,6.39,0,0,0,2.08.32h.08a11.3,11.3,0,0,0,3.17-.48,23.79,23.79,0,0,0,3.16-1.16V244.29a.76.76,0,0,1,.22-.54.73.73,0,0,1,.54-.22h.24a.7.7,0,0,1,.54.22.73.73,0,0,1,.23.54v20A.87.87,0,0,1,267,264.8Z" style="fill:#fff"/><path d="M287.79,264.82a.74.74,0,0,1-.54.22H287a.69.69,0,0,1-.52-.22.8.8,0,0,1-.2-.54V251a8.61,8.61,0,0,0-.42-2.89,5,5,0,0,0-1.16-1.88,4.26,4.26,0,0,0-1.72-1,7.22,7.22,0,0,0-2.11-.3,11.56,11.56,0,0,0-3.16.46,19.92,19.92,0,0,0-3.16,1.18v17.75a.77.77,0,0,1-.77.76h-.24a.75.75,0,0,1-.76-.76V244.33a.87.87,0,0,1,.2-.56.66.66,0,0,1,.52-.24h.32a.66.66,0,0,1,.53.24.87.87,0,0,1,.2.56V245a17.11,17.11,0,0,1,3.22-1.2,12.28,12.28,0,0,1,3.22-.44,8.72,8.72,0,0,1,2.73.42,6,6,0,0,1,2.24,1.32,6.22,6.22,0,0,1,1.52,2.36A9.83,9.83,0,0,1,288,251v13.3A.73.73,0,0,1,287.79,264.82Z" style="fill:#fff"/><path d="M304.32,264.92a1,1,0,0,1-.56.24,9.08,9.08,0,0,1-1,.1l-1.08,0a8.52,8.52,0,0,1-1.92-.2,3.54,3.54,0,0,1-1.42-.68,3,3,0,0,1-.88-1.33,6.35,6.35,0,0,1-.3-2.12V245.17h-4c-.51,0-.76-.21-.76-.64v-.4c0-.4.25-.6.76-.6h4V239.4a.84.84,0,0,1,.18-.54.59.59,0,0,1,.5-.22h.44a.55.55,0,0,1,.48.22.89.89,0,0,1,.16.54v4.13h4.77c.5,0,.76.2.76.6v.4c0,.43-.26.64-.76.64h-4.77V261q0,1.8.72,2.28a3.66,3.66,0,0,0,2,.48h1.93q.84,0,.84.57v.24A.65.65,0,0,1,304.32,264.92Z" style="fill:#fff"/><path d="M322.68,262.77c-1.37,1.67-3.44,2.51-6.19,2.51s-4.81-.84-6.19-2.51-2.06-4-2.06-7.07v-2.8q0-4.56,2.06-7.07t6.19-2.5c2.75,0,4.82.83,6.19,2.5s2.06,4,2.06,7.07v2.8C324.74,258.75,324.06,261.11,322.68,262.77Zm.3-9.87a10.18,10.18,0,0,0-1.48-5.85q-1.49-2.16-5-2.16t-5,2.16A10.18,10.18,0,0,0,310,252.9v2.8a10.18,10.18,0,0,0,1.49,5.85q1.47,2.16,5,2.16t5-2.16A10.18,10.18,0,0,0,323,255.7Z" style="fill:#fff"/><path d="M342.57,259.71a5.81,5.81,0,0,1-.56,2.68,4.77,4.77,0,0,1-1.5,1.73,6.35,6.35,0,0,1-2.21.9,13.41,13.41,0,0,1-2.66.26c-.46,0-.94,0-1.46,0l-1.56-.12-1.51-.18c-.48-.07-.91-.14-1.28-.22-.59-.14-.88-.35-.88-.64v-.45c0-.37.21-.56.64-.56h.24c1,.16,2,.31,3.05.44a21.81,21.81,0,0,0,2.84.2,11.34,11.34,0,0,0,2-.16,4,4,0,0,0,1.62-.62,3.06,3.06,0,0,0,1.09-1.24,4.57,4.57,0,0,0,.38-2,3.21,3.21,0,0,0-.18-1.1,2.8,2.8,0,0,0-.66-1,7.67,7.67,0,0,0-1.31-1c-.54-.36-1.25-.77-2.1-1.23l-2.56-1.4c-.75-.4-1.42-.79-2-1.18a8.42,8.42,0,0,1-1.52-1.24,5.13,5.13,0,0,1-1-1.46,4.56,4.56,0,0,1-.34-1.81,4.76,4.76,0,0,1,.52-2.34,4.44,4.44,0,0,1,1.36-1.52,5.34,5.34,0,0,1,2-.82,10.74,10.74,0,0,1,2.3-.24q2.16,0,3.42.12l2.31.24c.56.08.84.31.84.68v.32a.57.57,0,0,1-.2.5.94.94,0,0,1-.52.14H341l-2.35-.26a27.78,27.78,0,0,0-3.22-.18,12.26,12.26,0,0,0-1.78.12,4.07,4.07,0,0,0-1.45.48,2.49,2.49,0,0,0-1,1,3.9,3.9,0,0,0-.34,1.74,2.87,2.87,0,0,0,1,2.23,17.4,17.4,0,0,0,2.87,1.94l2.68,1.48c.83.46,1.56.89,2.2,1.3a8.84,8.84,0,0,1,1.61,1.3,5.22,5.22,0,0,1,1,1.45A4.57,4.57,0,0,1,342.57,259.71Z" style="fill:#fff"/></g></g></svg>