<svg xmlns="http://www.w3.org/2000/svg" viewBox="0 0 309.1 298.58"><title>atlasColoru</title><g id="Layer_2" data-name="Layer 2"><g id="Layer_1-2" data-name="Layer 1"><path d="M96.3,116.87a3,3,0,0,0-3,3V169.6c0,24.06,15.47,39.74,39.52,39.74h20.48a3.05,3.05,0,0,0,3-3.05V181.83a3.06,3.06,0,0,0-3-3H140.17c-1.66,0-9.48-.26-9.48-9.49V119.91a3.05,3.05,0,0,0-3-3Z" style="fill:#d7282f"/><path d="M138.25,130.22a3.06,3.06,0,0,0-3.05,3.06v28a3.05,3.05,0,0,0,3.05,3h14.93c1.68,0,7.56.26,7.56,9.5V206.3a3.05,3.05,0,0,0,3,3h31.34a3,3,0,0,0,3-3V170c0-24.07-15.47-39.76-39.52-39.76Z" style="fill:#d7282f"/><path d="M35,140.69c.44.09.61.38.51.88-.49,2.46-.7,3.7-1,6.2a.85.85,0,0,1-.29.55,1.17,1.17,0,0,1-.59.25c-2.86.3-4.29.48-7.16.89a91.51,91.51,0,0,0-.62,10c2.79.74,4.19,1.09,7,1.74a1.18,1.18,0,0,1,.56.31.85.85,0,0,1,.21.59c0,2.55.08,3.83.27,6.39,0,.52-.17.8-.62.83a.14.14,0,0,1-.09,0,.25.25,0,0,0-.13,0A193.75,193.75,0,0,1,6.17,163a5.7,5.7,0,0,1-2.49-1.47,6.5,6.5,0,0,1-1.41-2.33,11.22,11.22,0,0,1-.59-2.91,24.84,24.84,0,0,1,0-3.11,23.7,23.7,0,0,1,.4-3.06A10.83,10.83,0,0,1,3,147.29a6.46,6.46,0,0,1,1.69-2.17,5.78,5.78,0,0,1,2.65-1.2,163.63,163.63,0,0,1,27.4-3.23H35Zm-26.54,12a1.85,1.85,0,0,0-.51.2.67.67,0,0,0-.18.5.75.75,0,0,0,.59.83c4.64,1.58,7,2.32,11.64,3.68.09-3.08.19-4.6.48-7.65C15.61,151.11,13.21,151.6,8.41,152.72Z" style="fill:#76777a"/><path d="M40.66,124.19c-.16.67-.28,1.27-.41,1.76s-.3,1-.52,1.66a18.25,18.25,0,0,1-1.32,3,5.57,5.57,0,0,1-1.73,1.92,5.18,5.18,0,0,1-2.54.78,11.33,11.33,0,0,1-3.7-.48c-4.78-1.29-7.17-1.93-12-3.2-.66,1.59-1,2.4-1.6,4a2.14,2.14,0,0,1-.48.69.71.71,0,0,1-.65.22L13,133.92a.79.79,0,0,1-.53-.49,1.3,1.3,0,0,1-.08-.85c.41-1.73.63-2.59,1.1-4.31l-3.39-.89a.63.63,0,0,1-.45-.47,2.35,2.35,0,0,1-.07-.85c.42-2.78.66-4.17,1.23-6.94,0-.07,0-.1.06-.16a1.31,1.31,0,0,1,.43-.65.62.62,0,0,1,.6-.1l4.28,1.46c.61-1.72.93-2.58,1.6-4.27a1.18,1.18,0,0,1,.53-.63.77.77,0,0,1,.68-.09L22.24,116a.76.76,0,0,1,.44.52,1.14,1.14,0,0,1,0,.79c-.64,1.62-.95,2.44-1.53,4.09,4.7,1.61,7.05,2.43,11.74,4.07a3.74,3.74,0,0,0,1.63.32c.28-.07.54-.44.79-1.11.32-.86.48-1.29.82-2.15.24-.61.59-.82,1-.64l3.06,1.24C40.63,123.27,40.78,123.64,40.66,124.19Z" style="fill:#76777a"/><path d="M45.44,113.22a.76.76,0,0,1,0,.66c-1,1.93-1.52,2.9-2.45,4.88a.9.9,0,0,1-.52.47.83.83,0,0,1-.69,0q-14.1-6.4-28.31-12.61A.71.71,0,0,1,13,106a1.54,1.54,0,0,1,.13-.89c1.22-2.62,1.86-3.92,3.22-6.47a1.29,1.29,0,0,1,.61-.59.77.77,0,0,1,.68,0Q31.4,105.3,45,112.7A.88.88,0,0,1,45.44,113.22Z" style="fill:#76777a"/><path d="M60.22,92.68a1,1,0,0,1-.24.65c-1.38,1.49-2,2.26-3.34,3.82a.86.86,0,0,1-.6.33.8.8,0,0,1-.64-.17l-.53-.43a13,13,0,0,1-.63,3.07,11.87,11.87,0,0,1-1.66,3.11,12.72,12.72,0,0,1-1.93,2.13,7.1,7.1,0,0,1-2.36,1.4,6.58,6.58,0,0,1-2.86.3,8.29,8.29,0,0,1-3.36-1.23l-.32-.19a5.7,5.7,0,0,1-3.15-5.33c.09-2.28,1.38-5.3,4.08-8.82.68-.89,1-1.33,1.72-2.2l-1.21-1a2.44,2.44,0,0,0-2.54-.65,6.17,6.17,0,0,0-2.23,2c-.52.68-1,1.39-1.52,2.1s-1,1.42-1.39,2.1-.8,1.29-1.12,1.85-.58,1-.78,1.4l-.14.22a1.36,1.36,0,0,1-.52.5.66.66,0,0,1-.65-.09l-2.95-1.81c-.41-.25-.5-.72-.24-1.38a36.36,36.36,0,0,1,1.82-3.83A35.37,35.37,0,0,1,33.87,86a22.82,22.82,0,0,1,3.77-4,11.36,11.36,0,0,1,3.84-2.14,7.08,7.08,0,0,1,3.73-.13,8.24,8.24,0,0,1,3.56,2c4.49,4.12,6.73,6.19,11.2,10.34A.81.81,0,0,1,60.22,92.68ZM47.7,91.56c-.71.88-1.06,1.33-1.75,2.23C44.9,95.16,44.43,96.25,44.5,97a2.88,2.88,0,0,0,1.41,2.06l.32.22a1.8,1.8,0,0,0,1.86.41,5.27,5.27,0,0,0,1.63-1.59,7.4,7.4,0,0,0,1-1.8,14.23,14.23,0,0,0,.62-1.84C49.91,93.31,49.17,92.73,47.7,91.56Z" style="fill:#76777a"/><path d="M75.13,71.57a6.39,6.39,0,0,1,1,2.7,6.53,6.53,0,0,1-.27,3,10.55,10.55,0,0,1-1.66,3,17.75,17.75,0,0,1-3.13,3.13c-.5.4-1,.82-1.61,1.25s-1.18.86-1.8,1.29-1.22.85-1.82,1.24-1.15.74-1.67,1a1,1,0,0,1-1.31-.1l-2.42-2.47a.78.78,0,0,1-.24-.58.93.93,0,0,1,.33-.63,1.85,1.85,0,0,1,.14-.14c.53-.38,1.11-.82,1.74-1.3l1.88-1.43,1.73-1.31,1.24-1a4.54,4.54,0,0,0,1.56-1.77,1.43,1.43,0,0,0-.33-1.33,1.21,1.21,0,0,0-.85-.45,5.45,5.45,0,0,0-1.72.18c-2.85.64-4.27,1-7.12,1.85a9.85,9.85,0,0,1-4.3.41,6.09,6.09,0,0,1-3.49-1.76A5.21,5.21,0,0,1,49.6,71c.6-2.1,2.38-4.5,5.46-7a36.23,36.23,0,0,1,4.69-3.29,44.77,44.77,0,0,1,4.1-2c.69-.29,1.18-.23,1.47.19l2,2.85c.31.45.2.84-.32,1.2l-.14.09c-.36.18-.87.46-1.5.84s-1.32.8-2,1.26-1.47,1-2.21,1.48-1.37,1-1.91,1.42a6.38,6.38,0,0,0-1.57,1.62,1,1,0,0,0,.13,1.17,1,1,0,0,0,.85.32A8.65,8.65,0,0,0,60,70.81c2.84-.75,4.26-1.09,7.1-1.65a13.21,13.21,0,0,1,3.07-.28,7.7,7.7,0,0,1,2.26.43,4.82,4.82,0,0,1,1.61,1A6.83,6.83,0,0,1,75.13,71.57Z" style="fill:#76777a"/><path d="M281.29,252.09a3.12,3.12,0,0,1-1.68-.49,3.16,3.16,0,0,1-1-4.36,156.63,156.63,0,0,0,24.16-83.76c0-86.66-70.5-157.16-157.16-157.16A156.71,156.71,0,0,0,6,91.33a3.16,3.16,0,0,1-5.62-2.9A163,163,0,0,1,145.62,0C235.77,0,309.1,73.34,309.1,163.48A163.07,163.07,0,0,1,284,250.62,3.16,3.16,0,0,1,281.29,252.09Z" style="fill:#d7282f"/><path d="M145.4,253.73A91,91,0,0,1,93.89,87.63a3.16,3.16,0,0,1,3.58,5.21,84.72,84.72,0,1,0,123.3,108.58,3.16,3.16,0,0,1,5.62,2.89A90.75,90.75,0,0,1,145.4,253.73Z" style="fill:#d7282f"/><path d="M145.71,273.77A111,111,0,0,1,37.29,185.41a3.16,3.16,0,0,1,6.2-1.27,104.36,104.36,0,1,0,152-112.78,3.16,3.16,0,0,1,3-5.56,110.68,110.68,0,0,1-52.75,208Z" style="fill:#76777a"/><path d="M145.71,291.15a127.57,127.57,0,0,1-70-20.8,3.16,3.16,0,0,1,3.46-5.29A121.73,121.73,0,1,0,145.71,41.38a122.92,122.92,0,0,0-18.41,1.39,3.16,3.16,0,1,1-1-6.25,130.3,130.3,0,0,1,19.36-1.45,128,128,0,1,1,0,256.08Z" style="fill:#d7282f"/><path d="M199.34,298.58a3.16,3.16,0,0,1-1.19-6.08,139.16,139.16,0,0,0,86.93-129.35c0-77-62.64-139.64-139.63-139.64a139.56,139.56,0,0,0-70,18.8,3.16,3.16,0,0,1-3.17-5.47,146,146,0,0,1,73.19-19.65c80.48,0,146,65.48,146,146a145.47,145.47,0,0,1-90.87,135.2A3.11,3.11,0,0,1,199.34,298.58Z" style="fill:#76777a"/></g></g></svg>