<svg xmlns="http://www.w3.org/2000/svg" viewBox="0 0 658.22 321"><title>atlascolor</title><g id="Layer_2" data-name="Layer 2"><g id="Layer_1-2" data-name="Layer 1"><path d="M468.43,142.24c0,1-.55,1.55-1.65,1.55H453.25a1.7,1.7,0,0,1-1.26-.48,2.6,2.6,0,0,1-.67-1.26l-3.48-15.85H428l-3.48,15.85a2.7,2.7,0,0,1-.68,1.26,1.7,1.7,0,0,1-1.26.48H409.07c-1.1,0-1.64-.52-1.64-1.55a.43.43,0,0,1,0-.19.56.56,0,0,0,0-.29l14.41-59.94a14.9,14.9,0,0,1,2.51-5.6A11.36,11.36,0,0,1,428.26,73a15.43,15.43,0,0,1,4.69-1.5,32.65,32.65,0,0,1,5-.39,31.76,31.76,0,0,1,5,.39,15.39,15.39,0,0,1,4.64,1.5,11.26,11.26,0,0,1,3.82,3.24,14.91,14.91,0,0,1,2.52,5.6l14.4,59.94a.56.56,0,0,0,.05.29A.45.45,0,0,1,468.43,142.24Zm-29.2-56a5.07,5.07,0,0,0-.38-1.11c-.14-.23-.42-.34-.88-.34-.7,0-1.16.48-1.35,1.45L430.72,113h14.41Z" style="fill:#d7282f"/><path d="M506,143.89c-1.48.26-2.77.45-3.87.58a34.69,34.69,0,0,1-3.77.19,32.28,32.28,0,0,1-7-.68,10.25,10.25,0,0,1-8.11-7.49,27.31,27.31,0,0,1-1.06-8.36v-28l-7.73-1.25a3.41,3.41,0,0,1-1.41-.73,1.66,1.66,0,0,1-.62-1.3V90.43a2.12,2.12,0,0,1,2-2h7.73V80.47a1.56,1.56,0,0,1,.58-1.26,3.32,3.32,0,0,1,1.34-.67l11.72-2h.29a1.79,1.79,0,0,1,1.25.43,1.55,1.55,0,0,1,.48,1.21V88.4h7.93a1.83,1.83,0,0,1,1.35.58,1.88,1.88,0,0,1,.58,1.37v7.89a1.88,1.88,0,0,1-.58,1.37,1.83,1.83,0,0,1-1.35.58h-7.93v28.13a8.87,8.87,0,0,0,.48,3.72c.33.55,1.23.83,2.71.83h4.74c1.35,0,2,.54,2,1.63V142C507.87,143.06,507.26,143.7,506,143.89Z" style="fill:#d7282f"/><path d="M531.89,143.16a1.64,1.64,0,0,1-1.3.63h-11.8a2.16,2.16,0,0,1-2-2V71.58a1.8,1.8,0,0,1,.63-1.36,2.06,2.06,0,0,1,1.4-.58h11.8a1.72,1.72,0,0,1,1.3.58,2,2,0,0,1,.53,1.36v70.18A2.13,2.13,0,0,1,531.89,143.16Z" style="fill:#d7282f"/><path d="M586.17,143.21a1.85,1.85,0,0,1-1.35.58H574a1.82,1.82,0,0,1-1.35-.58,1.85,1.85,0,0,1-.58-1.35v-1.55a24.63,24.63,0,0,1-5.95,3.19,21.71,21.71,0,0,1-7.49,1.16,23.09,23.09,0,0,1-6.14-.82,14,14,0,0,1-5.27-2.76,13.69,13.69,0,0,1-3.72-5.12,19.82,19.82,0,0,1-1.4-7.93v-.87q0-8.5,5.65-12.42t18.13-3.92h5.22v-3.48q0-4.16-1.93-5.41a9.67,9.67,0,0,0-5.32-1.26c-1.55,0-3.11,0-4.69,0s-3.09.08-4.54.15-2.76.14-3.92.24l-2.9.24h-.48a1.94,1.94,0,0,1-1.26-.39,1.62,1.62,0,0,1-.48-1.35V91.78a2.11,2.11,0,0,1,1.84-2.13q2.7-.68,7.29-1.35a64.91,64.91,0,0,1,9.43-.68,37,37,0,0,1,9.43,1.11,18.67,18.67,0,0,1,7.1,3.49,15.66,15.66,0,0,1,4.5,6.09,22.94,22.94,0,0,1,1.59,9v34.52A1.85,1.85,0,0,1,586.17,143.21Zm-14.79-23.1h-5.51q-5,0-6.77,1.74t-1.74,5.31V128c0,2.07.5,3.39,1.5,4a9.42,9.42,0,0,0,4.59.87,13.79,13.79,0,0,0,4.21-.63,25.79,25.79,0,0,0,3.72-1.5Z" style="fill:#d7282f"/><path d="M637.12,128.42a16.28,16.28,0,0,1-1.26,6.38A13.61,13.61,0,0,1,632,140a18.64,18.64,0,0,1-6.43,3.43,29.73,29.73,0,0,1-9.18,1.26c-1.35,0-2.79,0-4.3-.14s-3.06-.25-4.64-.44-3.11-.42-4.59-.68-2.84-.54-4.06-.87a2.14,2.14,0,0,1-1.84-2.22v-7.83a1.89,1.89,0,0,1,.48-1.31,1.78,1.78,0,0,1,1.36-.53h.39c1.29.2,2.73.37,4.32.53s3.15.31,4.71.44,3,.23,4.32.29,2.37.1,3.15.1c2.33,0,3.87-.31,4.61-.92a3.49,3.49,0,0,0,1.12-2.85,3,3,0,0,0-.78-2,10.94,10.94,0,0,0-2.81-2.07l-12.62-7.26a17.53,17.53,0,0,1-6.36-5.94,15.37,15.37,0,0,1-2.28-8.36q0-7.35,4.85-11.17t14.87-3.82a61.94,61.94,0,0,1,9.62.63q3.91.63,7.59,1.6a2.15,2.15,0,0,1,1.84,2.22V99.9c0,1.23-.55,1.84-1.65,1.84h-.29c-.71-.13-1.7-.26-3-.39s-2.69-.26-4.21-.39-3.06-.24-4.64-.33-3-.15-4.2-.15a9.62,9.62,0,0,0-4,.58,2.26,2.26,0,0,0-1.16,2.22,2.34,2.34,0,0,0,.78,1.79,13.13,13.13,0,0,0,2.23,1.6l12,6.86a26.9,26.9,0,0,1,4.9,3.53,17,17,0,0,1,3,3.67,12.13,12.13,0,0,1,1.51,3.82A19.54,19.54,0,0,1,637.12,128.42Z" style="fill:#d7282f"/><path d="M395.88,224.7c-2.58.25-3-1.26-1.21-4.54a60.36,60.36,0,0,1,9-11.68,95.41,95.41,0,0,1,13.4-11.92q7.06-5.16,11.95-5.32a16.37,16.37,0,0,1,2.9,1.07,11.1,11.1,0,0,1,2.31,1.59,6.19,6.19,0,0,1,1.72,2.5,7,7,0,0,1,.3,3.57,12.8,12.8,0,0,1-2,4.8q-3.54,5.76-7.43,13.73t-6.69,14.82q-2.79,6.85-2.79,8.51c0,1.15.33,1.87,1,2.15s1.91-.08,3.76-1.1a64.8,64.8,0,0,0,7.87-5.56A123.55,123.55,0,0,0,446.31,221a202.3,202.3,0,0,0,13.53-17.53c.43-.68.84-1.3,1.21-1.86s.73-1.07,1.05-1.56l.91-1.34.76-1.1.61-.91.51-.75.38-.57.29-.43a3.13,3.13,0,0,0,.22-.32l.13-.21a.85.85,0,0,1,.11-.14.13.13,0,0,0,.05-.11,13.49,13.49,0,0,1,1.13-1.39,6.25,6.25,0,0,1,2.15-1.56,3.61,3.61,0,0,1,2.85,0q2.52,1.13,3.6,5.18t-2,9.16a109.22,109.22,0,0,0-6.21,11.6q-3.78,7.89-6.95,15.44c-2.12,5-3.17,8.11-3.17,9.21s.33,1.87,1,2.15,1.92-.08,3.76-1.1a66.84,66.84,0,0,0,7.92-5.56A122.3,122.3,0,0,0,486.46,221,207.79,207.79,0,0,0,500,203.49q3.27-4.89,4.94-7.6t2.74-4.87a2.19,2.19,0,0,1,2-1.15,7.25,7.25,0,0,1,2.17.35l.27.11a298.51,298.51,0,0,1-16,25.43,121.76,121.76,0,0,1-16.36,18.5,181.09,181.09,0,0,1-15,12.14,68.41,68.41,0,0,1-9.42,5.8,15,15,0,0,1-4.27,1.56c-.57,0-1.37-.5-2.39-1.51a10.56,10.56,0,0,1-2.45-4.1,10.92,10.92,0,0,1-.21-5.94,159.93,159.93,0,0,1,9.94-26.32,122.33,122.33,0,0,1-16.28,18.37,181.09,181.09,0,0,1-15,12.14,69,69,0,0,1-9.42,5.8,15.1,15.1,0,0,1-4.27,1.56c-.58,0-1.37-.5-2.39-1.51a10.56,10.56,0,0,1-2.45-4.1,10.92,10.92,0,0,1-.21-5.94,147.12,147.12,0,0,1,8.11-22.29,223.14,223.14,0,0,1,10.69-21.43,48.25,48.25,0,0,0-9.83,5,43.56,43.56,0,0,0-8.54,7.89,48.36,48.36,0,0,0-7.63,12.92Z" style="fill:#76777a"/><path d="M509.53,229.43a3.29,3.29,0,0,0,.05,2.68c1.86.75,3.38.59,4.57-.51a7.8,7.8,0,0,0,2.33-4.16,5.51,5.51,0,0,0-.35-4.08l-5.21.21c0-2.07.41-3.53,1.21-4.37a3.12,3.12,0,0,1,2.79-1,4.61,4.61,0,0,1,2.77,1.45l24.65.54.11,1-23.79.43a15.3,15.3,0,0,1,.08,7,14.85,14.85,0,0,1-3.25,6.66,8.32,8.32,0,0,1-5,3,9.28,9.28,0,0,1-5.72-.37,7,7,0,0,1-3.49-4,13.07,13.07,0,0,1-.73-5.58,9.45,9.45,0,0,1,1.37-4.54,2.19,2.19,0,0,1,2.26-.94,8.8,8.8,0,0,1,3.11,1.07,12.46,12.46,0,0,1,2.64,1.88c.67.67.93,1.18.75,1.53A8.21,8.21,0,0,0,509.53,229.43Z" style="fill:#76777a"/><path d="M548,215.76a12.77,12.77,0,0,1,3.25,2.07A10.66,10.66,0,0,1,553,219.6c.14.36-.17,1.05-.94,2.07s-1.64,2.08-2.61,3.19c-.61.68-1.13,1.3-1.58,1.85a10.57,10.57,0,0,0-.94,1.32,1.15,1.15,0,0,0-.14.78,1.7,1.7,0,0,0,.3.62,1.77,1.77,0,0,0,.48.43c.18.1.4.21.65.32,2.9.11,6,.07,9.29-.11a4.87,4.87,0,0,1,3.38.89,4.35,4.35,0,0,1,1.4,2.28,14.42,14.42,0,0,1,.38,2.52,10.22,10.22,0,0,0,.13,1.13c.05.29.17.43.35.43a8.63,8.63,0,0,0,2.55-1.07q1.91-1,3.84-2.31a13.1,13.1,0,0,0,2.69-2.2,6,6,0,0,1,.59-.62,1.26,1.26,0,0,1,.51-.3,2.37,2.37,0,0,1,.43,0,.66.66,0,0,1,.32.08l.29.19c-2.07,1.82-3.84,3.31-5.29,4.46s-2.88,2.17-4.29,3.08a6.9,6.9,0,0,1-3.36,1.37,3.64,3.64,0,0,1-2.71-1.2,10.35,10.35,0,0,1-1.88-2.74,14.17,14.17,0,0,1-1-2.61c-.28-.71-1-1.1-2.28-1.15a22.61,22.61,0,0,0-3.68.13,10.25,10.25,0,0,1-1.93.11c-1-.07-2.29-.76-4-2.07a14.15,14.15,0,0,1-4-5,4.82,4.82,0,0,1-.16-3.28,13.19,13.19,0,0,1,1.42-3.35,29.52,29.52,0,0,1,2.6-3.63A7.85,7.85,0,0,1,548,215.76Z" style="fill:#76777a"/><path d="M602.71,209.45c-1,1.25-2.34,2.84-3.92,4.78q-4.08,4.83-8.7,10.63a114.4,114.4,0,0,0-7.49,10.39c-1.92,3.07-2.48,5-1.69,5.78.28.14.92-.18,1.9-1s2.16-1.79,3.52-3,2.94-2.57,4.51-3.86a32.16,32.16,0,0,1,4.35-3.06q4.47-2.48,8.92-4.49a23.35,23.35,0,0,1,7.84-2.23l.22,1.51a17.35,17.35,0,0,0-6.13,1.82q-3.54,1.66-7.35,3.76c-.79.47-1.6.91-2.42,1.34a65.29,65.29,0,0,0-9.72,7.68q-2.85,2.53-5.08,4.33a7.88,7.88,0,0,1-3.3,1.91,8.64,8.64,0,0,1-3.63-2.26,5.16,5.16,0,0,1-1.47-3.65q.38-4.62,4.4-12.14t9.32-15.42q5.3-7.89,9.37-13.64,1.67-2.42,2.85-4.08c1.29-.64,2.45-.11,3.49,1.61a17.48,17.48,0,0,1,2.17,6c.42,2.27.33,3.91-.24,4.91A12.36,12.36,0,0,1,602.71,209.45Z" style="fill:#76777a"/><path d="M623.93,231.74q3-2.15,6.44-4.41.64-2.09,2.37-6.23A107.58,107.58,0,0,1,639.4,208q3.48-5.78,8.11-12.43,1-1.39,1.77-2.64c.25-.32.48-.64.7-1,.89-.25,2,.19,3.38,1.34a16.48,16.48,0,0,1,3.55,4.3,8,8,0,0,1,1.29,4.78c-.36.28-1.78,1.82-4.25,4.59s-5.2,6.15-8.19,10.12a85.55,85.55,0,0,0-7.49,11.71,12.71,12.71,0,0,0-.94,2.58,3.72,3.72,0,0,0-.08,2.1c.43.68,1.41.69,3,0a37.26,37.26,0,0,0,5.35-2.9q3-1.94,5.69-3.9c1.77-1.3,3.11-2.3,4-3,.25-.17.45-.32.59-.43l.86,1c-.36.25-.89.65-1.61,1.18q-2.52,1.94-6.69,4.81a62.12,62.12,0,0,1-8.24,4.86c-2.72,1.33-4.85,1.77-6.39,1.34a8.36,8.36,0,0,1-2.63-1.53,3.8,3.8,0,0,1-1.4-2.39,8.46,8.46,0,0,1,0-2.36,54.8,54.8,0,0,0-4.83,3.6c-1.22,1-2.24,1.74-3.07,2.31q-5.52,3.33-8.8,1.9a6.45,6.45,0,0,1-3.9-5.31,11.06,11.06,0,0,1,1.94-7.87q2.55-4,8.72-5.64a11.61,11.61,0,0,1,6.82.78q3.33,1.43,3.6,3.78a21.68,21.68,0,0,0-5.21,1c-.93.4-1.72.76-2.39,1.08s-1.31.68-2,1.07a11.41,11.41,0,0,0-1.61,1.18,11.28,11.28,0,0,0-3.41,4.49c-.48,1.41-.27,2.32.65,2.71s2.55-.16,4.91-1.66C621.83,233.19,622.75,232.56,623.93,231.74Z" style="fill:#76777a"/><path d="M103.52,125.65a3.27,3.27,0,0,0-3.27,3.26v53.42c0,25.87,16.63,42.73,42.49,42.73h22a3.28,3.28,0,0,0,3.27-3.28v-26.3a3.28,3.28,0,0,0-3.27-3.26H150.7c-1.8,0-10.2-.29-10.2-10.2V128.91a3.28,3.28,0,0,0-3.28-3.26Z" style="fill:#d7282f"/><path d="M148.63,140a3.3,3.3,0,0,0-3.28,3.29v30.13a3.29,3.29,0,0,0,3.28,3.27h16.05c1.8,0,8.12.28,8.12,10.21v34.88a3.29,3.29,0,0,0,3.28,3.28h33.69a3.28,3.28,0,0,0,3.28-3.28v-39c0-25.87-16.63-42.74-42.49-42.74Z" style="fill:#d7282f"/><path d="M37.57,151.25c.48.1.66.41.56.95-.53,2.65-.76,4-1.12,6.66a.88.88,0,0,1-.31.6,1.19,1.19,0,0,1-.63.26c-3.08.33-4.62.52-7.69,1a95.33,95.33,0,0,0-.67,10.71c3,.79,4.5,1.17,7.51,1.87a1.23,1.23,0,0,1,.6.34.89.89,0,0,1,.23.63c0,2.74.08,4.11.28,6.87.05.55-.17.85-.66.89a.18.18,0,0,1-.1,0,.26.26,0,0,0-.14,0,206.12,206.12,0,0,1-28.79-6.78A6.1,6.1,0,0,1,4,173.6a7,7,0,0,1-1.52-2.51A11.83,11.83,0,0,1,1.81,168a25,25,0,0,1,0-3.35,25.35,25.35,0,0,1,.42-3.28,12,12,0,0,1,1-3A7,7,0,0,1,5,156a6.31,6.31,0,0,1,2.85-1.3,176.84,176.84,0,0,1,29.46-3.47h.23ZM9,164.18a2,2,0,0,0-.55.22c-.11.07-.17.25-.19.54a.8.8,0,0,0,.64.88c5,1.71,7.48,2.5,12.51,4,.1-3.3.2-4.94.51-8.21C16.79,162.46,14.2,163,9,164.18Z" style="fill:#76777a"/><path d="M43.71,133.52c-.16.72-.3,1.35-.44,1.88a17.66,17.66,0,0,1-.56,1.79,20.22,20.22,0,0,1-1.41,3.17,6,6,0,0,1-1.86,2.06,5.61,5.61,0,0,1-2.73.85,12.34,12.34,0,0,1-4-.52c-5.14-1.39-7.71-2.07-12.86-3.44-.72,1.71-1.06,2.58-1.72,4.32a2.3,2.3,0,0,1-.52.74.75.75,0,0,1-.69.24L14,144a.85.85,0,0,1-.57-.52,1.31,1.31,0,0,1-.09-.91c.44-1.87.67-2.8,1.18-4.64l-3.64-1a.66.66,0,0,1-.48-.5,2.46,2.46,0,0,1-.08-.91c.45-3,.71-4.49,1.32-7.47a1.15,1.15,0,0,0,.06-.17,1.41,1.41,0,0,1,.46-.7.69.69,0,0,1,.65-.11l4.61,1.57c.65-1.85,1-2.77,1.71-4.59a1.34,1.34,0,0,1,.57-.67.81.81,0,0,1,.74-.1l3.49,1.37a.84.84,0,0,1,.47.56,1.25,1.25,0,0,1,0,.85c-.69,1.75-1,2.63-1.65,4.4,5.06,1.73,7.58,2.61,12.62,4.37a4,4,0,0,0,1.76.35c.3-.07.58-.47.85-1.2.34-.92.52-1.38.88-2.3.26-.66.64-.89,1.11-.69l3.3,1.33C43.69,132.52,43.84,132.92,43.71,133.52Z" style="fill:#76777a"/><path d="M48.85,121.71a.86.86,0,0,1,0,.72c-1.11,2.07-1.64,3.12-2.63,5.25a1,1,0,0,1-.56.5.87.87,0,0,1-.74,0q-15.16-6.89-30.44-13.56A.79.79,0,0,1,14,114a1.57,1.57,0,0,1,.14-1c1.31-2.82,2-4.22,3.47-7a1.3,1.3,0,0,1,.65-.64.78.78,0,0,1,.73,0q14.74,7.76,29.39,15.71A1,1,0,0,1,48.85,121.71Z" style="fill:#76777a"/><path d="M64.74,99.64a1,1,0,0,1-.26.69c-1.48,1.61-2.2,2.44-3.59,4.11a1,1,0,0,1-.64.36.91.91,0,0,1-.69-.18l-.57-.46a14.35,14.35,0,0,1-.68,3.29,12.06,12.06,0,0,1-1.79,3.34,13,13,0,0,1-2.06,2.3,7.76,7.76,0,0,1-2.55,1.5,6.91,6.91,0,0,1-3.07.32,8.69,8.69,0,0,1-3.61-1.32l-.35-.21a6.1,6.1,0,0,1-3.38-5.72c.09-2.45,1.48-5.7,4.38-9.49.73-1,1.1-1.42,1.85-2.36l-1.29-1c-1-.82-1.95-1.06-2.73-.7a6.65,6.65,0,0,0-2.41,2.15c-.55.73-1.1,1.49-1.63,2.26s-1,1.52-1.5,2.25-.86,1.39-1.2,2-.62,1.1-.84,1.51l-.15.24a1.4,1.4,0,0,1-.56.53.7.7,0,0,1-.7-.09l-3.17-2c-.44-.27-.53-.77-.25-1.48a40.3,40.3,0,0,1,1.95-4.12,37.92,37.92,0,0,1,3.16-5,24.83,24.83,0,0,1,4.06-4.3,12.1,12.1,0,0,1,4.13-2.3,7.5,7.5,0,0,1,4-.13,8.67,8.67,0,0,1,3.82,2.19c4.83,4.43,7.24,6.65,12,11.11A.86.86,0,0,1,64.74,99.64ZM51.29,98.43c-.77.95-1.15,1.43-1.89,2.4-1.13,1.47-1.64,2.65-1.56,3.48a3.1,3.1,0,0,0,1.52,2.22l.34.24c.8.56,1.47.71,2,.44a5.72,5.72,0,0,0,1.76-1.71,8.76,8.76,0,0,0,1.1-1.94,14.91,14.91,0,0,0,.67-2Z" style="fill:#76777a"/><path d="M80.77,77a7,7,0,0,1,1.12,2.89,6.92,6.92,0,0,1-.3,3.17,11.15,11.15,0,0,1-1.77,3.28,19.79,19.79,0,0,1-3.37,3.36c-.54.43-1.12.88-1.74,1.34s-1.26.93-1.93,1.39-1.31.91-2,1.33-1.24.8-1.8,1.12a1.06,1.06,0,0,1-1.41-.1L65,92.07a.77.77,0,0,1-.25-.62,1,1,0,0,1,.35-.69l.15-.14c.56-.41,1.19-.88,1.87-1.4l2-1.54L71,86.28l1.34-1A5,5,0,0,0,74,83.33a1.53,1.53,0,0,0-.35-1.43,1.3,1.3,0,0,0-.92-.48,5.39,5.39,0,0,0-1.84.19c-3.07.69-4.6,1.08-7.67,2a10.52,10.52,0,0,1-4.61.44,6.6,6.6,0,0,1-3.76-1.9,5.6,5.6,0,0,1-1.56-5.84c.64-2.26,2.56-4.83,5.87-7.52a39.58,39.58,0,0,1,5-3.54A44.28,44.28,0,0,1,68.65,63c.73-.32,1.26-.24,1.57.21l2.11,3.06c.33.48.21.91-.34,1.29l-.15.1c-.39.19-.93.49-1.61.9S68.81,69.45,68,70s-1.58,1-2.37,1.58-1.48,1.07-2.06,1.53a7,7,0,0,0-1.69,1.74A1.08,1.08,0,0,0,63,76.4a8.09,8.09,0,0,0,1.51-.27c3-.82,4.58-1.17,7.64-1.78a13.59,13.59,0,0,1,3.3-.29,8.15,8.15,0,0,1,2.43.45,5.22,5.22,0,0,1,1.72,1A7.24,7.24,0,0,1,80.77,77Z" style="fill:#76777a"/><path d="M302.41,271a3.34,3.34,0,0,1-1.81-.53,3.39,3.39,0,0,1-1.06-4.68,168.52,168.52,0,0,0,26-90.06c0-93.16-75.79-169-168.95-169A168.51,168.51,0,0,0,6.41,98.19a3.4,3.4,0,0,1-6-3.13A175.29,175.29,0,0,1,156.56,0c96.91,0,175.75,78.84,175.75,175.75a175.23,175.23,0,0,1-27,93.68A3.36,3.36,0,0,1,302.41,271Z" style="fill:#d7282f"/><path d="M156.32,272.78A97.87,97.87,0,0,1,100.94,94.21a3.4,3.4,0,0,1,3.85,5.6A91.08,91.08,0,1,0,237.35,216.54a3.4,3.4,0,0,1,6,3.11A97.59,97.59,0,0,1,156.32,272.78Z" style="fill:#d7282f"/><path d="M156.65,294.33c-56.27,0-105.29-40-116.56-95A3.4,3.4,0,1,1,46.75,198c10.62,51.9,56.84,89.56,109.9,89.56A112.19,112.19,0,0,0,210.12,76.71a3.4,3.4,0,0,1,3.24-6,119,119,0,0,1-56.71,223.59Z" style="fill:#76777a"/><path d="M156.65,313a137.1,137.1,0,0,1-75.24-22.36A3.4,3.4,0,1,1,85.13,285a130.29,130.29,0,0,0,71.52,21.26c72.16,0,130.86-58.71,130.86-130.87S228.81,44.49,156.65,44.49A132.11,132.11,0,0,0,136.85,46a3.4,3.4,0,0,1-1-6.72,138.87,138.87,0,0,1,20.81-1.56c75.91,0,137.66,61.75,137.66,137.65S232.56,313,156.65,313Z" style="fill:#d7282f"/><path d="M214.31,321a3.4,3.4,0,0,1-1.29-6.54A149.61,149.61,0,0,0,306.48,175.4c0-82.78-67.34-150.12-150.11-150.12A150,150,0,0,0,81.1,45.48a3.39,3.39,0,1,1-3.41-5.87,156.82,156.82,0,0,1,78.68-21.13c86.52,0,156.91,70.39,156.91,156.92a156.4,156.4,0,0,1-97.69,145.35A3.43,3.43,0,0,1,214.31,321Z" style="fill:#76777a"/></g></g></svg>