<svg xmlns="http://www.w3.org/2000/svg" width="671.834" height="337.492" viewBox="0 0 671.834 337.492">
  <defs>
    <style>
      .cls-1 {
        fill: none;
        stroke: #15374a;
        stroke-miterlimit: 10;
      }

      .cls-2, .cls-5 {
        fill: #1a1718;
      }

      .cls-3 {
        opacity: 0.7;
      }

      .cls-4 {
        fill: #3f5f5f;
      }

      .cls-5, .cls-8 {
        font-size: 13.142px;
        font-family: NeoSans-Light, Neo Sans;
        font-weight: 300;
      }

      .cls-6, .cls-7, .cls-8 {
        fill: #fff;
      }

      .cls-6, .cls-7 {
        font-size: 50.721px;
        font-family: NeoSans, Neo Sans;
      }

      .cls-6 {
        letter-spacing: -0.13em;
      }
      
.vibrate-1{
    -webkit-animation: vibrate-1 2s ease-in-out infinite both ;
	        animation: vibrate-1 2s ease-in-out infinite both;
            animation-direction: alternate-reverse;
}
.vibrate-2{
    -webkit-animation: vibrate-2 2s ease-in-out infinite both ;
	        animation: vibrate-2 2s ease-in-out infinite both;
            animation-direction: alternate-reverse;
}
            
@-webkit-keyframes vibrate-1 {
  0% {
    -webkit-transform: translate(0);
            transform: translate(0);
  }
  20% {
    -webkit-transform: translate(-1px, 3px);
            transform: translate(-3px, 3px);
  }
  40% {
    -webkit-transform: translate(-3px, -3px);
            transform: translate(-3px, -3px);
  }
  60% {
    -webkit-transform: translate(3px, 0px);
            transform: translate(3px, 3px);
  }
  80% {
    -webkit-transform: translate(3px, -3px);
            transform: translate(3px, -3px);
  }
  100% {
    -webkit-transform: translate(0);
            transform: translate(0);
  }
}
@keyframes vibrate-2 {
  0% {
    -webkit-transform: translate(0);
            transform: translate(0);
  }
  20% {
    -webkit-transform: translate(2px, -2px);
            transform: translate(2px, -2px);
  }
  40% {
    -webkit-transform: translate(-2px, 2px);
            transform: translate(-2px, 2px);
  }
  60% {
    -webkit-transform: translate(2px, 2px);
            transform: translate(2px, 2px);
  }
  80% {
    -webkit-transform: translate(-2px, -2px);
            transform: translate(-2px, -2px);
  }
  100% {
    -webkit-transform: translate(0);
            transform: translate(0);
  }
}
    </style>
  </defs>
  <g id="Grupo_1840" data-name="Grupo 1840" transform="translate(-207.831 -866.495)">
    <g id="Grupo_1837" data-name="Grupo 1837">
      <g id="Grupo_1825" data-name="Grupo 1825">
        <path id="Trazado_781" data-name="Trazado 781" class="cls-1" d="M279.713,948.007c.044,0-.255,2.4,7.652,10.3l.683.684v86.548l-75.742,129.994a26.4,26.4,0,0,0-3.975,14.322c0,9.183,9.434,13.363,18.2,13.363H410.217c8.766,0,18.2-4.18,18.2-13.363a26.008,26.008,0,0,0-3.976-14.322l-.135-.21L348.7,1045.543V958.995l.684-.684c8.05-8.048,7.6-10.389,7.589-10.412a7.466,7.466,0,0,0-1.5-.175,6.921,6.921,0,0,0-.746.039l-.413.043-.407-.1a11.323,11.323,0,0,0-2.73-.258,31.87,31.87,0,0,0-4.3.329l-.362.028-56.632-.028a31.9,31.9,0,0,0-4.3-.329,11.337,11.337,0,0,0-2.732.258l-.4.1-.415-.043a6.893,6.893,0,0,0-.744-.039,3.019,3.019,0,0,0-1.568.283Z"/>
      </g>
      <g id="Grupo_1826" data-name="Grupo 1826">
        <path id="Trazado_782" data-name="Trazado 782" class="cls-2" d="M270.177,1094.283l-46.269,76.746s-5.031,9.365-2.656,16.212,3.914,11.18,25.16,11.18H398.777s13.98.424,16.635-10.624-1.54-16.353-9.926-29.494-36.064-58.429-36.064-58.429-11.6,6.57-22.644,6.433-28.237,2.656-38.161-.7S274.089,1089.669,270.177,1094.283Z"/>
      </g>
      <g id="Grupo_1827" class="vibrate-1" data-name="Grupo 1827">
        <path id="Trazado_783" data-name="Trazado 783" class="cls-2" d="M331.46,930.549a7.234,7.234,0,1,0-7.234,7.235A7.234,7.234,0,0,0,331.46,930.549Z"/>
      </g>
      <g id="Grupo_1830" class="vibrate-2" data-name="Grupo 1830">
        <g id="Grupo_1828" data-name="Grupo 1828">
          <path id="Trazado_784" data-name="Trazado 784" class="cls-2" d="M350.968,918.393a12.942,12.942,0,1,0,10.546-14.959A12.941,12.941,0,0,0,350.968,918.393Z"/>
        </g>
        <g id="Grupo_1829" data-name="Grupo 1829" class="cls-3">
          <path id="Trazado_785" data-name="Trazado 785" class="cls-4" d="M373.828,916.185s.022-.25.05-.684a5.086,5.086,0,0,0-.01-.792,5.5,5.5,0,0,0-.113-1.037,6.482,6.482,0,0,0-.3-1.2,9.322,9.322,0,0,0-.518-1.288,10.442,10.442,0,0,0-.78-1.269,11.7,11.7,0,0,0-.987-1.181,11.52,11.52,0,0,0-1.183-.989,9.77,9.77,0,0,0-1.267-.779,9.366,9.366,0,0,0-1.29-.518,6.3,6.3,0,0,0-1.2-.3,5.484,5.484,0,0,0-1.033-.113,4.723,4.723,0,0,0-.793-.008c-.441.023-.687.051-.687.051s.25.05.675.118a9.887,9.887,0,0,1,1.717.436,8.332,8.332,0,0,1,1.089.419c.389.143.753.39,1.155.583a13.7,13.7,0,0,1,1.133.781,11.125,11.125,0,0,1,1.069.928,11.444,11.444,0,0,1,.931,1.07,13.291,13.291,0,0,1,.78,1.132c.193.4.441.766.583,1.155a8.672,8.672,0,0,1,.42,1.09,9.791,9.791,0,0,1,.436,1.716C373.777,915.939,373.828,916.185,373.828,916.185Z"/>
        </g>
      </g>
      <g id="Grupo_1833" class="vibrate-1" data-name="Grupo 1833">
        <g id="Grupo_1831" data-name="Grupo 1831">
          <path id="Trazado_786" data-name="Trazado 786" class="cls-2" d="M359.918,877.053a9.02,9.02,0,1,0,7.349-10.425A9.018,9.018,0,0,0,359.918,877.053Z"/>
        </g>
        <g id="Grupo_1832"  data-name="Grupo 1832" class="cls-3">
          <path id="Trazado_787" data-name="Trazado 787" class="cls-4" d="M375.849,875.515s.017-.174.035-.477a3.348,3.348,0,0,0-.007-.552,3.752,3.752,0,0,0-.079-.723,4.411,4.411,0,0,0-.207-.836,6.6,6.6,0,0,0-.36-.9,7.258,7.258,0,0,0-.544-.884,7.841,7.841,0,0,0-.689-.823,7.751,7.751,0,0,0-.823-.689,6.694,6.694,0,0,0-.884-.543,6.357,6.357,0,0,0-.9-.361,4.477,4.477,0,0,0-.836-.208,3.886,3.886,0,0,0-.719-.078,3.244,3.244,0,0,0-.554-.006c-.307.016-.478.036-.478.036s.173.035.47.081a7.1,7.1,0,0,1,1.2.3,6.063,6.063,0,0,1,.76.292c.27.1.524.272.8.407.259.174.537.337.789.545a7.829,7.829,0,0,1,.746.646,8.005,8.005,0,0,1,.648.746,9.566,9.566,0,0,1,.544.788c.134.282.308.535.406.806a5.751,5.751,0,0,1,.292.759,6.757,6.757,0,0,1,.3,1.2C375.813,875.344,375.849,875.515,375.849,875.515Z"/>
        </g>
      </g>
      <g id="Grupo_1836" class="vibrate-2" data-name="Grupo 1836">
        <g id="Grupo_1834" data-name="Grupo 1834">
          <path id="Trazado_788" data-name="Trazado 788" class="cls-2" d="M302.4,898.816a19.9,19.9,0,1,0,16.22-23.006A19.9,19.9,0,0,0,302.4,898.816Z"/>
        </g>
        <g id="Grupo_1835" data-name="Grupo 1835" class="cls-3">
          <path id="Trazado_789" data-name="Trazado 789" class="cls-4" d="M337.557,895.421s.035-.385.077-1.053a7.545,7.545,0,0,0-.015-1.219,8.334,8.334,0,0,0-.174-1.594,9.927,9.927,0,0,0-.457-1.845,14.545,14.545,0,0,0-.8-1.981,15.9,15.9,0,0,0-1.2-1.951,13.344,13.344,0,0,0-3.338-3.337,14.933,14.933,0,0,0-1.951-1.2,14.381,14.381,0,0,0-1.98-.8,9.754,9.754,0,0,0-1.846-.458,8.51,8.51,0,0,0-1.587-.174,7.188,7.188,0,0,0-1.221-.011c-.679.036-1.057.078-1.057.078s.385.077,1.039.182a15.181,15.181,0,0,1,2.64.67,12.954,12.954,0,0,1,1.675.643c.6.221,1.158.6,1.778.9a20.97,20.97,0,0,1,1.741,1.2,15.472,15.472,0,0,1,3.075,3.073,20.5,20.5,0,0,1,1.2,1.741c.3.62.678,1.179.9,1.776a13.116,13.116,0,0,1,.645,1.676,14.979,14.979,0,0,1,.672,2.64C337.478,895.042,337.557,895.421,337.557,895.421Z"/>
        </g>
      </g>
    </g>
    <path id="Trazado_970" data-name="Trazado 970" class="cls-2" d="M70.383-39.328a55.386,55.386,0,0,1-2.736,18.582,31.711,31.711,0,0,1-7.7,12.409A29.709,29.709,0,0,1,48.173-1.4,49.177,49.177,0,0,1,33.219.764Q18.2.764,12.346-.255a3.47,3.47,0,0,1-1.527-.891,2.083,2.083,0,0,1-.636-1.527V-91.765a2.083,2.083,0,0,1,.636-1.527,3.47,3.47,0,0,1,1.527-.891Q18.2-95.2,33.219-95.2a50.558,50.558,0,0,1,14.955,2.1,29.454,29.454,0,0,1,11.773,6.809,31.15,31.15,0,0,1,7.7,12.346q2.736,7.636,2.736,18.837Zm-5.6-15.782q0-10.182-2.418-16.927a27.479,27.479,0,0,0-6.682-10.818,23.819,23.819,0,0,0-9.991-5.727,44.8,44.8,0,0,0-12.473-1.655q-5.6,0-9.418.255t-8.018.509V-4.709q4.2.255,8.018.382t9.418.127A43.242,43.242,0,0,0,45.691-5.918a24.408,24.408,0,0,0,9.991-5.791,27.479,27.479,0,0,0,6.682-10.818,50.267,50.267,0,0,0,2.418-16.8ZM93.8-83.365a2.336,2.336,0,0,1-.7,1.718,2.336,2.336,0,0,1-1.718.7h-.764a2.336,2.336,0,0,1-1.718-.7,2.336,2.336,0,0,1-.7-1.718v-9.418a2.336,2.336,0,0,1,.7-1.718,2.336,2.336,0,0,1,1.718-.7h.764a2.336,2.336,0,0,1,1.718.7,2.336,2.336,0,0,1,.7,1.718Zm0,80.946A2.336,2.336,0,0,1,93.1-.7a2.336,2.336,0,0,1-1.718.7h-.764A2.336,2.336,0,0,1,88.9-.7a2.336,2.336,0,0,1-.7-1.718v-63.51a2.336,2.336,0,0,1,.7-1.718,2.336,2.336,0,0,1,1.718-.7h.764a2.336,2.336,0,0,1,1.718.7,2.336,2.336,0,0,1,.7,1.718Zm66.31-64.019a4.466,4.466,0,0,1-.127,1.273L143.311-7.255q-1.4,5.091-3.627,6.555A8.951,8.951,0,0,1,134.656.764,9.682,9.682,0,0,1,129.565-.7q-2.418-1.464-3.818-6.555l-16.673-57.91a3.311,3.311,0,0,1-.127-1.018q0-2.164,2.036-2.164h1.273a2.209,2.209,0,0,1,1.273.445,3.245,3.245,0,0,1,1.018,1.845l16.291,57.4A8.6,8.6,0,0,0,132.683-4.9a2.994,2.994,0,0,0,1.973.827A2.556,2.556,0,0,0,136.5-4.9a9.986,9.986,0,0,0,1.718-3.755l16.291-57.4a3.245,3.245,0,0,1,1.018-1.845,2.209,2.209,0,0,1,1.273-.445h1.527Q160.111-68.346,160.111-66.437Zm20.746-16.927a2.336,2.336,0,0,1-.7,1.718,2.336,2.336,0,0,1-1.718.7h-.764a2.336,2.336,0,0,1-1.718-.7,2.336,2.336,0,0,1-.7-1.718v-9.418a2.336,2.336,0,0,1,.7-1.718,2.336,2.336,0,0,1,1.718-.7h.764a2.336,2.336,0,0,1,1.718.7,2.336,2.336,0,0,1,.7,1.718Zm0,80.946a2.336,2.336,0,0,1-.7,1.718,2.336,2.336,0,0,1-1.718.7h-.764a2.336,2.336,0,0,1-1.718-.7,2.336,2.336,0,0,1-.7-1.718v-63.51a2.336,2.336,0,0,1,.7-1.718,2.336,2.336,0,0,1,1.718-.7h.764a2.336,2.336,0,0,1,1.718.7,2.336,2.336,0,0,1,.7,1.718Zm59.819-14.509A18.389,18.389,0,0,1,238.894-8.4a14.62,14.62,0,0,1-4.773,5.473,19.178,19.178,0,0,1-7,2.864,41.811,41.811,0,0,1-8.464.827q-2.164,0-4.646-.127T209.048.255Q206.566,0,204.275-.318t-4.073-.7q-2.8-.636-2.8-2.036v-1.4q0-1.782,2.036-1.782h.764q4.582.764,9.673,1.4a73.771,73.771,0,0,0,9.036.636,37.2,37.2,0,0,0,6.364-.509,13.473,13.473,0,0,0,5.155-1.973,9.707,9.707,0,0,0,3.436-3.946,14.376,14.376,0,0,0,1.209-6.3,10.267,10.267,0,0,0-.573-3.5,9.179,9.179,0,0,0-2.1-3.182,24.227,24.227,0,0,0-4.136-3.309q-2.609-1.718-6.682-3.882l-8.146-4.455q-3.564-1.909-6.427-3.755a25.666,25.666,0,0,1-4.836-3.945,15.747,15.747,0,0,1-3.055-4.646,14.51,14.51,0,0,1-1.082-5.727,15.22,15.22,0,0,1,1.655-7.446,14.018,14.018,0,0,1,4.327-4.836,17.184,17.184,0,0,1,6.173-2.609,34.246,34.246,0,0,1,7.318-.764q6.873,0,10.882.382t7.318.764q2.673.382,2.673,2.164v1.018a1.81,1.81,0,0,1-.636,1.591,2.825,2.825,0,0,1-1.655.445h-.382q-2.545-.255-7.446-.827a88.273,88.273,0,0,0-10.246-.573,39.206,39.206,0,0,0-5.664.382,12.7,12.7,0,0,0-4.582,1.527,7.785,7.785,0,0,0-3.055,3.245,12.124,12.124,0,0,0-1.082,5.536,9.053,9.053,0,0,0,3.245,7.064,54.64,54.64,0,0,0,9.1,6.173l8.527,4.709q3.945,2.164,7,4.136a27.253,27.253,0,0,1,5.091,4.136,15.448,15.448,0,0,1,3.055,4.582A14.337,14.337,0,0,1,240.676-16.927Zm22.146-66.437a2.336,2.336,0,0,1-.7,1.718,2.336,2.336,0,0,1-1.718.7h-.764a2.336,2.336,0,0,1-1.718-.7,2.336,2.336,0,0,1-.7-1.718v-9.418a2.336,2.336,0,0,1,.7-1.718,2.336,2.336,0,0,1,1.718-.7h.764a2.336,2.336,0,0,1,1.718.7,2.336,2.336,0,0,1,.7,1.718Zm0,80.946a2.336,2.336,0,0,1-.7,1.718A2.336,2.336,0,0,1,260.4,0h-.764a2.336,2.336,0,0,1-1.718-.7,2.336,2.336,0,0,1-.7-1.718v-63.51a2.336,2.336,0,0,1,.7-1.718,2.336,2.336,0,0,1,1.718-.7h.764a2.336,2.336,0,0,1,1.718.7,2.336,2.336,0,0,1,.7,1.718ZM332.44-29.655q0,14.509-6.555,22.464T306.222.764q-13.109,0-19.664-7.955T280-29.655v-8.909q0-14.509,6.555-22.464t19.664-7.955q13.109,0,19.664,7.955t6.555,22.464Zm-5.6-8.909q0-11.709-4.709-18.582t-15.909-6.873q-11.2,0-15.909,6.873T285.6-38.564v8.909q0,11.709,4.709,18.582T306.222-4.2q11.2,0,15.909-6.873t4.709-18.582Zm70,36.146a2.336,2.336,0,0,1-.7,1.718,2.336,2.336,0,0,1-1.718.7h-.891a2.132,2.132,0,0,1-1.655-.7,2.461,2.461,0,0,1-.636-1.718V-44.673a27.153,27.153,0,0,0-1.336-9.164,15.591,15.591,0,0,0-3.691-5.982,13.346,13.346,0,0,0-5.473-3.245,22.714,22.714,0,0,0-6.682-.955A37.189,37.189,0,0,0,364-62.555,63.5,63.5,0,0,0,353.95-58.8V-2.418a2.336,2.336,0,0,1-.7,1.718,2.336,2.336,0,0,1-1.718.7h-.764a2.336,2.336,0,0,1-1.718-.7,2.336,2.336,0,0,1-.7-1.718V-65.8a2.7,2.7,0,0,1,.636-1.782,2.052,2.052,0,0,1,1.655-.764h1.018a2.052,2.052,0,0,1,1.655.764,2.7,2.7,0,0,1,.636,1.782v2.036A56.248,56.248,0,0,1,364.2-67.583a39.924,39.924,0,0,1,10.246-1.4,27.587,27.587,0,0,1,8.655,1.336,18.9,18.9,0,0,1,7.127,4.2,19.818,19.818,0,0,1,4.836,7.509,31.532,31.532,0,0,1,1.782,11.264Z" transform="translate(455.754 1203.223)"/>
    <text id="_0" data-name="0" class="cls-5" transform="translate(315.229 1099.069)"><tspan x="0" y="0">0</tspan></text>
    <text id="_0-2" data-name="0" class="cls-5" transform="translate(335.645 1095.099)"><tspan x="0" y="0">0</tspan></text>
    <text id="_0-3" data-name="0" class="cls-5" transform="translate(335.033 1074.262)"><tspan x="0" y="0">0</tspan></text>
    <text id="_1" data-name="1" class="cls-5" transform="translate(299.728 1067.314)"><tspan x="0" y="0">1</tspan></text>
    <text id="_0-4" data-name="0" class="cls-5" transform="translate(308.171 1067.314)"><tspan x="0" y="0">0</tspan></text>
    <text id="_0-5" data-name="0" class="cls-5" transform="translate(325.456 1047.35)"><tspan x="0" y="0">0</tspan></text>
    <text id="_1-2" data-name="1" class="cls-5" transform="translate(333.346 1047.35)"><tspan x="0" y="0">1</tspan></text>
    <text id="_0-6" data-name="0" class="cls-5" transform="translate(302.147 1027.086)"><tspan x="0" y="0">0</tspan></text>
    <text id="_1-3" data-name="1" class="cls-5" transform="translate(309.269 1027.086)"><tspan x="0" y="0">1</tspan></text>
    <text id="_0-7" data-name="0" class="cls-5" transform="translate(335.033 995.304)"><tspan x="0" y="0">0</tspan></text>
    <text id="_0-8" data-name="0" class="cls-5" transform="translate(293.749 998.675)"><tspan x="0" y="0">0</tspan></text>
    <text id="_0-9" data-name="0" class="cls-5" transform="translate(300.872 998.675)"><tspan x="0" y="0">0</tspan></text>
    <text id="_0-10" data-name="0" class="cls-5" transform="translate(313.363 980.631)"><tspan x="0" y="0">0</tspan></text>
    <text id="_0-11" data-name="0" class="cls-5" transform="translate(320.62 980.631)"><tspan x="0" y="0">0</tspan></text>
    <text id="_0-12" data-name="0" class="cls-5" transform="translate(325.456 1015.667)"><tspan x="0" y="0">0</tspan></text>
    <path id="Trazado_967" data-name="Trazado 967" class="cls-2" d="M173.994-3.4q0,3.4-3.4,3.4H136.022a3.819,3.819,0,0,1-3.4-1.694,36.671,36.671,0,0,1-2.267-3.956l-40.643-75.4H85.757q-5.641,0-12.978-.425T60.643-82.18V-5.65a5.658,5.658,0,0,1-1.559,3.956A5,5,0,0,1,55.259,0H26.921a5.437,5.437,0,0,1-3.967-1.7,5.437,5.437,0,0,1-1.7-3.967V-200.632q0-4.251,2.409-6.093a13.851,13.851,0,0,1,6.659-2.409q11.052-1.7,25.5-2.692t30.038-.992a144.056,144.056,0,0,1,31.172,3.259,76.879,76.879,0,0,1,25.929,10.627,53.641,53.641,0,0,1,17.853,19.695q6.659,12.327,6.659,30.463v2.55q0,22.67-10.421,36.839t-28.119,20.97l44.49,82.746A4.029,4.029,0,0,1,173.994-3.4ZM128.087-148.774q0-16.153-10.582-23.237T85.757-179.1q-2.258,0-5.785.142t-7.2.283q-3.668.142-6.914.283t-5.22.425v63.76q1.691,0,5.22.142t7.337.283q3.808.142,7.337.283t5.22.142q22.011,0,32.17-7.084t10.16-25.787Z" transform="translate(436.042 1095.099)"/>
    <path id="Trazado_968" data-name="Trazado 968" class="cls-2" d="M105.256-1.685A1.49,1.49,0,0,1,103.57,0H86.411a3.3,3.3,0,0,1-1.3-.23,4.618,4.618,0,0,1-1.3-1L78.137-7.2A47.678,47.678,0,0,1,65.038-1a54.653,54.653,0,0,1-16.01,2.222A73,73,0,0,1,33.4-.383,39.138,39.138,0,0,1,20.454-5.592a26.594,26.594,0,0,1-8.81-9.193A26.448,26.448,0,0,1,8.427-28.191v-1.532A24.969,24.969,0,0,1,13.866-46.04Q19.3-52.7,29.416-58.833l-1.072-1.226q-4.9-5.669-7.814-9.805a44.639,44.639,0,0,1-4.366-7.431,25.824,25.824,0,0,1-1.915-5.975,30.4,30.4,0,0,1-.46-5.133v-1.379a22.3,22.3,0,0,1,8.733-18.309q8.733-6.971,26.2-6.971,15.321,0,24.131,6.894a22.166,22.166,0,0,1,8.81,18.385V-88.4a24.916,24.916,0,0,1-1.915,9.959,30.743,30.743,0,0,1-5.133,8.12,48.256,48.256,0,0,1-7.277,6.741,100.048,100.048,0,0,1-8.35,5.669l-3.677,2.3L78.291-31.1a41.336,41.336,0,0,0,3.064-10.265,70.8,70.8,0,0,0,.919-11.644v-1.839a3.476,3.476,0,0,1,.689-2.145,2.259,2.259,0,0,1,1.915-.919H96.063a2.47,2.47,0,0,1,1.992.919,3.249,3.249,0,0,1,.766,2.145v1.839a70.827,70.827,0,0,1-2.3,18.385,51.854,51.854,0,0,1-6.894,15.474L104.643-3.217A2.079,2.079,0,0,1,105.256-1.685Zm-41.826-88.1a9.56,9.56,0,0,0-3.677-8.044q-3.677-2.834-11.031-2.834-7.814,0-12.333,2.758a8.931,8.931,0,0,0-4.52,8.12V-88.4a27.812,27.812,0,0,0,.23,3.6A13.609,13.609,0,0,0,33.323-80.9a26.6,26.6,0,0,0,3.217,4.979q2.222,2.834,6.052,6.818l1.379,1.379,4.6-2.758q4.29-2.6,7.124-4.673a26.629,26.629,0,0,0,4.6-4.137A12.4,12.4,0,0,0,62.74-83.5a16.011,16.011,0,0,0,.689-4.9Zm-22.675,42.9q-6.894,4.137-9.116,7.967a18.021,18.021,0,0,0-2.222,9.193v1.532q0,7.354,5.592,10.878t14.019,3.524a40.507,40.507,0,0,0,10.418-1.226,30.787,30.787,0,0,0,8.12-3.371Z" transform="translate(606.949 1095.099)"/>
    <path id="Trazado_969" data-name="Trazado 969" class="cls-2" d="M173.428-84.447q0,42.223-23.1,64.469T84.447,2.267q-7.651,0-16.011-.283t-16.153-.85Q44.49.567,38.114,0T28.621-1.134A9.188,9.188,0,0,1,23.1-3.684q-1.842-1.984-1.842-6.234V-200.632q0-4.251,1.842-6.234a9.188,9.188,0,0,1,5.526-2.55q3.117-.567,9.493-1.134t14.169-1.134q7.793-.567,16.153-.85t16.011-.283q42.79,0,65.885,22.245t23.1,64.469ZM134.038-126q0-15.9-3.81-26.263t-10.445-16.467a36.786,36.786,0,0,0-15.668-8.517,76.425,76.425,0,0,0-19.761-2.413q-7.9,0-13.549.283t-10.162.567V-31.455q4.516.283,10.162.567t13.549.283a76.423,76.423,0,0,0,19.761-2.413,36.786,36.786,0,0,0,15.668-8.517q6.635-6.1,10.445-16.467t3.81-26.263Z" transform="translate(706.238 1095.099)"/>
    <g id="Grupo_1838" data-name="Grupo 1838">
      <text id="_" data-name="&lt;/" class="cls-6" transform="translate(277.203 1183.711)"><tspan x="0" y="0">&lt;/</tspan></text>
      <text id="_2" data-name="&gt;" class="cls-7" transform="translate(330.14 1183.711)"><tspan x="0" y="0">&gt;</tspan></text>
    </g>
    <g id="Grupo_1839" data-name="Grupo 1839">
      <text id="_0-13" data-name="0" class="cls-8" transform="translate(285.616 1130.9)"><tspan x="0" y="0">0</tspan></text>
      <text id="_0-14" data-name="0" class="cls-8" transform="translate(303.055 1130.9)"><tspan x="0" y="0">0</tspan></text>
      <text id="_0-15" data-name="0" class="cls-8" transform="translate(325.213 1135.575)"><tspan x="0" y="0">0</tspan></text>
      <text id="_0-16" data-name="0" class="cls-8" transform="translate(339.956 1130.9)"><tspan x="0" y="0">0</tspan></text>
      <text id="_1-4" data-name="1" class="cls-8" transform="translate(311.146 1123.351)"><tspan x="0" y="0">1</tspan></text>
      <text id="_1-5" data-name="1" class="cls-8" transform="translate(333.08 1123.351)"><tspan x="0" y="0">1</tspan></text>
      <text id="_1-6" data-name="1" class="cls-8" transform="translate(349.262 1133.418)"><tspan x="0" y="0">1</tspan></text>
      <text id="_1-7" data-name="1" class="cls-8" transform="translate(316.36 1131.98)"><tspan x="0" y="0">1</tspan></text>
      <text id="_0-17" data-name="0" class="cls-8" transform="translate(294.012 1134.856)"><tspan x="0" y="0">0</tspan></text>
    </g>
  </g>
</svg>
