<svg xmlns="http://www.w3.org/2000/svg" xmlns:xlink="http://www.w3.org/1999/xlink" viewBox="0 0 1449.01 734.47"><defs><clipPath id="clip-path"><rect x="261.45" y="606.92" width="62.64" height="113.01" style="fill:none"/></clipPath><clipPath id="clip-path-2"><rect x="15.75" y="606.92" width="62.64" height="113.01" style="fill:none"/></clipPath><clipPath id="clip-path-3"><rect x="97.53" y="575.33" width="138.24" height="154.95" style="fill:none"/></clipPath><clipPath id="clip-path-4"><rect x="681.37" y="46.24" width="65.83" height="114.13" style="fill:none"/></clipPath></defs><title>lab</title><g id="Layer_2" data-name="Layer 2"><g id="Layer_1-2" data-name="Layer 1"><g style="opacity:0.14"><path d="M311.11,455.47c8.44,0,15.27,6.06,15.27,13.54s-6.83,13.54-15.27,13.54-15.25-6.06-15.25-13.54S302.69,455.47,311.11,455.47Z" style="fill:none;stroke:#fff;stroke-miterlimit:10;stroke-width:5.69378px"/><path d="M167.64,403.08c7,0,12.7,5.05,12.7,11.27s-5.69,11.27-12.7,11.27-12.7-5.05-12.7-11.27S160.63,403.08,167.64,403.08Z" style="fill:none;stroke:#fff;stroke-miterlimit:10;stroke-width:5.69378px"/><path d="M134.8,472c5.15,0,9.33,3.7,9.33,8.27s-4.18,8.27-9.33,8.27-9.33-3.7-9.33-8.27S129.65,472,134.8,472Z" style="fill:none;stroke:#fff;stroke-miterlimit:10;stroke-width:5.09337px"/><path d="M0,575.33a4.38,4.38,0,0,0,4.63,4.1H346.7a4.39,4.39,0,0,0,4.63-4.1h0a4.4,4.4,0,0,0-4.63-4.11H4.63A4.39,4.39,0,0,0,0,575.33Z" style="fill:#fff"/><path d="M9.76,730.28A4.48,4.48,0,0,1,5,734.47H5a4.47,4.47,0,0,1-4.72-4.19V575.41A4.47,4.47,0,0,1,5,571.22H5a4.48,4.48,0,0,1,4.72,4.19Z" style="fill:#fff"/><path d="M93.49,730.28a4.47,4.47,0,0,1-4.72,4.19h0a4.48,4.48,0,0,1-4.72-4.19V575.41a4.48,4.48,0,0,1,4.72-4.19h0a4.47,4.47,0,0,1,4.72,4.19Z" style="fill:#fff"/><path d="M245.2,730.28a4.47,4.47,0,0,1-4.72,4.19h0a4.48,4.48,0,0,1-4.72-4.19V575.41a4.48,4.48,0,0,1,4.72-4.19h0a4.47,4.47,0,0,1,4.72,4.19Z" style="fill:#fff"/><path d="M351.33,730.28a4.48,4.48,0,0,1-4.72,4.19h0a4.47,4.47,0,0,1-4.72-4.19V575.41a4.47,4.47,0,0,1,4.72-4.19h0a4.48,4.48,0,0,1,4.72,4.19Z" style="fill:#fff"/><path d="M1082.92,496.08V438.36c10.25-6.09,16.91-16.46,16.91-27.91,0-18.58-17-33.7-38-33.7H999.69c-20.93,0-38,15.12-38,33.7,0,11.45,6.67,21.81,16.91,27.91v57.72c-51,18.57-85.59,63.45-85.59,113.08,0,67.41,61.79,122.23,137.73,122.23s137.74-54.82,137.74-122.23C1168.52,559.53,1134,514.65,1082.92,496.08Zm-52.14,219.14c-66,0-119.5-47.47-119.5-106.06,0-48.08,36.11-88.68,85.58-101.65V492.72h35.27a3.68,3.68,0,1,0,0-7.3H996.86V470.8h35.27a3.67,3.67,0,1,0,0-7.29H996.86V448.89h35.27a3.68,3.68,0,1,0,0-7.3H996.86V427.7c-9.55-1.22-16.9-8.44-16.9-17.25,0-9.68,8.83-17.51,19.73-17.51h62.17c10.94,0,19.75,7.83,19.75,17.51,0,8.81-7.36,16-16.91,17.25v79.81c49.48,13,85.59,53.57,85.59,101.66C1150.29,667.75,1096.77,715.22,1030.78,715.22Z" style="fill:#fff"/><path d="M1106.8,548.4h-152C938.18,564.59,928,586.11,928,609.73c0,50.37,46,91.18,102.76,91.18s102.74-40.81,102.74-91.18C1133.54,586.12,1123.42,564.59,1106.8,548.4Zm-72.58,94.41c-7.63,0-13.84-5.51-13.84-12.29s6.21-12.29,13.84-12.29,13.85,5.5,13.85,12.29S1041.88,642.81,1034.22,642.81Zm50.31-32.34c-12.08,0-21.87-8.69-21.87-19.39s9.78-19.42,21.87-19.42,21.86,8.7,21.86,19.42S1096.59,610.47,1084.53,610.47Z" style="fill:#fff"/><g id="Your_Icon" data-name="Your Icon"><polygon points="424.78 428.66 548.55 428.66 521.26 358.63 452.08 358.63 424.78 428.66" style="fill:#fff"/><path d="M524.05,293.4V261.49h5.81c6.21,0,11.23-4.31,11.23-9.81s-5-9.81-11.23-9.81H443.45c-6.2,0-11.22,4.3-11.22,9.81s5,9.81,11.22,9.81h6.89V293.4L395,434.31v.51c0,5.29,3.86,9.48,7.92,12.3s10,4.05,15.52,4.05H554.85c5.52,0,10.11-1.17,14.2-4.05a14.55,14.55,0,0,0,6.62-12.3v-.52ZM414.53,434.82,468.76,293.4V261.49h36.87V293.4l53.81,141.43Z" style="fill:#fff"/><path d="M470,123.39c6.32,0,11.44,4.54,11.44,10.15s-5.12,10.15-11.44,10.15-11.45-4.55-11.45-10.15S463.63,123.39,470,123.39Z" style="fill:none;stroke:#fff;stroke-miterlimit:10;stroke-width:7.06826px"/><path d="M463.78,227.25c15.07,0,27.29-10.84,27.29-24.21s-12.22-24.21-27.29-24.21S436.5,189.67,436.5,203,448.72,227.25,463.78,227.25Z" style="fill:none;stroke:#fff;stroke-miterlimit:10;stroke-width:7.06826px"/><path d="M521,152.28c9.72,0,17.6,7,17.6,15.62s-7.88,15.61-17.6,15.61-17.6-7-17.6-15.61S511.28,152.28,521,152.28Z" style="fill:none;stroke:#fff;stroke-miterlimit:10;stroke-width:7.06826px"/></g><g id="Your_Icon-2" data-name="Your Icon"><polygon points="1264.42 700.28 1388.18 700.28 1360.9 630.25 1291.73 630.25 1264.42 700.28" style="fill:#fff"/><path d="M1363.69,565V533.08h5.81c6.21,0,11.23-4.31,11.23-9.81s-5-9.81-11.23-9.81h-86.41c-6.2,0-11.23,4.31-11.23,9.81s5,9.81,11.23,9.81H1290V565l-55.28,140.93v.51c0,5.3,3.85,9.49,7.91,12.31s10,4,15.52,4h136.37c5.52,0,10.11-1.16,14.2-4a14.55,14.55,0,0,0,6.62-12.31v-.52ZM1254.16,706.43,1308.4,565V533.08h36.87V565l53.81,141.46Z" style="fill:#fff"/></g><g id="Your_Icon-3" data-name="Your Icon"><polygon points="628.82 697.42 802.98 697.42 764.58 598.87 667.24 598.87 628.82 697.42" style="fill:#fff"/><path d="M768.52,507.07V462.16h8.17c8.74,0,15.8-6.06,15.8-13.81s-7.06-13.8-15.8-13.8H655.1c-8.73,0-15.8,6.06-15.8,13.8s7.07,13.81,15.8,13.81h9.68v44.91L587,705.37v.72c0,7.45,5.42,13.35,11.13,17.3s14,5.71,21.85,5.71H811.85c7.77,0,14.23-1.65,20-5.71a20.43,20.43,0,0,0,9.3-17.3v-.74Zm-154.13,199,76.32-199V462.16h51.88v44.91l75.72,199Z" style="fill:#fff"/></g><path d="M1287.2,274.81c0,17.15-15.67,31.06-35,31.06H1247c-19.33,0-35-13.91-35-31.06V131.18c0-17.15,15.67-31.05,35-31.05h5.19c19.33,0,35,13.9,35,31.05Z" style="fill:none;stroke:#fff;stroke-miterlimit:10;stroke-width:1.7998800000000001px"/><path d="M1255.91,273.08c0,3.46-3.16,6.26-7.05,6.26h0c-3.89,0-7-2.8-7-6.26V123c0-3.46,3.16-6.26,7-6.26h0c3.89,0,7.05,2.8,7.05,6.26Z" style="fill:#fff"/><path d="M1270,269.77c0,10.15-9.27,18.38-20.71,18.38s-20.71-8.23-20.71-18.38,9.27-18.37,20.71-18.37S1270,259.63,1270,269.77Z" style="fill:#fff"/><rect x="1263.38" y="135.17" width="23.81" height="2.65" style="fill:#fff"/><rect x="1263.38" y="171.05" width="23.81" height="2.65" style="fill:#fff"/><rect x="1272.04" y="144.72" width="15.16" height="2.65" style="fill:#fff"/><rect x="1272.04" y="152.8" width="15.16" height="2.65" style="fill:#fff"/><rect x="1272.04" y="162.24" width="15.16" height="2.65" style="fill:#fff"/><rect x="1263.38" y="208.8" width="23.81" height="2.65" style="fill:#fff"/><rect x="1263.38" y="245.85" width="23.81" height="2.65" style="fill:#fff"/><rect x="1272.04" y="180.05" width="15.16" height="2.65" style="fill:#fff"/><rect x="1272.04" y="190.79" width="15.16" height="2.65" style="fill:#fff"/><rect x="1272.04" y="201.32" width="15.16" height="2.65" style="fill:#fff"/><rect x="1272.04" y="217.51" width="15.16" height="2.65" style="fill:#fff"/><rect x="1272.04" y="228.25" width="15.16" height="2.65" style="fill:#fff"/><rect x="1272.04" y="238.78" width="15.16" height="2.65" style="fill:#fff"/><path d="M261.45,522.75v13.71h7.46V687.63c0,11.67,10.7,21.18,23.87,21.18s23.86-9.51,23.86-21.18V536.46h7.45V522.75Zm58.12,9.7h-7.45v76H273.43v-76H266v-5.68h53.6v5.68Z" style="fill:#fff"/><path d="M191.22,603.46V535.62H198V522.75H132.69v12.87h6.8v67.84c-22.11,9-36.3,28.54-36.3,50.18,0,30.42,27.88,55.17,62.17,55.17s62.17-24.75,62.17-55.17C227.53,632,213.33,612.44,191.22,603.46Zm-54-71.85v-4.84h56.3v4.84H186.7v46.94H144V531.61Z" style="fill:#fff"/><path d="M510.39,551.1s-5.11-6.92-3.52-14.33L497,541.39s-14.23-8.24-15-18.68c0,0-18.88,9.12-33.32,41.67,0,0-6.33-2.66-7.94-8,0,0-11.73,63.7,44.81,64.05,0,0,39.68,5.07,46.17-36.66L523,587.33S530.84,562.94,510.39,551.1Z" style="fill:none"/><path d="M562.73,526.83c-2.68,8.84-13.24,13.26-13.24,13.26C525.43,485.85,494,470.64,494,470.64c-1.34,17.41-25.06,31.13-25.06,31.13l-16.46-7.69c2.66,12.35-5.85,23.88-5.85,23.88-34.09,19.75-21,60.38-21,60.38l-14.54-5.86c10.82,69.54,77,61.1,77,61.1C582.28,633,562.73,526.83,562.73,526.83Zm-77.21,93.64c-56.54-.35-44.81-64.05-44.81-64.05,1.61,5.3,7.94,8,7.94,8C463.09,531.83,482,522.71,482,522.71c.8,10.44,15,18.68,15,18.68l9.87-4.62c-1.59,7.41,3.52,14.33,3.52,14.33C530.84,562.94,523,587.33,523,587.33l8.72-3.52C525.2,625.54,485.52,620.47,485.52,620.47Z" style="fill:#fff"/><path d="M698.49,182.45s-41.11,61.82,0,67C698.49,249.48,745.47,250.89,698.49,182.45Z" style="fill:#fff"/><path d="M730.49,265.83s-41.11,47.86,0,51.89C730.49,317.72,777.47,318.82,730.49,265.83Z" style="fill:#fff"/><path d="M691.38,322.11s-41.11,47.85,0,51.89C691.38,374,738.36,375.09,691.38,322.11Z" style="fill:#fff"/><path d="M534.41,321.67l30-25.95V86.5c0-9.53,19.45-17.25,19.45-17.25H783.53" style="fill:none;stroke:#fff;stroke-miterlimit:10;stroke-width:5px"/><path d="M1083.75,462.39h149.1c10.73,0,19.44-7.72,19.44-17.25V306.74" style="fill:none;stroke:#fff;stroke-miterlimit:10;stroke-width:5px"/><path d="M1420.56,32h-149.1c-10.74,0-19.44,7.72-19.44,17.25v52.11" style="fill:none;stroke:#fff;stroke-miterlimit:10;stroke-width:5px"/><path d="M1325,513.46V442.84s5-21.55,30.91-38.95l84.26-82.22a60.19,60.19,0,0,0,6.35-26.27V49.21c0-9.53-8.71-17.25-19.45-17.25h-58.73" style="fill:none;stroke:#fff;stroke-miterlimit:10;stroke-width:5px"/><path d="M803,52c0,9.52-8.71,17.25-19.45,17.25" style="fill:none;stroke:#fff;stroke-miterlimit:10;stroke-width:5px"/><path d="M1042.21,383.72V25.37c0-9.52-8.71-17.25-19.44-17.25H822.42C811.68,8.12,803,15.85,803,25.37" style="fill:none;stroke:#fff;stroke-miterlimit:10;stroke-width:5px"/><line x1="802.96" y1="52" x2="802.98" y2="25.37" style="fill:none;stroke:#fff;stroke-miterlimit:10;stroke-width:5px"/><g style="clip-path:url(#clip-path)"><path d="M261.45,522.75v13.71h7.46V687.63c0,11.67,10.7,21.18,23.87,21.18s23.86-9.51,23.86-21.18V536.46h7.45V522.75Zm58.12,9.7h-7.45v76H273.43v-76H266v-5.68h53.6v5.68Z" style="fill:#fff"/></g><path d="M15.75,522.75v13.71h7.46V687.63c0,11.67,10.7,21.18,23.87,21.18s23.86-9.51,23.86-21.18V536.46H78.4V522.75Zm58.12,9.7H66.42v76H27.73v-76H20.27v-5.68h53.6v5.68Z" style="fill:#fff"/><g style="clip-path:url(#clip-path-2)"><path d="M15.75,522.75v13.71h7.46V687.63c0,11.67,10.7,21.18,23.87,21.18s23.86-9.51,23.86-21.18V536.46H78.4V522.75Zm58.12,9.7H66.42v76H27.73v-76H20.28v-5.68H73.87v5.68Z" style="fill:#fff"/></g><g style="clip-path:url(#clip-path-3)"><path d="M191.16,603.46V535.62H198V522.75H132.62v12.87h6.81v67.84c-22.11,9-36.31,28.54-36.31,50.18,0,30.42,27.89,55.17,62.17,55.17s62.18-24.75,62.18-55.17C227.47,632,213.27,612.44,191.16,603.46Zm-54-71.85v-4.84h56.3v4.84h-6.81v46.94H144V531.61Z" style="fill:#fff"/></g><g style="clip-path:url(#clip-path-4)"><path d="M741,1.5h-55.2C675.93,1.5,668,8.57,668,17.3s8,15.79,17.81,15.79H688v76c0,9.61,8.41,17.4,19,18.09v15.57c0,3.1,2.83,5.62,6.33,5.62s6.32-2.52,6.32-5.62V127.15c10.64-.69,19-8.48,19-18.09v-76H741c9.83,0,17.8-7.07,17.8-15.79S750.8,1.5,741,1.5Z" style="fill:#fff"/></g><path d="M741,1.5h-55.2C675.93,1.5,668,8.57,668,17.3s8,15.79,17.81,15.79H688v76c0,9.61,8.41,17.4,19,18.09v15.57c0,3.1,2.83,5.62,6.33,5.62s6.33-2.52,6.33-5.62V127.15c10.63-.69,19-8.48,19-18.09v-76H741c9.83,0,17.8-7.07,17.8-15.79S750.8,1.5,741,1.5Z" style="fill:none;stroke:#fff;stroke-miterlimit:10;stroke-width:3px"/><rect x="700.94" y="42.04" width="24.93" height="4.2" style="fill:#f9fafc"/><rect x="700.94" y="52.75" width="24.93" height="4.19" style="fill:#f9fafc"/><rect x="700.94" y="63.47" width="24.93" height="4.19" style="fill:#f9fafc"/><rect x="700.94" y="74.18" width="24.93" height="4.2" style="fill:#f9fafc"/><rect x="700.94" y="84.9" width="24.93" height="4.19" style="fill:#f9fafc"/><rect x="700.94" y="95.61" width="24.93" height="4.19" style="fill:#f9fafc"/><rect x="700.94" y="106.33" width="24.93" height="4.19" style="fill:#f9fafc"/></g></g></g></svg>