<svg xmlns="http://www.w3.org/2000/svg" viewBox="0 0 345.41 73.68"><title>LogoAFP</title><g id="Layer_2" data-name="Layer 2"><g id="Layer_1-2" data-name="Layer 1"><path d="M159,38.23l9.08-26.49c1.23-3.57,3-5,5.59-5s4.4,1.61,5.55,5l8.94,26.49h-7.74l-2.12-7.12h-9.72l-2.05,7.12Zm17.63-12.77-3.25-11-3.17,11Z" style="fill:#fff"/><path d="M213.52,6.79v24c0,1.64.69,2.48,2.46,2.48A7.32,7.32,0,0,0,218,33l.68,5a26.19,26.19,0,0,1-4.59.48c-5.21,0-7.42-2.3-7.42-6.93V6.79Z" style="fill:#fff"/><path d="M220.39,30.77c0-4.29,1.89-6.9,6.8-7.71A56.5,56.5,0,0,1,234,22.5c0-2.15-1.09-3-3.64-3a72.26,72.26,0,0,0-8.55.64L221.21,15a56.88,56.88,0,0,1,9.53-.95c5.39,0,9.92,1.54,9.92,7.84v9.61c0,1.68-.07,3.08-.21,4.69-2.86,1.71-6.49,2.34-10.65,2.34-6.72,0-9.41-2.57-9.41-7.78M234,27a26.7,26.7,0,0,0-4.45.49c-1.69.41-2.39,1-2.39,3.21,0,2,1.21,2.59,3.31,2.59a9.86,9.86,0,0,0,3.39-.47,29.94,29.94,0,0,0,.14-3.2Zm-.58-15.47h-5.21l3.5-6h6.79Z" style="fill:#fff"/><path d="M252.66,38.23h-6.8V21.1c0-1.68.06-3.08.2-4.69a21.48,21.48,0,0,1,10.56-2.34c8.81,0,9.81,3.76,9.81,9.1V38.23h-6.82V23.69c0-2.89-.55-4.06-3.84-4.08a8.67,8.67,0,0,0-3,.47,29.74,29.74,0,0,0-.15,3.2Z" style="fill:#fff"/><path d="M287.54,8.69c0-2.47.91-3.42,3.68-3.42s3.69,1,3.69,3.42-.9,3.41-3.69,3.41-3.68-.95-3.68-3.41m.24,5.38h6.92V38.23h-6.92Z" style="fill:#fff"/><path d="M314,6.79h6.87V31.52c0,1.68,0,3.08-.2,4.69a19.85,19.85,0,0,1-9.84,2.34c-8.07,0-11.46-2.85-11.46-12.25s3.39-12.23,10.79-12.23a21.61,21.61,0,0,1,3.84.36Zm-2.61,12.77c-5,0-5.15,2.92-5.15,6.74,0,3.37.15,6.8,4.59,6.8a9.26,9.26,0,0,0,3-.45c.1-1,.14-2.13.14-3.2V19.92a10.21,10.21,0,0,0-2.61-.36" style="fill:#fff"/><path d="M325.15,30.77c0-4.29,1.9-6.91,6.8-7.71a54.36,54.36,0,0,1,6.78-.56c0-2.15-1.11-3-3.65-3a70.25,70.25,0,0,0-8.55.65L326,15a56.62,56.62,0,0,1,9.51-.95c5.4,0,9.92,1.54,9.92,7.84v9.61c0,1.68-.05,3.08-.2,4.69-2.86,1.71-6.49,2.34-10.64,2.34-6.73,0-9.42-2.57-9.42-7.78M338.73,27a26.58,26.58,0,0,0-4.45.49c-1.7.42-2.4,1-2.4,3.21,0,2,1.22,2.59,3.32,2.59a10,10,0,0,0,3.39-.47c.1-1,.14-2.13.14-3.2Z" style="fill:#fff"/><path d="M278.07,6.79v7.28H284v5.65h-5.93V30.81c0,1.64.7,2.48,2.46,2.48.71,0,1.44,0,2.2-.09l.54,4.87a26.4,26.4,0,0,1-4.6.48c-5.2,0-7.41-2.3-7.41-6.93V6.79Z" style="fill:#fff"/><path d="M197.08,6.79v7.28H203v5.65h-5.92V30.81c0,1.64.69,2.48,2.46,2.48.71,0,1.43,0,2.19-.09l.54,4.87a26.19,26.19,0,0,1-4.59.48c-5.21,0-7.42-2.3-7.42-6.93V6.79Z" style="fill:#fff"/><path d="M67.53,38.55l9.08-26.49c1.23-3.57,3-5,5.59-5s4.39,1.61,5.55,5l8.94,26.49H89l-2.11-7.12H77.1l-2,7.12ZM85.16,25.78l-3.25-11-3.17,11Z" style="fill:#fff"/><path d="M99.53,38.55V15.14c0-7.56,5.26-7.86,11-7.86,2.38,0,6.74.16,8.76.24v5.75H110.4c-3.07,0-3.59.67-3.59,3.57v2.93h11.91v5.87H106.81V38.55Z" style="fill:#fff"/><path d="M130.51,38.55h-7.26V8A56.12,56.12,0,0,1,133.59,7c7.06,0,12.66,1.39,12.66,10.11,0,8.42-5.08,10.24-12.35,10.24-1.11,0-2.41-.06-3.39-.11Zm0-17.11a23.43,23.43,0,0,0,3.13.15c3.46,0,5.4-.91,5.4-4.44,0-3.11-1.24-4.33-5.29-4.33a23.84,23.84,0,0,0-3.24.22Z" style="fill:#fff"/><path d="M1.27,0A1.27,1.27,0,0,0,0,1.27V22C0,32,6.46,38.59,16.49,38.59H25a1.28,1.28,0,0,0,1.27-1.28V27.11A1.27,1.27,0,0,0,25,25.84H19.58a3.66,3.66,0,0,1-4-4V1.27A1.27,1.27,0,0,0,14.35,0Z" style="fill:#fff"/><path d="M18.78,5.57A1.28,1.28,0,0,0,17.5,6.85V18.54a1.28,1.28,0,0,0,1.28,1.27H25c.7,0,3.15.11,3.15,4V37.31a1.29,1.29,0,0,0,1.27,1.28H42.51a1.28,1.28,0,0,0,1.27-1.28V22.16c0-10-6.45-16.59-16.49-16.59Z" style="fill:#fff"/><path d="M68.71,69.72H67.53V55.83a29.32,29.32,0,0,1,4.21-.31c3,0,5.42.59,5.42,4.17S75,64,71.91,64c-.79,0-2.48-.08-3.2-.12Zm0-6.92a27.78,27.78,0,0,0,3,.14c2.71,0,4.23-.64,4.23-3.25,0-2.24-1.11-3.16-4.15-3.16a24.79,24.79,0,0,0-3.11.21Z" style="fill:#fff"/><path d="M78.58,64.34c0-3.9,1.16-5.51,4.67-5.51s4.59,1.84,4.59,4.67c0,.32,0,.78,0,1.11-1.23.2-3.76.44-5.27.5l-2.81.11c.2,2.25.7,3.65,3.83,3.65a25.75,25.75,0,0,0,3.76-.32l.12,1a26.47,26.47,0,0,1-4.45.34c-3.48,0-4.41-2.33-4.41-5.52m4.24-.19c1-.05,2.77-.19,3.86-.32,0-.25,0-.6,0-.86,0-1.9-.88-3.16-3.46-3.16-2.88,0-3.55,1.37-3.55,4.48Z" style="fill:#fff"/><path d="M91.32,69.72H90.2V61.49c0-.6,0-1.21,0-1.78a13.3,13.3,0,0,1,4.85-.88c3.62,0,4,1.72,4,3.87v7H98V63c0-2.16-.4-3.15-3.29-3.15a10.71,10.71,0,0,0-3.31.59c0,.54,0,1.27,0,1.78Z" style="fill:#fff"/><path d="M102.49,61.5c0,1.56,1,1.7,2.83,2.25,2.29.69,3.41,1.32,3.41,3.15,0,2.32-1.74,3-4.07,3a15.92,15.92,0,0,1-3.3-.32l.11-.93a16.59,16.59,0,0,0,2.73.24c1.42,0,3.36,0,3.36-1.87,0-1.42-.88-1.71-2.83-2.29-1.68-.5-3.37-.88-3.37-3s1.5-2.81,3.69-2.81a15.88,15.88,0,0,1,3.36.33l-.11.91a16.45,16.45,0,0,0-2.7-.25c-1.37,0-3.11,0-3.11,1.68" style="fill:#fff"/><path d="M110.67,55.62c0-.68.15-.94.68-.94s.68.26.68.94-.14.93-.68.93-.68-.24-.68-.93m.11,3.35h1.13V69.72h-1.13Z" style="fill:#fff"/><path d="M114.38,64.34c0-4,1.24-5.51,4.68-5.51s4.69,1.55,4.69,5.51-1.24,5.52-4.69,5.52-4.68-1.49-4.68-5.52m8.24,0c0-3.44-.87-4.52-3.56-4.52s-3.55.93-3.55,4.52.94,4.53,3.55,4.53,3.56-1.08,3.56-4.53" style="fill:#fff"/><path d="M127.42,69.72H126.3V61.49c0-.6,0-1.21,0-1.78a13.26,13.26,0,0,1,4.85-.88c3.61,0,4,1.72,4,3.87v7H134V63c0-2.16-.39-3.15-3.28-3.15a10.65,10.65,0,0,0-3.31.59c0,.54,0,1.27,0,1.78Z" style="fill:#fff"/><path d="M137.69,64.34c0-3.9,1.16-5.51,4.67-5.51S147,60.67,147,63.5c0,.32,0,.78,0,1.11-1.23.2-3.77.44-5.28.5l-2.81.11c.2,2.25.7,3.65,3.83,3.65a25.9,25.9,0,0,0,3.77-.32l.12,1a26.47,26.47,0,0,1-4.45.34c-3.48,0-4.41-2.33-4.41-5.52m4.23-.19c1-.05,2.77-.19,3.87-.32,0-.25,0-.6,0-.86,0-1.9-.87-3.16-3.45-3.16-2.88,0-3.55,1.37-3.55,4.48Z" style="fill:#fff"/><path d="M150.09,61.5c0,1.56,1,1.7,2.83,2.25,2.29.69,3.41,1.32,3.41,3.15,0,2.32-1.74,3-4.08,3a16,16,0,0,1-3.3-.32l.12-.93a16.47,16.47,0,0,0,2.72.24c1.43,0,3.37,0,3.37-1.87,0-1.42-.89-1.71-2.84-2.29-1.67-.5-3.37-.88-3.37-3s1.51-2.81,3.69-2.81a16,16,0,0,1,3.37.33l-.11.91a16.66,16.66,0,0,0-2.7-.25c-1.38,0-3.11,0-3.11,1.68" style="fill:#fff"/><polygon points="170.81 58.97 171.95 58.97 166.94 73.68 165.8 73.68 167.42 68.95 163.07 58.97 164.29 58.97 167.94 67.41 170.81 58.97" style="fill:#fff"/><path d="M187.88,69.57a16.18,16.18,0,0,1-3.07.29c-4.51,0-5.59-2.18-5.59-7.17s1.09-7.17,5.59-7.17a16.54,16.54,0,0,1,3.07.27l-.11,1a16.41,16.41,0,0,0-2.34-.22c-4.53,0-5,2-5,6.14s.58,6.14,5,6.14a16.69,16.69,0,0,0,2.34-.22Z" style="fill:#fff"/><path d="M189.15,64.34c0-3.9,1.16-5.51,4.67-5.51s4.59,1.84,4.59,4.67c0,.32,0,.78,0,1.11-1.23.2-3.77.44-5.28.5l-2.81.11c.2,2.25.7,3.65,3.83,3.65a26,26,0,0,0,3.77-.32l.11,1a26.25,26.25,0,0,1-4.44.34c-3.49,0-4.41-2.33-4.41-5.52m4.23-.19c1-.05,2.77-.19,3.87-.32,0-.25,0-.6,0-.86,0-1.9-.88-3.16-3.45-3.16-2.88,0-3.55,1.37-3.55,4.48Z" style="fill:#fff"/><path d="M201.54,61.5c0,1.56,1,1.7,2.83,2.25,2.3.69,3.41,1.32,3.41,3.15,0,2.32-1.73,3-4.07,3a16,16,0,0,1-3.3-.32l.11-.93a16.59,16.59,0,0,0,2.73.24c1.43,0,3.37,0,3.37-1.87,0-1.42-.89-1.71-2.84-2.29-1.67-.5-3.37-.88-3.37-3s1.51-2.81,3.69-2.81a16,16,0,0,1,3.37.33l-.12.91a16.43,16.43,0,0,0-2.69-.25c-1.38,0-3.12,0-3.12,1.68" style="fill:#fff"/><path d="M210.33,59.2a23.46,23.46,0,0,1,3.94-.37c2.25,0,4,.56,4,3.21v5.21c0,.6,0,1.21,0,1.78a10.33,10.33,0,0,1-4.37.83c-2.86,0-4.24-.78-4.24-3.15,0-1.86.77-3,2.62-3.31a45.62,45.62,0,0,1,4.92-.34V62.4c0-1.87-.58-2.58-3.19-2.58a24.26,24.26,0,0,0-3.54.32ZM214,68.89a9.28,9.28,0,0,0,3.18-.54c0-.54,0-1.27,0-1.79V64a30.49,30.49,0,0,0-4.55.31c-1.27.24-1.86.79-1.86,2.36,0,1.78.92,2.22,3.2,2.22" style="fill:#fff"/><path d="M222.23,69.72h-1.12V61.49c0-.6,0-1.21,0-1.78a13.26,13.26,0,0,1,4.85-.88c3.61,0,4,1.72,4,3.87v7h-1.13V63c0-2.16-.39-3.15-3.28-3.15a10.65,10.65,0,0,0-3.31.59c0,.54,0,1.27,0,1.78Z" style="fill:#fff"/><path d="M234.9,55.94v3h2.46v.94H234.9v7c0,1.73.55,2,2,2a4,4,0,0,0,.49,0l.09.9a6.36,6.36,0,0,1-1,.09c-1.91,0-2.72-.82-2.72-2.75v-7.2h-2V59h2V56.12Z" style="fill:#fff"/><path d="M239.44,59h1.12V69.72h-1.12Zm1.86-4.48h1.46l-2.24,2.76h-1Z" style="fill:#fff"/><path d="M243.32,59.2a23.44,23.44,0,0,1,3.93-.37c2.26,0,4,.56,4,3.21v5.21c0,.6,0,1.21,0,1.78a10.33,10.33,0,0,1-4.37.83c-2.87,0-4.24-.78-4.24-3.15,0-1.86.77-3,2.62-3.31a45.61,45.61,0,0,1,4.91-.34V62.4c0-1.87-.57-2.58-3.18-2.58a24.14,24.14,0,0,0-3.54.32Zm3.61,9.69a9.24,9.24,0,0,0,3.18-.54c0-.54,0-1.27,0-1.79V64a30.67,30.67,0,0,0-4.55.31c-1.26.24-1.85.79-1.85,2.36,0,1.78.91,2.22,3.19,2.22" style="fill:#fff"/><path d="M254.67,61.5c0,1.56,1,1.7,2.83,2.25,2.29.69,3.41,1.32,3.41,3.15,0,2.32-1.74,3-4.08,3a16,16,0,0,1-3.3-.32l.12-.93a16.56,16.56,0,0,0,2.72.24c1.43,0,3.37,0,3.37-1.87,0-1.42-.89-1.71-2.84-2.29-1.67-.5-3.37-.88-3.37-3s1.51-2.81,3.69-2.81a16,16,0,0,1,3.37.33l-.11.91a16.45,16.45,0,0,0-2.7-.25c-1.37,0-3.11,0-3.11,1.68" style="fill:#fff"/></g></g></svg>