<svg xmlns="http://www.w3.org/2000/svg" xmlns:xlink="http://www.w3.org/1999/xlink" viewBox="0 0 1750.4 603.83"><defs><linearGradient id="linear-gradient" x1="357.08" y1="301.91" x2="1524.11" y2="301.91" gradientUnits="userSpaceOnUse"><stop offset="0" stop-color="#80faff"/><stop offset="0.16" stop-color="#61c9e4"/><stop offset="0.49" stop-color="#1a5ba7"/><stop offset="1" stop-color="#80faff"/></linearGradient></defs><title>maya</title><g id="Layer_2" data-name="Layer 2"><g id="Layer_1-2" data-name="Layer 1"><path d="M1750,512.52a4.16,4.16,0,0,0-4.23-2.23l-24.23-91.55.32-.14a4.14,4.14,0,0,0-1.64-7.82l-7.26-101.49a4.22,4.22,0,0,0,1-.36,4.14,4.14,0,0,0-3.76-7.38,4.1,4.1,0,0,0-1.37,1.13l-62.18-37.07a4.14,4.14,0,0,0-5.67-5.33,3.81,3.81,0,0,0-1.11.82l-39.94-29.52a4.12,4.12,0,0,0-2.1-5.86l17.05-67.6a4.14,4.14,0,1,0-.36-8.17l-17.12-49.33s0,0,0,0a4.14,4.14,0,1,0-3.75-7.38,4.09,4.09,0,0,0-2.12,2.64l-64.38-8.29a4.14,4.14,0,1,0-7.83,1.89,1.59,1.59,0,0,1,.13.22l-103.8,81-.32-.25-.16.63-1.69,1.32,1.43-.31-19.26,75.07a4.08,4.08,0,0,0-2.38.42,4.12,4.12,0,0,0-2.24,4.1l-59.88,14a3.25,3.25,0,0,0-.18-.43,4.14,4.14,0,0,0-7.62,3.2l-166.49-14.23a4.05,4.05,0,0,0-.44-1.7,4.14,4.14,0,0,0-7.38,3.76,4,4,0,0,0,1.72,1.76l-49.64,129.07a4.18,4.18,0,0,0-2.85.33,4.24,4.24,0,0,0-1.86,1.91L1040.84,371a4.09,4.09,0,0,0-.38-2.66,4.14,4.14,0,0,0-7.83,1.84l-52.91,6.38a3.3,3.3,0,0,0-.32-.86,4.14,4.14,0,1,0-7.38,3.75,3.65,3.65,0,0,0,.26.44L900.44,443.4a4.14,4.14,0,0,0-6.41,5,4.16,4.16,0,0,0,3.36,2.24L900,505.58a4.13,4.13,0,0,0-3.37,5.49l-31.21,12.6a4.11,4.11,0,0,0-3.43,1.14l-55-43.06a4.29,4.29,0,0,0,.47-1.19,4.13,4.13,0,0,0-7.32-3.39l-10.76-4.85-59.68-26.91a4.12,4.12,0,0,0-8.06-1.72,4,4,0,0,0,0,1.89l-61.74,22.5a4.06,4.06,0,0,0-2.7-2.05h0l3.47-37.83-91.07-8.7a4.12,4.12,0,0,0-6-3.54l-29.42-43.14a4.12,4.12,0,0,0-4.75-6.67l-50.84-68.45a4.06,4.06,0,0,0,1.16-2.06,4.12,4.12,0,1,0-7.82.68L423.11,324.7a4.06,4.06,0,0,0-2.36-1.51,4.13,4.13,0,0,0-4.67,2.32L287,286.15l-.15.51a4.16,4.16,0,0,0-1-3.75l33.54-41.18a3.94,3.94,0,0,0,1.25.52,4.12,4.12,0,1,0-1.73-7.18l-84.51-77.7a4.37,4.37,0,0,0,.58-1.36,4.13,4.13,0,0,0-1.57-4.22L258,110a4,4,0,0,0,.49.15,4.13,4.13,0,1,0-1.46-7.39L158,6.59a4.13,4.13,0,1,0-5.51,1L112.71,93.12l-.33-.09a4.12,4.12,0,0,0-3.73,7L49.57,182.37a4.06,4.06,0,0,0-1-.39,4.12,4.12,0,1,0-.05,8.05l24,68a4.12,4.12,0,0,0,1,7.7,4,4,0,0,0,1.37.08l11.77,48a4.11,4.11,0,0,0-2.13,5.83L28.31,360.54A4.12,4.12,0,1,0,23.39,367L5.07,415.69H5a4.13,4.13,0,1,0,1.48,7.38l44,47.35a4.05,4.05,0,0,0-.85,1.71,4.12,4.12,0,0,0,8,1.83,2.21,2.21,0,0,0,0-.25l131.05,4.12.08.4.52-.38,2.14.07-1.29-.68L252.8,432a4.13,4.13,0,0,0,6.43-.53L314,459c0,.15-.09.29-.13.44a4.12,4.12,0,0,0,7.87,2.4l118.38,117a4.19,4.19,0,0,0-.74,1.58,4.13,4.13,0,1,0,7.85-.62L567.4,512.51a4.12,4.12,0,0,0,2.4,1.57,4.16,4.16,0,0,0,2.62-.28l30.89,49.45a4.06,4.06,0,0,0-1.41,2.27,4.12,4.12,0,0,0,7.16,3.58l44.57,28.83a4,4,0,0,0-.31.86,4.13,4.13,0,0,0,8,1.83,4.5,4.5,0,0,0,.08-.51l95.46-2.88a4.13,4.13,0,0,0,8.1.26,4.09,4.09,0,0,0-1.14-3.85l33-43.72a3.8,3.8,0,0,0,1.29.54,4.13,4.13,0,0,0,4.79-2.59l54.66,17.53-.07.25a4.19,4.19,0,1,0,8.31,1.12l70.13-2.1a4.32,4.32,0,0,0,.4,1.23,4.14,4.14,0,0,0,7.82-2.08l11.42-3.17L1019,543.09a4.14,4.14,0,0,0,7.33-3.85,4,4,0,0,0-1.22-1.45l33.2-57a4.12,4.12,0,0,0,3.41-.15h0L1083.33,512l75.88-51.78a4.15,4.15,0,0,0,5,.94,4,4,0,0,0,1.92-2.05l50.42,14.4a4.22,4.22,0,0,0,.4,2.5,4.14,4.14,0,0,0,7.56-.4l83.2,20.19a4.19,4.19,0,0,0,.43,2.33,4.14,4.14,0,1,0,5.6-5.55l19.44-53.26a4.15,4.15,0,0,0,4.91-5.14L1463,381.67l-.21-.49a4.14,4.14,0,0,0,3.2,2.23l.56,53.33a4.18,4.18,0,0,0-1.3.41,4.14,4.14,0,1,0,6,4.43l115.14,5.69a4.09,4.09,0,0,0,.43,1.42,4.14,4.14,0,0,0,3.92,2.26l7.83,48.14a4.89,4.89,0,0,0-.48.2,4.14,4.14,0,1,0,5.88,4.76l138.2,10.57a4.14,4.14,0,1,0,7.83-2.1Zm-39.39-203.43a4.31,4.31,0,0,0,1.28.28l7.26,101.49a3.85,3.85,0,0,0-1,.36,4.25,4.25,0,0,0-1.41,1.17l-47.91-27.72Zm-117.94-77.64a4.22,4.22,0,0,0,1.21,1.43l-20.15,35.72,16.19-43.92,3,2.6A4.14,4.14,0,0,0,1592.62,231.45Zm14.13,82a3.64,3.64,0,0,0-.59.37L1574,277.37a4.19,4.19,0,0,0,1-2.8l26.47-3.93,5.92,42.58A3.67,3.67,0,0,0,1606.75,313.49Zm3.55,7.47,24.15,36.22-27.66-36.29A4.18,4.18,0,0,0,1610.3,321Zm-5.74-3-24.2-31.76,25,28.4A4.16,4.16,0,0,0,1604.56,318Zm-29.69-44.45a4.69,4.69,0,0,0-.3-.75,4.11,4.11,0,0,0-1.21-1.43l21.4-37.93a4.13,4.13,0,0,0,1.59.31l5,35.88Zm-3.07-2.91a4.13,4.13,0,0,0-2.35.16l-60.38-115.32.08-.38.24-.2L1589,223.94Zm-3.29.65a4.21,4.21,0,0,0-.82.75l-74-46.61,12.65-69.49a4,4,0,0,0,1.63-.22Zm-81.51,9a4.25,4.25,0,0,0,.75-2l79-2.88a4.43,4.43,0,0,0,.39,1.2c0,.08.09.16.14.24l-45.65,35.92ZM1550.35,341a4.12,4.12,0,0,0-.63,1.32L1498.39,335a4,4,0,0,0-.45-1.92,1.88,1.88,0,0,0-.14-.24l23.82-18.74Zm-151.28-91.11,69.33-35.27a4.18,4.18,0,0,0,1.85,1.49l-14,53.14-57-17.29A4.2,4.2,0,0,0,1399.07,249.84Zm72.22-33.51a3.54,3.54,0,0,0,.73,0l10.36,57.51a4.73,4.73,0,0,0-.62.25,4.1,4.1,0,0,0-2,2.22l-22.5-6.83Zm1.78-.16a5.5,5.5,0,0,0,.63-.25,4.25,4.25,0,0,0,1.31-1l17.53,11-8.7,47.77h-.38Zm20.44,10.35,73.62,46.38a4.29,4.29,0,0,0-.37,1.36l-79,2.87a4.26,4.26,0,0,0-.39-1.19,4.14,4.14,0,0,0-2.44-2.07Zm-.77-1.74L1475.58,214a4.13,4.13,0,0,0-.07-3.61,4,4,0,0,0-1.18-1.41l8.58-14.92,22.1-38.44.3.11ZM1473.4,208.4a4.14,4.14,0,0,0-5.62,4.74l-15.22-12.41,51.37-45.83a1.09,1.09,0,0,0,.17.13Zm-6.24,5.6-68.57,34.89,53.17-47.44Zm-68.22,38.93,57,17.3-16.56,62.82a4,4,0,0,0-1.91.21l-40-78.61A4,4,0,0,0,1398.94,252.93ZM1457,270.54l22.51,6.84a4.12,4.12,0,0,0,1.23,3.39l-39.81,52.79a3.58,3.58,0,0,0-.48-.24Zm24.78,11a3.27,3.27,0,0,0,.65.26l-8.93,53.75-30.52,1a4.2,4.2,0,0,0-.4-1.21,3.86,3.86,0,0,0-.79-1.07Zm-7.37,55,15.85-.5a4.44,4.44,0,0,0,.3.76,4,4,0,0,0,1.15,1.39l-23.35,37.42-.41-.19Zm15.7-1.56-15.52.49,8.89-53.53a4,4,0,0,0,.85-.05l8.47,49.16a3.93,3.93,0,0,0-.43.18A4.15,4.15,0,0,0,1490.11,335Zm-4.75-53.42.15-.06a3.63,3.63,0,0,0,.75-.5l34.57,32.33L1497.15,332a4.11,4.11,0,0,0-3.31-1.16ZM1498.24,336l51.33,7.28a4.16,4.16,0,0,0,.44,1.93,4.43,4.43,0,0,0,.57.84l-23.39,26.33-29.86-34.72A4.17,4.17,0,0,0,1498.24,336Zm24.23-22.63L1568,277.6a4.14,4.14,0,0,0,1.38.89l-15.18,60.77a4.12,4.12,0,0,0-3.12.92Zm47.94-34.65a4.09,4.09,0,0,0,2.35-.43l.19-.1L1641.37,368a4.28,4.28,0,0,0-.91,1.21l-82.67-25.18a4.12,4.12,0,0,0-2.57-4.53Zm-12.93,66.31,82.64,25.17a4.12,4.12,0,0,0,1.26,3.89l-18.38,26-65.79-54.56A4.11,4.11,0,0,0,1557.48,345.07Zm94.35,75.43a4.6,4.6,0,0,0-.35-1,4,4,0,0,0-1.24-1.46l18-32.46,47.9,27.71a4.19,4.19,0,0,0-.32,1.44Zm61.22-4.44L1596.27,445l48-21.43a4.14,4.14,0,0,0,7.67-2Zm-63.74,1.49a4,4,0,0,0-1.28-.28l-2.93-42.17a3.87,3.87,0,0,0,1-.34,4.25,4.25,0,0,0,1.41-1.17l19.83,11.47Zm-2.34-.21a4,4,0,0,0-2,1l-21.15-17.53,18.43-26.09a4.11,4.11,0,0,0,1.79.47ZM1623.2,401.7l21.09,17.49a4.15,4.15,0,0,0-.47,3.39l-49.75,22.22a4.41,4.41,0,0,0-.68-.91Zm-28.61,44.8,121.48-30.09a3.17,3.17,0,0,0,.17.38.75.75,0,0,0,.07.12l-71.88,52.79-50-21.67A4.37,4.37,0,0,0,1594.59,446.5Zm114.91-138,.13.09-41.83,75.56L1648,372.67a4.16,4.16,0,0,0-.13-3.48,3.92,3.92,0,0,0-.37-.59Zm-.74-.77-62,60.12a4.2,4.2,0,0,0-2.1-.87l-.66-53.33,64.08-7.39a4.24,4.24,0,0,0,.32.88A4.92,4.92,0,0,0,1708.76,307.71Zm-64-40a4.1,4.1,0,0,0,1.37-1.13l62.18,37.06a4.32,4.32,0,0,0-.34,1.59l-64,7.38-.55-44.49A4.37,4.37,0,0,0,1644.73,267.66ZM1643.59,367a4.59,4.59,0,0,0-1.12.32l-31.26-46.87a4.17,4.17,0,0,0,1.56-3.18l30.16-3.48Zm-2.51-99.26a4.15,4.15,0,0,0,1.29.37l.55,44.6-30.28,3.5a4,4,0,0,0-.32-.88,4.2,4.2,0,0,0-1-1.29Zm-.9-.57-29.78,46.3a4.13,4.13,0,0,0-1.93-.4l-5.93-42.56,36.33-5.38a4.63,4.63,0,0,0,.29.75A4.2,4.2,0,0,0,1640.18,267.14Zm-42-33.88a4.21,4.21,0,0,0,1.11-.82L1639.23,262a4.17,4.17,0,0,0-.52,2.08l-36.31,5.39-5-35.86A4.69,4.69,0,0,0,1598.19,233.26Zm-1.39-7.8a4,4,0,0,0-2.36.42,3.91,3.91,0,0,0-.88.6l-3.3-2.87,22.14-60Zm-7.4-2.59-79.31-68.81a4.15,4.15,0,0,0,.64-1.67l100.52,2.06a3.92,3.92,0,0,0,.42,1.43,4.08,4.08,0,0,0,1.77,1.79Zm-79-72.8,53.07-32.74L1611.71,152a4.2,4.2,0,0,0-.44,1.35l-100.52-2.07A4.39,4.39,0,0,0,1510.41,150.07Zm86-49.11,17.12,49.34h0a4.28,4.28,0,0,0-1.14.86l-47.88-34.45,27.87-17.2A4.12,4.12,0,0,0,1596.39,101ZM1527,88.63l64.37,8.29a4.21,4.21,0,0,0,.36,1.69l-28.25,17.44-36.84-26.51A4.79,4.79,0,0,0,1527,88.63Zm-2.13,2.64a4.15,4.15,0,0,0,1.15-.87l36.48,26.25-52,32.12,12.2-57.07A4.1,4.1,0,0,0,1524.91,91.27Zm-4.78-.75a4.17,4.17,0,0,0,1.53,1l-12.24,57.22a4.14,4.14,0,0,0-6.91,3.42l-84.69,18.21Zm-17.39,62.64a3.44,3.44,0,0,0,.21.49,4.25,4.25,0,0,0,.27.46l-51.5,45.94-34.86-28.42ZM1416,172.29l35,28.48-53,47.33a4.31,4.31,0,0,0-1.18-.71Zm-22.2,82.84a4.14,4.14,0,0,0,2.78,0l40,78.61a4.27,4.27,0,0,0-.86.78l-62.44-39.21Zm41,82.53-50.94,13-15,3.83-26.9,6.89,0,0a4.12,4.12,0,0,0-1.59-1.69l32.4-63.44,62.36,39.17A4.15,4.15,0,0,0,1434.78,337.66Zm-103.36-71,59.87-14a2.35,2.35,0,0,0,.19.43,4.1,4.1,0,0,0,1.34,1.54l-20.47,40.09-41.3-25.93A4.18,4.18,0,0,0,1331.42,266.66Zm-2.25,4.11a4.17,4.17,0,0,0,1.32-1l41.37,26-32.47,63.59a4.17,4.17,0,0,0-1.17-.15L1336.4,343l-8.11-71.94A4.28,4.28,0,0,0,1329.17,270.77Zm-2,.45,8,71.2,1.9,16.85a5,5,0,0,0-.77.31,4.07,4.07,0,0,0-1.65,1.53l-34-12.82,25.79-77.15A3.53,3.53,0,0,0,1327.22,271.22Zm-143.59,57.35a3,3,0,0,0,.6,0l9.92,40.18,6.84,27.74a3.17,3.17,0,0,0-.38.17,4.07,4.07,0,0,0-2.16,2.79l-26-2.35ZM1171.4,397l-67.1-6.05a4.1,4.1,0,0,0-.44-1.72,2.26,2.26,0,0,0-.16-.26l77.19-61.54a4.09,4.09,0,0,0,1.69,1Zm23.65-29-9.78-39.65.37-.16A4.12,4.12,0,0,0,1187,327l54.39,33.45L1205,397a4.25,4.25,0,0,0-3-.83Zm67.3-32a4.06,4.06,0,0,0,.44,1.85,4.46,4.46,0,0,0,.47.72l-21.12,21.23-54.6-33.59a4.27,4.27,0,0,0,.21-.6Zm-74.57-12.51L1226.65,308l36.19,25.94a4,4,0,0,0-.36.94l-74.58-10.4A4.85,4.85,0,0,0,1187.78,323.41ZM1264,339.23a4.12,4.12,0,0,0,3.46.67l17.57,44.73a4.17,4.17,0,0,0-.56,1.14l-41.43-25.48Zm-21.74,21.84,42,25.84a3.51,3.51,0,0,0,.06.79l-77.91,11.49a4.69,4.69,0,0,0-.3-.75,3.62,3.62,0,0,0-.42-.65Zm-35.67,39.18,51.83-7.64,26.26-3.88a.84.84,0,0,0,.06.14,4.16,4.16,0,0,0,.74,1L1247.33,439l-41.41-36.35A4.13,4.13,0,0,0,1206.63,400.25Zm61.86-60.74a4.07,4.07,0,0,0,1.62-1.62l29.26,11-11.35,34a4.12,4.12,0,0,0-1.43.42,3.88,3.88,0,0,0-.72.47Zm31.88,9.79,33.93,12.79a4.12,4.12,0,0,0,0,2.15L1292,384.81a4.16,4.16,0,0,0-2.86-1.9Zm-7.94,36.48,42.2-20.54a4.1,4.1,0,0,0,2.32,1.95l-11.57,58.15-33.71-35.73A4.12,4.12,0,0,0,1292.43,385.78ZM1325,270.51a4.21,4.21,0,0,0,.51.29l-25.78,77.11-29.21-11a4.12,4.12,0,0,0-.32-2.89,4.81,4.81,0,0,0-.52-.78Zm-1.1-1.09.3.38-55.31,62.71a4.12,4.12,0,0,0-4.26-.31,3.84,3.84,0,0,0-1.15.87l-35.63-25.55ZM1156.8,255.23l164.51,14.07-94.51,37.48-70.4-50.47A4.52,4.52,0,0,0,1156.8,255.23Zm-1,2,69.85,50.07-38.25,15.18a4.14,4.14,0,0,0-4.79-2l-27.69-62.57A4.35,4.35,0,0,0,1155.78,257.18Zm-4,1.19a4.17,4.17,0,0,0,2.16-.05l27.68,62.58a4.14,4.14,0,0,0-1.54,5.41l.15.26L1103,388.11a4.08,4.08,0,0,0-.9-.66ZM1096.48,393a3.93,3.93,0,0,0,1.46,1.61l-10.43,22.26L1041.39,392a4.51,4.51,0,0,0,.24-.91l54.43.54A3.87,3.87,0,0,0,1096.48,393Zm-57.83-19.09a4.15,4.15,0,0,0,1.86-1.89l55.59,18.33,0,.21-54.44-.54a4.09,4.09,0,0,0-3.73-3.63l-.44-12.08A4.08,4.08,0,0,0,1038.65,373.87Zm-4.38-.4a4.09,4.09,0,0,0,2.12.83l.45,12.09a4,4,0,0,0-1.19.39,4.1,4.1,0,0,0-2,2.33l-12.31-2.57Zm-.44,18.88c0,.08.09.14.13.21l-80.62,62.49,67.07-67.61,13,2.71A4.07,4.07,0,0,0,1033.83,392.35ZM979.91,435.8l54.7-42.39a4.06,4.06,0,0,0,2,1.09l-7.83,77.41-77.41-11.35a4.22,4.22,0,0,0-.45-1.95c0-.08-.09-.14-.13-.21Zm-.06-58.23,52.91-6.37a4.71,4.71,0,0,0,.32.86,4.37,4.37,0,0,0,.42.66l-13.44,13.55-40.23-8.42A2.46,2.46,0,0,0,979.85,377.57Zm-5,4a4.12,4.12,0,0,0,4.74-2.69l39.55,8.27-69.46,70a4.79,4.79,0,0,0-.68-.42ZM948,456.43a4.12,4.12,0,0,0-4.63,2.43l-11.26-3.18,41.19-72.84ZM904.2,507.8a3.6,3.6,0,0,0-.22-.37l40.8-43.58a4.28,4.28,0,0,0,1.59.7l-4,55.83-37.86-9.82A4.18,4.18,0,0,0,904.2,507.8Zm39.3-45.43a4.26,4.26,0,0,0,.5.75l-40.61,43.37,28.2-49.86,11.51,3.26A4.18,4.18,0,0,0,943.5,462.37ZM973,380.65l.24.2-42.15,74.53-29.26-8.26a4.16,4.16,0,0,0-.4-2.48,4.68,4.68,0,0,0-.27-.44Zm-74.54,69.94a4.09,4.09,0,0,0,1.15-.38,4.15,4.15,0,0,0,1.93-2.06l29,8.19L902.44,506a4.26,4.26,0,0,0-1.39-.44Zm-1.63,61h0a4.16,4.16,0,0,0,.93,1.21L876,544.57l-11.87-3.5.87-9.2a4.11,4.11,0,0,0,1.93-7.67L897,512.05Zm-33.73,29.2L843.43,535a2.84,2.84,0,0,0,.05-.58l17.6-5a4.08,4.08,0,0,0,2.87,2.39Zm-2.25-13.93a4.16,4.16,0,0,0-.05,1.53l-14,4,14.17-5.72C860.89,526.7,860.86,526.77,860.84,526.83ZM842.45,537a3.92,3.92,0,0,0,.68-1L863,541.84l-1.94,20.45a4.28,4.28,0,0,0-1.18.38L848.13,545.5Zm19.67,25.24,1.91-20.1,11.34,3.34-11.75,17.19A4,4,0,0,0,862.12,562.25ZM806.3,482.58,861,525.43l-17.88,7.22-.11-.24a4.13,4.13,0,0,0-5-2l-31.9-47.64Zm-77-36.16,16.51,7.45,53.75,24.23a4.23,4.23,0,0,0-.21.63,4.16,4.16,0,0,0,1,3.66l-26.4,27.51-45.07-62.73A4.12,4.12,0,0,0,729.33,446.42Zm-1.24,1.49,45.1,62.77-38.73,40.37a4,4,0,0,0-1.53-.7,4.14,4.14,0,0,0-.6-.09L727,448.49A4.08,4.08,0,0,0,728.09,447.91ZM691.25,552.42,622.37,550a4.05,4.05,0,0,0-.81-2.1l55.3-54.26,52,58a4.06,4.06,0,0,0-.9,1.78,1.5,1.5,0,0,0,0,.24Zm32.6,2.19-94.41,9-8.22-10.35a4,4,0,0,0,1.07-2,2,2,0,0,0,0-.24Zm7.25,3.78a4.09,4.09,0,0,0,2.79-.35l6.59,9.6-77.93,29.53,66.25-40.23A4.07,4.07,0,0,0,731.1,558.39Zm3.66-.95a4.14,4.14,0,0,0,1.28-2.16,4.59,4.59,0,0,0,.1-.9l58.71-7.33L741.5,567.26ZM723.36,448a4,4,0,0,0,1.36.58,3.68,3.68,0,0,0,1.23.09l5.32,101.6a4.07,4.07,0,0,0-1.59.66l-52.06-58ZM660.29,471a4.16,4.16,0,0,0,0-1.89L722,446.57a3.85,3.85,0,0,0,.55.77l-45.66,44.8-17.46-19.46A4.09,4.09,0,0,0,660.29,471Zm-1.63,2.44,17.49,19.49-55.33,54.29-.32-.22,11.94-25.27L655,474l.37.11A4.1,4.1,0,0,0,658.66,473.4Zm-84,35.4,22.16-10.38,19.45,48.41a4.52,4.52,0,0,0-.75.55l-41.33-35.09a3.9,3.9,0,0,0,.56-1.32A4.08,4.08,0,0,0,574.64,508.8ZM597.76,498l55-25.77a3.94,3.94,0,0,0,1.27,1.3l-22.69,48-11.8,25-.36-.1a4.1,4.1,0,0,0-1.94,0Zm-28.28-77.42,90,8.6-3.36,36.78a4.11,4.11,0,0,0-3.11,1.6l-83.7-46.45A4.68,4.68,0,0,0,569.48,420.55Zm-.66,1.47,83.65,46.43a3.86,3.86,0,0,0-.22.68,4.25,4.25,0,0,0,.07,2.1l-55,25.75-29.69-73.87A4.27,4.27,0,0,0,568.82,422Zm-38.7-48.38a2.64,2.64,0,0,0,.4.12,4.15,4.15,0,0,0,2.77-.34l29.42,43.13a4.17,4.17,0,0,0-1.28,2.17,4.07,4.07,0,0,0,0,1.59l-59.32,15.93a4.13,4.13,0,0,0-1.54-1.87ZM420.85,396l-30,18.57L373,383.12a4.11,4.11,0,0,0,1.41-1.62l45.46,11.18A4.12,4.12,0,0,0,420.85,396Zm.84.73a4,4,0,0,0,1.36.59,3.44,3.44,0,0,0,.84.1L409,442.32a4.18,4.18,0,0,0-2.28.2l-15.37-27.07Zm6.38-3.79,60.49-13.23,8.54,54.2a4.09,4.09,0,0,0-2.05,1.37l-44.54-27.16-22.57-13.76c0-.05,0-.1,0-.15A4.24,4.24,0,0,0,428.07,392.89Zm66.43,43.25a3.78,3.78,0,0,0-.26.76,4.06,4.06,0,0,0-.1.77l-51.36,4.83L427.08,396a5.06,5.06,0,0,0,.46-.65Zm-52.8,6.46-29.46,2.78a4.16,4.16,0,0,0-2.22-2.73l15-45.43a4,4,0,0,0,1.15-.52Zm-31.05,7.11,50.47,55.45a4.39,4.39,0,0,0-.58.89l-39.58-13-11.18-42.9A4.1,4.1,0,0,0,410.65,449.71Zm.78-.73a4.16,4.16,0,0,0,.83-1.7,4.11,4.11,0,0,0,.1-.85l29.69-2.79,20.4,60.48a6.16,6.16,0,0,0-.55.33Zm31.7-5.45,51.11-4.81a4.17,4.17,0,0,0,1.76,2.54l-12.67,26.08-17.76,36.58a2.62,2.62,0,0,0-.4-.11,4.12,4.12,0,0,0-1.71,0Zm41.4,23.78L497,441.72a1.6,1.6,0,0,0,.39.11,4.12,4.12,0,0,0,3.44-.75l18.39,18.34L467,504.75a5.45,5.45,0,0,0-.47-.37Zm17-27a4.19,4.19,0,0,0,.76-1.59,4.25,4.25,0,0,0,.06-1.46l59.35-15.94a4,4,0,0,0,.45.77L520,458.72Zm27.63-67.14L499.58,433.9l-.4-.11a4,4,0,0,0-1-.09l-8.55-54.27,37.95-8.3A4.17,4.17,0,0,0,529.16,373.18Zm-51.43-74.86,50.84,68.45a4.07,4.07,0,0,0-1.16,2.05,4.24,4.24,0,0,0-.09,1.27l-37.88,8.29-12.56-79.7A4.26,4.26,0,0,0,477.73,298.32Zm-2.93.42a4,4,0,0,0,1,.1L488.4,378.6l-60.56,13.25a4.16,4.16,0,0,0-1.51-2l48-91.28Zm-1.92-1a3,3,0,0,0,.47.39l-48,91.29-.52-.16a4.48,4.48,0,0,0-.64-.08l-3.09-49.57Zm-49,30.43a4.1,4.1,0,0,0-.22-2.51l46.38-27-49,39.62-.44-7A4.11,4.11,0,0,0,423.86,328.13Zm-.68,61.07a4.12,4.12,0,0,0-3,2.46l-45.39-11.17a4.08,4.08,0,0,0-.54-3l45.9-37.14Zm-5.75-58.64a4.09,4.09,0,0,0,1.5.67,3.4,3.4,0,0,0,.64.09l.48,7.77-43.69,35.35ZM286.66,287.17l129.12,39.36a4.1,4.1,0,0,0,.88,3.3l-43.53,46.51a4.23,4.23,0,0,0-1.49-.68,4.14,4.14,0,0,0-3.55.86l-82.24-88A4.26,4.26,0,0,0,286.66,287.17Zm80.7,90.12a4.25,4.25,0,0,0-.27.46l-63.2-30L281,336.86a2.42,2.42,0,0,0,.1-.36,4.11,4.11,0,0,0-3-4.92l4.5-41.72a4.06,4.06,0,0,0,2.49-.65Zm-.52,3.79L301.64,409l-22.79-69.7a4.16,4.16,0,0,0,1.69-1.48l47.29,22.46,13.89,6.6,25,11.87v0A4.19,4.19,0,0,0,366.84,381.08ZM179.71,431.3l-68.52,2.37a1.18,1.18,0,0,0,0-.2l57.49-21.31a4.12,4.12,0,0,0,7.32-.05ZM177,411.85l74.71,17-70.92,2.44Zm59.49-107.23,12.2,9.51-40.91,35.31a4.1,4.1,0,0,0-.68-.5l24.83-43a3.19,3.19,0,0,0,.44.13A4.12,4.12,0,0,0,236.48,304.62ZM233,252.19l84.53-12.82a4.89,4.89,0,0,0,.34.82l-81.59,59a4.1,4.1,0,0,0-2.09-1.2,3.54,3.54,0,0,0-.45-.08Zm4.3,48.95L279,287.37a2.14,2.14,0,0,0,.2.4L249.5,313.42,237,303.71a4.1,4.1,0,0,0,.26-.77A4,4,0,0,0,237.3,301.14ZM134.49,238.63a4.16,4.16,0,0,0-3.21,1.45L106,223.53l33.39-41.15a4.18,4.18,0,0,0,1.06.45Zm5.64-42.94-1.95,45.4a4.09,4.09,0,0,0-2.64-2.29Zm-6.63,51.09a4.1,4.1,0,0,0,.68.09l1.38,48.42a4.11,4.11,0,0,0-2.56,1.49l-22.76-13.85,22.58-36.37A3.86,3.86,0,0,0,133.5,246.78Zm1.74,0a4.13,4.13,0,0,0,2.78-2.05l-1.7,39.73ZM141.73,183a3.82,3.82,0,0,0,1.47-.35l47.25,71.94a4.08,4.08,0,0,0-.92,5.11L139.2,296.52a4.11,4.11,0,0,0-2.08-1.18l-.2,0Zm85.06-27.51-49.7,13.31-5-26.82a4.11,4.11,0,0,0,2.52-2.31l52.24,14.69A4.32,4.32,0,0,0,226.79,155.47Zm-50.73,13.58-30.72,8.23a4.18,4.18,0,0,0-1.07-1.5l24.59-34.11a4.06,4.06,0,0,0,1,.39,3.75,3.75,0,0,0,1.15.09Zm-30.5,10.73a4.31,4.31,0,0,0,.06-1.47l30.64-8.21,15.61,83.67a4.18,4.18,0,0,0-.53.21l-47.23-71.9A4.13,4.13,0,0,0,145.56,179.78ZM198,300.52l-57.66-1.58a4.25,4.25,0,0,0-.49-1.56l50.33-36.84a4.12,4.12,0,0,0,2.07,1.18,4.59,4.59,0,0,0,.9.1Zm-3.8-38.84a4.11,4.11,0,0,0,1.31-.6l34.66,38.27a4,4,0,0,0-.88,1.76,1.28,1.28,0,0,0,0,.27L199,300.55Zm-55,40.6,62.34,48.15a4.13,4.13,0,0,0,.08,4.29l-36.75,30.76L138,303.08A4.12,4.12,0,0,0,139.12,302.28Zm63.11,53.26a3.47,3.47,0,0,0,.29.25l-28.68,50.64a3.2,3.2,0,0,0-.64-.21,4.09,4.09,0,0,0-1.67,0l-6.38-19.62Zm-.12-6-62.34-48.15a3.8,3.8,0,0,0,.46-1.16c0-.09,0-.19.05-.27l57.82,1.58L204,348.52A4.17,4.17,0,0,0,202.11,349.59Zm-2.93-48,30,.82a4.1,4.1,0,0,0,1.79,3l-24.87,43.1-.17,0a3.86,3.86,0,0,0-.89-.1Zm31.75-3-34.66-38.27a4,4,0,0,0,.89-1.76,4.3,4.3,0,0,0,.1-1l34.68-5.26.74,45.59A4.19,4.19,0,0,0,230.93,298.64ZM197.1,256.56A4.13,4.13,0,0,0,195,254l34.88-94.94.06,0a3.54,3.54,0,0,0,.45.08l1.49,92.07Zm-3-2.89a4.05,4.05,0,0,0-1.14-.09l-15.62-83.76L227,156.51a4.13,4.13,0,0,0,1.91,2.21Zm33.49-101L115.38,98.36c0-.13.08-.26.11-.39s0-.09,0-.14l88.65,5.37,24.48,48.45A4.07,4.07,0,0,0,227.54,152.7Zm-2.26.09L174.9,138.63a4.12,4.12,0,0,0-7.15-3.35l-50.29-34.73ZM168,141l-24.61,34.15a4.23,4.23,0,0,0-.94-.35,4.18,4.18,0,0,0-1.83,0l-7.87-21.42L167.2,140A4,4,0,0,0,168,141Zm-28.38,34.17a4.12,4.12,0,0,0-2.11,2.74,4.19,4.19,0,0,0-.09.7l-85.77,6.51,0-.14,80.14-31.21Zm-88,11.71a4.33,4.33,0,0,0,.09-.7l85.77-6.52a4.11,4.11,0,0,0,1.05,2L105.08,223,51.33,187.8A4.37,4.37,0,0,0,51.64,186.92Zm53.66,37.44L130.7,241a4.16,4.16,0,0,0-.31.88,4.08,4.08,0,0,0,0,1.63L78.06,260a4.17,4.17,0,0,0-.75-1.11ZM78.35,262.6a4.08,4.08,0,0,0,0-1.63l52.3-16.48A4.06,4.06,0,0,0,131.9,246l-22.57,36.35-31.24-19A3.78,3.78,0,0,0,78.35,262.6Zm31.33,21.23,22.76,13.86a4.51,4.51,0,0,0-.25.76,4.07,4.07,0,0,0,0,1.87l-40.53,15.4a4,4,0,0,0-1-1.24ZM92.06,318.58a4.07,4.07,0,0,0,0-1.87l38.18-14.51L89.86,325.51l-.64-3.9A4.1,4.1,0,0,0,92.06,318.58Zm40.87-16.71a4.14,4.14,0,0,0,1.9,1.38L107.61,430l-.31.24H107L90,326.63Zm2.94,1.6a4.49,4.49,0,0,0,1.1-.05l26.95,82.8L110,431.36a4.17,4.17,0,0,0-1.39-.88Zm28.4,83.83,6.25,19.22a4.12,4.12,0,0,0-2.25,4.64l-16.07,6-41.4,15.34c0-.09-.1-.19-.16-.28ZM174.77,407l28.7-50.63a3.43,3.43,0,0,0,.64.21,4,4,0,0,0,2.93-.43l12.87,19.56-44.6,31.78A4.19,4.19,0,0,0,174.77,407Zm33.12-51.48a4.06,4.06,0,0,0,1.15-2.05,4,4,0,0,0,.08-1.33L273.21,337c.07.17.14.33.22.49L220.78,375Zm65.16-20.8A4.22,4.22,0,0,0,273,336L208.8,350.86a4.65,4.65,0,0,0-.34-.62l41.07-35.45,24,18.7A4.22,4.22,0,0,0,273.05,334.67Zm-22.7-20.59,29.49-25.46a4,4,0,0,0,1.65,1L277,331.46a4.16,4.16,0,0,0-2.81,1.19Zm68.15-73L285,282.24a4,4,0,0,0-1.25-.51,4.12,4.12,0,0,0-4.94,3.11,4.06,4.06,0,0,0,0,1.51L237,300.14l0-.08,81.59-59Zm-84.86-82.89,84.49,77.68a4.13,4.13,0,0,0-.66,1.46,4.32,4.32,0,0,0-.09,1L233,251.11l-1.49-91.93A4.09,4.09,0,0,0,233.64,158.17Zm23.43-48.71-24.65,41.81a5.44,5.44,0,0,0-.61-.19,4,4,0,0,0-2.21.11l-24.22-47.92,49.93,3A4.15,4.15,0,0,0,257.07,109.46ZM157.25,7.36l99,96.07a4.09,4.09,0,0,0-.86,1.73s0,.06,0,.08l-50.56-3.06L157,7.53Zm-3.81.7.33.09A4.09,4.09,0,0,0,156.05,8L203.6,102.1l-88-5.33a4.14,4.14,0,0,0-1.91-3.2ZM114.53,99.81l52.62,36.34a4,4,0,0,0-.35,1,4.1,4.1,0,0,0,0,1.91l-34.44,13.4-19-51.72A4.21,4.21,0,0,0,114.53,99.81Zm-5,.87a4.08,4.08,0,0,0,1,.4,4,4,0,0,0,1.83,0l19,51.75L51.23,184a4.07,4.07,0,0,0-.8-1Zm-36.05,157-24-68a4.08,4.08,0,0,0,1.27-1l53.66,35.09L76.49,258.18a4.17,4.17,0,0,0-1.25-.51A4.11,4.11,0,0,0,73.46,257.66Zm2.35,7.88a4.11,4.11,0,0,0,1.73-1.27l31.23,19-19,30.63a4.06,4.06,0,0,0-.79-.26,4,4,0,0,0-1.37-.08Zm9.23,55a4.14,4.14,0,0,0,2.08,1.19,3.77,3.77,0,0,0,1,.09l.7,4.3L33.7,357.93ZM29.13,361.8l59.93-34.6,16.88,103.19a4,4,0,0,0-1.55.87l-75.63-65.6a4.16,4.16,0,0,0,.37-3.86Zm-1.07,4.66,75.63,65.6a4.35,4.35,0,0,0-.53,1.18L41.68,424.5,26.86,367.2A4,4,0,0,0,28.06,366.46Zm-22,49.61,18.32-48.68h0a4.27,4.27,0,0,0,1.42.07l14.71,56.87L8.25,419.75A4.13,4.13,0,0,0,6.06,416.07Zm45.23,53.61-44-47.34a4.17,4.17,0,0,0,.79-1.54l32.74,4.66,11.32,43.75A4,4,0,0,0,51.29,469.68ZM54.6,469a4,4,0,0,0-1.42-.06L42,425.62l60.29,8.56L56.57,470.09A4.15,4.15,0,0,0,54.6,469Zm3.19,3.62a4,4,0,0,0-.57-1.7l45.83-36a4.12,4.12,0,0,0,7.45,1.79l76.44,40ZM111,435.76a3.8,3.8,0,0,0,.16-.51,4.67,4.67,0,0,0,.08-.52l68.68-2.37,8.6,44Zm78.61,40.63L181,432.32l70.75-2.44a4.11,4.11,0,0,0,.44,1.29Zm62.34-48.6-75.55-17.16a4.12,4.12,0,0,0-.46-2.33l44.57-31.76,32.62,49.55A4.11,4.11,0,0,0,251.94,427.79ZM254,425.5l-32.64-49.57,52.69-37.54a4.19,4.19,0,0,0,1.6,1.06L256.2,425.11A4.11,4.11,0,0,0,254,425.5Zm3.23-.16,19.45-85.65a4.08,4.08,0,0,0,1.16-.06l22.82,69.79-41.3,17.69A4.14,4.14,0,0,0,257.23,425.34ZM314.44,458,259.7,430.57a3.81,3.81,0,0,0,.13-.45,4.14,4.14,0,0,0-.05-2L301,410.44l15.09,46.15A4.13,4.13,0,0,0,314.44,458Zm4.33-1.71a3.82,3.82,0,0,0-1.68,0L302,410l65.36-28a4.12,4.12,0,0,0,.8.87l-8.86,13.47L319.66,456.6A4.25,4.25,0,0,0,318.77,456.29Zm1.78.89,39.2-59.62L369,383.45a4.2,4.2,0,0,0,.78.26,4.27,4.27,0,0,0,2.25-.12l17.88,31.49-68.89,42.63A4.18,4.18,0,0,0,320.55,457.18Zm1.06,1.43L390.46,416l15.35,27a4.1,4.1,0,0,0-1.6,2.42,3.67,3.67,0,0,0-.09.93l-82.3,12.77A5.2,5.2,0,0,0,321.61,458.61Zm.37,1.6,82.28-12.77a4.11,4.11,0,0,0,4.49,3l11,42.24-97.8-32A3.93,3.93,0,0,0,322,460.21ZM440.82,578l-117-115.55,96.21,31.5,21.75,83.47A4.35,4.35,0,0,0,440.82,578Zm2-.84-21.56-82.82,38.93,12.74a4.12,4.12,0,0,0,2.42,4.55L444,577.15A4.75,4.75,0,0,0,442.84,577.14Zm3.83,1.63a4.17,4.17,0,0,0-1.68-1.33l18.66-65.54a4.11,4.11,0,0,0,4.63-3.16,1.47,1.47,0,0,0,.05-.29l98.28,2.05a4.05,4.05,0,0,0,.27,1.09Zm120-69.63c0,.1,0,.2-.05.3l-98.28-2.05a4.08,4.08,0,0,0-.66-1.84l52.24-45.38,47.5,47.37A4.22,4.22,0,0,0,566.69,509.14Zm1.5-2.35-47.45-47.31,42.15-36.62a4.15,4.15,0,0,0,1.65.79,4.41,4.41,0,0,0,.88.11L570,506A4.06,4.06,0,0,0,568.19,506.79Zm3.43-.76a3.09,3.09,0,0,0-.6-.08l-4.54-82.33.23-.06,29.69,73.87-22.21,10.41A4.08,4.08,0,0,0,571.62,506ZM608,562.87a4.53,4.53,0,0,0-1.16-.46,4.19,4.19,0,0,0-2.63.28l-30.89-49.45.16-.14,41.33,35.09a4,4,0,0,0-.56,1.32,4.13,4.13,0,0,0,1.1,3.83Zm.84.66,7.35-9.54a4.26,4.26,0,0,0,1.17.46,4.11,4.11,0,0,0,3-.49l7.79,9.81-18.24,1.75A4.09,4.09,0,0,0,608.84,563.53ZM654.2,597l-44.56-28.83a4.09,4.09,0,0,0,.4-1.63L629,564.76l25.43,32.07Zm4.06-1.36a4.14,4.14,0,0,0-3,.49l-25-31.53L728,555.29a4.57,4.57,0,0,0,.24.74l-67.67,41.1A4.19,4.19,0,0,0,658.26,595.68Zm98.7,0a4.5,4.5,0,0,0-.08.51l-95.46,2.88-.06-.3,79.74-30.21,17.14,25A4,4,0,0,0,757,595.66ZM763,593a4.09,4.09,0,0,0-3.92-.08l-17-24.75L795.28,548a4,4,0,0,0,.78,1.22Zm32-47.46c0,.14,0,.29-.07.43l-59,7.37a4.18,4.18,0,0,0-.77-1.55l38.59-40.22,22.73,31.63A4.1,4.1,0,0,0,795.06,545.53Zm3.86-3.2a3.94,3.94,0,0,0-1.45.33l-22.91-31.88,26.57-27.7a4,4,0,0,0,1.36.59,3.65,3.65,0,0,0,.55.08Zm4,2.49a4.12,4.12,0,0,0-2.87-2.4h0l4.14-58.71a4,4,0,0,0,1.13-.37l31.82,47.52a4.13,4.13,0,0,0-1.64,4.71Zm.4,2-.16.51h0a4.12,4.12,0,0,0,0-1.52l32.74-9.3a4.12,4.12,0,0,0,5.33,1.44l.35-.2,5.94,8.71,11.34,16.93a4.43,4.43,0,0,0-.45.51,3.75,3.75,0,0,0-.36.5ZM936,563.61l-70.13,2.1a4.14,4.14,0,0,0-.39-1.22,4.22,4.22,0,0,0-.94-1.21l12-17.47L936,563.37Zm.33-1.26-59.21-17.46,21.56-31.52a4.1,4.1,0,0,0,3.75,0h0l34.52,48A3.89,3.89,0,0,0,936.29,562.35Zm3.34-2.45a4.2,4.2,0,0,0-1.43.43,3.7,3.7,0,0,0-.47.29l-34.44-47.87a4.34,4.34,0,0,0,.91-1.18l38.15,9.89Zm61.45-13L944,562.76a4.73,4.73,0,0,0-.25-.62,4.12,4.12,0,0,0-3.08-2.21l2.71-38.2,75.09,19.48a3.79,3.79,0,0,0,.11.88Zm17.52-6.8-75.13-19.49,4-56a4.18,4.18,0,0,0,1.63-.44,3,3,0,0,0,.52-.32L1019.07,539A4.42,4.42,0,0,0,1018.6,540.14Zm3.56-3.14a4.13,4.13,0,0,0-1.42.42,4.62,4.62,0,0,0-1,.72l-69.35-75a4.24,4.24,0,0,0,.8-1.53L1028.64,473Zm2,.27a4.71,4.71,0,0,0-.91-.25l6.46-63.9,26,3.81a4.09,4.09,0,0,0,.45,1.88,4.28,4.28,0,0,0,1.22,1.44Zm33.79-64a4.11,4.11,0,0,0-2.12,2.63l-26-3.81,7.83-77.45a2.56,2.56,0,0,0,.39,0l7,27.17,13.25,51.33Zm3.21-.23a4,4,0,0,0-1.82-.19L1046,421.18l-6.93-26.86.33-.16a4.19,4.19,0,0,0,1.49-1.27l46.16,24.9ZM1088,418.3l70.37,37.95a4,4,0,0,0-.18,1.58l-94.4,17.89a4.27,4.27,0,0,0-.27-.67,4.13,4.13,0,0,0-1.4-1.58Zm-4.38,92.26-21-30.55a4.18,4.18,0,0,0,1.37-3.24l94.44-17.9a5.49,5.49,0,0,0,.21.51Zm75.2-55.27-70.37-38,10.47-22.3a4.16,4.16,0,0,0,3.14-.25,5.69,5.69,0,0,0,.52-.33L1159,455.08Zm1.61-1.48a4.8,4.8,0,0,0-.74.5l-56.33-60.58a4.19,4.19,0,0,0,.86-1.74l67,6-9,55.34A4.41,4.41,0,0,0,1160.42,453.81Zm3.69,0a4.24,4.24,0,0,0-.84-.31l9-55.35,26.07,2.35a4.1,4.1,0,0,0,.44,1.72,3.94,3.94,0,0,0,.89,1.16Zm54.63,16.69a4.13,4.13,0,0,0-1.93,2l-50.41-14.4a4.15,4.15,0,0,0-.41-2.5,4.23,4.23,0,0,0-1-1.26L1200.56,404a4.19,4.19,0,0,0,2.39.45l16.17,65.88A2.59,2.59,0,0,0,1218.74,470.48Zm1.41-.42L1204,404.18a3.29,3.29,0,0,0,.39-.17,3.91,3.91,0,0,0,.85-.59l41.45,36.4-24,30.78A4.2,4.2,0,0,0,1220.15,470.06Zm87.79,24.74-83.21-20.18a4.25,4.25,0,0,0-.42-2.33,4.4,4.4,0,0,0-.75-1l23.92-30.74L1308.36,494A4.54,4.54,0,0,0,1307.94,494.8Zm2-2.2a4.25,4.25,0,0,0-.85.58l-60.94-53.5,38.24-49.12a4.14,4.14,0,0,0,2.44.56l21.61,101.27A3.11,3.11,0,0,0,1309.92,492.6Zm2.16-.44a4.3,4.3,0,0,0-.62,0L1289.85,390.9l.5-.21.55-.34,34.22,36.27Zm1.59-2.56,12.35-62,4.84,5.13a4.13,4.13,0,0,0,1.29,6.29Zm20.1-58.41a4.16,4.16,0,0,0-1.59.44,4.53,4.53,0,0,0-.55.34l-5.36-5.68,11-55.36Zm3.86,2.05a4.1,4.1,0,0,0-2.8-2l3.73-63.86a4.14,4.14,0,0,0,3.78-3.37l120,15.09a4.26,4.26,0,0,0,.24,1.57Zm124.9-55.17L1342.4,363a3.23,3.23,0,0,0-.08-.53L1410.38,345l24.66-6.32c0,.12.1.23.16.35a4.14,4.14,0,0,0,5.52,1.83L1464,376A4.12,4.12,0,0,0,1462.53,378.07Zm2.44-2.63-23.37-35.16a4.12,4.12,0,0,0,1.41-2.72l30.31-1-6.41,38.59A4.21,4.21,0,0,0,1465,375.44Zm2.65,61.29-.56-53.33a4.18,4.18,0,0,0,1.3-.41,4.13,4.13,0,0,0,.88-6.77l23.38-37.48.1,0-25.09,98Zm1.84.68a4.64,4.64,0,0,0-.8-.41l25.09-97.95a4.1,4.1,0,0,0,2.38-.43,3,3,0,0,0,.39-.22l30,34.83Zm116.9,8.79-115.1-5.69a4.41,4.41,0,0,0-.44-1.55,4.07,4.07,0,0,0-.57-.83L1527.17,374l60.21,70A4.21,4.21,0,0,0,1586.36,446.2Zm2.22-3.08a3.64,3.64,0,0,0-.39.23l-60.3-70.11,23.48-26.45a4.13,4.13,0,0,0,3.21.62l34.06,95.69Zm1.07-.37-34.07-95.69a4,4,0,0,0,1-.66L1622.38,401l-29.84,42.22A4.2,4.2,0,0,0,1589.65,442.75Zm9.91,56.11-7.83-48.11a4.54,4.54,0,0,0,.61-.24A4.17,4.17,0,0,0,1594,449l49.47,21.43L1603,500.17A4.14,4.14,0,0,0,1599.56,498.86Zm142.64,14.69L1604.06,503a4.16,4.16,0,0,0-.45-1.89l0-.07,41-30.11,97.71,42.34C1742.25,513.36,1742.22,513.46,1742.2,513.55Zm2.18-2.84a4.12,4.12,0,0,0-1.68,1.57l-97.14-42.09,71.38-52.42a4.14,4.14,0,0,0,3.52,1.24l24.23,91.56Z" style="opacity:0.44;fill:url(#linear-gradient)"/></g></g></svg>