<svg xmlns="http://www.w3.org/2000/svg" viewBox="0 0 732 212"><title>pestaña</title><g id="Layer_2" data-name="Layer 2"><g id="Layer_1-2" data-name="Layer 1"><path d="M34.85,0H732a0,0,0,0,1,0,0V212a0,0,0,0,1,0,0H34.85A34.85,34.85,0,0,1,0,177.15V34.85A34.85,34.85,0,0,1,34.85,0Z" style="fill:#000100;opacity:0.8"/><path d="M88,49.72a1.18,1.18,0,0,1-.88.38H74.25a4.32,4.32,0,0,0-3.12.92,4.75,4.75,0,0,0-.92,3.37v5.68H86.56a1.28,1.28,0,0,1,1.26,1.27v6a1.28,1.28,0,0,1-1.26,1.27H70.21V87a1.2,1.2,0,0,1-.38.89,1.22,1.22,0,0,1-.88.38H60.69A1.3,1.3,0,0,1,59.42,87V54.39a16.27,16.27,0,0,1,1.27-6.94,10.19,10.19,0,0,1,3.4-4.1,12.64,12.64,0,0,1,5-2,33.78,33.78,0,0,1,5.85-.5c1.72,0,3.21,0,4.48.09s2.37.14,3.34.22,1.8.17,2.49.26,1.32.17,1.87.25q1.26.2,1.26,1.26v5.87A1.2,1.2,0,0,1,88,49.72Z" style="fill:#fff"/><path d="M126.32,87.91a1.22,1.22,0,0,1-.88.38h-7.07A1.32,1.32,0,0,1,117.11,87V85.48a15.9,15.9,0,0,1-10.29,3.31,12.06,12.06,0,0,1-5.59-1.14,8.63,8.63,0,0,1-3.4-3.06,12.48,12.48,0,0,1-1.71-4.54,32,32,0,0,1-.47-5.59v-21a1.3,1.3,0,0,1,.41-.92,1.27,1.27,0,0,1,.91-.41h7.64a1.16,1.16,0,0,1,.88.41,1.3,1.3,0,0,1,.38.91v21a18,18,0,0,0,.19,2.78,4.26,4.26,0,0,0,.7,1.82,2.67,2.67,0,0,0,1.42,1,8.15,8.15,0,0,0,2.36.28,7.69,7.69,0,0,0,2.84-.57,28.67,28.67,0,0,0,3.1-1.44V53.44a1.33,1.33,0,0,1,.37-.91,1.2,1.2,0,0,1,.89-.41h7.64a1.27,1.27,0,0,1,.91.41,1.3,1.3,0,0,1,.41.92V87A1.24,1.24,0,0,1,126.32,87.91Z" style="fill:#fff"/><path d="M153.84,88.35c-1,.17-1.81.3-2.53.38a22.23,22.23,0,0,1-2.46.12,20.71,20.71,0,0,1-4.55-.44,6.72,6.72,0,0,1-5.3-4.89,18,18,0,0,1-.69-5.46V59.76l-5.05-.82a2.33,2.33,0,0,1-.91-.47,1.11,1.11,0,0,1-.41-.86V53.45a1.3,1.3,0,0,1,.41-.92,1.27,1.27,0,0,1,.91-.41h5.05V47a1,1,0,0,1,.38-.82,2.09,2.09,0,0,1,.88-.44l7.65-1.33h.19a1.16,1.16,0,0,1,.81.28,1,1,0,0,1,.32.79v6.69h5.17A1.28,1.28,0,0,1,155,53.4v5.15a1.22,1.22,0,0,1-.37.89,1.2,1.2,0,0,1-.89.38h-5.17V78.19a5.84,5.84,0,0,0,.31,2.43c.21.36.8.53,1.77.53h3.09c.89,0,1.33.36,1.33,1.07V87.1C155,87.81,154.64,88.23,153.84,88.35Z" style="fill:#fff"/><path d="M191.52,87.91a1.24,1.24,0,0,1-.89.38h-7.07a1.19,1.19,0,0,1-.88-.39,1.23,1.23,0,0,1-.38-.89V85.48A15.85,15.85,0,0,1,172,88.79a12,12,0,0,1-5.58-1.14A8.66,8.66,0,0,1,163,84.59a12.3,12.3,0,0,1-1.7-4.54,31,31,0,0,1-.48-5.59v-21a1.41,1.41,0,0,1,1.33-1.33h7.64a1.18,1.18,0,0,1,.88.41,1.34,1.34,0,0,1,.38.91v21a16.82,16.82,0,0,0,.19,2.78A4.13,4.13,0,0,0,172,79a2.71,2.71,0,0,0,1.42,1,8.17,8.17,0,0,0,2.37.28,7.77,7.77,0,0,0,2.84-.57,27.71,27.71,0,0,0,3.09-1.44V53.44a1.34,1.34,0,0,1,.38-.91,1.18,1.18,0,0,1,.88-.41h7.64a1.41,1.41,0,0,1,1.32,1.33V87A1.23,1.23,0,0,1,191.52,87.91Z" style="fill:#fff"/><path d="M219,59.76a.8.8,0,0,1-.69.38h-.51a14.57,14.57,0,0,0-4.35.63,21.7,21.7,0,0,0-3.79,1.57V87a1.3,1.3,0,0,1-.38.92,1.16,1.16,0,0,1-.88.41h-7.64a1.27,1.27,0,0,1-.91-.41,1.26,1.26,0,0,1-.41-.92V53.38a1.18,1.18,0,0,1,.38-.88,1.2,1.2,0,0,1,.88-.38h7.51a1.3,1.3,0,0,1,1.26,1.28v1.27A13.58,13.58,0,0,1,218,51.62a1.24,1.24,0,0,1,.89.38,1.23,1.23,0,0,1,.38.89v6A1.48,1.48,0,0,1,219,59.76Z" style="fill:#fff"/><path d="M253.75,73.39H233.61v.13a10.44,10.44,0,0,0,.32,2.56A5.68,5.68,0,0,0,235,78.27a5.24,5.24,0,0,0,2,1.5,7.44,7.44,0,0,0,3.12.56c1,0,2.09,0,3.22-.06l3.38-.13q1.66-.06,3.12-.18c1-.09,1.77-.15,2.4-.19h.19c.8,0,1.2.33,1.2,1v4.83a2.21,2.21,0,0,1-.25,1.15,1.76,1.76,0,0,1-1.08.57,50.63,50.63,0,0,1-5.93,1.14,53.85,53.85,0,0,1-7,.38,20.34,20.34,0,0,1-5.69-.82,13.93,13.93,0,0,1-5.11-2.71,13.59,13.59,0,0,1-3.66-5,19,19,0,0,1-1.39-7.67V68.22a20.73,20.73,0,0,1,1.08-6.88,14.1,14.1,0,0,1,3.12-5.24,13.75,13.75,0,0,1,5-3.31,18.3,18.3,0,0,1,6.75-1.17,17,17,0,0,1,6.82,1.26,13.78,13.78,0,0,1,4.86,3.47,14.53,14.53,0,0,1,2.93,5.24,21.54,21.54,0,0,1,1,6.63v3.66C255.07,72.89,254.63,73.39,253.75,73.39Zm-8.65-6.56a7.84,7.84,0,0,0-1.52-5.27,5.22,5.22,0,0,0-4.16-1.74,5.38,5.38,0,0,0-4.23,1.77,7.65,7.65,0,0,0-1.58,5.24v.25H245.1Z" style="fill:#fff"/><path d="M311.71,64a13.14,13.14,0,0,1-4.26,4.7,17.11,17.11,0,0,1-6,2.49,32.49,32.49,0,0,1-6.91.73c-.76,0-1.6,0-2.53-.07l-2.59-.12V87a1.3,1.3,0,0,1-1.26,1.27H280a1.26,1.26,0,0,1-.88-.35,1.09,1.09,0,0,1-.38-.85V44.68a2.78,2.78,0,0,1,.69-2.21,4.56,4.56,0,0,1,2.15-.82c1.6-.26,3.56-.46,5.9-.6s4.64-.22,6.91-.22a35.14,35.14,0,0,1,7,.69A16.68,16.68,0,0,1,307.45,44a13.21,13.21,0,0,1,4.26,4.67A15.06,15.06,0,0,1,313.32,56v.56A15.1,15.1,0,0,1,311.71,64ZM302.53,56q0-3.42-2-4.83a10.47,10.47,0,0,0-6-1.42l-1,0-1.53.06-1.51.07-1,0V62.85l1,0L292,63l1.57,0h1q4.22,0,6.12-1.58a5.85,5.85,0,0,0,1.92-4.8Z" style="fill:#fff"/><path d="M338.76,59.76a.8.8,0,0,1-.7.38h-.5a14.59,14.59,0,0,0-4.36.63,21.59,21.59,0,0,0-3.78,1.57V87a1.35,1.35,0,0,1-.38.92,1.2,1.2,0,0,1-.89.41h-7.63a1.28,1.28,0,0,1-.92-.41,1.3,1.3,0,0,1-.41-.92V53.38a1.3,1.3,0,0,1,1.26-1.26H328a1.32,1.32,0,0,1,1.27,1.28v1.27a13.12,13.12,0,0,1,4-2.26,13.45,13.45,0,0,1,4.52-.79A1.3,1.3,0,0,1,339,52.89v6A1.55,1.55,0,0,1,338.76,59.76Z" style="fill:#fff"/><path d="M373.75,79.26a13.85,13.85,0,0,1-3,5.14,13.44,13.44,0,0,1-4.92,3.29,20.42,20.42,0,0,1-13.57,0,13.49,13.49,0,0,1-8-8.43,21,21,0,0,1-1-6.82V68a21,21,0,0,1,1-6.82,13.88,13.88,0,0,1,3.07-5.14,13.58,13.58,0,0,1,5-3.28,20.26,20.26,0,0,1,13.57,0,13.29,13.29,0,0,1,4.92,3.28,13.93,13.93,0,0,1,3,5.14,20.74,20.74,0,0,1,1,6.82v4.41A20.74,20.74,0,0,1,373.75,79.26ZM364.57,68q0-7.71-5.56-7.7a4.9,4.9,0,0,0-4.18,1.92A9.69,9.69,0,0,0,353.4,68v4.41a9.82,9.82,0,0,0,1.43,5.81,4.85,4.85,0,0,0,4.18,2q5.57,0,5.56-7.77Z" style="fill:#fff"/><path d="M410.92,79.26a13.85,13.85,0,0,1-3,5.14A13.44,13.44,0,0,1,403,87.69a20.42,20.42,0,0,1-13.57,0,13.81,13.81,0,0,1-4.95-3.29,13.65,13.65,0,0,1-3.06-5.14,20.74,20.74,0,0,1-1-6.82V68a20.74,20.74,0,0,1,1-6.82,13.4,13.4,0,0,1,8-8.42,20.26,20.26,0,0,1,13.57,0,13.29,13.29,0,0,1,4.92,3.28,13.93,13.93,0,0,1,3,5.14A20.73,20.73,0,0,1,412,68v4.41A20.73,20.73,0,0,1,410.92,79.26ZM401.74,68q0-7.71-5.55-7.7A4.92,4.92,0,0,0,392,62.25,9.69,9.69,0,0,0,390.57,68v4.41A9.82,9.82,0,0,0,392,78.25a4.87,4.87,0,0,0,4.19,2q5.55,0,5.55-7.77Z" style="fill:#fff"/><path d="M438.22,47h-3.09q-1.45,0-1.77.54A6,6,0,0,0,433,50v2.11h5.18a1.2,1.2,0,0,1,.88.38,1.23,1.23,0,0,1,.38.9v5.15a1.19,1.19,0,0,1-.38.89,1.17,1.17,0,0,1-.88.38H433V87a1.28,1.28,0,0,1-1.25,1.26h-7.71a1.2,1.2,0,0,1-.88-.38,1.24,1.24,0,0,1-.38-.89V59.76l-5.05-.82a2.26,2.26,0,0,1-.91-.47,1.08,1.08,0,0,1-.41-.86V53.45a1.41,1.41,0,0,1,1.32-1.33h5.05v-2a18,18,0,0,1,.69-5.46,7.5,7.5,0,0,1,2-3.31,6.89,6.89,0,0,1,3.29-1.61,22.8,22.8,0,0,1,4.55-.41,19.87,19.87,0,0,1,2.46.13c.72.08,1.56.21,2.53.37.8.13,1.2.54,1.2,1.25V46C439.55,46.66,439.1,47,438.22,47Z" style="fill:#fff"/><path d="M455.64,47.64a1.22,1.22,0,0,1-.88.38h-8.21a1.3,1.3,0,0,1-1.26-1.26V40.89a1.24,1.24,0,0,1,.38-.89,1.19,1.19,0,0,1,.88-.37h8.21a1.21,1.21,0,0,1,.88.37,1.24,1.24,0,0,1,.38.89v5.87A1.2,1.2,0,0,1,455.64,47.64Zm-.25,40.27a1.24,1.24,0,0,1-.89.38h-7.7a1.22,1.22,0,0,1-.88-.38,1.24,1.24,0,0,1-.38-.89V53.38a1.3,1.3,0,0,1,1.26-1.26h7.7a1.24,1.24,0,0,1,.89.38,1.22,1.22,0,0,1,.38.88V87A1.24,1.24,0,0,1,455.39,87.91Z" style="fill:#fff"/><path d="M494.23,87.88a1.27,1.27,0,0,1-.91.41h-7.64a1.16,1.16,0,0,1-.88-.41,1.3,1.3,0,0,1-.38-.92V66a18,18,0,0,0-.19-2.77,4.26,4.26,0,0,0-.7-1.82,2.67,2.67,0,0,0-1.42-1,8.15,8.15,0,0,0-2.36-.28,7.73,7.73,0,0,0-2.84.57,26.87,26.87,0,0,0-3.1,1.44V87a1.34,1.34,0,0,1-.37.92,1.2,1.2,0,0,1-.89.41h-7.63a1.28,1.28,0,0,1-.92-.41,1.3,1.3,0,0,1-.41-.92V53.38a1.3,1.3,0,0,1,1.26-1.26h7.07a1.32,1.32,0,0,1,1.26,1.28v1.52a18.14,18.14,0,0,1,4.93-2.57,17.82,17.82,0,0,1,5.36-.73,12.47,12.47,0,0,1,5.59,1.1,8.48,8.48,0,0,1,3.4,3.06,12.71,12.71,0,0,1,1.71,4.58,32,32,0,0,1,.47,5.58V87A1.3,1.3,0,0,1,494.23,87.88Z" style="fill:#fff"/><path d="M534.56,58.31a2.47,2.47,0,0,1-.85.44l-2,.63a8.93,8.93,0,0,1,1,2.21,8.43,8.43,0,0,1,.41,2.46v.51q0,6.18-4.07,9t-11.52,2.81a23.82,23.82,0,0,1-3.91-.29,13.5,13.5,0,0,1-2.65-.66,2,2,0,0,0-.7.66,1.74,1.74,0,0,0-.19.79,1.55,1.55,0,0,0,.38,1.14,3.32,3.32,0,0,0,1.52.63l7.13,1.58c2.73.59,5,1.17,6.94,1.73a18.42,18.42,0,0,1,4.58,2,6.67,6.67,0,0,1,2.49,2.65,8.55,8.55,0,0,1,.76,3.82v.5q0,10.29-16.54,10.29-7.89,0-12-2.65a8.58,8.58,0,0,1-4.07-7.64v-.5a8.16,8.16,0,0,1,.89-3.72,9.89,9.89,0,0,1,2.9-3.35,5.52,5.52,0,0,1-2.46-2.62,7.77,7.77,0,0,1-.76-3.25,5.87,5.87,0,0,1,.79-3.09,8,8,0,0,1,2-2.27,7.62,7.62,0,0,1-2.21-3.47,13,13,0,0,1-.7-4v-.51a11,11,0,0,1,3.76-8.65q3.75-3.27,12-3.28h15.72a1.46,1.46,0,0,1,1.13.48,1.6,1.6,0,0,1,.44,1.16v3.6A1.25,1.25,0,0,1,534.56,58.31ZM523.48,90.37a1.71,1.71,0,0,0-.22-.85,2.09,2.09,0,0,0-.91-.79,12.26,12.26,0,0,0-2-.79,32.91,32.91,0,0,0-3.41-.85l-4.67-1a7.73,7.73,0,0,0-.91,1.73,7.49,7.49,0,0,0-.35,2.56v.5a2.61,2.61,0,0,0,1.33,2.43c.88.53,2.54.79,5,.79a17.86,17.86,0,0,0,3.16-.22,5.13,5.13,0,0,0,1.86-.66,2.15,2.15,0,0,0,.88-1,3.66,3.66,0,0,0,.22-1.3Zm-.31-26.32A4.74,4.74,0,0,0,522,60.8c-.75-.86-2.25-1.29-4.48-1.29s-3.74.43-4.54,1.29a4.6,4.6,0,0,0-1.2,3.25v.51a5.9,5.9,0,0,0,.22,1.61,3.28,3.28,0,0,0,.85,1.42,4.53,4.53,0,0,0,1.77,1,9.43,9.43,0,0,0,2.9.37c2.23,0,3.73-.4,4.48-1.2a4.45,4.45,0,0,0,1.14-3.21Z" style="fill:#fff"/><path d="M78.55,164.09c-1,.16-1.81.29-2.53.37a19.87,19.87,0,0,1-2.46.13,21.27,21.27,0,0,1-4.55-.44,6.72,6.72,0,0,1-5.3-4.89A18,18,0,0,1,63,153.8V135.49L58,134.67a2.15,2.15,0,0,1-.91-.47,1,1,0,0,1-.41-.85v-4.17a1.24,1.24,0,0,1,.41-.91,1.22,1.22,0,0,1,.91-.41H63v-5.18a1,1,0,0,1,.38-.82,2.11,2.11,0,0,1,.87-.44l7.66-1.33h.19a1.16,1.16,0,0,1,.81.29,1,1,0,0,1,.31.79v6.69h5.18a1.17,1.17,0,0,1,.88.38,1.19,1.19,0,0,1,.38.89v5.15a1.23,1.23,0,0,1-.38.9,1.2,1.2,0,0,1-.88.38H73.24v18.36a5.72,5.72,0,0,0,.32,2.43q.31.54,1.77.54h3.09c.88,0,1.33.35,1.33,1.06v4.89C79.75,163.55,79.34,164,78.55,164.09Z" style="fill:#fff"/><path d="M116.19,163.61a1.27,1.27,0,0,1-.91.41h-7.64a1.16,1.16,0,0,1-.88-.41,1.28,1.28,0,0,1-.38-.91v-21a17.86,17.86,0,0,0-.19-2.77,4.25,4.25,0,0,0-.7-1.83,2.66,2.66,0,0,0-1.42-1,8.11,8.11,0,0,0-2.36-.29,7.69,7.69,0,0,0-2.84.57,28.86,28.86,0,0,0-3.1,1.45V162.7a1.31,1.31,0,0,1-.37.91,1.2,1.2,0,0,1-.89.41H86.88a1.41,1.41,0,0,1-1.33-1.32V116.88a1.3,1.3,0,0,1,1.26-1.27h7.7a1.28,1.28,0,0,1,1.26,1.27v13.33a16.82,16.82,0,0,1,4.61-2.22,18.06,18.06,0,0,1,5.05-.64,12.33,12.33,0,0,1,5.59,1.11,8.34,8.34,0,0,1,3.4,3.06,12.66,12.66,0,0,1,1.71,4.57,32,32,0,0,1,.47,5.59v21A1.27,1.27,0,0,1,116.19,163.61Z" style="fill:#fff"/><path d="M153.46,149.13H133.33v.12a10.51,10.51,0,0,0,.31,2.57,5.64,5.64,0,0,0,1.07,2.18,5.45,5.45,0,0,0,2,1.51,7.66,7.66,0,0,0,3.13.56c1,0,2.08,0,3.22-.06l3.37-.13c1.12,0,2.16-.11,3.13-.19s1.76-.15,2.4-.19h.18c.8,0,1.2.34,1.2,1v4.84a2.05,2.05,0,0,1-.25,1.14,1.66,1.66,0,0,1-1.07.57,53.3,53.3,0,0,1-5.93,1.15,55.85,55.85,0,0,1-7,.38,20.64,20.64,0,0,1-5.68-.82,13.87,13.87,0,0,1-5.11-2.72,13.42,13.42,0,0,1-3.66-5,18.81,18.81,0,0,1-1.39-7.67V144a21,21,0,0,1,1.07-6.88,14.25,14.25,0,0,1,3.13-5.24,13.75,13.75,0,0,1,5-3.31,18.32,18.32,0,0,1,6.76-1.17,17,17,0,0,1,6.81,1.26,13.62,13.62,0,0,1,4.86,3.48,14.5,14.5,0,0,1,2.94,5.23,21.54,21.54,0,0,1,1,6.63v3.66C154.79,148.62,154.34,149.13,153.46,149.13Zm-8.65-6.57a7.86,7.86,0,0,0-1.51-5.27,5.26,5.26,0,0,0-4.17-1.73,5.43,5.43,0,0,0-4.23,1.76,7.67,7.67,0,0,0-1.57,5.24v.25h11.48Z" style="fill:#fff"/><path d="M211.78,157.33a12.08,12.08,0,0,1-4.26,4.32,18.78,18.78,0,0,1-6.32,2.28,43.14,43.14,0,0,1-7.73.66c-1.05,0-2.12,0-3.22-.06l-3.18-.16c-1-.06-2-.14-2.87-.22s-1.65-.19-2.28-.32a4.82,4.82,0,0,1-2.68-1.13,4.28,4.28,0,0,1-.79-3V121.36a4.4,4.4,0,0,1,.76-3,4.54,4.54,0,0,1,2.59-1.14c.54-.08,1.25-.16,2.11-.25s1.81-.16,2.84-.22l3.19-.16q1.63-.06,3.15-.06a46.21,46.21,0,0,1,8.15.66,19.59,19.59,0,0,1,6.28,2.18,11,11,0,0,1,4.07,4,12.59,12.59,0,0,1,1.45,6.31v1.14a11.15,11.15,0,0,1-1.39,5.55,9.06,9.06,0,0,1-3.91,3.72,10.07,10.07,0,0,1,5.61,9.34v.95A13.55,13.55,0,0,1,211.78,157.33Zm-9.16-26.88a4.21,4.21,0,0,0-1.92-3.82c-1.28-.82-3.55-1.23-6.78-1.23h-2.44q-.72,0-1.38,0l-1,0v10.92h7.07a10.12,10.12,0,0,0,3.12-.41,5.45,5.45,0,0,0,2-1.08,3.77,3.77,0,0,0,1-1.57,5.87,5.87,0,0,0,.31-1.93Zm.26,19.05a5.83,5.83,0,0,0-1.46-3.94c-1-1.11-2.71-1.67-5.23-1.67h-7.07v11.8h1.1l1.52,0,1.51,0h1q4.86,0,6.72-1.45a4.9,4.9,0,0,0,1.87-4.1Z" style="fill:#fff"/><path d="M250.71,163.64a1.2,1.2,0,0,1-.88.38h-7.07a1.22,1.22,0,0,1-.88-.38,1.24,1.24,0,0,1-.38-.89v-1.53a17.88,17.88,0,0,1-4.92,2.58,18.26,18.26,0,0,1-5.37.73,12,12,0,0,1-5.58-1.14,8.81,8.81,0,0,1-3.41-3.06,12.35,12.35,0,0,1-1.7-4.55,30.85,30.85,0,0,1-.48-5.58v-21a1.27,1.27,0,0,1,.41-.91,1.26,1.26,0,0,1,.92-.41H229a1.15,1.15,0,0,1,.89.41,1.31,1.31,0,0,1,.38.91v21a16.78,16.78,0,0,0,.19,2.77,4.17,4.17,0,0,0,.69,1.83,2.69,2.69,0,0,0,1.42,1,8.13,8.13,0,0,0,2.37.29,7.77,7.77,0,0,0,2.84-.57,27.89,27.89,0,0,0,3.09-1.45V129.18a1.31,1.31,0,0,1,.38-.91,1.13,1.13,0,0,1,.88-.41h7.64a1.41,1.41,0,0,1,1.32,1.32v33.58A1.17,1.17,0,0,1,250.71,163.64Z" style="fill:#fff"/><path d="M284,154a10.75,10.75,0,0,1-.82,4.16,8.89,8.89,0,0,1-2.5,3.38,12.37,12.37,0,0,1-4.19,2.24,19.78,19.78,0,0,1-6,.82c-.88,0-1.82,0-2.81-.1s-2-.15-3-.28-2-.27-3-.44-1.85-.36-2.65-.57a1.4,1.4,0,0,1-1.2-1.45v-5.11a1.25,1.25,0,0,1,.32-.86,1.15,1.15,0,0,1,.89-.34h.25c.85.12,1.79.24,2.82.34s2.06.2,3.07.29,2,.15,2.82.19,1.56.06,2.06.06a5.12,5.12,0,0,0,3-.6,2.26,2.26,0,0,0,.73-1.86,2,2,0,0,0-.5-1.29,7.11,7.11,0,0,0-1.84-1.36l-8.24-4.73a11.53,11.53,0,0,1-4.15-3.89,10,10,0,0,1-1.49-5.45,8.72,8.72,0,0,1,3.17-7.29q3.17-2.5,9.71-2.5a41,41,0,0,1,6.28.41c1.7.28,3.35.62,4.95,1a1.42,1.42,0,0,1,1.2,1.46v5.11c0,.8-.36,1.2-1.07,1.2h-.19c-.47-.09-1.12-.17-2-.26l-2.74-.25c-1-.08-2-.16-3-.22s-2-.09-2.75-.09a6.18,6.18,0,0,0-2.59.38,1.46,1.46,0,0,0-.75,1.45,1.5,1.5,0,0,0,.5,1.16,8.85,8.85,0,0,0,1.46,1l7.86,4.48a17,17,0,0,1,3.2,2.3,11.43,11.43,0,0,1,2,2.4,7.87,7.87,0,0,1,1,2.49A12.78,12.78,0,0,1,284,154Z" style="fill:#fff"/><path d="M300.76,123.38a1.2,1.2,0,0,1-.88.38h-8.21a1.22,1.22,0,0,1-.88-.38,1.24,1.24,0,0,1-.38-.89v-5.87a1.3,1.3,0,0,1,1.26-1.26h8.21a1.2,1.2,0,0,1,.88.38,1.18,1.18,0,0,1,.38.88v5.87A1.2,1.2,0,0,1,300.76,123.38Zm-.25,40.26a1.22,1.22,0,0,1-.88.38h-7.7a1.24,1.24,0,0,1-.89-.38,1.19,1.19,0,0,1-.37-.88V129.12a1.28,1.28,0,0,1,1.26-1.26h7.7a1.18,1.18,0,0,1,.88.38,1.2,1.2,0,0,1,.38.88v33.64A1.2,1.2,0,0,1,300.51,163.64Z" style="fill:#fff"/><path d="M339.36,163.61a1.3,1.3,0,0,1-.92.41H330.8a1.18,1.18,0,0,1-.88-.41,1.32,1.32,0,0,1-.38-.91v-21a16.69,16.69,0,0,0-.19-2.77,4.25,4.25,0,0,0-.69-1.83,2.69,2.69,0,0,0-1.42-1,8.13,8.13,0,0,0-2.37-.29,7.77,7.77,0,0,0-2.84.57,27.89,27.89,0,0,0-3.09,1.45V162.7a1.32,1.32,0,0,1-.38.91,1.18,1.18,0,0,1-.88.41H310a1.43,1.43,0,0,1-1.33-1.32V129.12a1.3,1.3,0,0,1,1.27-1.26H317a1.3,1.3,0,0,1,1.27,1.27v1.53a17.74,17.74,0,0,1,4.92-2.58,18.24,18.24,0,0,1,5.36-.73,12.27,12.27,0,0,1,5.59,1.11,8.37,8.37,0,0,1,3.41,3.06,12.65,12.65,0,0,1,1.7,4.57,31,31,0,0,1,.48,5.59v21A1.27,1.27,0,0,1,339.36,163.61Z" style="fill:#fff"/><path d="M376.62,149.13H356.49v.12a10.52,10.52,0,0,0,.32,2.57,5.5,5.5,0,0,0,1.07,2.18,5.37,5.37,0,0,0,2,1.51,7.61,7.61,0,0,0,3.12.56c1,0,2.08,0,3.22-.06l3.38-.13c1.11,0,2.15-.11,3.12-.19l2.4-.19h.19c.8,0,1.2.34,1.2,1v4.84a2.14,2.14,0,0,1-.25,1.14,1.66,1.66,0,0,1-1.08.57,53.3,53.3,0,0,1-5.93,1.15,55.74,55.74,0,0,1-7,.38,20.69,20.69,0,0,1-5.68-.82,14,14,0,0,1-5.11-2.72,13.64,13.64,0,0,1-3.66-5,19,19,0,0,1-1.39-7.67V144a20.78,20.78,0,0,1,1.08-6.88,14.1,14.1,0,0,1,3.12-5.24,13.88,13.88,0,0,1,5-3.31,18.26,18.26,0,0,1,6.75-1.17,17,17,0,0,1,6.82,1.26,13.8,13.8,0,0,1,4.86,3.48,14.48,14.48,0,0,1,2.93,5.23,21.54,21.54,0,0,1,1,6.63v3.66C378,148.62,377.51,149.13,376.62,149.13ZM368,142.56a7.86,7.86,0,0,0-1.52-5.27,5.26,5.26,0,0,0-4.16-1.73,5.41,5.41,0,0,0-4.23,1.76,7.67,7.67,0,0,0-1.58,5.24v.25H368Z" style="fill:#fff"/><path d="M409.88,154a10.57,10.57,0,0,1-.82,4.16,8.86,8.86,0,0,1-2.49,3.38,12.32,12.32,0,0,1-4.2,2.24,19.66,19.66,0,0,1-6,.82c-.89,0-1.82,0-2.81-.1s-2-.15-3-.28-2-.27-3-.44-1.85-.36-2.65-.57a1.4,1.4,0,0,1-1.2-1.45v-5.11a1.25,1.25,0,0,1,.32-.86,1.15,1.15,0,0,1,.89-.34h.25c.84.12,1.78.24,2.82.34s2.06.2,3.07.29,2,.15,2.82.19,1.55.06,2.06.06a5.14,5.14,0,0,0,3-.6,2.26,2.26,0,0,0,.73-1.86,2,2,0,0,0-.51-1.29,7,7,0,0,0-1.83-1.36l-8.24-4.73a11.45,11.45,0,0,1-4.15-3.89,10,10,0,0,1-1.49-5.45,8.72,8.72,0,0,1,3.17-7.29q3.17-2.5,9.7-2.5a40.86,40.86,0,0,1,6.28.41c1.71.28,3.36.62,5,1a1.42,1.42,0,0,1,1.2,1.46v5.11q0,1.2-1.08,1.2h-.18c-.47-.09-1.12-.17-2-.26l-2.75-.25c-1-.08-2-.16-3-.22s-1.94-.09-2.74-.09a6.18,6.18,0,0,0-2.59.38,1.47,1.47,0,0,0-.76,1.45,1.51,1.51,0,0,0,.51,1.16,8.43,8.43,0,0,0,1.46,1l7.86,4.48a16.87,16.87,0,0,1,3.19,2.3,11.18,11.18,0,0,1,2,2.4,8.12,8.12,0,0,1,1,2.49A12.77,12.77,0,0,1,409.88,154Z" style="fill:#fff"/><path d="M441.63,154a10.75,10.75,0,0,1-.82,4.16,9,9,0,0,1-2.49,3.38,12.51,12.51,0,0,1-4.2,2.24,19.69,19.69,0,0,1-6,.82c-.88,0-1.82,0-2.81-.1s-2-.15-3-.28-2-.27-3-.44-1.85-.36-2.65-.57a1.4,1.4,0,0,1-1.2-1.45v-5.11a1.25,1.25,0,0,1,.31-.86,1.15,1.15,0,0,1,.89-.34h.25c.85.12,1.79.24,2.82.34s2.06.2,3.08.29,1.95.15,2.82.19,1.55.06,2.06.06a5.14,5.14,0,0,0,3-.6,2.29,2.29,0,0,0,.73-1.86,2,2,0,0,0-.51-1.29,6.94,6.94,0,0,0-1.84-1.36l-8.24-4.73a11.61,11.61,0,0,1-4.15-3.89,10,10,0,0,1-1.49-5.45,8.72,8.72,0,0,1,3.17-7.29q3.16-2.5,9.71-2.5a41,41,0,0,1,6.28.41c1.7.28,3.35.62,5,1a1.42,1.42,0,0,1,1.2,1.46v5.11c0,.8-.36,1.2-1.07,1.2h-.19c-.46-.09-1.11-.17-2-.26l-2.74-.25c-1-.08-2-.16-3-.22s-1.95-.09-2.75-.09a6.1,6.1,0,0,0-2.58.38,1.45,1.45,0,0,0-.76,1.45,1.51,1.51,0,0,0,.51,1.16,8.3,8.3,0,0,0,1.45,1l7.86,4.48a16.65,16.65,0,0,1,3.2,2.3,11.12,11.12,0,0,1,2,2.4,7.9,7.9,0,0,1,1,2.49A13.56,13.56,0,0,1,441.63,154Z" style="fill:#fff"/></g></g></svg>