<svg xmlns="http://www.w3.org/2000/svg" viewBox="0 0 233.55 52.2"><title>R&amp;amp;Dhorizontalz</title><g id="Layer_2" data-name="Layer 2"><g id="Layer_1-2" data-name="Layer 1"><path d="M11.46,12.52s0,.36,1.18,1.58l.1.1V27.49l-11.63,20a4.12,4.12,0,0,0-.61,2.2C.5,51.06,2,51.7,3.29,51.7H31.5c1.35,0,2.79-.64,2.79-2.05a4,4,0,0,0-.61-2.2l0,0L22.05,27.49V14.2l.11-.1c1.23-1.24,1.16-1.6,1.16-1.6a1.22,1.22,0,0,0-.23,0h-.18l-.06,0a1.63,1.63,0,0,0-.42,0,5.26,5.26,0,0,0-.66.05H13a5,5,0,0,0-.66-.05,1.63,1.63,0,0,0-.42,0l-.06,0H11.7c-.15,0-.23,0-.24,0Z" style="fill:none;stroke:#15374a;stroke-miterlimit:10"/><path d="M10,35,2.89,46.76a3.81,3.81,0,0,0-.41,2.49c.37,1,.6,1.72,3.87,1.72H29.74s2.15.06,2.56-1.63-.24-2.52-1.53-4.53-5.53-9-5.53-9a8.21,8.21,0,0,1-3.48,1c-1.7,0-4.34.41-5.86-.1S10.6,34.27,10,35Z" style="fill:#1a1718"/><path d="M19.41,9.84A1.12,1.12,0,1,0,18.3,11,1.12,1.12,0,0,0,19.41,9.84Z" style="fill:#1a1718"/><path d="M22.4,8A2,2,0,1,0,24,5.67,2,2,0,0,0,22.4,8Z" style="fill:#1a1718"/><g style="opacity:0.7000000000000001"><path d="M25.91,7.63a.5.5,0,0,0,0-.11V7.4a1.15,1.15,0,0,0,0-.16,1.49,1.49,0,0,0,0-.18,1.67,1.67,0,0,0-.08-.2l-.12-.19a2.05,2.05,0,0,0-.34-.34,2,2,0,0,0-.19-.12l-.2-.08-.18,0-.16,0h-.23l.1,0a1.22,1.22,0,0,1,.27.06l.16.07.18.09a1.88,1.88,0,0,1,.18.12l.16.14.14.16a1.88,1.88,0,0,1,.12.18,1.51,1.51,0,0,1,.09.18,1.11,1.11,0,0,1,.07.16,1.22,1.22,0,0,1,.06.27C25.9,7.59,25.91,7.63,25.91,7.63Z" style="fill:#3f5f5f"/></g><path d="M23.78,1.62a1.39,1.39,0,1,0,2.73-.47A1.4,1.4,0,0,0,24.9,0,1.38,1.38,0,0,0,23.78,1.62Z" style="fill:#1a1718"/><g style="opacity:0.7000000000000001"><path d="M26.22,1.39a.45.45,0,0,1,0-.08V1.23a.43.43,0,0,0,0-.11.31.31,0,0,0,0-.13.78.78,0,0,0-.05-.14S26.08.76,26,.71l-.1-.12a.69.69,0,0,0-.13-.11L25.68.4,25.54.34l-.13,0h-.27l.07,0a.93.93,0,0,1,.19,0l.11,0,.13.06.12.08.11.1.1.12.09.12.06.12a.56.56,0,0,1,0,.12,1,1,0,0,1,.05.18A.45.45,0,0,1,26.22,1.39Z" style="fill:#3f5f5f"/></g><path d="M14.94,5a3.06,3.06,0,1,0,2.49-3.53A3.05,3.05,0,0,0,14.94,5Z" style="fill:#1a1718"/><g style="opacity:0.7000000000000001"><path d="M20.34,4.44a1.08,1.08,0,0,0,0-.16.6.6,0,0,0,0-.19,1.06,1.06,0,0,0,0-.24c0-.09,0-.19-.07-.29a2.48,2.48,0,0,0-.13-.3A1.83,1.83,0,0,0,20,3a3.11,3.11,0,0,0-.23-.28c-.1-.08-.18-.16-.28-.23s-.21-.13-.3-.19l-.31-.12a1.64,1.64,0,0,0-.28-.07,1.06,1.06,0,0,0-.24,0h-.19l-.16,0,.16,0a2.5,2.5,0,0,1,.4.11,1.06,1.06,0,0,1,.26.1c.09,0,.18.09.27.13l.27.19a1.71,1.71,0,0,1,.25.22,1.71,1.71,0,0,1,.22.25,1.59,1.59,0,0,1,.18.27,1.74,1.74,0,0,1,.14.27,1.39,1.39,0,0,1,.1.26,2.31,2.31,0,0,1,.1.4Z" style="fill:#3f5f5f"/></g><path d="M158.73,46.22A7.3,7.3,0,0,1,157,49a6.66,6.66,0,0,1-2.67,1.57,11.13,11.13,0,0,1-3.4.5,31.29,31.29,0,0,1-4.75-.24.66.66,0,0,1-.34-.2.45.45,0,0,1-.15-.35V30.07a.45.45,0,0,1,.15-.34.75.75,0,0,1,.34-.21,33.13,33.13,0,0,1,4.75-.23,11.45,11.45,0,0,1,3.4.48A6.62,6.62,0,0,1,157,31.32a7.07,7.07,0,0,1,1.76,2.8,13,13,0,0,1,.62,4.28V42A12.76,12.76,0,0,1,158.73,46.22Zm-.66-7.82a11.39,11.39,0,0,0-.55-3.84A6.27,6.27,0,0,0,156,32.1a5.42,5.42,0,0,0-2.28-1.3,10.14,10.14,0,0,0-2.83-.38c-.85,0-1.56,0-2.14.06l-1.82.11V49.86l1.82.09c.58,0,1.29,0,2.14,0a9.78,9.78,0,0,0,2.83-.39A5.56,5.56,0,0,0,156,48.27a6.27,6.27,0,0,0,1.51-2.46,11.31,11.31,0,0,0,.55-3.82Z" style="fill:#1a1718"/><path d="M164.51,32.37a.51.51,0,0,1-.39.16H164a.55.55,0,0,1-.55-.55V29.84a.53.53,0,0,1,.16-.39.53.53,0,0,1,.39-.16h.17a.55.55,0,0,1,.39.16.53.53,0,0,1,.16.39V32A.5.5,0,0,1,164.51,32.37Zm0,18.4a.51.51,0,0,1-.39.16H164a.55.55,0,0,1-.55-.55V36a.55.55,0,0,1,.55-.55h.17a.51.51,0,0,1,.39.16.5.5,0,0,1,.16.39V50.38A.5.5,0,0,1,164.51,50.77Z" style="fill:#1a1718"/><path d="M179.74,35.83a1,1,0,0,1,0,.29l-3.79,13.16a2.5,2.5,0,0,1-.82,1.49,2.06,2.06,0,0,1-1.14.34,2.23,2.23,0,0,1-1.16-.34,2.37,2.37,0,0,1-.87-1.49l-3.79-13.16a.71.71,0,0,1,0-.23c0-.33.16-.49.47-.49h.29a.46.46,0,0,1,.28.1.72.72,0,0,1,.24.42l3.7,13a1.87,1.87,0,0,0,.42.86A.69.69,0,0,0,174,50a.62.62,0,0,0,.42-.19,2.48,2.48,0,0,0,.39-.86l3.7-13a.71.71,0,0,1,.23-.42.48.48,0,0,1,.29-.1h.35C179.61,35.4,179.74,35.54,179.74,35.83Z" style="fill:#1a1718"/><path d="M184.3,32.37a.53.53,0,0,1-.39.16h-.17a.54.54,0,0,1-.4-.16.53.53,0,0,1-.15-.39V29.84a.56.56,0,0,1,.15-.39.58.58,0,0,1,.4-.16h.17a.57.57,0,0,1,.39.16.53.53,0,0,1,.16.39V32A.5.5,0,0,1,184.3,32.37Zm0,18.4a.53.53,0,0,1-.39.16h-.17a.54.54,0,0,1-.4-.16.53.53,0,0,1-.15-.39V36a.53.53,0,0,1,.15-.39.54.54,0,0,1,.4-.16h.17a.53.53,0,0,1,.39.16.5.5,0,0,1,.16.39V50.38A.5.5,0,0,1,184.3,50.77Z" style="fill:#1a1718"/><path d="M198.06,47.08a4.16,4.16,0,0,1-.41,1.94,3.38,3.38,0,0,1-1.08,1.25,4.52,4.52,0,0,1-1.59.65,10,10,0,0,1-1.93.19l-1.06,0c-.37,0-.75,0-1.12-.09l-1.09-.13c-.34,0-.65-.1-.92-.16-.43-.1-.64-.25-.64-.46v-.32c0-.27.15-.41.46-.41h.18c.69.12,1.42.23,2.2.32a16.08,16.08,0,0,0,2.05.15,8.26,8.26,0,0,0,1.45-.12,3,3,0,0,0,1.17-.45,2.24,2.24,0,0,0,.78-.89,3.36,3.36,0,0,0,.27-1.44,2.26,2.26,0,0,0-.13-.79,2,2,0,0,0-.47-.72,5.61,5.61,0,0,0-.94-.76c-.4-.26-.91-.55-1.52-.88l-1.85-1c-.54-.29-1-.58-1.47-.85a6,6,0,0,1-1.1-.9,3.65,3.65,0,0,1-.69-1.06,3.35,3.35,0,0,1-.25-1.3,3.46,3.46,0,0,1,.38-1.69,3.16,3.16,0,0,1,1-1.1,3.87,3.87,0,0,1,1.41-.59,7.47,7.47,0,0,1,1.66-.18c1,0,1.87,0,2.47.09l1.67.17c.4.06.61.22.61.49v.24a.41.41,0,0,1-.15.36.71.71,0,0,1-.38.1h-.08l-1.69-.19a19.49,19.49,0,0,0-2.33-.13,8.52,8.52,0,0,0-1.29.09,3,3,0,0,0-1,.34,1.85,1.85,0,0,0-.7.74,2.83,2.83,0,0,0-.24,1.26,2.07,2.07,0,0,0,.73,1.61,13.32,13.32,0,0,0,2.07,1.4l1.94,1.07c.6.33,1.13.64,1.59.94a6,6,0,0,1,1.16.94,3.73,3.73,0,0,1,.7,1A3.34,3.34,0,0,1,198.06,47.08Z" style="fill:#1a1718"/><path d="M202.93,32.37a.53.53,0,0,1-.39.16h-.17a.55.55,0,0,1-.55-.55V29.84a.53.53,0,0,1,.16-.39.53.53,0,0,1,.39-.16h.17a.57.57,0,0,1,.39.16.53.53,0,0,1,.16.39V32A.5.5,0,0,1,202.93,32.37Zm0,18.4a.53.53,0,0,1-.39.16h-.17a.55.55,0,0,1-.55-.55V36a.55.55,0,0,1,.55-.55h.17a.53.53,0,0,1,.39.16.5.5,0,0,1,.16.39V50.38A.5.5,0,0,1,202.93,50.77Z" style="fill:#1a1718"/><path d="M217.42,49.3a6.41,6.41,0,0,1-8.93,0,7.8,7.8,0,0,1-1.5-5.11v-2a7.8,7.8,0,0,1,1.5-5.11,6.41,6.41,0,0,1,8.93,0,7.8,7.8,0,0,1,1.49,5.11v2A7.8,7.8,0,0,1,217.42,49.3Zm.22-7.13a7.32,7.32,0,0,0-1.07-4.23,5,5,0,0,0-7.23,0,7.32,7.32,0,0,0-1.07,4.23v2a7.34,7.34,0,0,0,1.07,4.23,5,5,0,0,0,7.23,0,7.34,7.34,0,0,0,1.07-4.23Z" style="fill:#1a1718"/><path d="M233.39,50.77a.5.5,0,0,1-.39.16h-.2a.46.46,0,0,1-.37-.16.53.53,0,0,1-.15-.39v-9.6a6.18,6.18,0,0,0-.3-2.08,3.79,3.79,0,0,0-.84-1.37,3,3,0,0,0-1.25-.73,5,5,0,0,0-1.52-.22,8.49,8.49,0,0,0-2.28.33,14.35,14.35,0,0,0-2.29.86V50.38a.55.55,0,0,1-.55.55h-.17a.53.53,0,0,1-.39-.16.5.5,0,0,1-.16-.39V36a.61.61,0,0,1,.15-.41.44.44,0,0,1,.37-.17h.23a.46.46,0,0,1,.38.17.6.6,0,0,1,.14.41v.46a12.61,12.61,0,0,1,2.33-.87,9.19,9.19,0,0,1,2.33-.32,6.07,6.07,0,0,1,2,.31,4.26,4.26,0,0,1,1.62.95,4.48,4.48,0,0,1,1.1,1.71,7.17,7.17,0,0,1,.4,2.56v9.6A.5.5,0,0,1,233.39,50.77Z" style="fill:#1a1718"/><path d="M17.93,35.41a.51.51,0,0,1-.09.18.4.4,0,0,1-.15.1.54.54,0,0,1-.19,0,.58.58,0,0,1-.19,0,.4.4,0,0,1-.15-.1.51.51,0,0,1-.09-.18.9.9,0,0,1,0-.25v-.4a1,1,0,0,1,0-.25.39.39,0,0,1,.09-.17.31.31,0,0,1,.15-.1.41.41,0,0,1,.19,0,.38.38,0,0,1,.19,0,.31.31,0,0,1,.15.1.39.39,0,0,1,.09.17,1,1,0,0,1,0,.25v.4A.9.9,0,0,1,17.93,35.41Zm-.05-.65a.59.59,0,0,0-.1-.36.39.39,0,0,0-.56,0,.59.59,0,0,0-.1.36v.4a.59.59,0,0,0,.1.36.39.39,0,0,0,.56,0,.59.59,0,0,0,.1-.36Z" style="fill:#1a1718"/><path d="M21.07,34.8A.52.52,0,0,1,21,35a.33.33,0,0,1-.14.1.6.6,0,0,1-.2,0,.58.58,0,0,1-.19,0,.33.33,0,0,1-.14-.1.77.77,0,0,1-.1-.18.9.9,0,0,1,0-.25v-.4a1,1,0,0,1,0-.25.55.55,0,0,1,.1-.17.33.33,0,0,1,.14-.1.41.41,0,0,1,.19,0,.42.42,0,0,1,.2,0,.33.33,0,0,1,.14.1.4.4,0,0,1,.1.17,1,1,0,0,1,0,.25v.4A.9.9,0,0,1,21.07,34.8ZM21,34.15a.49.49,0,0,0-.1-.35.32.32,0,0,0-.28-.12.32.32,0,0,0-.27.12.49.49,0,0,0-.1.35v.4a.53.53,0,0,0,.1.36.32.32,0,0,0,.27.12.32.32,0,0,0,.28-.12.53.53,0,0,0,.1-.36Z" style="fill:#1a1718"/><path d="M21,31.6a.44.44,0,0,1-.09.18.31.31,0,0,1-.15.1.54.54,0,0,1-.19,0,.58.58,0,0,1-.19,0,.31.31,0,0,1-.15-.1.44.44,0,0,1-.09-.18.9.9,0,0,1,0-.25V31a1,1,0,0,1,0-.25.39.39,0,0,1,.09-.17.31.31,0,0,1,.15-.1.41.41,0,0,1,.19,0,.38.38,0,0,1,.19,0,.31.31,0,0,1,.15.1.39.39,0,0,1,.09.17A1,1,0,0,1,21,31v.4A.9.9,0,0,1,21,31.6Zm0-.65a.58.58,0,0,0-.1-.35.39.39,0,0,0-.56,0,.58.58,0,0,0-.1.35v.4a.59.59,0,0,0,.1.36.39.39,0,0,0,.56,0,.59.59,0,0,0,.1-.36Z" style="fill:#1a1718"/><path d="M15.17,30.82l0,0h0l0,0v-1.4l-.24,0h0s0,0,0,0h0a0,0,0,0,1,0,0h0l.28,0h0s0,0,0,0V30.8S15.18,30.82,15.17,30.82Z" style="fill:#1a1718"/><path d="M16.85,30.54a.39.39,0,0,1-.09.17.53.53,0,0,1-.15.11.58.58,0,0,1-.19,0,.54.54,0,0,1-.19,0,.42.42,0,0,1-.15-.11.39.39,0,0,1-.09-.17.66.66,0,0,1,0-.25v-.4a.62.62,0,0,1,0-.25.51.51,0,0,1,.09-.18.4.4,0,0,1,.15-.1.54.54,0,0,1,.19,0,.58.58,0,0,1,.19,0,.49.49,0,0,1,.15.1.51.51,0,0,1,.09.18.9.9,0,0,1,0,.25v.4A1,1,0,0,1,16.85,30.54Zm-.06-.65a.6.6,0,0,0-.09-.36.35.35,0,0,0-.28-.12.32.32,0,0,0-.28.12.53.53,0,0,0-.1.36v.39a.55.55,0,0,0,.1.37.32.32,0,0,0,.28.12.35.35,0,0,0,.28-.12.61.61,0,0,0,.09-.37Z" style="fill:#1a1718"/><path d="M19.5,27.47a.51.51,0,0,1-.09.18.4.4,0,0,1-.15.1.62.62,0,0,1-.38,0,.4.4,0,0,1-.15-.1.51.51,0,0,1-.09-.18.9.9,0,0,1,0-.25v-.4a1,1,0,0,1,0-.25.39.39,0,0,1,.09-.17.42.42,0,0,1,.15-.11.62.62,0,0,1,.38,0,.42.42,0,0,1,.15.11.39.39,0,0,1,.09.17,1,1,0,0,1,0,.25v.4A.9.9,0,0,1,19.5,27.47Zm-.06-.65a.6.6,0,0,0-.09-.36.39.39,0,0,0-.56,0,.59.59,0,0,0-.1.36v.4a.59.59,0,0,0,.1.36.39.39,0,0,0,.56,0,.6.6,0,0,0,.09-.36Z" style="fill:#1a1718"/><path d="M20.33,27.76h-.06l0,0V26.36l-.23,0h0s0,0,0,0,0,0,0,0h0s0,0,0,0h0l.28,0h0s0,0,0,0v1.42A0,0,0,0,1,20.33,27.76Z" style="fill:#1a1718"/><path d="M15.92,24.36a.51.51,0,0,1-.09.18.4.4,0,0,1-.15.1.54.54,0,0,1-.19,0,.58.58,0,0,1-.19,0,.4.4,0,0,1-.15-.1.51.51,0,0,1-.09-.18,1,1,0,0,1,0-.25v-.4a.9.9,0,0,1,0-.25.51.51,0,0,1,.09-.18.4.4,0,0,1,.15-.1.58.58,0,0,1,.19,0,.54.54,0,0,1,.19,0,.4.4,0,0,1,.15.1.51.51,0,0,1,.09.18.87.87,0,0,1,0,.25v.4A.93.93,0,0,1,15.92,24.36Zm-.05-.65a.59.59,0,0,0-.1-.36.34.34,0,0,0-.28-.12.35.35,0,0,0-.28.12.6.6,0,0,0-.09.36v.4a.6.6,0,0,0,.09.36.35.35,0,0,0,.28.12.34.34,0,0,0,.28-.12.59.59,0,0,0,.1-.36Z" style="fill:#1a1718"/><path d="M16.63,24.65h-.06a0,0,0,0,1,0,0V23.25l-.24,0h0v0h0a0,0,0,0,1,0,0h0l.28,0h0a0,0,0,0,1,0,0v1.42Z" style="fill:#1a1718"/><path d="M21,19.48a.51.51,0,0,1-.09.18.4.4,0,0,1-.15.1.54.54,0,0,1-.19,0,.58.58,0,0,1-.19,0,.4.4,0,0,1-.15-.1.51.51,0,0,1-.09-.18,1,1,0,0,1,0-.25v-.4a.9.9,0,0,1,0-.25.51.51,0,0,1,.09-.18.4.4,0,0,1,.15-.1.58.58,0,0,1,.19,0,.54.54,0,0,1,.19,0,.4.4,0,0,1,.15.1.51.51,0,0,1,.09.18.9.9,0,0,1,0,.25v.4A1,1,0,0,1,21,19.48Zm0-.65a.59.59,0,0,0-.1-.36.39.39,0,0,0-.56,0,.59.59,0,0,0-.1.36v.4a.59.59,0,0,0,.1.36.39.39,0,0,0,.56,0,.59.59,0,0,0,.1-.36Z" style="fill:#1a1718"/><path d="M14.63,20a.39.39,0,0,1-.09.17.31.31,0,0,1-.15.1.38.38,0,0,1-.19,0,.41.41,0,0,1-.19,0,.31.31,0,0,1-.15-.1.39.39,0,0,1-.09-.17,1,1,0,0,1,0-.26v-.39a.9.9,0,0,1,0-.25.51.51,0,0,1,.09-.18.4.4,0,0,1,.15-.1.58.58,0,0,1,.19,0,.54.54,0,0,1,.19,0,.4.4,0,0,1,.15.1.51.51,0,0,1,.09.18.87.87,0,0,1,0,.25v.39A1,1,0,0,1,14.63,20Zm-.05-.65a.59.59,0,0,0-.1-.36.34.34,0,0,0-.28-.12.35.35,0,0,0-.28.12.6.6,0,0,0-.09.36v.39a.6.6,0,0,0,.09.36.36.36,0,0,0,.28.13.34.34,0,0,0,.28-.13.59.59,0,0,0,.1-.36Z" style="fill:#1a1718"/><path d="M15.73,20a.4.4,0,0,1-.1.17.33.33,0,0,1-.14.1.42.42,0,0,1-.2,0,.41.41,0,0,1-.19,0,.33.33,0,0,1-.14-.1.55.55,0,0,1-.1-.17,1,1,0,0,1,0-.26v-.39a.9.9,0,0,1,0-.25.77.77,0,0,1,.1-.18.45.45,0,0,1,.14-.1.58.58,0,0,1,.19,0,.6.6,0,0,1,.2,0,.45.45,0,0,1,.14.1.52.52,0,0,1,.1.18.9.9,0,0,1,0,.25v.39A1,1,0,0,1,15.73,20Zm-.06-.65a.53.53,0,0,0-.1-.36.32.32,0,0,0-.28-.12A.32.32,0,0,0,15,19a.53.53,0,0,0-.1.36v.39a.53.53,0,0,0,.1.36.32.32,0,0,0,.27.13.33.33,0,0,0,.28-.13.53.53,0,0,0,.1-.36Z" style="fill:#1a1718"/><path d="M17.64,17.23a.39.39,0,0,1-.09.17.33.33,0,0,1-.14.1.45.45,0,0,1-.2,0,.41.41,0,0,1-.19,0,.33.33,0,0,1-.14-.1.4.4,0,0,1-.1-.17,1,1,0,0,1,0-.25v-.4a.9.9,0,0,1,0-.25.52.52,0,0,1,.1-.18.45.45,0,0,1,.14-.1.58.58,0,0,1,.19,0,.64.64,0,0,1,.2,0,.45.45,0,0,1,.14.1.51.51,0,0,1,.09.18.62.62,0,0,1,0,.25V17A.66.66,0,0,1,17.64,17.23Zm-.05-.65a.53.53,0,0,0-.1-.36.32.32,0,0,0-.28-.12.35.35,0,0,0-.28.12.6.6,0,0,0-.09.36V17a.6.6,0,0,0,.09.36.36.36,0,0,0,.28.13.33.33,0,0,0,.28-.13.53.53,0,0,0,.1-.36Z" style="fill:#1a1718"/><path d="M18.76,17.23a.39.39,0,0,1-.09.17.31.31,0,0,1-.15.1.41.41,0,0,1-.19,0,.38.38,0,0,1-.19,0,.31.31,0,0,1-.15-.1.39.39,0,0,1-.09-.17.66.66,0,0,1,0-.25v-.4a.62.62,0,0,1,0-.25.51.51,0,0,1,.09-.18.4.4,0,0,1,.15-.1.54.54,0,0,1,.19,0,.58.58,0,0,1,.19,0,.4.4,0,0,1,.15.1.51.51,0,0,1,.09.18.9.9,0,0,1,0,.25V17A1,1,0,0,1,18.76,17.23Zm-.06-.65a.6.6,0,0,0-.09-.36.35.35,0,0,0-.28-.12.32.32,0,0,0-.28.12.53.53,0,0,0-.1.36V17a.53.53,0,0,0,.1.36.33.33,0,0,0,.28.13.36.36,0,0,0,.28-.13A.6.6,0,0,0,18.7,17Z" style="fill:#1a1718"/><path d="M19.5,22.61a.39.39,0,0,1-.09.17.31.31,0,0,1-.15.1.47.47,0,0,1-.38,0,.31.31,0,0,1-.15-.1.39.39,0,0,1-.09-.17,1,1,0,0,1,0-.26V22a.9.9,0,0,1,0-.25.44.44,0,0,1,.09-.18.4.4,0,0,1,.15-.1.62.62,0,0,1,.38,0,.4.4,0,0,1,.15.1.44.44,0,0,1,.09.18.9.9,0,0,1,0,.25v.39A1,1,0,0,1,19.5,22.61ZM19.44,22a.6.6,0,0,0-.09-.36.39.39,0,0,0-.56,0,.59.59,0,0,0-.1.36v.39a.59.59,0,0,0,.1.36.39.39,0,0,0,.56,0,.6.6,0,0,0,.09-.36Z" style="fill:#1a1718"/><path d="M76.81,50.68a.68.68,0,0,1-.77.77H68.18a.85.85,0,0,1-.77-.39,6.13,6.13,0,0,1-.52-.9L57.65,33h-.9c-.85,0-1.84,0-3-.1L51,32.77V50.16a1.24,1.24,0,0,1-.35.9,1.14,1.14,0,0,1-.87.39H43.38a1.22,1.22,0,0,1-.9-.39,1.24,1.24,0,0,1-.39-.9V5.84a1.62,1.62,0,0,1,.55-1.38,3.16,3.16,0,0,1,1.51-.55q2.52-.39,5.8-.61t6.83-.23a32.92,32.92,0,0,1,7.08.74,17.54,17.54,0,0,1,5.9,2.42,12.28,12.28,0,0,1,4.06,4.48,14.48,14.48,0,0,1,1.51,6.92v.58A13.74,13.74,0,0,1,73,26.58a13.91,13.91,0,0,1-6.39,4.77L76.68,50.16A.89.89,0,0,1,76.81,50.68Zm-10.43-33c0-2.45-.81-4.21-2.41-5.28s-4-1.61-7.22-1.61l-1.31,0-1.64.07-1.57.06A10.24,10.24,0,0,0,51,11V25.49l1.19,0,1.67.07,1.67.06,1.18,0c3.34,0,5.78-.53,7.32-1.61s2.31-3,2.31-5.86Z" style="fill:#1a1718"/><path d="M100,51.07a.33.33,0,0,1-.38.38h-3.9a.85.85,0,0,1-.3-.05,1,1,0,0,1-.29-.23l-1.29-1.36a10.5,10.5,0,0,1-3,1.41,12.27,12.27,0,0,1-3.64.51,16.18,16.18,0,0,1-3.55-.37,8.8,8.8,0,0,1-2.94-1.18A5.75,5.75,0,0,1,78,45v-.35A5.65,5.65,0,0,1,79.26,41a13.38,13.38,0,0,1,3.53-2.9l-.24-.28c-.74-.86-1.34-1.6-1.78-2.23a10.25,10.25,0,0,1-1-1.69,5.85,5.85,0,0,1-.43-1.36,6.89,6.89,0,0,1-.11-1.17V31a5.05,5.05,0,0,1,2-4.16c1.32-1.06,3.31-1.59,6-1.59a8.74,8.74,0,0,1,5.49,1.57,5.06,5.06,0,0,1,2,4.18v.31a5.67,5.67,0,0,1-.44,2.27,6.81,6.81,0,0,1-1.16,1.84A11.1,11.1,0,0,1,91.41,37a21.62,21.62,0,0,1-1.89,1.28l-.84.53,5.22,5.57a9.27,9.27,0,0,0,.7-2.33,16.08,16.08,0,0,0,.21-2.65V39a.78.78,0,0,1,.16-.49.5.5,0,0,1,.43-.21h2.54a.57.57,0,0,1,.46.21.79.79,0,0,1,.17.49v.42a16,16,0,0,1-.52,4.18,11.82,11.82,0,0,1-1.57,3.52l3.41,3.62A.45.45,0,0,1,100,51.07ZM85.37,40.79A5.9,5.9,0,0,0,83.3,42.6a4.07,4.07,0,0,0-.51,2.09V45a2.71,2.71,0,0,0,1.28,2.47,5.77,5.77,0,0,0,3.18.8A9.53,9.53,0,0,0,89.62,48a7,7,0,0,0,1.85-.77ZM90.53,31a2.17,2.17,0,0,0-.84-1.83,4.07,4.07,0,0,0-2.51-.64,5.33,5.33,0,0,0-2.8.63,2,2,0,0,0-1,1.84v.31a7.22,7.22,0,0,0,.05.82,3.23,3.23,0,0,0,.28.89,6.18,6.18,0,0,0,.73,1.13c.34.43.8,1,1.38,1.55l.31.32,1.05-.63c.65-.4,1.19-.75,1.62-1.06a6.55,6.55,0,0,0,1-.94,3,3,0,0,0,.56-1,3.83,3.83,0,0,0,.16-1.12Z" style="fill:#1a1718"/><path d="M132.85,46.91Q127.6,52,117.87,52c-1.16,0-2.37,0-3.64-.06s-2.49-.11-3.67-.19l-3.22-.26c-1-.09-1.68-.17-2.16-.26a1.74,1.74,0,0,1-1.67-2V5.84a2,2,0,0,1,.42-1.41,2,2,0,0,1,1.25-.58c.48-.09,1.2-.17,2.16-.26s2-.17,3.22-.26,2.41-.15,3.67-.19,2.48-.07,3.64-.07q9.73,0,15,5.06t5.25,14.65v9.47Q138.1,41.85,132.85,46.91Zm-3.7-24.1a17.44,17.44,0,0,0-.87-6,9.52,9.52,0,0,0-2.37-3.75,8.5,8.5,0,0,0-3.57-1.93,17.1,17.1,0,0,0-4.49-.55c-1.2,0-2.22,0-3.08.06l-2.31.13V44.3l2.31.13c.86,0,1.88.06,3.08.06a17.1,17.1,0,0,0,4.49-.55A8.39,8.39,0,0,0,125.91,42a9.55,9.55,0,0,0,2.37-3.74,17.5,17.5,0,0,0,.87-6Z" style="fill:#1a1718"/><path d="M14.83,47.54c0,.05,0,.08-.09.08h-.45l-.12,0a.38.38,0,0,1-.13-.08l-1.87-1.59a.33.33,0,0,1-.14-.27.33.33,0,0,1,.14-.26L14,43.81a.38.38,0,0,1,.13-.08l.12,0h.45c.06,0,.09,0,.09.08s0,.08-.08.13l-2,1.74,2,1.75A.19.19,0,0,1,14.83,47.54Z" style="fill:#fff"/><path d="M17.37,43a.07.07,0,0,1,0,0L15.6,48.55a.37.37,0,0,1,0,.11.11.11,0,0,1-.09.05h-.4A.12.12,0,0,1,15,48.6a.43.43,0,0,1,0-.05l1.77-5.47a.36.36,0,0,1,0-.11.11.11,0,0,1,.09,0h.4a.08.08,0,0,1,.08,0A.11.11,0,0,1,17.37,43Z" style="fill:#fff"/><path d="M23,45.66a.36.36,0,0,1-.14.27L21,47.52a.42.42,0,0,1-.24.1h-.45c-.07,0-.1,0-.1-.08a.19.19,0,0,1,.08-.13l2-1.75-2-1.74c0-.05-.08-.09-.08-.13s0-.08.1-.08h.45l.11,0a.38.38,0,0,1,.13.08l1.88,1.59A.36.36,0,0,1,23,45.66Z" style="fill:#fff"/><path d="M13.38,40.3a.51.51,0,0,1-.09.18.4.4,0,0,1-.15.1.54.54,0,0,1-.19,0,.58.58,0,0,1-.19,0,.36.36,0,0,1-.14-.1.52.52,0,0,1-.1-.18.9.9,0,0,1,0-.25v-.4a1,1,0,0,1,0-.25.4.4,0,0,1,.1-.17.38.38,0,0,1,.14-.11.58.58,0,0,1,.19,0,.54.54,0,0,1,.19,0,.42.42,0,0,1,.15.11.39.39,0,0,1,.09.17.66.66,0,0,1,0,.25v.4A.62.62,0,0,1,13.38,40.3Zm-.05-.65a.53.53,0,0,0-.1-.36.34.34,0,0,0-.28-.12.35.35,0,0,0-.28.12.6.6,0,0,0-.09.36v.4a.6.6,0,0,0,.09.36.35.35,0,0,0,.28.12.34.34,0,0,0,.28-.12.53.53,0,0,0,.1-.36Z" style="fill:#fff"/><path d="M16.06,40.3a.51.51,0,0,1-.09.18.4.4,0,0,1-.15.1.54.54,0,0,1-.19,0,.58.58,0,0,1-.19,0,.4.4,0,0,1-.15-.1.51.51,0,0,1-.09-.18.9.9,0,0,1,0-.25v-.4a1,1,0,0,1,0-.25.39.39,0,0,1,.09-.17.42.42,0,0,1,.15-.11.58.58,0,0,1,.19,0,.54.54,0,0,1,.19,0,.42.42,0,0,1,.15.11.39.39,0,0,1,.09.17,1,1,0,0,1,0,.25v.4A.9.9,0,0,1,16.06,40.3Zm0-.65a.59.59,0,0,0-.1-.36.39.39,0,0,0-.56,0,.59.59,0,0,0-.1.36v.4a.59.59,0,0,0,.1.36.39.39,0,0,0,.56,0,.59.59,0,0,0,.1-.36Z" style="fill:#fff"/><path d="M19.46,41a.39.39,0,0,1-.09.17.42.42,0,0,1-.15.11.54.54,0,0,1-.19,0,.58.58,0,0,1-.19,0,.38.38,0,0,1-.14-.11.4.4,0,0,1-.1-.17,1,1,0,0,1,0-.25v-.4a.9.9,0,0,1,0-.25.52.52,0,0,1,.1-.18.36.36,0,0,1,.14-.1.58.58,0,0,1,.19,0,.54.54,0,0,1,.19,0,.4.4,0,0,1,.15.1.51.51,0,0,1,.09.18.62.62,0,0,1,0,.25v.4A.66.66,0,0,1,19.46,41Zm-.05-.65a.53.53,0,0,0-.1-.36.34.34,0,0,0-.28-.12.35.35,0,0,0-.28.12.6.6,0,0,0-.09.36v.4a.6.6,0,0,0,.09.36.35.35,0,0,0,.28.12.34.34,0,0,0,.28-.12.53.53,0,0,0,.1-.36Z" style="fill:#fff"/><path d="M21.73,40.3a.51.51,0,0,1-.09.18.49.49,0,0,1-.15.1.58.58,0,0,1-.19,0,.54.54,0,0,1-.19,0,.4.4,0,0,1-.15-.1.51.51,0,0,1-.09-.18.62.62,0,0,1,0-.25v-.4a.66.66,0,0,1,0-.25.39.39,0,0,1,.09-.17.42.42,0,0,1,.15-.11.54.54,0,0,1,.19,0,.58.58,0,0,1,.19,0,.53.53,0,0,1,.15.11.39.39,0,0,1,.09.17,1,1,0,0,1,0,.25v.4A.9.9,0,0,1,21.73,40.3Zm-.06-.65a.6.6,0,0,0-.09-.36.35.35,0,0,0-.28-.12.32.32,0,0,0-.28.12.53.53,0,0,0-.1.36v.4a.53.53,0,0,0,.1.36.32.32,0,0,0,.28.12.35.35,0,0,0,.28-.12.6.6,0,0,0,.09-.36Z" style="fill:#fff"/><path d="M16.92,39.43h-.06l0,0V38l-.23,0h0v0h0a0,0,0,0,1,0,0h0l.28,0h0s0,0,0,0V39.4A0,0,0,0,1,16.92,39.43Z" style="fill:#fff"/><path d="M20.29,39.43h-.07V38l-.24,0h0s0,0,0,0v0h0s0,0,0,0h0l.28,0h0s0,0,0,0V39.4A0,0,0,0,1,20.29,39.43Z" style="fill:#fff"/><path d="M22.77,41h-.06a0,0,0,0,1,0,0V39.57l-.24,0h0v0h0s0,0,0,0h0l.28,0h0a0,0,0,0,1,0,0V41Z" style="fill:#fff"/><path d="M17.72,40.75l0,0h0l0,0s0,0,0,0V39.35l-.23,0h0s0,0,0,0h0l.28,0h0s0,0,0,0v1.42S17.73,40.74,17.72,40.75Z" style="fill:#fff"/><path d="M14.67,40.91a.39.39,0,0,1-.09.17.42.42,0,0,1-.15.11.54.54,0,0,1-.19,0,.58.58,0,0,1-.19,0,.38.38,0,0,1-.14-.11.4.4,0,0,1-.1-.17,1,1,0,0,1,0-.25v-.4a.9.9,0,0,1,0-.25.52.52,0,0,1,.1-.18.36.36,0,0,1,.14-.1.58.58,0,0,1,.19,0,.54.54,0,0,1,.19,0,.4.4,0,0,1,.15.1.51.51,0,0,1,.09.18.62.62,0,0,1,0,.25v.4A.66.66,0,0,1,14.67,40.91Zm-.05-.65a.53.53,0,0,0-.1-.36.34.34,0,0,0-.28-.12.35.35,0,0,0-.28.12.6.6,0,0,0-.09.36v.4A.6.6,0,0,0,14,41a.35.35,0,0,0,.28.12.34.34,0,0,0,.28-.12.53.53,0,0,0,.1-.36Z" style="fill:#fff"/></g></g></svg>