<svg xmlns="http://www.w3.org/2000/svg" viewBox="0 0 671.83 337.49"><title>R&amp;amp;Dvertical</title><g id="Layer_2" data-name="Layer 2"><g id="Layer_1-2" data-name="Layer 1"><path d="M71.88,81.51c.05,0-.25,2.4,7.65,10.31l.69.68v86.55L4.48,309a26.35,26.35,0,0,0-4,14.33c0,9.18,9.43,13.36,18.2,13.36H202.39c8.76,0,18.2-4.18,18.2-13.36a26,26,0,0,0-4-14.33l-.13-.21L140.87,179.05V92.5l.68-.68c8-8,7.6-10.39,7.59-10.42a8.06,8.06,0,0,0-1.5-.17,6.44,6.44,0,0,0-.75,0l-.41,0-.41-.1a11.16,11.16,0,0,0-2.73-.26,32.49,32.49,0,0,0-4.3.33l-.36,0-56.63,0a32.89,32.89,0,0,0-4.3-.33,11.26,11.26,0,0,0-2.74.26l-.4.1-.42,0a6.24,6.24,0,0,0-.74,0,3.13,3.13,0,0,0-1.57.28Z" style="fill:none;stroke:#15374a;stroke-miterlimit:10"/><path d="M62.35,227.79,16.08,304.54s-5,9.36-2.66,16.21,3.91,11.18,25.16,11.18H191s14,.42,16.63-10.63S206,305,197.65,291.81s-36.06-58.43-36.06-58.43S150,240,139,239.81s-28.24,2.66-38.16-.7S66.26,223.18,62.35,227.79Z" style="fill:#1a1718"/><path d="M123.63,64.06a7.24,7.24,0,1,0-7.24,7.23A7.24,7.24,0,0,0,123.63,64.06Z" style="fill:#1a1718"/><path d="M143.14,51.9a12.94,12.94,0,1,0,10.54-15A12.94,12.94,0,0,0,143.14,51.9Z" style="fill:#1a1718"/><g style="opacity:0.7000000000000001"><path d="M166,49.69s0-.25.05-.68a7.34,7.34,0,0,0,0-.8,5.83,5.83,0,0,0-.12-1,6.33,6.33,0,0,0-.29-1.2,10.55,10.55,0,0,0-.52-1.29,11.42,11.42,0,0,0-.78-1.27,13.74,13.74,0,0,0-1-1.18,13.74,13.74,0,0,0-1.18-1,11.42,11.42,0,0,0-1.27-.78A10.55,10.55,0,0,0,159.6,40a6.33,6.33,0,0,0-1.2-.29,5.73,5.73,0,0,0-1-.12,5.17,5.17,0,0,0-.79,0c-.44,0-.69.05-.69.05l.67.11a10.34,10.34,0,0,1,1.72.44,7.83,7.83,0,0,1,1.09.42c.39.14.75.39,1.16.58s.77.49,1.13.78a10.15,10.15,0,0,1,2,2,13.43,13.43,0,0,1,.78,1.13c.19.41.44.77.58,1.16a8.34,8.34,0,0,1,.42,1.09,9.16,9.16,0,0,1,.44,1.71C166,49.44,166,49.69,166,49.69Z" style="fill:#3f5f5f"/></g><path d="M152.09,10.56A9,9,0,1,0,159.44.13,9,9,0,0,0,152.09,10.56Z" style="fill:#1a1718"/><g style="opacity:0.7000000000000001"><path d="M168,9s0-.17,0-.48a5,5,0,0,0,0-.55,4,4,0,0,0-.08-.72,4.69,4.69,0,0,0-.21-.84,6.64,6.64,0,0,0-.36-.89,7.54,7.54,0,0,0-.54-.89,8.81,8.81,0,0,0-.69-.82,7.79,7.79,0,0,0-.83-.69,5.78,5.78,0,0,0-.88-.54,6.11,6.11,0,0,0-.9-.37,4.74,4.74,0,0,0-.83-.2A4,4,0,0,0,162,2a3.6,3.6,0,0,0-.56,0L161,2l.47.08a8,8,0,0,1,1.2.3,7.45,7.45,0,0,1,.76.3c.27.1.52.27.81.4s.53.34.78.55a6.5,6.5,0,0,1,.75.64,9.19,9.19,0,0,1,.65.75,7.9,7.9,0,0,1,.54.79,8.68,8.68,0,0,1,.41.8,6.12,6.12,0,0,1,.29.76,6.87,6.87,0,0,1,.31,1.2C168,8.85,168,9,168,9Z" style="fill:#3f5f5f"/></g><path d="M94.57,32.32a19.91,19.91,0,1,0,16.22-23A19.9,19.9,0,0,0,94.57,32.32Z" style="fill:#1a1718"/><g style="opacity:0.7000000000000001"><path d="M129.73,28.93s0-.39.07-1.06a7,7,0,0,0,0-1.21,7.92,7.92,0,0,0-.18-1.6,9.83,9.83,0,0,0-.45-1.84,16.1,16.1,0,0,0-.8-2,16.9,16.9,0,0,0-1.2-2,17.34,17.34,0,0,0-1.52-1.81A16.47,16.47,0,0,0,123.82,16a13.29,13.29,0,0,0-1.95-1.2,13.46,13.46,0,0,0-2-.8,10.75,10.75,0,0,0-1.84-.46,8.72,8.72,0,0,0-1.59-.17,7.16,7.16,0,0,0-1.22,0c-.68,0-1.06.08-1.06.08l1,.18a14.94,14.94,0,0,1,2.64.67,13.6,13.6,0,0,1,1.68.64c.59.22,1.15.6,1.77.9a18,18,0,0,1,1.74,1.2,16,16,0,0,1,1.65,1.43,18.45,18.45,0,0,1,1.43,1.64,19.43,19.43,0,0,1,1.2,1.75,19.69,19.69,0,0,1,.9,1.77,13.6,13.6,0,0,1,.64,1.68,14.52,14.52,0,0,1,.67,2.64C129.65,28.55,129.73,28.93,129.73,28.93Z" style="fill:#3f5f5f"/></g><path d="M315.57,316a31.76,31.76,0,0,1-7.7,12.41,29.77,29.77,0,0,1-11.77,6.94,49.29,49.29,0,0,1-15,2.16q-15,0-20.87-1a3.37,3.37,0,0,1-1.53-.89,2.08,2.08,0,0,1-.63-1.52V245a2.08,2.08,0,0,1,.63-1.52,3.37,3.37,0,0,1,1.53-.89q5.85-1,20.87-1a50.6,50.6,0,0,1,15,2.1,29.51,29.51,0,0,1,11.77,6.81,31.19,31.19,0,0,1,7.7,12.34q2.73,7.64,2.74,18.84V297.4A55.46,55.46,0,0,1,315.57,316Zm-2.86-34.36q0-10.19-2.42-16.93a27.69,27.69,0,0,0-6.68-10.82,23.89,23.89,0,0,0-10-5.72,44.46,44.46,0,0,0-12.47-1.66q-5.59,0-9.42.26t-8,.5V332q4.2.25,8,.38t9.42.13a43,43,0,0,0,12.47-1.72,24.36,24.36,0,0,0,10-5.79,27.61,27.61,0,0,0,6.68-10.82,50.3,50.3,0,0,0,2.42-16.8Z" style="fill:#1a1718"/><path d="M341,255.08a2.31,2.31,0,0,1-1.72.7h-.76a2.39,2.39,0,0,1-2.42-2.42V244a2.39,2.39,0,0,1,2.42-2.42h.76a2.39,2.39,0,0,1,2.42,2.42v9.41A2.31,2.31,0,0,1,341,255.08ZM341,336a2.31,2.31,0,0,1-1.72.7h-.76a2.33,2.33,0,0,1-1.72-.7,2.37,2.37,0,0,1-.7-1.72V270.8a2.39,2.39,0,0,1,2.42-2.42h.76a2.39,2.39,0,0,1,2.42,2.42v63.51A2.33,2.33,0,0,1,341,336Z" style="fill:#1a1718"/><path d="M408,270.29a4.65,4.65,0,0,1-.12,1.27l-16.68,57.91c-.93,3.4-2.14,5.58-3.63,6.56a9,9,0,0,1-5,1.46,9.73,9.73,0,0,1-5.09-1.46c-1.62-1-2.89-3.16-3.82-6.56L357,271.56a3.09,3.09,0,0,1-.13-1c0-1.45.68-2.17,2-2.17h1.28a2.21,2.21,0,0,1,1.27.45,3.31,3.31,0,0,1,1,1.84l16.29,57.4a8.6,8.6,0,0,0,1.84,3.76,3,3,0,0,0,2,.83,2.55,2.55,0,0,0,1.84-.83,9.9,9.9,0,0,0,1.72-3.76l16.29-57.4a3.31,3.31,0,0,1,1-1.84,2.19,2.19,0,0,1,1.27-.45h1.53C407.44,268.38,408,269,408,270.29Z" style="fill:#1a1718"/><path d="M428.08,255.08a2.33,2.33,0,0,1-1.72.7h-.76a2.39,2.39,0,0,1-2.42-2.42V244a2.39,2.39,0,0,1,2.42-2.42h.76a2.39,2.39,0,0,1,2.42,2.42v9.41A2.35,2.35,0,0,1,428.08,255.08Zm0,80.95a2.33,2.33,0,0,1-1.72.7h-.76a2.39,2.39,0,0,1-2.42-2.42V270.8a2.39,2.39,0,0,1,2.42-2.42h.76a2.39,2.39,0,0,1,2.42,2.42v63.51A2.37,2.37,0,0,1,428.08,336Z" style="fill:#1a1718"/><path d="M488.6,319.8a18.35,18.35,0,0,1-1.79,8.53A14.61,14.61,0,0,1,482,333.8a19.28,19.28,0,0,1-7,2.87,41.87,41.87,0,0,1-8.46.82c-1.45,0-3,0-4.65-.12s-3.31-.22-5-.39-3.25-.36-4.77-.57-2.89-.45-4.08-.7c-1.86-.42-2.8-1.1-2.8-2v-1.4c0-1.18.68-1.78,2-1.78h.76c3.06.51,6.28,1,9.68,1.4a72.57,72.57,0,0,0,9,.64,37.29,37.29,0,0,0,6.37-.51,13.59,13.59,0,0,0,5.15-2,9.79,9.79,0,0,0,3.44-3.95,14.43,14.43,0,0,0,1.21-6.3,10.32,10.32,0,0,0-.58-3.5,9.12,9.12,0,0,0-2.1-3.18,24.86,24.86,0,0,0-4.13-3.31q-2.61-1.72-6.69-3.88l-8.14-4.46q-3.57-1.91-6.43-3.75a25.42,25.42,0,0,1-4.83-4,15.58,15.58,0,0,1-3.06-4.64A14.56,14.56,0,0,1,446,283.4a15.22,15.22,0,0,1,1.65-7.44,14.07,14.07,0,0,1,4.33-4.84,17.2,17.2,0,0,1,6.17-2.61,34.29,34.29,0,0,1,7.32-.76c4.58,0,8.21.12,10.88.38s5.11.51,7.32.76q2.67.39,2.67,2.16v1a1.8,1.8,0,0,1-.63,1.59,2.83,2.83,0,0,1-1.66.45h-.38q-2.55-.25-7.44-.83a88.86,88.86,0,0,0-10.25-.57,39.79,39.79,0,0,0-5.66.38,12.83,12.83,0,0,0-4.58,1.53,7.72,7.72,0,0,0-3.06,3.24,12.16,12.16,0,0,0-1.08,5.54,9,9,0,0,0,3.24,7.06,55.2,55.2,0,0,0,9.1,6.18l8.53,4.71c2.63,1.44,5,2.82,7,4.13a27.51,27.51,0,0,1,5.09,4.14,15.43,15.43,0,0,1,3.06,4.58A14.31,14.31,0,0,1,488.6,319.8Z" style="fill:#1a1718"/><path d="M510,255.08a2.33,2.33,0,0,1-1.72.7h-.76a2.39,2.39,0,0,1-2.42-2.42V244a2.39,2.39,0,0,1,2.42-2.42h.76a2.39,2.39,0,0,1,2.42,2.42v9.41A2.31,2.31,0,0,1,510,255.08ZM510,336a2.33,2.33,0,0,1-1.72.7h-.76a2.39,2.39,0,0,1-2.42-2.42V270.8a2.39,2.39,0,0,1,2.42-2.42h.76a2.37,2.37,0,0,1,1.72.7,2.33,2.33,0,0,1,.7,1.72v63.51A2.33,2.33,0,0,1,510,336Z" style="fill:#1a1718"/><path d="M573.8,329.54q-6.56,7.95-19.66,7.95t-19.66-7.95q-6.57-7.95-6.56-22.47v-8.91q0-14.51,6.56-22.46t19.66-7.95q13.11,0,19.66,7.95t6.56,22.46v8.91Q580.36,321.59,573.8,329.54Zm1-31.38q0-11.7-4.71-18.58t-15.91-6.87q-11.21,0-15.91,6.87t-4.71,18.58v8.91q0,11.71,4.71,18.59t15.91,6.87q11.21,0,15.91-6.87t4.71-18.59Z" style="fill:#1a1718"/><path d="M644.06,336a2.33,2.33,0,0,1-1.72.7h-.89a2.14,2.14,0,0,1-1.66-.7,2.48,2.48,0,0,1-.63-1.72V292.06a27.2,27.2,0,0,0-1.34-9.17,15.59,15.59,0,0,0-3.69-6,13.35,13.35,0,0,0-5.47-3.25,23,23,0,0,0-6.69-1,37.41,37.41,0,0,0-10.05,1.46,63.42,63.42,0,0,0-10,3.76v56.38a2.37,2.37,0,0,1-.7,1.72,2.33,2.33,0,0,1-1.72.7h-.77A2.29,2.29,0,0,1,597,336a2.33,2.33,0,0,1-.7-1.72V270.93a2.71,2.71,0,0,1,.63-1.78,2.07,2.07,0,0,1,1.66-.77h1a2.07,2.07,0,0,1,1.65.77,2.72,2.72,0,0,1,.64,1.78v2a55.86,55.86,0,0,1,10.24-3.81,39.66,39.66,0,0,1,10.25-1.4,27.62,27.62,0,0,1,8.65,1.33,18.88,18.88,0,0,1,7.13,4.2,20,20,0,0,1,4.84,7.51,31.73,31.73,0,0,1,1.78,11.27v42.25A2.37,2.37,0,0,1,644.06,336Z" style="fill:#1a1718"/><path d="M114,230.63a3,3,0,0,1-.6,1.14,2.49,2.49,0,0,1-1,.67,3.52,3.52,0,0,1-1.25.21,3.47,3.47,0,0,1-1.24-.21,2.49,2.49,0,0,1-1-.67,3.17,3.17,0,0,1-.61-1.14,5.68,5.68,0,0,1-.21-1.64V226.4a5.68,5.68,0,0,1,.21-1.64,3.12,3.12,0,0,1,.61-1.13,2.49,2.49,0,0,1,1-.67,3.47,3.47,0,0,1,1.24-.21,3.52,3.52,0,0,1,1.25.21,2.49,2.49,0,0,1,1,.67,3,3,0,0,1,.6,1.13,5.68,5.68,0,0,1,.21,1.64V229A5.68,5.68,0,0,1,114,230.63Zm-.37-4.23a3.67,3.67,0,0,0-.62-2.34,2.51,2.51,0,0,0-3.64,0,3.67,3.67,0,0,0-.63,2.34V229a3.7,3.7,0,0,0,.63,2.35,2.49,2.49,0,0,0,3.64,0,3.7,3.7,0,0,0,.62-2.35Z" style="fill:#1a1718"/><path d="M134.44,226.66a3,3,0,0,1-.61,1.14,2.46,2.46,0,0,1-1,.67,3.83,3.83,0,0,1-2.5,0,2.46,2.46,0,0,1-.95-.67,3.1,3.1,0,0,1-.61-1.14,5.34,5.34,0,0,1-.22-1.64v-2.59a5.34,5.34,0,0,1,.22-1.64,3,3,0,0,1,.61-1.13,2.46,2.46,0,0,1,.95-.67,3.66,3.66,0,0,1,2.5,0,2.46,2.46,0,0,1,1,.67,2.85,2.85,0,0,1,.61,1.13,5.68,5.68,0,0,1,.21,1.64V225A5.68,5.68,0,0,1,134.44,226.66Zm-.37-4.23a3.74,3.74,0,0,0-.62-2.34,2.53,2.53,0,0,0-3.65,0,3.74,3.74,0,0,0-.62,2.34V225a3.77,3.77,0,0,0,.62,2.35,2.53,2.53,0,0,0,3.65,0,3.77,3.77,0,0,0,.62-2.35Z" style="fill:#1a1718"/><path d="M133.83,205.82a3.22,3.22,0,0,1-.61,1.15,2.43,2.43,0,0,1-.95.66,3.58,3.58,0,0,1-1.26.22,3.51,3.51,0,0,1-1.24-.22,2.43,2.43,0,0,1-1-.66,2.93,2.93,0,0,1-.61-1.15,5.34,5.34,0,0,1-.22-1.64v-2.59a5.27,5.27,0,0,1,.22-1.63,3,3,0,0,1,.61-1.14,2.46,2.46,0,0,1,1-.67,3.51,3.51,0,0,1,1.24-.21,3.58,3.58,0,0,1,1.26.21,2.46,2.46,0,0,1,.95.67,3.25,3.25,0,0,1,.61,1.14,6,6,0,0,1,.2,1.63v2.59A6.08,6.08,0,0,1,133.83,205.82Zm-.37-4.23a3.66,3.66,0,0,0-.63-2.33,2.18,2.18,0,0,0-1.82-.78,2.21,2.21,0,0,0-1.82.78,3.72,3.72,0,0,0-.62,2.33v2.59a3.74,3.74,0,0,0,.62,2.34,2.19,2.19,0,0,0,1.82.79,2.16,2.16,0,0,0,1.82-.79,3.67,3.67,0,0,0,.63-2.34Z" style="fill:#1a1718"/><path d="M96,200.74a.25.25,0,0,1-.18.08h0a.29.29,0,0,1-.19-.08.25.25,0,0,1-.08-.18v-8.94l-1.55.2h-.06a.22.22,0,0,1-.16,0,.19.19,0,0,1,0-.12v-.07a.21.21,0,0,1,.08-.19.75.75,0,0,1,.18-.07l1.83-.26h.07c.15,0,.23.08.23.26v9.24A.22.22,0,0,1,96,200.74Z" style="fill:#1a1718"/><path d="M107,198.88a3.09,3.09,0,0,1-.6,1.14,2.33,2.33,0,0,1-1,.66,3.37,3.37,0,0,1-1.26.22,3.3,3.3,0,0,1-1.24-.22,2.33,2.33,0,0,1-1-.66,3,3,0,0,1-.61-1.14,5.45,5.45,0,0,1-.22-1.65v-2.59a5.27,5.27,0,0,1,.22-1.63,3,3,0,0,1,.61-1.14,2.33,2.33,0,0,1,1-.66,3.3,3.3,0,0,1,1.24-.22,3.37,3.37,0,0,1,1.26.22,2.33,2.33,0,0,1,1,.66A3.09,3.09,0,0,1,107,193a5.61,5.61,0,0,1,.21,1.63v2.59A5.8,5.8,0,0,1,107,198.88Zm-.36-4.23a3.67,3.67,0,0,0-.63-2.34,2.51,2.51,0,0,0-3.64,0,3.67,3.67,0,0,0-.62,2.34v2.58a3.67,3.67,0,0,0,.62,2.34,2.49,2.49,0,0,0,3.64,0,3.67,3.67,0,0,0,.63-2.34Z" style="fill:#1a1718"/><path d="M124.25,178.91a2.82,2.82,0,0,1-.61,1.14,2.46,2.46,0,0,1-1,.67,3.52,3.52,0,0,1-1.25.21,3.56,3.56,0,0,1-1.25-.21,2.46,2.46,0,0,1-1-.67,3,3,0,0,1-.61-1.14,5.66,5.66,0,0,1-.22-1.64v-2.59a5.66,5.66,0,0,1,.22-1.64,3,3,0,0,1,.61-1.13,2.46,2.46,0,0,1,1-.67,3.56,3.56,0,0,1,1.25-.21,3.52,3.52,0,0,1,1.25.21,2.46,2.46,0,0,1,1,.67,2.85,2.85,0,0,1,.61,1.13,5.68,5.68,0,0,1,.21,1.64v2.59A5.68,5.68,0,0,1,124.25,178.91Zm-.37-4.23a3.74,3.74,0,0,0-.62-2.34,2.21,2.21,0,0,0-1.82-.78,2.18,2.18,0,0,0-1.82.78,3.67,3.67,0,0,0-.63,2.34v2.58a3.7,3.7,0,0,0,.63,2.35,2.19,2.19,0,0,0,1.82.79,2.21,2.21,0,0,0,1.82-.79,3.77,3.77,0,0,0,.62-2.35Z" style="fill:#1a1718"/><path d="M129.64,180.78a.25.25,0,0,1-.18.08h-.05a.26.26,0,0,1-.19-.08.29.29,0,0,1-.08-.19v-8.93l-1.55.19h-.06c-.08,0-.14,0-.16,0a.16.16,0,0,1,0-.12v-.06c0-.1,0-.16.08-.19a.75.75,0,0,1,.18-.08l1.83-.26h.06c.16,0,.24.09.24.26v9.24A.29.29,0,0,1,129.64,180.78Z" style="fill:#1a1718"/><path d="M100.94,158.65a3,3,0,0,1-.61,1.14,2.33,2.33,0,0,1-1,.66,3.31,3.31,0,0,1-1.25.22,3.26,3.26,0,0,1-1.24-.22,2.37,2.37,0,0,1-1-.66,3.25,3.25,0,0,1-.61-1.14A5.78,5.78,0,0,1,95.1,157v-2.58a5.61,5.61,0,0,1,.22-1.64,3.25,3.25,0,0,1,.61-1.14,2.37,2.37,0,0,1,1-.66,3.26,3.26,0,0,1,1.24-.22,3.31,3.31,0,0,1,1.25.22,2.33,2.33,0,0,1,1,.66,3,3,0,0,1,.61,1.14,5.64,5.64,0,0,1,.21,1.64V157A5.8,5.8,0,0,1,100.94,158.65Zm-.37-4.23a3.74,3.74,0,0,0-.62-2.34,2.21,2.21,0,0,0-1.82-.78,2.18,2.18,0,0,0-1.82.78,3.67,3.67,0,0,0-.63,2.34V157a3.72,3.72,0,0,0,.63,2.35,2.18,2.18,0,0,0,1.82.78,2.21,2.21,0,0,0,1.82-.78,3.79,3.79,0,0,0,.62-2.35Z" style="fill:#1a1718"/><path d="M105.56,160.51a.22.22,0,0,1-.18.08h0a.27.27,0,0,1-.27-.26v-8.94l-1.55.2h-.06a.22.22,0,0,1-.16-.05.19.19,0,0,1,0-.12v-.07a.21.21,0,0,1,.08-.19.75.75,0,0,1,.18-.07l1.83-.26h.07c.15,0,.23.09.23.26v9.24A.22.22,0,0,1,105.56,160.51Z" style="fill:#1a1718"/><path d="M133.83,126.86a3.22,3.22,0,0,1-.61,1.15,2.33,2.33,0,0,1-.95.66,3.37,3.37,0,0,1-1.26.22,3.3,3.3,0,0,1-1.24-.22,2.33,2.33,0,0,1-1-.66,2.93,2.93,0,0,1-.61-1.15,5.34,5.34,0,0,1-.22-1.64v-2.59a5.27,5.27,0,0,1,.22-1.63,3,3,0,0,1,.61-1.14,2.33,2.33,0,0,1,1-.66A3.3,3.3,0,0,1,131,119a3.37,3.37,0,0,1,1.26.22,2.33,2.33,0,0,1,.95.66,3.25,3.25,0,0,1,.61,1.14,6,6,0,0,1,.2,1.63v2.59A6.08,6.08,0,0,1,133.83,126.86Zm-.37-4.22a3.67,3.67,0,0,0-.63-2.34,2.18,2.18,0,0,0-1.82-.78,2.21,2.21,0,0,0-1.82.78,3.74,3.74,0,0,0-.62,2.34v2.58a3.74,3.74,0,0,0,.62,2.34,2.19,2.19,0,0,0,1.82.79,2.16,2.16,0,0,0,1.82-.79,3.67,3.67,0,0,0,.63-2.34Z" style="fill:#1a1718"/><path d="M92.54,130.24a3.09,3.09,0,0,1-.6,1.14,2.37,2.37,0,0,1-1,.66,3.31,3.31,0,0,1-1.25.22,3.26,3.26,0,0,1-1.24-.22,2.37,2.37,0,0,1-1-.66,3.25,3.25,0,0,1-.61-1.14,5.8,5.8,0,0,1-.21-1.65V126a5.61,5.61,0,0,1,.21-1.63,3.25,3.25,0,0,1,.61-1.14,2.37,2.37,0,0,1,1-.66,3.26,3.26,0,0,1,1.24-.22,3.31,3.31,0,0,1,1.25.22,2.37,2.37,0,0,1,1,.66,3.09,3.09,0,0,1,.6,1.14,5.61,5.61,0,0,1,.21,1.63v2.59A5.8,5.8,0,0,1,92.54,130.24ZM92.17,126a3.74,3.74,0,0,0-.62-2.34,2.51,2.51,0,0,0-3.64,0,3.67,3.67,0,0,0-.63,2.34v2.58a3.67,3.67,0,0,0,.63,2.34,2.49,2.49,0,0,0,3.64,0,3.74,3.74,0,0,0,.62-2.34Z" style="fill:#1a1718"/><path d="M99.66,130.24a3.09,3.09,0,0,1-.6,1.14,2.33,2.33,0,0,1-1,.66,3.37,3.37,0,0,1-1.26.22,3.3,3.3,0,0,1-1.24-.22,2.33,2.33,0,0,1-1-.66,3,3,0,0,1-.61-1.14,5.45,5.45,0,0,1-.22-1.65V126a5.27,5.27,0,0,1,.22-1.63,3,3,0,0,1,.61-1.14,2.33,2.33,0,0,1,1-.66,3.3,3.3,0,0,1,1.24-.22,3.37,3.37,0,0,1,1.26.22,2.33,2.33,0,0,1,1,.66,3.09,3.09,0,0,1,.6,1.14,5.61,5.61,0,0,1,.21,1.63v2.59A5.8,5.8,0,0,1,99.66,130.24ZM99.3,126a3.67,3.67,0,0,0-.63-2.34,2.51,2.51,0,0,0-3.64,0,3.74,3.74,0,0,0-.62,2.34v2.58a3.74,3.74,0,0,0,.62,2.34,2.49,2.49,0,0,0,3.64,0,3.67,3.67,0,0,0,.63-2.34Z" style="fill:#1a1718"/><path d="M112.16,112.19a3.22,3.22,0,0,1-.61,1.15,2.54,2.54,0,0,1-1,.66,3.58,3.58,0,0,1-1.26.22,3.51,3.51,0,0,1-1.24-.22,2.54,2.54,0,0,1-.95-.66,3.07,3.07,0,0,1-.61-1.15,5.34,5.34,0,0,1-.22-1.64V108a5.34,5.34,0,0,1,.22-1.64,3.05,3.05,0,0,1,.61-1.13,2.46,2.46,0,0,1,.95-.67,3.51,3.51,0,0,1,1.24-.21,3.58,3.58,0,0,1,1.26.21,2.46,2.46,0,0,1,1,.67,3.2,3.2,0,0,1,.61,1.13,6.05,6.05,0,0,1,.21,1.64v2.59A6.05,6.05,0,0,1,112.16,112.19Zm-.37-4.23a3.64,3.64,0,0,0-.63-2.33,2.18,2.18,0,0,0-1.82-.78,2.21,2.21,0,0,0-1.82.78,3.7,3.7,0,0,0-.62,2.33v2.58a3.75,3.75,0,0,0,.62,2.35,2.19,2.19,0,0,0,1.82.79,2.16,2.16,0,0,0,1.82-.79,3.68,3.68,0,0,0,.63-2.35Z" style="fill:#1a1718"/><path d="M119.41,112.19a3.06,3.06,0,0,1-.6,1.15,2.58,2.58,0,0,1-1,.66,3.52,3.52,0,0,1-1.25.22,3.47,3.47,0,0,1-1.24-.22,2.66,2.66,0,0,1-1-.66,3.22,3.22,0,0,1-.61-1.15,5.68,5.68,0,0,1-.21-1.64V108a5.68,5.68,0,0,1,.21-1.64,3.2,3.2,0,0,1,.61-1.13,2.57,2.57,0,0,1,1-.67,3.47,3.47,0,0,1,1.24-.21,3.52,3.52,0,0,1,1.25.21,2.49,2.49,0,0,1,1,.67,3,3,0,0,1,.6,1.13,5.68,5.68,0,0,1,.21,1.64v2.59A5.68,5.68,0,0,1,119.41,112.19ZM119,108a3.64,3.64,0,0,0-.62-2.33,2.51,2.51,0,0,0-3.64,0,3.64,3.64,0,0,0-.62,2.33v2.58a3.69,3.69,0,0,0,.62,2.35,2.49,2.49,0,0,0,3.64,0,3.69,3.69,0,0,0,.62-2.35Z" style="fill:#1a1718"/><path d="M124.25,147.23a3,3,0,0,1-.61,1.14,2.46,2.46,0,0,1-1,.67,3.52,3.52,0,0,1-1.25.21,3.56,3.56,0,0,1-1.25-.21,2.46,2.46,0,0,1-1-.67,3.1,3.1,0,0,1-.61-1.14,5.71,5.71,0,0,1-.22-1.64V143a5.66,5.66,0,0,1,.22-1.64,3.1,3.1,0,0,1,.61-1.14,2.43,2.43,0,0,1,1-.66,3.56,3.56,0,0,1,1.25-.22,3.52,3.52,0,0,1,1.25.22,2.43,2.43,0,0,1,1,.66,3,3,0,0,1,.61,1.14,5.68,5.68,0,0,1,.21,1.64v2.59A5.73,5.73,0,0,1,124.25,147.23Zm-.37-4.23a3.74,3.74,0,0,0-.62-2.34,2.21,2.21,0,0,0-1.82-.78,2.18,2.18,0,0,0-1.82.78A3.67,3.67,0,0,0,119,143v2.58a3.72,3.72,0,0,0,.63,2.35,2.18,2.18,0,0,0,1.82.78,2.21,2.21,0,0,0,1.82-.78,3.79,3.79,0,0,0,.62-2.35Z" style="fill:#1a1718"/><path d="M402.21,225.2q0,3.41-3.41,3.4H364.23a3.81,3.81,0,0,1-3.4-1.69,37.5,37.5,0,0,1-2.26-3.95l-40.65-75.4H314q-5.66,0-13-.43t-12.14-.71V223a5.69,5.69,0,0,1-1.55,3.95,5,5,0,0,1-3.83,1.69H255.13a5.81,5.81,0,0,1-5.67-5.66V28c0-2.83.81-4.86,2.41-6.09a13.89,13.89,0,0,1,6.66-2.41q11.06-1.7,25.51-2.69t30-1a144.29,144.29,0,0,1,31.17,3.26,77,77,0,0,1,25.93,10.62A53.72,53.72,0,0,1,389,49.37q6.66,12.33,6.66,30.46v2.55q0,22.68-10.43,36.84t-28.11,21l44.49,82.75A4.06,4.06,0,0,1,402.21,225.2ZM356.3,79.83q0-16.15-10.58-23.24T314,49.51c-1.51,0-3.44.05-5.79.14l-7.19.28-6.92.29q-3.24.15-5.22.42V114.4c1.13,0,2.87,0,5.22.14s4.8.2,7.34.29l7.34.28c2.35.1,4.09.14,5.22.14q22,0,32.17-7.08T356.3,82.38Z" style="fill:#1a1718"/><path d="M504.37,226.92a1.48,1.48,0,0,1-1.68,1.68H485.53a3.33,3.33,0,0,1-1.3-.22,4.76,4.76,0,0,1-1.31-1l-5.67-6a47.48,47.48,0,0,1-13.09,6.21,54.76,54.76,0,0,1-16,2.22,73.11,73.11,0,0,1-15.62-1.61A39.07,39.07,0,0,1,419.57,223a25.38,25.38,0,0,1-12-22.6v-1.53A25,25,0,0,1,413,182.56q5.44-6.66,15.55-12.79l-1.07-1.22q-4.9-5.67-7.81-9.81a44.63,44.63,0,0,1-4.37-7.43,25.63,25.63,0,0,1-1.91-6,30.09,30.09,0,0,1-.46-5.14v-1.38a22.31,22.31,0,0,1,8.73-18.31q8.73-7,26.2-7,15.32,0,24.13,6.9a22.16,22.16,0,0,1,8.81,18.38v1.38a24.85,24.85,0,0,1-1.92,10,30.45,30.45,0,0,1-5.13,8.12,47.8,47.8,0,0,1-7.28,6.74,95.82,95.82,0,0,1-8.35,5.67l-3.67,2.3,23,24.51a41.05,41.05,0,0,0,3.06-10.26,70.08,70.08,0,0,0,.92-11.65v-1.84a3.47,3.47,0,0,1,.69-2.14,2.27,2.27,0,0,1,1.92-.92h11.18a2.47,2.47,0,0,1,2,.92,3.25,3.25,0,0,1,.77,2.14v1.84a70.94,70.94,0,0,1-2.3,18.39,51.8,51.8,0,0,1-6.89,15.47l15,15.94A2.07,2.07,0,0,1,504.37,226.92Zm-64.5-45.2c-4.59,2.76-7.64,5.42-9.11,8a17.93,17.93,0,0,0-2.23,9.19v1.53q0,7.36,5.6,10.88c3.72,2.35,8.4,3.53,14,3.53a40.32,40.32,0,0,0,10.42-1.23,30.81,30.81,0,0,0,8.12-3.37Zm22.68-42.9a9.56,9.56,0,0,0-3.68-8q-3.67-2.84-11-2.83-7.81,0-12.33,2.75a8.92,8.92,0,0,0-4.52,8.12v1.38a26.56,26.56,0,0,0,.23,3.6,13.57,13.57,0,0,0,1.22,3.91,26.5,26.5,0,0,0,3.22,5q2.22,2.84,6,6.82l1.38,1.38,4.6-2.76c2.85-1.74,5.23-3.3,7.12-4.67a26.86,26.86,0,0,0,4.6-4.14,12.42,12.42,0,0,0,2.45-4.22,15.93,15.93,0,0,0,.69-4.9Z" style="fill:#1a1718"/><path d="M648.74,208.63q-23.1,22.25-65.89,22.24-7.65,0-16-.28t-16.15-.85q-7.8-.57-14.17-1.14c-4.25-.37-7.42-.75-9.49-1.13a9.22,9.22,0,0,1-5.53-2.55q-1.85-2-1.84-6.23V28q0-4.24,1.84-6.23A9.22,9.22,0,0,1,527,19.19c2.07-.38,5.24-.75,9.49-1.14s9-.75,14.17-1.13,10.58-.66,16.15-.85,10.91-.28,16-.28q42.79,0,65.89,22.24t23.09,64.47v41.66Q671.83,186.39,648.74,208.63Zm-16.3-106q0-15.9-3.81-26.26T618.19,59.88a36.85,36.85,0,0,0-15.67-8.52,76.36,76.36,0,0,0-19.76-2.42q-7.9,0-13.55.29t-10.16.56V197.15q4.51.28,10.16.57t13.55.28a76.37,76.37,0,0,0,19.76-2.41,36.85,36.85,0,0,0,15.67-8.52q6.63-6.1,10.44-16.47t3.81-26.26Z" style="fill:#1a1718"/><path d="M93.82,309.61c0,.34-.2.51-.61.51H90.27a2.33,2.33,0,0,1-.76-.13,2.47,2.47,0,0,1-.81-.53L76.47,299.11a2.09,2.09,0,0,1,0-3.45L88.7,285.31a2.64,2.64,0,0,1,.81-.53,2.33,2.33,0,0,1,.76-.13h2.94c.41,0,.61.17.61.51a1.23,1.23,0,0,1-.51.86L80,297.38l13.29,11.37A1.23,1.23,0,0,1,93.82,309.61Z" style="fill:#fff"/><path d="M110.35,280.24a.58.58,0,0,1,0,.3L98.84,316.2a2.41,2.41,0,0,1-.3.71.68.68,0,0,1-.61.31H95.34a.63.63,0,0,1-.53-.23.76.76,0,0,1-.18-.48.8.8,0,0,1,.05-.31l11.51-35.66a2.77,2.77,0,0,1,.28-.7.63.63,0,0,1,.59-.31h2.58a.65.65,0,0,1,.54.23A.8.8,0,0,1,110.35,280.24Z" style="fill:#fff"/><path d="M146.81,297.38a2.22,2.22,0,0,1-.92,1.73l-12.22,10.35a2.51,2.51,0,0,1-1.57.66h-2.94c-.41,0-.61-.17-.61-.51a1.25,1.25,0,0,1,.5-.86l13.29-11.37L129.05,286a1.25,1.25,0,0,1-.5-.86c0-.34.2-.51.61-.51h2.94a2.38,2.38,0,0,1,.76.13,2.64,2.64,0,0,1,.81.53l12.22,10.35A2.22,2.22,0,0,1,146.81,297.38Z" style="fill:#fff"/><path d="M84.41,262.46a2.82,2.82,0,0,1-.61,1.14,2.46,2.46,0,0,1-1,.67,3.52,3.52,0,0,1-1.25.22,3.56,3.56,0,0,1-1.25-.22,2.46,2.46,0,0,1-.95-.67,3,3,0,0,1-.61-1.14,5.66,5.66,0,0,1-.22-1.64v-2.59a5.66,5.66,0,0,1,.22-1.64,3,3,0,0,1,.61-1.13,2.46,2.46,0,0,1,.95-.67,3.56,3.56,0,0,1,1.25-.21,3.52,3.52,0,0,1,1.25.21,2.46,2.46,0,0,1,1,.67,2.85,2.85,0,0,1,.61,1.13,5.68,5.68,0,0,1,.21,1.64v2.59A5.68,5.68,0,0,1,84.41,262.46ZM84,258.23a3.75,3.75,0,0,0-.62-2.34,2.23,2.23,0,0,0-1.82-.77,2.2,2.2,0,0,0-1.82.77,3.69,3.69,0,0,0-.63,2.34v2.58a3.7,3.7,0,0,0,.63,2.35,2.19,2.19,0,0,0,1.82.79,2.21,2.21,0,0,0,1.82-.79,3.77,3.77,0,0,0,.62-2.35Z" style="fill:#fff"/><path d="M101.85,262.46a2.82,2.82,0,0,1-.61,1.14,2.46,2.46,0,0,1-.95.67,3.66,3.66,0,0,1-2.5,0,2.46,2.46,0,0,1-1-.67,3,3,0,0,1-.61-1.14,5.34,5.34,0,0,1-.22-1.64v-2.59a5.34,5.34,0,0,1,.22-1.64,3,3,0,0,1,.61-1.13,2.46,2.46,0,0,1,1-.67,3.83,3.83,0,0,1,2.5,0,2.46,2.46,0,0,1,.95.67,2.85,2.85,0,0,1,.61,1.13,5.68,5.68,0,0,1,.21,1.64v2.59A5.68,5.68,0,0,1,101.85,262.46Zm-.37-4.23a3.75,3.75,0,0,0-.62-2.34,2.55,2.55,0,0,0-3.65,0,3.75,3.75,0,0,0-.62,2.34v2.58a3.77,3.77,0,0,0,.62,2.35,2.5,2.5,0,0,0,3.65,0,3.77,3.77,0,0,0,.62-2.35Z" style="fill:#fff"/><path d="M124,267.14a3.1,3.1,0,0,1-.61,1.14,2.33,2.33,0,0,1-1,.66,3.33,3.33,0,0,1-1.26.22,3.3,3.3,0,0,1-1.24-.22,2.33,2.33,0,0,1-1-.66,3.1,3.1,0,0,1-.61-1.14,5.45,5.45,0,0,1-.22-1.65V262.9a5.27,5.27,0,0,1,.22-1.63,3.1,3.1,0,0,1,.61-1.14,2.33,2.33,0,0,1,1-.66,3.3,3.3,0,0,1,1.24-.22,3.33,3.33,0,0,1,1.26.22,2.33,2.33,0,0,1,1,.66,3.1,3.1,0,0,1,.61,1.14,5.61,5.61,0,0,1,.21,1.63v2.59A5.8,5.8,0,0,1,124,267.14Zm-.37-4.23a3.67,3.67,0,0,0-.63-2.34,2.18,2.18,0,0,0-1.82-.78,2.21,2.21,0,0,0-1.82.78,3.74,3.74,0,0,0-.62,2.34v2.58a3.79,3.79,0,0,0,.62,2.35,2.21,2.21,0,0,0,1.82.78,2.18,2.18,0,0,0,1.82-.78,3.72,3.72,0,0,0,.63-2.35Z" style="fill:#fff"/><path d="M138.75,262.46a2.82,2.82,0,0,1-.61,1.14,2.46,2.46,0,0,1-.95.67,3.52,3.52,0,0,1-1.25.22,3.56,3.56,0,0,1-1.25-.22,2.46,2.46,0,0,1-.95-.67,3,3,0,0,1-.61-1.14,5.66,5.66,0,0,1-.22-1.64v-2.59a5.66,5.66,0,0,1,.22-1.64,3,3,0,0,1,.61-1.13,2.46,2.46,0,0,1,.95-.67,3.56,3.56,0,0,1,1.25-.21,3.52,3.52,0,0,1,1.25.21,2.46,2.46,0,0,1,.95.67,2.85,2.85,0,0,1,.61,1.13,5.68,5.68,0,0,1,.21,1.64v2.59A5.68,5.68,0,0,1,138.75,262.46Zm-.37-4.23a3.75,3.75,0,0,0-.62-2.34,2.23,2.23,0,0,0-1.82-.77,2.2,2.2,0,0,0-1.82.77,3.69,3.69,0,0,0-.63,2.34v2.58a3.7,3.7,0,0,0,.63,2.35,2.19,2.19,0,0,0,1.82.79,2.21,2.21,0,0,0,1.82-.79,3.77,3.77,0,0,0,.62-2.35Z" style="fill:#fff"/><path d="M107.44,256.78a.25.25,0,0,1-.18.08h-.06a.25.25,0,0,1-.18-.08.29.29,0,0,1-.08-.19v-8.93l-1.55.19h-.06c-.08,0-.14,0-.16,0a.16.16,0,0,1,0-.12v-.06c0-.1,0-.16.08-.19a.48.48,0,0,1,.18-.07l1.83-.27h.06q.24,0,.24.27v9.23A.29.29,0,0,1,107.44,256.78Z" style="fill:#fff"/><path d="M129.37,256.78a.25.25,0,0,1-.18.08h-.05a.29.29,0,0,1-.19-.08.28.28,0,0,1-.07-.19v-8.93l-1.56.19h-.06c-.08,0-.13,0-.16,0a.21.21,0,0,1,0-.12v-.06a.2.2,0,0,1,.08-.19.48.48,0,0,1,.18-.07l1.83-.27h.07c.15,0,.23.09.23.27v9.23A.25.25,0,0,1,129.37,256.78Z" style="fill:#fff"/><path d="M145.56,266.84a.25.25,0,0,1-.19.08h-.05a.27.27,0,0,1-.26-.26v-8.94l-1.55.2h-.07a.22.22,0,0,1-.16-.05.28.28,0,0,1,0-.12v-.06a.2.2,0,0,1,.08-.19.64.64,0,0,1,.19-.08l1.82-.26h.07c.16,0,.24.09.24.26v9.24A.25.25,0,0,1,145.56,266.84Z" style="fill:#fff"/><path d="M112.66,265.41a.29.29,0,0,1-.19.08h0a.29.29,0,0,1-.19-.08.28.28,0,0,1-.07-.19v-8.93l-1.56.19h-.06c-.08,0-.13,0-.16-.05a.21.21,0,0,1,0-.12v-.06a.2.2,0,0,1,.08-.19.48.48,0,0,1,.18-.07l1.83-.27h.07c.16,0,.23.09.23.27v9.23A.28.28,0,0,1,112.66,265.41Z" style="fill:#fff"/><path d="M92.8,266.42a3.09,3.09,0,0,1-.6,1.14,2.33,2.33,0,0,1-1,.66,3.37,3.37,0,0,1-1.26.22,3.3,3.3,0,0,1-1.24-.22,2.33,2.33,0,0,1-1-.66,3,3,0,0,1-.61-1.14,5.4,5.4,0,0,1-.22-1.65v-2.58a5.29,5.29,0,0,1,.22-1.64,3,3,0,0,1,.61-1.14,2.43,2.43,0,0,1,1-.66,3.3,3.3,0,0,1,1.24-.22,3.37,3.37,0,0,1,1.26.22,2.43,2.43,0,0,1,1,.66,3.09,3.09,0,0,1,.6,1.14,5.64,5.64,0,0,1,.21,1.64v2.58A5.76,5.76,0,0,1,92.8,266.42Zm-.36-4.23a3.67,3.67,0,0,0-.63-2.34,2.51,2.51,0,0,0-3.64,0,3.74,3.74,0,0,0-.62,2.34v2.58a3.79,3.79,0,0,0,.62,2.35,2.51,2.51,0,0,0,3.64,0,3.72,3.72,0,0,0,.63-2.35Z" style="fill:#fff"/></g></g></svg>